%TF.GenerationSoftware,KiCad,Pcbnew,7.0.7*%
%TF.CreationDate,2024-11-29T17:50:20-06:00*%
%TF.ProjectId,DAQ Rev 2,44415120-5265-4762-9032-2e6b69636164,rev?*%
%TF.SameCoordinates,Original*%
%TF.FileFunction,Copper,L1,Top*%
%TF.FilePolarity,Positive*%
%FSLAX46Y46*%
G04 Gerber Fmt 4.6, Leading zero omitted, Abs format (unit mm)*
G04 Created by KiCad (PCBNEW 7.0.7) date 2024-11-29 17:50:20*
%MOMM*%
%LPD*%
G01*
G04 APERTURE LIST*
G04 Aperture macros list*
%AMRoundRect*
0 Rectangle with rounded corners*
0 $1 Rounding radius*
0 $2 $3 $4 $5 $6 $7 $8 $9 X,Y pos of 4 corners*
0 Add a 4 corners polygon primitive as box body*
4,1,4,$2,$3,$4,$5,$6,$7,$8,$9,$2,$3,0*
0 Add four circle primitives for the rounded corners*
1,1,$1+$1,$2,$3*
1,1,$1+$1,$4,$5*
1,1,$1+$1,$6,$7*
1,1,$1+$1,$8,$9*
0 Add four rect primitives between the rounded corners*
20,1,$1+$1,$2,$3,$4,$5,0*
20,1,$1+$1,$4,$5,$6,$7,0*
20,1,$1+$1,$6,$7,$8,$9,0*
20,1,$1+$1,$8,$9,$2,$3,0*%
G04 Aperture macros list end*
%TA.AperFunction,ComponentPad*%
%ADD10C,5.600000*%
%TD*%
%TA.AperFunction,ComponentPad*%
%ADD11R,1.600000X1.600000*%
%TD*%
%TA.AperFunction,ComponentPad*%
%ADD12O,1.600000X1.600000*%
%TD*%
%TA.AperFunction,ComponentPad*%
%ADD13R,1.700000X1.700000*%
%TD*%
%TA.AperFunction,ComponentPad*%
%ADD14O,1.700000X1.700000*%
%TD*%
%TA.AperFunction,SMDPad,CuDef*%
%ADD15RoundRect,0.250000X0.412500X0.650000X-0.412500X0.650000X-0.412500X-0.650000X0.412500X-0.650000X0*%
%TD*%
%TA.AperFunction,SMDPad,CuDef*%
%ADD16R,0.533400X1.460500*%
%TD*%
%TA.AperFunction,ComponentPad*%
%ADD17C,2.000000*%
%TD*%
%TA.AperFunction,ComponentPad*%
%ADD18R,1.130000X1.130000*%
%TD*%
%TA.AperFunction,ComponentPad*%
%ADD19C,1.130000*%
%TD*%
%TA.AperFunction,ComponentPad*%
%ADD20R,1.498600X1.498600*%
%TD*%
%TA.AperFunction,ComponentPad*%
%ADD21C,1.498600*%
%TD*%
%TA.AperFunction,SMDPad,CuDef*%
%ADD22R,1.143000X0.812800*%
%TD*%
%TA.AperFunction,SMDPad,CuDef*%
%ADD23R,1.041400X1.244600*%
%TD*%
%TA.AperFunction,SMDPad,CuDef*%
%ADD24R,1.397000X1.600200*%
%TD*%
%TA.AperFunction,SMDPad,CuDef*%
%ADD25R,1.780600X1.030600*%
%TD*%
%TA.AperFunction,SMDPad,CuDef*%
%ADD26R,1.397000X1.955800*%
%TD*%
%TA.AperFunction,ComponentPad*%
%ADD27C,1.440000*%
%TD*%
%TA.AperFunction,ComponentPad*%
%ADD28R,2.600000X2.600000*%
%TD*%
%TA.AperFunction,ComponentPad*%
%ADD29C,2.600000*%
%TD*%
%TA.AperFunction,ComponentPad*%
%ADD30R,2.600000X1.800000*%
%TD*%
%TA.AperFunction,ComponentPad*%
%ADD31O,2.600000X1.800000*%
%TD*%
%TA.AperFunction,SMDPad,CuDef*%
%ADD32R,1.200000X3.500000*%
%TD*%
%TA.AperFunction,SMDPad,CuDef*%
%ADD33RoundRect,0.250000X-0.412500X-0.650000X0.412500X-0.650000X0.412500X0.650000X-0.412500X0.650000X0*%
%TD*%
%TA.AperFunction,ConnectorPad*%
%ADD34R,3.200000X0.700000*%
%TD*%
%TA.AperFunction,ConnectorPad*%
%ADD35R,4.300000X0.700000*%
%TD*%
%TA.AperFunction,ViaPad*%
%ADD36C,1.000000*%
%TD*%
%TA.AperFunction,Conductor*%
%ADD37C,0.500000*%
%TD*%
%TA.AperFunction,Conductor*%
%ADD38C,2.000000*%
%TD*%
%TA.AperFunction,Conductor*%
%ADD39C,0.750000*%
%TD*%
G04 APERTURE END LIST*
D10*
%TO.P,H1,1*%
%TO.N,N/C*%
X127600000Y-44800000D03*
%TD*%
%TO.P,H2,1*%
%TO.N,N/C*%
X187600000Y-44800000D03*
%TD*%
%TO.P,H3,1*%
%TO.N,N/C*%
X127600000Y-134800000D03*
%TD*%
%TO.P,H4,1*%
%TO.N,N/C*%
X187600000Y-134800000D03*
%TD*%
D11*
%TO.P,A1,1,D1/TX*%
%TO.N,/E*%
X135000000Y-100000000D03*
D12*
%TO.P,A1,2,D0/RX*%
%TO.N,/RS*%
X135000000Y-102540000D03*
%TO.P,A1,3,~{RESET}*%
%TO.N,unconnected-(A1-~{RESET}-Pad3)*%
X135000000Y-105080000D03*
%TO.P,A1,4,GND*%
%TO.N,GND*%
X135000000Y-107620000D03*
%TO.P,A1,5,D2*%
%TO.N,/CAN_CS*%
X135000000Y-110160000D03*
%TO.P,A1,6,D3*%
%TO.N,/INT*%
X135000000Y-112700000D03*
%TO.P,A1,7,D4*%
%TO.N,/SYNC*%
X135000000Y-115240000D03*
%TO.P,A1,8,D5*%
%TO.N,/DB4*%
X135000000Y-117780000D03*
%TO.P,A1,9,D6*%
%TO.N,/DB5*%
X135000000Y-120320000D03*
%TO.P,A1,10,D7*%
%TO.N,/DB6*%
X135000000Y-122860000D03*
%TO.P,A1,11,D8*%
%TO.N,/DB7*%
X135000000Y-125400000D03*
%TO.P,A1,12,D9*%
%TO.N,/D9*%
X135000000Y-127940000D03*
%TO.P,A1,13,D10*%
%TO.N,/SS*%
X135000000Y-130480000D03*
%TO.P,A1,14,D11*%
%TO.N,/MOSI*%
X135000000Y-133020000D03*
%TO.P,A1,15,D12*%
%TO.N,/MISO*%
X135000000Y-135560000D03*
%TO.P,A1,16,D13*%
%TO.N,/SCK*%
X150240000Y-135560000D03*
%TO.P,A1,17,3V3*%
%TO.N,+3.3V*%
X150240000Y-133020000D03*
%TO.P,A1,18,AREF*%
%TO.N,unconnected-(A1-AREF-Pad18)*%
X150240000Y-130480000D03*
%TO.P,A1,19,A0*%
%TO.N,unconnected-(A1-A0-Pad19)*%
X150240000Y-127940000D03*
%TO.P,A1,20,A1*%
%TO.N,/Sw 1*%
X150240000Y-125400000D03*
%TO.P,A1,21,A2*%
%TO.N,/Sw 2*%
X150240000Y-122860000D03*
%TO.P,A1,22,A3*%
%TO.N,unconnected-(A1-A3-Pad22)*%
X150240000Y-120320000D03*
%TO.P,A1,23,A4*%
%TO.N,/I2C_DAT*%
X150240000Y-117780000D03*
%TO.P,A1,24,A5*%
%TO.N,/I2C_CLK*%
X150240000Y-115240000D03*
%TO.P,A1,25,A6*%
%TO.N,/Conn_1*%
X150240000Y-112700000D03*
%TO.P,A1,26,A7*%
%TO.N,/Conn_2*%
X150240000Y-110160000D03*
%TO.P,A1,27,+5V*%
%TO.N,+5V*%
X150240000Y-107620000D03*
%TO.P,A1,28,~{RESET}*%
%TO.N,unconnected-(A1-~{RESET}-Pad28)*%
X150240000Y-105080000D03*
%TO.P,A1,29,GND*%
%TO.N,GND*%
X150240000Y-102540000D03*
%TO.P,A1,30,VIN*%
%TO.N,+5V*%
X150240000Y-100000000D03*
%TD*%
D13*
%TO.P,J5,1,Pin_1*%
%TO.N,Net-(J5-Pin_1)*%
X170600000Y-101859000D03*
D14*
%TO.P,J5,2,Pin_2*%
%TO.N,/Conn_1*%
X173140000Y-101859000D03*
%TO.P,J5,3,Pin_3*%
%TO.N,Net-(J5-Pin_3)*%
X170600000Y-104399000D03*
%TO.P,J5,4,Pin_4*%
%TO.N,/Conn_1*%
X173140000Y-104399000D03*
%TO.P,J5,5,Pin_5*%
%TO.N,Net-(J5-Pin_5)*%
X170600000Y-106939000D03*
%TO.P,J5,6,Pin_6*%
%TO.N,/Conn_1*%
X173140000Y-106939000D03*
%TO.P,J5,7,Pin_7*%
%TO.N,Net-(J5-Pin_7)*%
X170600000Y-109479000D03*
%TO.P,J5,8,Pin_8*%
%TO.N,/Conn_1*%
X173140000Y-109479000D03*
%TO.P,J5,9,Pin_9*%
%TO.N,Net-(J5-Pin_9)*%
X170600000Y-112019000D03*
%TO.P,J5,10,Pin_10*%
%TO.N,/Conn_1*%
X173140000Y-112019000D03*
%TD*%
D15*
%TO.P,C7,1*%
%TO.N,GND*%
X164122500Y-75692000D03*
%TO.P,C7,2*%
%TO.N,Net-(C7-Pad2)*%
X160997500Y-75692000D03*
%TD*%
D16*
%TO.P,U7,1,32KHZ*%
%TO.N,unconnected-(U7-32KHZ-Pad1)*%
X183261000Y-61791850D03*
%TO.P,U7,2,VCC*%
%TO.N,+5V*%
X181991000Y-61791850D03*
%TO.P,U7,3,\u002AINT/SQW*%
%TO.N,unconnected-(U7-\u002AINT{slash}SQW-Pad3)*%
X180721000Y-61791850D03*
%TO.P,U7,4,\u002ARST*%
%TO.N,unconnected-(U7-\u002ARST-Pad4)*%
X179451000Y-61791850D03*
%TO.P,U7,5,GND*%
%TO.N,GND*%
X179451000Y-67240150D03*
%TO.P,U7,6,VBAT*%
%TO.N,Net-(BT2-+)*%
X180721000Y-67240150D03*
%TO.P,U7,7,SDA*%
%TO.N,/I2C_DAT*%
X181991000Y-67240150D03*
%TO.P,U7,8,SCL*%
%TO.N,/I2C_CLK*%
X183261000Y-67240150D03*
%TD*%
D13*
%TO.P,Pmod1,1,CS*%
%TO.N,/D9*%
X137541000Y-89154000D03*
D14*
%TO.P,Pmod1,2,MOSI*%
%TO.N,/MOSI*%
X140081000Y-89154000D03*
%TO.P,Pmod1,3,MISO*%
%TO.N,/MISO*%
X142621000Y-89154000D03*
%TO.P,Pmod1,4,SCK*%
%TO.N,/SCK*%
X145161000Y-89154000D03*
%TO.P,Pmod1,5,GND*%
%TO.N,GND*%
X147701000Y-89154000D03*
%TO.P,Pmod1,6,VCC*%
%TO.N,+5V*%
X150241000Y-89154000D03*
%TD*%
D17*
%TO.P,SW2,1,1*%
%TO.N,/Sw 2*%
X130758000Y-54066000D03*
X124258000Y-54066000D03*
%TO.P,SW2,2,2*%
%TO.N,+5V*%
X130758000Y-49566000D03*
X124258000Y-49566000D03*
%TD*%
D18*
%TO.P,U1,1,VCC*%
%TO.N,+3.3V*%
X173736000Y-116332000D03*
D19*
%TO.P,U1,2,1Y*%
%TO.N,/SS_3.3*%
X171196000Y-116332000D03*
%TO.P,U1,3,1A*%
%TO.N,/SS*%
X168656000Y-116332000D03*
%TO.P,U1,4,2Y*%
%TO.N,/MOSI_3.3*%
X166116000Y-116332000D03*
%TO.P,U1,5,2A*%
%TO.N,/MOSI*%
X163576000Y-116332000D03*
%TO.P,U1,6,3Y*%
%TO.N,/SCK_3.3*%
X161036000Y-116332000D03*
%TO.P,U1,7,3A*%
%TO.N,/SCK*%
X158496000Y-116332000D03*
%TO.P,U1,8,GND*%
%TO.N,GND*%
X155956000Y-116332000D03*
%TO.P,U1,9,4A*%
%TO.N,/MISO_3.3*%
X155956000Y-124272000D03*
%TO.P,U1,10,4Y*%
%TO.N,/MISO*%
X158496000Y-124272000D03*
%TO.P,U1,11,5A*%
%TO.N,unconnected-(U1-5A-Pad11)*%
X161036000Y-124272000D03*
%TO.P,U1,12,5Y*%
%TO.N,unconnected-(U1-5Y-Pad12)*%
X163576000Y-124272000D03*
%TO.P,U1,13*%
%TO.N,N/C*%
X166116000Y-124272000D03*
%TO.P,U1,14,6A*%
%TO.N,unconnected-(U1-6A-Pad14)*%
X168656000Y-124272000D03*
%TO.P,U1,15,6Y*%
%TO.N,unconnected-(U1-6Y-Pad15)*%
X171196000Y-124272000D03*
%TO.P,U1,16*%
%TO.N,N/C*%
X173736000Y-124272000D03*
%TD*%
D20*
%TO.P,U2,1,TXD*%
%TO.N,/CANTX*%
X168402000Y-61214000D03*
D21*
%TO.P,U2,2,VSS*%
%TO.N,GND*%
X168402000Y-63754000D03*
%TO.P,U2,3,VDD*%
%TO.N,+5V*%
X168402000Y-66294000D03*
%TO.P,U2,4,RXD*%
%TO.N,/CANRX*%
X168402000Y-68834000D03*
%TO.P,U2,5,SPLIT*%
%TO.N,unconnected-(U2-SPLIT-Pad5)*%
X176022000Y-68834000D03*
%TO.P,U2,6,CANL*%
%TO.N,/CANL*%
X176022000Y-66294000D03*
%TO.P,U2,7,CANH*%
%TO.N,/CANH*%
X176022000Y-63754000D03*
%TO.P,U2,8,STBY*%
%TO.N,Net-(U2-STBY)*%
X176022000Y-61214000D03*
%TD*%
D22*
%TO.P,J2,1,DAT2*%
%TO.N,unconnected-(J2-DAT2-Pad1)*%
X189792000Y-120745001D03*
%TO.P,J2,2,DAT3/CD*%
%TO.N,/SS_3.3*%
X189792000Y-121845001D03*
%TO.P,J2,3,CMD*%
%TO.N,/MOSI_3.3*%
X189792000Y-122945002D03*
%TO.P,J2,4,VDD*%
%TO.N,+3.3V*%
X189792000Y-124045002D03*
%TO.P,J2,5,CLK*%
%TO.N,/SCK_3.3*%
X189792000Y-125145002D03*
%TO.P,J2,6,VSS*%
%TO.N,GND*%
X189792000Y-126245003D03*
%TO.P,J2,7,DAT0*%
%TO.N,/MISO_3.3*%
X189792000Y-127345000D03*
%TO.P,J2,8,DAT1*%
%TO.N,unconnected-(J2-DAT1-Pad8)*%
X189792000Y-128445001D03*
D23*
%TO.P,J2,9,DET_B*%
%TO.N,unconnected-(J2-DET_B-Pad9)*%
X183642000Y-118110000D03*
%TO.P,J2,10,DET_A*%
%TO.N,unconnected-(J2-DET_A-Pad10)*%
X179942000Y-118110000D03*
D24*
%TO.P,J2,11,SHIELD*%
%TO.N,GND*%
X189666999Y-118285001D03*
D25*
%TO.P,J2,12*%
%TO.N,N/C*%
X189478800Y-129699301D03*
D26*
%TO.P,J2,13*%
X178967000Y-127579991D03*
%TO.P,J2,14*%
X178967000Y-121609990D03*
%TD*%
D27*
%TO.P,RV1,1,1*%
%TO.N,+5V*%
X176784000Y-41910000D03*
%TO.P,RV1,2,2*%
%TO.N,Net-(U4-VO)*%
X174244000Y-41910000D03*
%TO.P,RV1,3,3*%
%TO.N,GND*%
X171704000Y-41910000D03*
%TD*%
D28*
%TO.P,J4,1,Pin_1*%
%TO.N,GND*%
X169966000Y-133655000D03*
D29*
%TO.P,J4,2,Pin_2*%
%TO.N,/Conn_2*%
X174966000Y-133655000D03*
%TD*%
D20*
%TO.P,U6,1*%
%TO.N,/CANTX*%
X156972000Y-45212000D03*
D21*
%TO.P,U6,2*%
%TO.N,/CANRX*%
X156972000Y-47752000D03*
%TO.P,U6,3*%
%TO.N,unconnected-(U6-Pad3)*%
X156972000Y-50292000D03*
%TO.P,U6,4*%
%TO.N,unconnected-(U6-Pad4)*%
X156972000Y-52832000D03*
%TO.P,U6,5*%
%TO.N,unconnected-(U6-Pad5)*%
X156972000Y-55372000D03*
%TO.P,U6,6*%
%TO.N,unconnected-(U6-Pad6)*%
X156972000Y-57912000D03*
%TO.P,U6,7*%
%TO.N,Net-(C7-Pad2)*%
X156972000Y-60452000D03*
%TO.P,U6,8*%
%TO.N,Net-(C5-Pad1)*%
X156972000Y-62992000D03*
%TO.P,U6,9*%
%TO.N,GND*%
X156972000Y-65532000D03*
%TO.P,U6,10*%
%TO.N,unconnected-(U6-Pad10)*%
X164592000Y-65532000D03*
%TO.P,U6,11*%
%TO.N,unconnected-(U6-Pad11)*%
X164592000Y-62992000D03*
%TO.P,U6,12*%
%TO.N,/INT*%
X164592000Y-60452000D03*
%TO.P,U6,13*%
%TO.N,/SCK*%
X164592000Y-57912000D03*
%TO.P,U6,14*%
%TO.N,/MOSI*%
X164592000Y-55372000D03*
%TO.P,U6,15*%
%TO.N,/MISO*%
X164592000Y-52832000D03*
%TO.P,U6,16*%
%TO.N,/CAN_CS*%
X164592000Y-50292000D03*
%TO.P,U6,17*%
%TO.N,Net-(R16-Pad1)*%
X164592000Y-47752000D03*
%TO.P,U6,18*%
%TO.N,+5V*%
X164592000Y-45212000D03*
%TD*%
D17*
%TO.P,SW1,1,1*%
%TO.N,/Sw 1*%
X130758000Y-64226000D03*
X124258000Y-64226000D03*
%TO.P,SW1,2,2*%
%TO.N,+5V*%
X130758000Y-59726000D03*
X124258000Y-59726000D03*
%TD*%
D28*
%TO.P,J3,1,Pin_1*%
%TO.N,GND*%
X158790000Y-133655000D03*
D29*
%TO.P,J3,2,Pin_2*%
%TO.N,/Conn_1*%
X163790000Y-133655000D03*
%TD*%
D30*
%TO.P,U4,1,VSS*%
%TO.N,GND*%
X187600000Y-50299100D03*
D31*
%TO.P,U4,2,VDD*%
%TO.N,+5V*%
X187600000Y-52839100D03*
%TO.P,U4,3,VO*%
%TO.N,Net-(U4-VO)*%
X187600000Y-55379100D03*
%TO.P,U4,4,RS*%
%TO.N,/RS*%
X187600000Y-57919100D03*
%TO.P,U4,5,R/~{W}*%
%TO.N,GND*%
X187600000Y-60459100D03*
%TO.P,U4,6,E*%
%TO.N,/E*%
X187600000Y-62999100D03*
%TO.P,U4,7,DB0*%
%TO.N,unconnected-(U4-DB0-Pad7)*%
X187600000Y-65539100D03*
%TO.P,U4,8,DB1*%
%TO.N,unconnected-(U4-DB1-Pad8)*%
X187600000Y-68079100D03*
%TO.P,U4,9,DB2*%
%TO.N,unconnected-(U4-DB2-Pad9)*%
X187600000Y-70619100D03*
%TO.P,U4,10,DB3*%
%TO.N,unconnected-(U4-DB3-Pad10)*%
X187600000Y-73159100D03*
%TO.P,U4,11,DB4*%
%TO.N,/DB4*%
X187600000Y-75699100D03*
%TO.P,U4,12,DB5*%
%TO.N,/DB5*%
X187600000Y-78239100D03*
%TO.P,U4,13,DB6*%
%TO.N,/DB6*%
X187600000Y-80779100D03*
%TO.P,U4,14,DB7*%
%TO.N,/DB7*%
X187600000Y-83319100D03*
%TO.P,U4,15,A/VEE*%
%TO.N,+5V*%
X187600000Y-85859100D03*
%TO.P,U4,16,K*%
%TO.N,GND*%
X187600000Y-88399100D03*
%TD*%
D13*
%TO.P,J6,1,Pin_1*%
%TO.N,Net-(J6-Pin_1)*%
X178811000Y-101859000D03*
D14*
%TO.P,J6,2,Pin_2*%
%TO.N,/Conn_2*%
X181351000Y-101859000D03*
%TO.P,J6,3,Pin_3*%
%TO.N,Net-(J6-Pin_3)*%
X178811000Y-104399000D03*
%TO.P,J6,4,Pin_4*%
%TO.N,/Conn_2*%
X181351000Y-104399000D03*
%TO.P,J6,5,Pin_5*%
%TO.N,Net-(J6-Pin_5)*%
X178811000Y-106939000D03*
%TO.P,J6,6,Pin_6*%
%TO.N,/Conn_2*%
X181351000Y-106939000D03*
%TO.P,J6,7,Pin_7*%
%TO.N,Net-(J6-Pin_7)*%
X178811000Y-109479000D03*
%TO.P,J6,8,Pin_8*%
%TO.N,/Conn_2*%
X181351000Y-109479000D03*
%TO.P,J6,9,Pin_9*%
%TO.N,Net-(J6-Pin_9)*%
X178811000Y-112019000D03*
%TO.P,J6,10,Pin_10*%
%TO.N,/Conn_2*%
X181351000Y-112019000D03*
%TD*%
D32*
%TO.P,Y2,1,1*%
%TO.N,Net-(C5-Pad1)*%
X156972000Y-70402000D03*
%TO.P,Y2,2,2*%
%TO.N,Net-(C7-Pad2)*%
X156972000Y-75902000D03*
%TD*%
D33*
%TO.P,C5,1*%
%TO.N,Net-(C5-Pad1)*%
X160997500Y-70612000D03*
%TO.P,C5,2*%
%TO.N,GND*%
X164122500Y-70612000D03*
%TD*%
D34*
%TO.P,J1,A1,A1*%
%TO.N,unconnected-(J1-PadA1)*%
X118130000Y-102770000D03*
D35*
%TO.P,J1,A2,A2*%
%TO.N,unconnected-(J1-PadA2)*%
X117580000Y-101770000D03*
%TO.P,J1,A3,A3*%
%TO.N,unconnected-(J1-PadA3)*%
X117580000Y-100770000D03*
%TO.P,J1,A4,A4*%
%TO.N,GND*%
X117580000Y-99770000D03*
%TO.P,J1,A5,A5*%
%TO.N,unconnected-(J1-PadA5)*%
X117580000Y-98770000D03*
%TO.P,J1,A6,A6*%
%TO.N,unconnected-(J1-PadA6)*%
X117580000Y-97770000D03*
%TO.P,J1,A7,A7*%
%TO.N,unconnected-(J1-PadA7)*%
X117580000Y-96770000D03*
%TO.P,J1,A8,A8*%
%TO.N,unconnected-(J1-PadA8)*%
X117580000Y-95770000D03*
%TO.P,J1,A9,A9*%
%TO.N,unconnected-(J1-PadA9)*%
X117580000Y-94770000D03*
%TO.P,J1,A10,A10*%
%TO.N,unconnected-(J1-PadA10)*%
X117580000Y-93770000D03*
%TO.P,J1,A11,A11*%
%TO.N,unconnected-(J1-PadA11)*%
X117580000Y-92770000D03*
%TO.P,J1,A12,A12*%
%TO.N,unconnected-(J1-PadA12)*%
X117580000Y-89770000D03*
%TO.P,J1,A13,A13*%
%TO.N,+5V*%
X117580000Y-88770000D03*
%TO.P,J1,A14,A14*%
X117580000Y-87770000D03*
%TO.P,J1,A15,A15*%
%TO.N,GND*%
X117580000Y-86770000D03*
%TO.P,J1,A16,A16*%
%TO.N,unconnected-(J1-PadA16)*%
X117580000Y-85770000D03*
%TO.P,J1,A17,A17*%
%TO.N,unconnected-(J1-PadA17)*%
X117580000Y-84770000D03*
%TO.P,J1,A18,A18*%
%TO.N,GND*%
X117580000Y-83770000D03*
%TD*%
D36*
%TO.N,GND*%
X134112000Y-68580000D03*
X125476000Y-56388000D03*
X134112000Y-66548000D03*
X134112000Y-67564000D03*
X123952000Y-99568000D03*
X187960000Y-118364000D03*
X129032000Y-70612000D03*
X129032000Y-69596000D03*
X135128000Y-50800000D03*
X156972000Y-102616000D03*
X123444000Y-85344000D03*
X187960000Y-126094502D03*
X178308000Y-67564000D03*
X129032000Y-68580000D03*
%TO.N,/RS*%
X136652500Y-95121500D03*
%TO.N,+5V*%
X160528000Y-96520000D03*
X178890000Y-71728000D03*
X174244000Y-71628000D03*
X121920000Y-88770000D03*
X124526500Y-90424000D03*
X124968000Y-68580000D03*
X183719550Y-56719550D03*
X133604000Y-56896000D03*
X157988000Y-93980000D03*
%TO.N,/I2C_CLK*%
X184404000Y-68580000D03*
X172212000Y-73152000D03*
X158159658Y-95675658D03*
X154490000Y-99568000D03*
%TO.N,/I2C_DAT*%
X177800000Y-70104000D03*
X181991000Y-68767500D03*
X158750000Y-96774000D03*
X155448000Y-100584000D03*
%TO.N,/SYNC*%
X124234000Y-94770000D03*
X124488434Y-100640868D03*
X120678000Y-94770000D03*
%TO.N,/DB4*%
X140736972Y-98145183D03*
%TO.N,/DB5*%
X141915503Y-98368497D03*
%TO.N,/DB6*%
X143257150Y-98550850D03*
%TO.N,/DB7*%
X144780000Y-99060000D03*
%TO.N,/INT*%
X152400000Y-69088000D03*
X129540000Y-107188000D03*
X129540000Y-74168000D03*
%TO.N,/SS*%
X146812000Y-115824000D03*
%TO.N,/MOSI*%
X140081000Y-70104000D03*
X149860000Y-61976000D03*
X127508000Y-82804000D03*
X146812000Y-117348000D03*
%TO.N,/MISO*%
X149352000Y-60452000D03*
X141224000Y-68580000D03*
X125608500Y-81788000D03*
%TO.N,/SCK*%
X145161000Y-69215000D03*
X127508000Y-80772000D03*
X150114000Y-64262000D03*
%TO.N,+3.3V*%
X154432000Y-113040500D03*
X173736000Y-121920000D03*
%TO.N,/Sw 1*%
X132080000Y-97028000D03*
X145796000Y-101600000D03*
%TO.N,/Sw 2*%
X145796000Y-100400497D03*
X133096000Y-96012000D03*
%TO.N,/CAN_CS*%
X150535967Y-57571967D03*
X139359967Y-68747967D03*
%TO.N,/D9*%
X128524000Y-83820000D03*
%TO.N,/CANH*%
X121559652Y-98073691D03*
%TO.N,/CANL*%
X120972000Y-97028000D03*
%TO.N,Net-(R16-Pad1)*%
X170688000Y-51308000D03*
%TO.N,Net-(BT2-+)*%
X183626787Y-74945213D03*
X183388000Y-65532000D03*
X180721000Y-77724000D03*
%TD*%
D37*
%TO.N,/E*%
X178776353Y-89749100D02*
X188559188Y-89749100D01*
X136810000Y-103790000D02*
X164735453Y-103790000D01*
X164735453Y-103790000D02*
X178776353Y-89749100D01*
X135000000Y-100000000D02*
X136810000Y-101810000D01*
X136810000Y-101810000D02*
X136810000Y-103790000D01*
X189350000Y-88958288D02*
X189350000Y-64749100D01*
X189350000Y-64749100D02*
X187600000Y-62999100D01*
X188559188Y-89749100D02*
X189350000Y-88958288D01*
%TO.N,GND*%
X123444000Y-85344000D02*
X122018000Y-86770000D01*
X188038999Y-118285001D02*
X187960000Y-118364000D01*
X123952000Y-99568000D02*
X123948994Y-99568000D01*
X178631850Y-67240150D02*
X178308000Y-67564000D01*
X159042500Y-65532000D02*
X164122500Y-70612000D01*
X123444000Y-85344000D02*
X121870000Y-83770000D01*
X127070868Y-99690868D02*
X135000000Y-107620000D01*
X124074868Y-99690868D02*
X127070868Y-99690868D01*
X187960000Y-126094502D02*
X189641499Y-126094502D01*
D38*
X129032000Y-69596000D02*
X132080000Y-69596000D01*
D37*
X121870000Y-83770000D02*
X117580000Y-83770000D01*
X156972000Y-65532000D02*
X159042500Y-65532000D01*
X125986610Y-56388000D02*
X131574610Y-50800000D01*
X189641499Y-126094502D02*
X189792000Y-126245003D01*
X189666999Y-118285001D02*
X188038999Y-118285001D01*
X131574610Y-50800000D02*
X135128000Y-50800000D01*
X123952000Y-99568000D02*
X124074868Y-99690868D01*
X187600000Y-50299100D02*
X180093100Y-50299100D01*
X189350000Y-52049100D02*
X189350000Y-58709100D01*
X180093100Y-50299100D02*
X171704000Y-41910000D01*
X123750000Y-99770000D02*
X117580000Y-99770000D01*
X122018000Y-86770000D02*
X117580000Y-86770000D01*
X189350000Y-58709100D02*
X187600000Y-60459100D01*
X164122500Y-70612000D02*
X164122500Y-75692000D01*
X150240000Y-102540000D02*
X156896000Y-102540000D01*
X156896000Y-102540000D02*
X156972000Y-102616000D01*
X179451000Y-67240150D02*
X178631850Y-67240150D01*
X123952000Y-99568000D02*
X123750000Y-99770000D01*
X125476000Y-56388000D02*
X125986610Y-56388000D01*
X187600000Y-50299100D02*
X189350000Y-52049100D01*
D38*
X132080000Y-69596000D02*
X134112000Y-67564000D01*
D37*
%TO.N,/RS*%
X160541900Y-84262000D02*
X175834000Y-84262000D01*
X149931898Y-94872000D02*
X160541900Y-84262000D01*
X185354000Y-74742000D02*
X185354000Y-60165100D01*
X136652500Y-95121500D02*
X136902000Y-94872000D01*
X175834000Y-84262000D02*
X185354000Y-74742000D01*
X185354000Y-60165100D02*
X187600000Y-57919100D01*
X136902000Y-94872000D02*
X149931898Y-94872000D01*
D39*
%TO.N,+5V*%
X133604000Y-56896000D02*
X133588000Y-56896000D01*
X181991000Y-61791850D02*
X181991000Y-58448100D01*
X130758000Y-49566000D02*
X124258000Y-49566000D01*
X124968000Y-68580000D02*
X125833000Y-67715000D01*
X178790000Y-71628000D02*
X178890000Y-71728000D01*
X174244000Y-71628000D02*
X178790000Y-71628000D01*
X125833000Y-64651000D02*
X130758000Y-59726000D01*
X181991000Y-58448100D02*
X187600000Y-52839100D01*
X130758000Y-59726000D02*
X124258000Y-59726000D01*
X160528000Y-96520000D02*
X157988000Y-93980000D01*
X121920000Y-88770000D02*
X122872500Y-88770000D01*
X126558500Y-92456000D02*
X146939000Y-92456000D01*
X133588000Y-56896000D02*
X130758000Y-59726000D01*
X117580000Y-87770000D02*
X120000479Y-87770000D01*
X187600000Y-85859100D02*
X185258100Y-88201000D01*
X146939000Y-92456000D02*
X150241000Y-89154000D01*
X120396000Y-88770000D02*
X117580000Y-88770000D01*
X185258100Y-88201000D02*
X163767000Y-88201000D01*
X124526500Y-90424000D02*
X126558500Y-92456000D01*
X150240000Y-100000000D02*
X151968000Y-100000000D01*
X163767000Y-88201000D02*
X157988000Y-93980000D01*
X125833000Y-67715000D02*
X125833000Y-64651000D01*
X122872500Y-88770000D02*
X124526500Y-90424000D01*
X121000479Y-88770000D02*
X120396000Y-88770000D01*
X120000479Y-87770000D02*
X121000479Y-88770000D01*
X120396000Y-88770000D02*
X121920000Y-88770000D01*
X151968000Y-100000000D02*
X157988000Y-93980000D01*
D37*
%TO.N,/I2C_CLK*%
X154490000Y-99568000D02*
X154490000Y-99345316D01*
X184404000Y-68580000D02*
X179832000Y-73152000D01*
X183261000Y-67437000D02*
X184404000Y-68580000D01*
X179832000Y-73152000D02*
X172212000Y-73152000D01*
X154490000Y-99345316D02*
X158159658Y-95675658D01*
X183261000Y-67240150D02*
X183261000Y-67437000D01*
%TO.N,/I2C_DAT*%
X180654500Y-70104000D02*
X181991000Y-68767500D01*
X181991000Y-68767500D02*
X181991000Y-67240150D01*
X177800000Y-70104000D02*
X180654500Y-70104000D01*
X158750000Y-96774000D02*
X155448000Y-100076000D01*
X155448000Y-100076000D02*
X155448000Y-100584000D01*
%TO.N,/SYNC*%
X124488434Y-100640868D02*
X124488434Y-104728434D01*
X120678000Y-94770000D02*
X124234000Y-94770000D01*
X124488434Y-104728434D02*
X135000000Y-115240000D01*
%TO.N,/DB4*%
X140716000Y-98044000D02*
X143188000Y-95572000D01*
X160831850Y-84962000D02*
X176123949Y-84962000D01*
X140716000Y-98124211D02*
X140716000Y-98044000D01*
X140736972Y-98145183D02*
X140716000Y-98124211D01*
X185386849Y-75699100D02*
X187600000Y-75699100D01*
X176123949Y-84962000D02*
X185386849Y-75699100D01*
X150221850Y-95572000D02*
X160831850Y-84962000D01*
X143188000Y-95572000D02*
X150221850Y-95572000D01*
%TO.N,/DB5*%
X176466000Y-85662000D02*
X183888900Y-78239100D01*
X141915503Y-98368497D02*
X143764000Y-96520000D01*
X143764000Y-96520000D02*
X150263800Y-96520000D01*
X161121800Y-85662000D02*
X176466000Y-85662000D01*
X183888900Y-78239100D02*
X187600000Y-78239100D01*
X150263800Y-96520000D02*
X161121800Y-85662000D01*
%TO.N,/DB6*%
X182338850Y-80779100D02*
X187600000Y-80779100D01*
X144588000Y-97220000D02*
X150553749Y-97220000D01*
X176755949Y-86362000D02*
X182338850Y-80779100D01*
X150553749Y-97220000D02*
X161411750Y-86362000D01*
X161411750Y-86362000D02*
X176755949Y-86362000D01*
X143257150Y-98550850D02*
X144588000Y-97220000D01*
%TO.N,/DB7*%
X151384000Y-98044000D02*
X162052000Y-87376000D01*
X176784000Y-87376000D02*
X180848000Y-83312000D01*
X145796000Y-98044000D02*
X151384000Y-98044000D01*
X162052000Y-87376000D02*
X176784000Y-87376000D01*
X180848000Y-83312000D02*
X180855100Y-83319100D01*
X180855100Y-83319100D02*
X187600000Y-83319100D01*
X144780000Y-99060000D02*
X145796000Y-98044000D01*
%TO.N,/INT*%
X129540000Y-107240000D02*
X135000000Y-112700000D01*
X129540000Y-107188000D02*
X129540000Y-107240000D01*
X152400000Y-69088000D02*
X150368000Y-71120000D01*
X150368000Y-71120000D02*
X132588000Y-71120000D01*
X132588000Y-71120000D02*
X129540000Y-74168000D01*
%TO.N,/SS*%
X166314000Y-113990000D02*
X168656000Y-116332000D01*
X148646000Y-113990000D02*
X166314000Y-113990000D01*
X146812000Y-115824000D02*
X148646000Y-113990000D01*
%TO.N,/MOSI*%
X162561000Y-115317000D02*
X163576000Y-116332000D01*
X140081000Y-87951919D02*
X134933081Y-82804000D01*
X140081000Y-89154000D02*
X140081000Y-87951919D01*
X134933081Y-82804000D02*
X127508000Y-82804000D01*
X155447000Y-115317000D02*
X162561000Y-115317000D01*
X146812000Y-117348000D02*
X147630000Y-116530000D01*
X140081000Y-70104000D02*
X141732000Y-70104000D01*
X147630000Y-116530000D02*
X154234000Y-116530000D01*
X154234000Y-116530000D02*
X155447000Y-115317000D01*
X141732000Y-70104000D02*
X149860000Y-61976000D01*
%TO.N,/MISO*%
X149352000Y-60452000D02*
X141224000Y-68580000D01*
X135255000Y-81788000D02*
X142621000Y-89154000D01*
X125608500Y-81788000D02*
X135255000Y-81788000D01*
%TO.N,/SCK*%
X150114000Y-64262000D02*
X145161000Y-69215000D01*
X136779000Y-80772000D02*
X145161000Y-89154000D01*
X127508000Y-80772000D02*
X136779000Y-80772000D01*
%TO.N,+3.3V*%
X189792000Y-124045002D02*
X178825612Y-124045002D01*
X172211000Y-116332000D02*
X173736000Y-116332000D01*
X176700610Y-121920000D02*
X173736000Y-121920000D01*
X154432000Y-113040500D02*
X166380500Y-113040500D01*
X172211000Y-115911573D02*
X172211000Y-116332000D01*
X168657000Y-115317000D02*
X171616427Y-115317000D01*
X178825612Y-124045002D02*
X176700610Y-121920000D01*
X171616427Y-115317000D02*
X172211000Y-115911573D01*
X166380500Y-113040500D02*
X168657000Y-115317000D01*
%TO.N,/Sw 1*%
X139100000Y-101600000D02*
X145796000Y-101600000D01*
X134528000Y-97028000D02*
X139100000Y-101600000D01*
X132080000Y-97028000D02*
X134528000Y-97028000D01*
%TO.N,/Sw 2*%
X134501950Y-96012000D02*
X138890447Y-100400497D01*
X133096000Y-96012000D02*
X134501950Y-96012000D01*
X138890447Y-100400497D02*
X145796000Y-100400497D01*
%TO.N,/Conn_1*%
X166420450Y-112090500D02*
X150849500Y-112090500D01*
X168121950Y-113792000D02*
X166420450Y-112090500D01*
X173140000Y-112019000D02*
X171367000Y-113792000D01*
X171367000Y-113792000D02*
X168121950Y-113792000D01*
X150849500Y-112090500D02*
X150240000Y-112700000D01*
%TO.N,/Conn_2*%
X168956403Y-100559000D02*
X180051000Y-100559000D01*
X150240000Y-110160000D02*
X159355403Y-110160000D01*
X180051000Y-100559000D02*
X181351000Y-101859000D01*
X159355403Y-110160000D02*
X168956403Y-100559000D01*
%TO.N,/CAN_CS*%
X139359967Y-68747967D02*
X150535967Y-57571967D01*
%TO.N,/D9*%
X137541000Y-87429497D02*
X133931503Y-83820000D01*
X133931503Y-83820000D02*
X128524000Y-83820000D01*
X137541000Y-89154000D02*
X137541000Y-87429497D01*
%TO.N,/SS_3.3*%
X186244000Y-119188000D02*
X188901001Y-121845001D01*
X174052000Y-119188000D02*
X186244000Y-119188000D01*
X188901001Y-121845001D02*
X189792000Y-121845001D01*
X171196000Y-116332000D02*
X174052000Y-119188000D01*
%TO.N,/MOSI_3.3*%
X182878412Y-122945002D02*
X179821410Y-119888000D01*
X169672000Y-119888000D02*
X166116000Y-116332000D01*
X189792000Y-122945002D02*
X182878412Y-122945002D01*
X179821410Y-119888000D02*
X169672000Y-119888000D01*
%TO.N,/SCK_3.3*%
X167961000Y-123257000D02*
X174697798Y-123257000D01*
X161036000Y-116332000D02*
X167961000Y-123257000D01*
X174697798Y-123257000D02*
X176585800Y-125145002D01*
X176585800Y-125145002D02*
X189792000Y-125145002D01*
%TO.N,/MISO_3.3*%
X188720500Y-127345000D02*
X186017500Y-130048000D01*
X186017500Y-130048000D02*
X161732000Y-130048000D01*
X189792000Y-127345000D02*
X188720500Y-127345000D01*
X161732000Y-130048000D02*
X155956000Y-124272000D01*
%TO.N,/CANH*%
X177221300Y-69330767D02*
X177221300Y-64953300D01*
X121712337Y-97921006D02*
X126080944Y-97921006D01*
X121559652Y-98073691D02*
X121712337Y-97921006D01*
X149641949Y-94172000D02*
X173201950Y-70612000D01*
X175940067Y-70612000D02*
X177221300Y-69330767D01*
X126080944Y-97921006D02*
X129829950Y-94172000D01*
X173201950Y-70612000D02*
X175940067Y-70612000D01*
X177221300Y-64953300D02*
X176022000Y-63754000D01*
X129829950Y-94172000D02*
X149641949Y-94172000D01*
%TO.N,/CANL*%
X176022000Y-66802000D02*
X176022000Y-66294000D01*
X129540000Y-93472000D02*
X149352000Y-93472000D01*
X120972000Y-97028000D02*
X125984000Y-97028000D01*
X125984000Y-97028000D02*
X129540000Y-93472000D01*
X149352000Y-93472000D02*
X176022000Y-66802000D01*
%TO.N,/CANTX*%
X159004000Y-47244000D02*
X156972000Y-45212000D01*
X164095233Y-64191300D02*
X159004000Y-59100067D01*
X168402000Y-61214000D02*
X165424700Y-64191300D01*
X165424700Y-64191300D02*
X164095233Y-64191300D01*
X159004000Y-59100067D02*
X159004000Y-47244000D01*
%TO.N,/CANRX*%
X158171300Y-48951300D02*
X156972000Y-47752000D01*
X168402000Y-68834000D02*
X166197933Y-68834000D01*
X158171300Y-60807367D02*
X158171300Y-48951300D01*
X166197933Y-68834000D02*
X158171300Y-60807367D01*
%TO.N,Net-(R16-Pad1)*%
X168148000Y-51308000D02*
X170688000Y-51308000D01*
X164592000Y-47752000D02*
X168148000Y-51308000D01*
%TO.N,Net-(C5-Pad1)*%
X156972000Y-70402000D02*
X155772700Y-69202700D01*
X157182000Y-70612000D02*
X156972000Y-70402000D01*
X160997500Y-70612000D02*
X157182000Y-70612000D01*
X155772700Y-69202700D02*
X155772700Y-64191300D01*
X155772700Y-64191300D02*
X156972000Y-62992000D01*
%TO.N,Net-(C7-Pad2)*%
X156972000Y-75902000D02*
X155072700Y-74002700D01*
X156972000Y-75902000D02*
X160787500Y-75902000D01*
X155072700Y-74002700D02*
X155072700Y-62351300D01*
X155072700Y-62351300D02*
X156972000Y-60452000D01*
X160787500Y-75902000D02*
X160997500Y-75692000D01*
%TO.N,Net-(BT2-+)*%
X180721000Y-67240150D02*
X180721000Y-66613200D01*
X183626787Y-74945213D02*
X183499787Y-74945213D01*
X180721000Y-66613200D02*
X181802200Y-65532000D01*
X183499787Y-74945213D02*
X180721000Y-77724000D01*
X181802200Y-65532000D02*
X183388000Y-65532000D01*
%TD*%
M02*
