%TF.GenerationSoftware,KiCad,Pcbnew,7.0.7*%
%TF.CreationDate,2024-11-29T17:50:20-06:00*%
%TF.ProjectId,DAQ Rev 2,44415120-5265-4762-9032-2e6b69636164,rev?*%
%TF.SameCoordinates,Original*%
%TF.FileFunction,Profile,NP*%
%FSLAX46Y46*%
G04 Gerber Fmt 4.6, Leading zero omitted, Abs format (unit mm)*
G04 Created by KiCad (PCBNEW 7.0.7) date 2024-11-29 17:50:20*
%MOMM*%
%LPD*%
G01*
G04 APERTURE LIST*
%TA.AperFunction,Profile*%
%ADD10C,0.050000*%
%TD*%
%TA.AperFunction,Profile*%
%ADD11C,0.100000*%
%TD*%
G04 APERTURE END LIST*
D10*
X192600000Y-44800000D02*
X192600000Y-134800000D01*
X192600000Y-44800000D02*
G75*
G03*
X187600000Y-39800000I-5000000J0D01*
G01*
X127600000Y-139800000D02*
X187600000Y-139800000D01*
X122600000Y-134800000D02*
G75*
G03*
X127600000Y-139800000I5000000J0D01*
G01*
X127600000Y-39800000D02*
X187600000Y-39800000D01*
X187600000Y-139800000D02*
G75*
G03*
X192600000Y-134800000I0J5000000D01*
G01*
X122530000Y-83120000D02*
X122600000Y-44800000D01*
X122530000Y-103420000D02*
X122600000Y-134800000D01*
X127600000Y-39800000D02*
G75*
G03*
X122600000Y-44800000I0J-5000000D01*
G01*
D11*
%TO.C,J1*%
X114630000Y-103420000D02*
X114130000Y-102920000D01*
X122530000Y-103420000D02*
X114630000Y-103420000D01*
X114130000Y-102920000D02*
X114130000Y-92720000D01*
X114630000Y-92220000D02*
X114130000Y-92720000D01*
X121580000Y-92220000D02*
X114630000Y-92220000D01*
X114630000Y-90320000D02*
X114130000Y-89820000D01*
X121580000Y-90320000D02*
X114630000Y-90320000D01*
X114130000Y-89820000D02*
X114130000Y-83620000D01*
X114630000Y-83120000D02*
X114130000Y-83620000D01*
X122530000Y-83120000D02*
X114630000Y-83120000D01*
X121580000Y-92220000D02*
G75*
G03*
X121580000Y-90320000I0J950000D01*
G01*
%TD*%
M02*
