M48
; DRILL file {KiCad 7.0.7} date Fri Nov 29 17:50:19 2024
; FORMAT={-:-/ absolute / inch / decimal}
; #@! TF.CreationDate,2024-11-29T17:50:19-06:00
; #@! TF.GenerationSoftware,Kicad,Pcbnew,7.0.7
; #@! TF.FileFunction,Plated,1,2,PTH
FMAT,2
INCH
; #@! TA.AperFunction,Plated,PTH,ViaDrill
T1C0.0276
; #@! TA.AperFunction,Plated,PTH,ComponentDrill
T2C0.0307
; #@! TA.AperFunction,Plated,PTH,ComponentDrill
T3C0.0315
; #@! TA.AperFunction,Plated,PTH,ComponentDrill
T4C0.0390
; #@! TA.AperFunction,Plated,PTH,ComponentDrill
T5C0.0394
; #@! TA.AperFunction,Plated,PTH,ComponentDrill
T6C0.0433
; #@! TA.AperFunction,Plated,PTH,ComponentDrill
T7C0.0472
; #@! TA.AperFunction,Plated,PTH,ComponentDrill
T8C0.0512
; #@! TA.AperFunction,Plated,PTH,ComponentDrill
T9C0.1260
%
G90
G05
T1
X4.7511Y-3.7311
X4.7627Y-3.82
X4.7858Y-3.8612
X4.8Y-3.4949
X4.86Y-3.36
X4.88Y-3.92
X4.8911Y-3.7311
X4.9011Y-3.9622
X4.9026Y-3.56
X4.92Y-2.7
X4.94Y-2.22
X4.9452Y-3.22
X5.02Y-3.18
X5.02Y-3.26
X5.06Y-3.3
X5.08Y-2.7
X5.08Y-2.74
X5.08Y-2.78
X5.1Y-2.92
X5.1Y-4.22
X5.2Y-3.82
X5.24Y-3.78
X5.26Y-2.24
X5.28Y-2.62
X5.28Y-2.66
X5.28Y-2.7
X5.32Y-2.0
X5.38Y-3.7449
X5.4866Y-2.7066
X5.515Y-2.76
X5.5408Y-3.864
X5.56Y-2.7
X5.5872Y-3.8728
X5.64Y-3.88
X5.7Y-3.9
X5.715Y-2.725
X5.74Y-3.9528
X5.74Y-4.0
X5.78Y-4.56
X5.78Y-4.62
X5.88Y-2.38
X5.9Y-2.44
X5.91Y-2.53
X5.9266Y-2.2666
X6.0Y-2.72
X6.08Y-4.4504
X6.0823Y-3.92
X6.12Y-3.96
X6.18Y-4.04
X6.22Y-3.7
X6.2268Y-3.7668
X6.25Y-3.81
X6.32Y-3.8
X6.72Y-2.02
X6.78Y-2.88
X6.84Y-4.8
X6.86Y-2.82
X7.0Y-2.76
X7.02Y-2.66
X7.0429Y-2.8239
X7.115Y-3.06
X7.165Y-2.7074
X7.22Y-2.58
X7.2294Y-2.9506
X7.2331Y-2.2331
X7.26Y-2.7
X7.4Y-4.66
X7.4Y-4.9644
T2
X6.14Y-4.58
X6.14Y-4.8926
X6.24Y-4.58
X6.24Y-4.8926
X6.34Y-4.58
X6.34Y-4.8926
X6.44Y-4.58
X6.44Y-4.8926
X6.54Y-4.58
X6.54Y-4.8926
X6.64Y-4.58
X6.64Y-4.8926
X6.74Y-4.58
X6.74Y-4.8926
X6.84Y-4.58
X6.84Y-4.8926
T3
X6.76Y-1.65
X6.86Y-1.65
X6.96Y-1.65
T4
X6.18Y-1.78
X6.18Y-1.88
X6.18Y-1.98
X6.18Y-2.08
X6.18Y-2.18
X6.18Y-2.28
X6.18Y-2.38
X6.18Y-2.48
X6.18Y-2.58
X6.48Y-1.78
X6.48Y-1.88
X6.48Y-1.98
X6.48Y-2.08
X6.48Y-2.18
X6.48Y-2.28
X6.48Y-2.38
X6.48Y-2.48
X6.48Y-2.58
X6.63Y-2.41
X6.63Y-2.51
X6.63Y-2.61
X6.63Y-2.71
X6.93Y-2.41
X6.93Y-2.51
X6.93Y-2.61
X6.93Y-2.71
T5
X5.315Y-3.937
X5.315Y-4.037
X5.315Y-4.137
X5.315Y-4.237
X5.315Y-4.337
X5.315Y-4.437
X5.315Y-4.537
X5.315Y-4.637
X5.315Y-4.737
X5.315Y-4.837
X5.315Y-4.937
X5.315Y-5.037
X5.315Y-5.137
X5.315Y-5.237
X5.315Y-5.337
X5.415Y-3.51
X5.515Y-3.51
X5.615Y-3.51
X5.715Y-3.51
X5.815Y-3.51
X5.915Y-3.937
X5.915Y-4.037
X5.915Y-4.137
X5.915Y-4.237
X5.915Y-4.337
X5.915Y-4.437
X5.915Y-4.537
X5.915Y-4.637
X5.915Y-4.737
X5.915Y-4.837
X5.915Y-4.937
X5.915Y-5.037
X5.915Y-5.137
X5.915Y-5.237
X5.915Y-5.337
X5.915Y-3.51
X6.7165Y-4.0102
X6.7165Y-4.1102
X6.7165Y-4.2102
X6.7165Y-4.3102
X6.7165Y-4.4102
X6.8165Y-4.0102
X6.8165Y-4.1102
X6.8165Y-4.2102
X6.8165Y-4.3102
X6.8165Y-4.4102
X7.0398Y-4.0102
X7.0398Y-4.1102
X7.0398Y-4.2102
X7.0398Y-4.3102
X7.0398Y-4.4102
X7.1398Y-4.0102
X7.1398Y-4.1102
X7.1398Y-4.2102
X7.1398Y-4.3102
X7.1398Y-4.4102
T6
X4.892Y-1.9514
X4.892Y-2.1286
X4.892Y-2.3514
X4.892Y-2.5286
X5.148Y-1.9514
X5.148Y-2.1286
X5.148Y-2.3514
X5.148Y-2.5286
T7
X7.3858Y-1.9803
X7.3858Y-2.0803
X7.3858Y-2.1803
X7.3858Y-2.2803
X7.3858Y-2.3803
X7.3858Y-2.4803
X7.3858Y-2.5803
X7.3858Y-2.6803
X7.3858Y-2.7803
X7.3858Y-2.8803
X7.3858Y-2.9803
X7.3858Y-3.0803
X7.3858Y-3.1803
X7.3858Y-3.2803
X7.3858Y-3.3803
X7.3858Y-3.4803
T8
X6.2516Y-5.262
X6.4484Y-5.262
X6.6916Y-5.262
X6.8884Y-5.262
T9
X5.0236Y-1.7638
X5.0236Y-5.3071
X7.3858Y-1.7638
X7.3858Y-5.3071
T0
M30
