%TF.GenerationSoftware,KiCad,Pcbnew,7.0.7*%
%TF.CreationDate,2024-11-29T17:50:20-06:00*%
%TF.ProjectId,DAQ Rev 2,44415120-5265-4762-9032-2e6b69636164,rev?*%
%TF.SameCoordinates,Original*%
%TF.FileFunction,Legend,Top*%
%TF.FilePolarity,Positive*%
%FSLAX46Y46*%
G04 Gerber Fmt 4.6, Leading zero omitted, Abs format (unit mm)*
G04 Created by KiCad (PCBNEW 7.0.7) date 2024-11-29 17:50:20*
%MOMM*%
%LPD*%
G01*
G04 APERTURE LIST*
%ADD10C,0.150000*%
%ADD11C,0.120000*%
%ADD12C,0.010000*%
%ADD13C,0.152400*%
%ADD14C,0.100000*%
%ADD15C,0.127000*%
%ADD16C,0.200000*%
G04 APERTURE END LIST*
D10*
X174961779Y-138807866D02*
X175723684Y-138807866D01*
X175342731Y-139188819D02*
X175342731Y-138426914D01*
X131480476Y-99512295D02*
X131023333Y-99512295D01*
X131251905Y-99512295D02*
X131251905Y-98712295D01*
X131251905Y-98712295D02*
X131175714Y-98826580D01*
X131175714Y-98826580D02*
X131099524Y-98902771D01*
X131099524Y-98902771D02*
X131023333Y-98940866D01*
X131785238Y-98788485D02*
X131823334Y-98750390D01*
X131823334Y-98750390D02*
X131899524Y-98712295D01*
X131899524Y-98712295D02*
X132090000Y-98712295D01*
X132090000Y-98712295D02*
X132166191Y-98750390D01*
X132166191Y-98750390D02*
X132204286Y-98788485D01*
X132204286Y-98788485D02*
X132242381Y-98864676D01*
X132242381Y-98864676D02*
X132242381Y-98940866D01*
X132242381Y-98940866D02*
X132204286Y-99055152D01*
X132204286Y-99055152D02*
X131747143Y-99512295D01*
X131747143Y-99512295D02*
X132242381Y-99512295D01*
X132470953Y-98712295D02*
X132737620Y-99512295D01*
X132737620Y-99512295D02*
X133004286Y-98712295D01*
X129612990Y-112789142D02*
X129565371Y-112931999D01*
X129565371Y-112931999D02*
X129517752Y-112979618D01*
X129517752Y-112979618D02*
X129422514Y-113027237D01*
X129422514Y-113027237D02*
X129279657Y-113027237D01*
X129279657Y-113027237D02*
X129184419Y-112979618D01*
X129184419Y-112979618D02*
X129136800Y-112931999D01*
X129136800Y-112931999D02*
X129089180Y-112836761D01*
X129089180Y-112836761D02*
X129089180Y-112455809D01*
X129089180Y-112455809D02*
X130089180Y-112455809D01*
X130089180Y-112455809D02*
X130089180Y-112789142D01*
X130089180Y-112789142D02*
X130041561Y-112884380D01*
X130041561Y-112884380D02*
X129993942Y-112931999D01*
X129993942Y-112931999D02*
X129898704Y-112979618D01*
X129898704Y-112979618D02*
X129803466Y-112979618D01*
X129803466Y-112979618D02*
X129708228Y-112931999D01*
X129708228Y-112931999D02*
X129660609Y-112884380D01*
X129660609Y-112884380D02*
X129612990Y-112789142D01*
X129612990Y-112789142D02*
X129612990Y-112455809D01*
X129089180Y-114027237D02*
X129565371Y-113693904D01*
X129089180Y-113455809D02*
X130089180Y-113455809D01*
X130089180Y-113455809D02*
X130089180Y-113836761D01*
X130089180Y-113836761D02*
X130041561Y-113931999D01*
X130041561Y-113931999D02*
X129993942Y-113979618D01*
X129993942Y-113979618D02*
X129898704Y-114027237D01*
X129898704Y-114027237D02*
X129755847Y-114027237D01*
X129755847Y-114027237D02*
X129660609Y-113979618D01*
X129660609Y-113979618D02*
X129612990Y-113931999D01*
X129612990Y-113931999D02*
X129565371Y-113836761D01*
X129565371Y-113836761D02*
X129565371Y-113455809D01*
X129612990Y-114455809D02*
X129612990Y-114789142D01*
X129089180Y-114931999D02*
X129089180Y-114455809D01*
X129089180Y-114455809D02*
X130089180Y-114455809D01*
X130089180Y-114455809D02*
X130089180Y-114931999D01*
X129374895Y-115312952D02*
X129374895Y-115789142D01*
X129089180Y-115217714D02*
X130089180Y-115551047D01*
X130089180Y-115551047D02*
X129089180Y-115884380D01*
X129089180Y-116217714D02*
X130089180Y-116217714D01*
X130089180Y-116217714D02*
X130089180Y-116455809D01*
X130089180Y-116455809D02*
X130041561Y-116598666D01*
X130041561Y-116598666D02*
X129946323Y-116693904D01*
X129946323Y-116693904D02*
X129851085Y-116741523D01*
X129851085Y-116741523D02*
X129660609Y-116789142D01*
X129660609Y-116789142D02*
X129517752Y-116789142D01*
X129517752Y-116789142D02*
X129327276Y-116741523D01*
X129327276Y-116741523D02*
X129232038Y-116693904D01*
X129232038Y-116693904D02*
X129136800Y-116598666D01*
X129136800Y-116598666D02*
X129089180Y-116455809D01*
X129089180Y-116455809D02*
X129089180Y-116217714D01*
X129089180Y-117979619D02*
X130089180Y-117979619D01*
X130089180Y-117979619D02*
X130089180Y-118217714D01*
X130089180Y-118217714D02*
X130041561Y-118360571D01*
X130041561Y-118360571D02*
X129946323Y-118455809D01*
X129946323Y-118455809D02*
X129851085Y-118503428D01*
X129851085Y-118503428D02*
X129660609Y-118551047D01*
X129660609Y-118551047D02*
X129517752Y-118551047D01*
X129517752Y-118551047D02*
X129327276Y-118503428D01*
X129327276Y-118503428D02*
X129232038Y-118455809D01*
X129232038Y-118455809D02*
X129136800Y-118360571D01*
X129136800Y-118360571D02*
X129089180Y-118217714D01*
X129089180Y-118217714D02*
X129089180Y-117979619D01*
X129374895Y-118932000D02*
X129374895Y-119408190D01*
X129089180Y-118836762D02*
X130089180Y-119170095D01*
X130089180Y-119170095D02*
X129089180Y-119503428D01*
X128993942Y-120503428D02*
X129041561Y-120408190D01*
X129041561Y-120408190D02*
X129136800Y-120312952D01*
X129136800Y-120312952D02*
X129279657Y-120170095D01*
X129279657Y-120170095D02*
X129327276Y-120074857D01*
X129327276Y-120074857D02*
X129327276Y-119979619D01*
X129089180Y-120027238D02*
X129136800Y-119932000D01*
X129136800Y-119932000D02*
X129232038Y-119836762D01*
X129232038Y-119836762D02*
X129422514Y-119789143D01*
X129422514Y-119789143D02*
X129755847Y-119789143D01*
X129755847Y-119789143D02*
X129946323Y-119836762D01*
X129946323Y-119836762D02*
X130041561Y-119932000D01*
X130041561Y-119932000D02*
X130089180Y-120027238D01*
X130089180Y-120027238D02*
X130089180Y-120217714D01*
X130089180Y-120217714D02*
X130041561Y-120312952D01*
X130041561Y-120312952D02*
X129946323Y-120408190D01*
X129946323Y-120408190D02*
X129755847Y-120455809D01*
X129755847Y-120455809D02*
X129422514Y-120455809D01*
X129422514Y-120455809D02*
X129232038Y-120408190D01*
X129232038Y-120408190D02*
X129136800Y-120312952D01*
X129136800Y-120312952D02*
X129089180Y-120217714D01*
X129089180Y-120217714D02*
X129089180Y-120027238D01*
X128479180Y-113955810D02*
X128479180Y-114146286D01*
X128479180Y-114146286D02*
X128431561Y-114241524D01*
X128431561Y-114241524D02*
X128336323Y-114336762D01*
X128336323Y-114336762D02*
X128145847Y-114384381D01*
X128145847Y-114384381D02*
X127812514Y-114384381D01*
X127812514Y-114384381D02*
X127622038Y-114336762D01*
X127622038Y-114336762D02*
X127526800Y-114241524D01*
X127526800Y-114241524D02*
X127479180Y-114146286D01*
X127479180Y-114146286D02*
X127479180Y-113955810D01*
X127479180Y-113955810D02*
X127526800Y-113860572D01*
X127526800Y-113860572D02*
X127622038Y-113765334D01*
X127622038Y-113765334D02*
X127812514Y-113717715D01*
X127812514Y-113717715D02*
X128145847Y-113717715D01*
X128145847Y-113717715D02*
X128336323Y-113765334D01*
X128336323Y-113765334D02*
X128431561Y-113860572D01*
X128431561Y-113860572D02*
X128479180Y-113955810D01*
X127526800Y-114765334D02*
X127479180Y-114908191D01*
X127479180Y-114908191D02*
X127479180Y-115146286D01*
X127479180Y-115146286D02*
X127526800Y-115241524D01*
X127526800Y-115241524D02*
X127574419Y-115289143D01*
X127574419Y-115289143D02*
X127669657Y-115336762D01*
X127669657Y-115336762D02*
X127764895Y-115336762D01*
X127764895Y-115336762D02*
X127860133Y-115289143D01*
X127860133Y-115289143D02*
X127907752Y-115241524D01*
X127907752Y-115241524D02*
X127955371Y-115146286D01*
X127955371Y-115146286D02*
X128002990Y-114955810D01*
X128002990Y-114955810D02*
X128050609Y-114860572D01*
X128050609Y-114860572D02*
X128098228Y-114812953D01*
X128098228Y-114812953D02*
X128193466Y-114765334D01*
X128193466Y-114765334D02*
X128288704Y-114765334D01*
X128288704Y-114765334D02*
X128383942Y-114812953D01*
X128383942Y-114812953D02*
X128431561Y-114860572D01*
X128431561Y-114860572D02*
X128479180Y-114955810D01*
X128479180Y-114955810D02*
X128479180Y-115193905D01*
X128479180Y-115193905D02*
X128431561Y-115336762D01*
X127479180Y-115765334D02*
X128479180Y-115765334D01*
X128002990Y-115765334D02*
X128002990Y-116336762D01*
X127479180Y-116336762D02*
X128479180Y-116336762D01*
X128002990Y-116812953D02*
X128002990Y-117146286D01*
X127479180Y-117289143D02*
X127479180Y-116812953D01*
X127479180Y-116812953D02*
X128479180Y-116812953D01*
X128479180Y-116812953D02*
X128479180Y-117289143D01*
X127574419Y-117717715D02*
X127526800Y-117765334D01*
X127526800Y-117765334D02*
X127479180Y-117717715D01*
X127479180Y-117717715D02*
X127526800Y-117670096D01*
X127526800Y-117670096D02*
X127574419Y-117717715D01*
X127574419Y-117717715D02*
X127479180Y-117717715D01*
X127479180Y-118193905D02*
X128145847Y-118193905D01*
X128479180Y-118193905D02*
X128431561Y-118146286D01*
X128431561Y-118146286D02*
X128383942Y-118193905D01*
X128383942Y-118193905D02*
X128431561Y-118241524D01*
X128431561Y-118241524D02*
X128479180Y-118193905D01*
X128479180Y-118193905D02*
X128383942Y-118193905D01*
X127479180Y-118812952D02*
X127526800Y-118717714D01*
X127526800Y-118717714D02*
X127574419Y-118670095D01*
X127574419Y-118670095D02*
X127669657Y-118622476D01*
X127669657Y-118622476D02*
X127955371Y-118622476D01*
X127955371Y-118622476D02*
X128050609Y-118670095D01*
X128050609Y-118670095D02*
X128098228Y-118717714D01*
X128098228Y-118717714D02*
X128145847Y-118812952D01*
X128145847Y-118812952D02*
X128145847Y-118955809D01*
X128145847Y-118955809D02*
X128098228Y-119051047D01*
X128098228Y-119051047D02*
X128050609Y-119098666D01*
X128050609Y-119098666D02*
X127955371Y-119146285D01*
X127955371Y-119146285D02*
X127669657Y-119146285D01*
X127669657Y-119146285D02*
X127574419Y-119098666D01*
X127574419Y-119098666D02*
X127526800Y-119051047D01*
X127526800Y-119051047D02*
X127479180Y-118955809D01*
X127479180Y-118955809D02*
X127479180Y-118812952D01*
X125869180Y-113170094D02*
X126345371Y-112836761D01*
X125869180Y-112598666D02*
X126869180Y-112598666D01*
X126869180Y-112598666D02*
X126869180Y-112979618D01*
X126869180Y-112979618D02*
X126821561Y-113074856D01*
X126821561Y-113074856D02*
X126773942Y-113122475D01*
X126773942Y-113122475D02*
X126678704Y-113170094D01*
X126678704Y-113170094D02*
X126535847Y-113170094D01*
X126535847Y-113170094D02*
X126440609Y-113122475D01*
X126440609Y-113122475D02*
X126392990Y-113074856D01*
X126392990Y-113074856D02*
X126345371Y-112979618D01*
X126345371Y-112979618D02*
X126345371Y-112598666D01*
X125916800Y-113979618D02*
X125869180Y-113884380D01*
X125869180Y-113884380D02*
X125869180Y-113693904D01*
X125869180Y-113693904D02*
X125916800Y-113598666D01*
X125916800Y-113598666D02*
X126012038Y-113551047D01*
X126012038Y-113551047D02*
X126392990Y-113551047D01*
X126392990Y-113551047D02*
X126488228Y-113598666D01*
X126488228Y-113598666D02*
X126535847Y-113693904D01*
X126535847Y-113693904D02*
X126535847Y-113884380D01*
X126535847Y-113884380D02*
X126488228Y-113979618D01*
X126488228Y-113979618D02*
X126392990Y-114027237D01*
X126392990Y-114027237D02*
X126297752Y-114027237D01*
X126297752Y-114027237D02*
X126202514Y-113551047D01*
X126535847Y-114360571D02*
X125869180Y-114598666D01*
X125869180Y-114598666D02*
X126535847Y-114836761D01*
X126773942Y-115170095D02*
X126821561Y-115217714D01*
X126821561Y-115217714D02*
X126869180Y-115312952D01*
X126869180Y-115312952D02*
X126869180Y-115551047D01*
X126869180Y-115551047D02*
X126821561Y-115646285D01*
X126821561Y-115646285D02*
X126773942Y-115693904D01*
X126773942Y-115693904D02*
X126678704Y-115741523D01*
X126678704Y-115741523D02*
X126583466Y-115741523D01*
X126583466Y-115741523D02*
X126440609Y-115693904D01*
X126440609Y-115693904D02*
X125869180Y-115122476D01*
X125869180Y-115122476D02*
X125869180Y-115741523D01*
X126773942Y-116884381D02*
X126821561Y-116932000D01*
X126821561Y-116932000D02*
X126869180Y-117027238D01*
X126869180Y-117027238D02*
X126869180Y-117265333D01*
X126869180Y-117265333D02*
X126821561Y-117360571D01*
X126821561Y-117360571D02*
X126773942Y-117408190D01*
X126773942Y-117408190D02*
X126678704Y-117455809D01*
X126678704Y-117455809D02*
X126583466Y-117455809D01*
X126583466Y-117455809D02*
X126440609Y-117408190D01*
X126440609Y-117408190D02*
X125869180Y-116836762D01*
X125869180Y-116836762D02*
X125869180Y-117455809D01*
X126869180Y-118074857D02*
X126869180Y-118170095D01*
X126869180Y-118170095D02*
X126821561Y-118265333D01*
X126821561Y-118265333D02*
X126773942Y-118312952D01*
X126773942Y-118312952D02*
X126678704Y-118360571D01*
X126678704Y-118360571D02*
X126488228Y-118408190D01*
X126488228Y-118408190D02*
X126250133Y-118408190D01*
X126250133Y-118408190D02*
X126059657Y-118360571D01*
X126059657Y-118360571D02*
X125964419Y-118312952D01*
X125964419Y-118312952D02*
X125916800Y-118265333D01*
X125916800Y-118265333D02*
X125869180Y-118170095D01*
X125869180Y-118170095D02*
X125869180Y-118074857D01*
X125869180Y-118074857D02*
X125916800Y-117979619D01*
X125916800Y-117979619D02*
X125964419Y-117932000D01*
X125964419Y-117932000D02*
X126059657Y-117884381D01*
X126059657Y-117884381D02*
X126250133Y-117836762D01*
X126250133Y-117836762D02*
X126488228Y-117836762D01*
X126488228Y-117836762D02*
X126678704Y-117884381D01*
X126678704Y-117884381D02*
X126773942Y-117932000D01*
X126773942Y-117932000D02*
X126821561Y-117979619D01*
X126821561Y-117979619D02*
X126869180Y-118074857D01*
X126773942Y-118789143D02*
X126821561Y-118836762D01*
X126821561Y-118836762D02*
X126869180Y-118932000D01*
X126869180Y-118932000D02*
X126869180Y-119170095D01*
X126869180Y-119170095D02*
X126821561Y-119265333D01*
X126821561Y-119265333D02*
X126773942Y-119312952D01*
X126773942Y-119312952D02*
X126678704Y-119360571D01*
X126678704Y-119360571D02*
X126583466Y-119360571D01*
X126583466Y-119360571D02*
X126440609Y-119312952D01*
X126440609Y-119312952D02*
X125869180Y-118741524D01*
X125869180Y-118741524D02*
X125869180Y-119360571D01*
X126535847Y-120217714D02*
X125869180Y-120217714D01*
X126916800Y-119979619D02*
X126202514Y-119741524D01*
X126202514Y-119741524D02*
X126202514Y-120360571D01*
X142956009Y-129907142D02*
X142956009Y-128954761D01*
X143527438Y-130097618D02*
X141527438Y-129430952D01*
X141527438Y-129430952D02*
X143527438Y-128764285D01*
X143527438Y-126954761D02*
X142575057Y-127621428D01*
X143527438Y-128097618D02*
X141527438Y-128097618D01*
X141527438Y-128097618D02*
X141527438Y-127335713D01*
X141527438Y-127335713D02*
X141622676Y-127145237D01*
X141622676Y-127145237D02*
X141717914Y-127049999D01*
X141717914Y-127049999D02*
X141908390Y-126954761D01*
X141908390Y-126954761D02*
X142194104Y-126954761D01*
X142194104Y-126954761D02*
X142384580Y-127049999D01*
X142384580Y-127049999D02*
X142479819Y-127145237D01*
X142479819Y-127145237D02*
X142575057Y-127335713D01*
X142575057Y-127335713D02*
X142575057Y-128097618D01*
X143527438Y-126097618D02*
X141527438Y-126097618D01*
X141527438Y-126097618D02*
X141527438Y-125621428D01*
X141527438Y-125621428D02*
X141622676Y-125335713D01*
X141622676Y-125335713D02*
X141813152Y-125145237D01*
X141813152Y-125145237D02*
X142003628Y-125049999D01*
X142003628Y-125049999D02*
X142384580Y-124954761D01*
X142384580Y-124954761D02*
X142670295Y-124954761D01*
X142670295Y-124954761D02*
X143051247Y-125049999D01*
X143051247Y-125049999D02*
X143241723Y-125145237D01*
X143241723Y-125145237D02*
X143432200Y-125335713D01*
X143432200Y-125335713D02*
X143527438Y-125621428D01*
X143527438Y-125621428D02*
X143527438Y-126097618D01*
X141527438Y-124097618D02*
X143146485Y-124097618D01*
X143146485Y-124097618D02*
X143336961Y-124002380D01*
X143336961Y-124002380D02*
X143432200Y-123907142D01*
X143432200Y-123907142D02*
X143527438Y-123716666D01*
X143527438Y-123716666D02*
X143527438Y-123335713D01*
X143527438Y-123335713D02*
X143432200Y-123145237D01*
X143432200Y-123145237D02*
X143336961Y-123049999D01*
X143336961Y-123049999D02*
X143146485Y-122954761D01*
X143146485Y-122954761D02*
X141527438Y-122954761D01*
X143527438Y-122002380D02*
X141527438Y-122002380D01*
X143527438Y-121049999D02*
X141527438Y-121049999D01*
X141527438Y-121049999D02*
X143527438Y-119907142D01*
X143527438Y-119907142D02*
X141527438Y-119907142D01*
X141527438Y-118573809D02*
X141527438Y-118192856D01*
X141527438Y-118192856D02*
X141622676Y-118002380D01*
X141622676Y-118002380D02*
X141813152Y-117811904D01*
X141813152Y-117811904D02*
X142194104Y-117716666D01*
X142194104Y-117716666D02*
X142860771Y-117716666D01*
X142860771Y-117716666D02*
X143241723Y-117811904D01*
X143241723Y-117811904D02*
X143432200Y-118002380D01*
X143432200Y-118002380D02*
X143527438Y-118192856D01*
X143527438Y-118192856D02*
X143527438Y-118573809D01*
X143527438Y-118573809D02*
X143432200Y-118764285D01*
X143432200Y-118764285D02*
X143241723Y-118954761D01*
X143241723Y-118954761D02*
X142860771Y-119049999D01*
X142860771Y-119049999D02*
X142194104Y-119049999D01*
X142194104Y-119049999D02*
X141813152Y-118954761D01*
X141813152Y-118954761D02*
X141622676Y-118764285D01*
X141622676Y-118764285D02*
X141527438Y-118573809D01*
X143527438Y-115335713D02*
X141527438Y-115335713D01*
X141527438Y-115335713D02*
X143527438Y-114192856D01*
X143527438Y-114192856D02*
X141527438Y-114192856D01*
X142956009Y-113335713D02*
X142956009Y-112383332D01*
X143527438Y-113526189D02*
X141527438Y-112859523D01*
X141527438Y-112859523D02*
X143527438Y-112192856D01*
X143527438Y-111526189D02*
X141527438Y-111526189D01*
X141527438Y-111526189D02*
X143527438Y-110383332D01*
X143527438Y-110383332D02*
X141527438Y-110383332D01*
X141527438Y-109049999D02*
X141527438Y-108669046D01*
X141527438Y-108669046D02*
X141622676Y-108478570D01*
X141622676Y-108478570D02*
X141813152Y-108288094D01*
X141813152Y-108288094D02*
X142194104Y-108192856D01*
X142194104Y-108192856D02*
X142860771Y-108192856D01*
X142860771Y-108192856D02*
X143241723Y-108288094D01*
X143241723Y-108288094D02*
X143432200Y-108478570D01*
X143432200Y-108478570D02*
X143527438Y-108669046D01*
X143527438Y-108669046D02*
X143527438Y-109049999D01*
X143527438Y-109049999D02*
X143432200Y-109240475D01*
X143432200Y-109240475D02*
X143241723Y-109430951D01*
X143241723Y-109430951D02*
X142860771Y-109526189D01*
X142860771Y-109526189D02*
X142194104Y-109526189D01*
X142194104Y-109526189D02*
X141813152Y-109430951D01*
X141813152Y-109430951D02*
X141622676Y-109240475D01*
X141622676Y-109240475D02*
X141527438Y-109049999D01*
X158324779Y-138807866D02*
X159086684Y-138807866D01*
X169627779Y-138807866D02*
X170389684Y-138807866D01*
X142021160Y-58512104D02*
X142497350Y-58512104D01*
X141925922Y-58797819D02*
X142259255Y-57797819D01*
X142259255Y-57797819D02*
X142592588Y-58797819D01*
X142925922Y-58797819D02*
X142925922Y-57797819D01*
X142925922Y-57797819D02*
X143164017Y-57797819D01*
X143164017Y-57797819D02*
X143306874Y-57845438D01*
X143306874Y-57845438D02*
X143402112Y-57940676D01*
X143402112Y-57940676D02*
X143449731Y-58035914D01*
X143449731Y-58035914D02*
X143497350Y-58226390D01*
X143497350Y-58226390D02*
X143497350Y-58369247D01*
X143497350Y-58369247D02*
X143449731Y-58559723D01*
X143449731Y-58559723D02*
X143402112Y-58654961D01*
X143402112Y-58654961D02*
X143306874Y-58750200D01*
X143306874Y-58750200D02*
X143164017Y-58797819D01*
X143164017Y-58797819D02*
X142925922Y-58797819D01*
X144497350Y-58702580D02*
X144449731Y-58750200D01*
X144449731Y-58750200D02*
X144306874Y-58797819D01*
X144306874Y-58797819D02*
X144211636Y-58797819D01*
X144211636Y-58797819D02*
X144068779Y-58750200D01*
X144068779Y-58750200D02*
X143973541Y-58654961D01*
X143973541Y-58654961D02*
X143925922Y-58559723D01*
X143925922Y-58559723D02*
X143878303Y-58369247D01*
X143878303Y-58369247D02*
X143878303Y-58226390D01*
X143878303Y-58226390D02*
X143925922Y-58035914D01*
X143925922Y-58035914D02*
X143973541Y-57940676D01*
X143973541Y-57940676D02*
X144068779Y-57845438D01*
X144068779Y-57845438D02*
X144211636Y-57797819D01*
X144211636Y-57797819D02*
X144306874Y-57797819D01*
X144306874Y-57797819D02*
X144449731Y-57845438D01*
X144449731Y-57845438D02*
X144497350Y-57893057D01*
X175612586Y-102485819D02*
X175041158Y-102485819D01*
X175326872Y-102485819D02*
X175326872Y-101485819D01*
X175326872Y-101485819D02*
X175231634Y-101628676D01*
X175231634Y-101628676D02*
X175136396Y-101723914D01*
X175136396Y-101723914D02*
X175041158Y-101771533D01*
X176231634Y-101485819D02*
X176326872Y-101485819D01*
X176326872Y-101485819D02*
X176422110Y-101533438D01*
X176422110Y-101533438D02*
X176469729Y-101581057D01*
X176469729Y-101581057D02*
X176517348Y-101676295D01*
X176517348Y-101676295D02*
X176564967Y-101866771D01*
X176564967Y-101866771D02*
X176564967Y-102104866D01*
X176564967Y-102104866D02*
X176517348Y-102295342D01*
X176517348Y-102295342D02*
X176469729Y-102390580D01*
X176469729Y-102390580D02*
X176422110Y-102438200D01*
X176422110Y-102438200D02*
X176326872Y-102485819D01*
X176326872Y-102485819D02*
X176231634Y-102485819D01*
X176231634Y-102485819D02*
X176136396Y-102438200D01*
X176136396Y-102438200D02*
X176088777Y-102390580D01*
X176088777Y-102390580D02*
X176041158Y-102295342D01*
X176041158Y-102295342D02*
X175993539Y-102104866D01*
X175993539Y-102104866D02*
X175993539Y-101866771D01*
X175993539Y-101866771D02*
X176041158Y-101676295D01*
X176041158Y-101676295D02*
X176088777Y-101581057D01*
X176088777Y-101581057D02*
X176136396Y-101533438D01*
X176136396Y-101533438D02*
X176231634Y-101485819D01*
X176993539Y-102485819D02*
X176993539Y-101485819D01*
X177088777Y-102104866D02*
X177374491Y-102485819D01*
X177374491Y-101819152D02*
X176993539Y-102200104D01*
X131480476Y-101250390D02*
X131404286Y-101212295D01*
X131404286Y-101212295D02*
X131290000Y-101212295D01*
X131290000Y-101212295D02*
X131175714Y-101250390D01*
X131175714Y-101250390D02*
X131099524Y-101326580D01*
X131099524Y-101326580D02*
X131061429Y-101402771D01*
X131061429Y-101402771D02*
X131023333Y-101555152D01*
X131023333Y-101555152D02*
X131023333Y-101669438D01*
X131023333Y-101669438D02*
X131061429Y-101821819D01*
X131061429Y-101821819D02*
X131099524Y-101898009D01*
X131099524Y-101898009D02*
X131175714Y-101974200D01*
X131175714Y-101974200D02*
X131290000Y-102012295D01*
X131290000Y-102012295D02*
X131366191Y-102012295D01*
X131366191Y-102012295D02*
X131480476Y-101974200D01*
X131480476Y-101974200D02*
X131518572Y-101936104D01*
X131518572Y-101936104D02*
X131518572Y-101669438D01*
X131518572Y-101669438D02*
X131366191Y-101669438D01*
X131861429Y-102012295D02*
X131861429Y-101212295D01*
X131861429Y-101212295D02*
X132318572Y-102012295D01*
X132318572Y-102012295D02*
X132318572Y-101212295D01*
X132699524Y-102012295D02*
X132699524Y-101212295D01*
X132699524Y-101212295D02*
X132890000Y-101212295D01*
X132890000Y-101212295D02*
X133004286Y-101250390D01*
X133004286Y-101250390D02*
X133080476Y-101326580D01*
X133080476Y-101326580D02*
X133118571Y-101402771D01*
X133118571Y-101402771D02*
X133156667Y-101555152D01*
X133156667Y-101555152D02*
X133156667Y-101669438D01*
X133156667Y-101669438D02*
X133118571Y-101821819D01*
X133118571Y-101821819D02*
X133080476Y-101898009D01*
X133080476Y-101898009D02*
X133004286Y-101974200D01*
X133004286Y-101974200D02*
X132890000Y-102012295D01*
X132890000Y-102012295D02*
X132699524Y-102012295D01*
X167228180Y-43267619D02*
X168228180Y-43267619D01*
X168228180Y-43267619D02*
X168228180Y-43505714D01*
X168228180Y-43505714D02*
X168180561Y-43648571D01*
X168180561Y-43648571D02*
X168085323Y-43743809D01*
X168085323Y-43743809D02*
X167990085Y-43791428D01*
X167990085Y-43791428D02*
X167799609Y-43839047D01*
X167799609Y-43839047D02*
X167656752Y-43839047D01*
X167656752Y-43839047D02*
X167466276Y-43791428D01*
X167466276Y-43791428D02*
X167371038Y-43743809D01*
X167371038Y-43743809D02*
X167275800Y-43648571D01*
X167275800Y-43648571D02*
X167228180Y-43505714D01*
X167228180Y-43505714D02*
X167228180Y-43267619D01*
X167228180Y-44267619D02*
X167894847Y-44267619D01*
X168228180Y-44267619D02*
X168180561Y-44220000D01*
X168180561Y-44220000D02*
X168132942Y-44267619D01*
X168132942Y-44267619D02*
X168180561Y-44315238D01*
X168180561Y-44315238D02*
X168228180Y-44267619D01*
X168228180Y-44267619D02*
X168132942Y-44267619D01*
X167275800Y-44696190D02*
X167228180Y-44791428D01*
X167228180Y-44791428D02*
X167228180Y-44981904D01*
X167228180Y-44981904D02*
X167275800Y-45077142D01*
X167275800Y-45077142D02*
X167371038Y-45124761D01*
X167371038Y-45124761D02*
X167418657Y-45124761D01*
X167418657Y-45124761D02*
X167513895Y-45077142D01*
X167513895Y-45077142D02*
X167561514Y-44981904D01*
X167561514Y-44981904D02*
X167561514Y-44839047D01*
X167561514Y-44839047D02*
X167609133Y-44743809D01*
X167609133Y-44743809D02*
X167704371Y-44696190D01*
X167704371Y-44696190D02*
X167751990Y-44696190D01*
X167751990Y-44696190D02*
X167847228Y-44743809D01*
X167847228Y-44743809D02*
X167894847Y-44839047D01*
X167894847Y-44839047D02*
X167894847Y-44981904D01*
X167894847Y-44981904D02*
X167847228Y-45077142D01*
X167894847Y-45553333D02*
X166894847Y-45553333D01*
X167847228Y-45553333D02*
X167894847Y-45648571D01*
X167894847Y-45648571D02*
X167894847Y-45839047D01*
X167894847Y-45839047D02*
X167847228Y-45934285D01*
X167847228Y-45934285D02*
X167799609Y-45981904D01*
X167799609Y-45981904D02*
X167704371Y-46029523D01*
X167704371Y-46029523D02*
X167418657Y-46029523D01*
X167418657Y-46029523D02*
X167323419Y-45981904D01*
X167323419Y-45981904D02*
X167275800Y-45934285D01*
X167275800Y-45934285D02*
X167228180Y-45839047D01*
X167228180Y-45839047D02*
X167228180Y-45648571D01*
X167228180Y-45648571D02*
X167275800Y-45553333D01*
X167228180Y-46600952D02*
X167275800Y-46505714D01*
X167275800Y-46505714D02*
X167371038Y-46458095D01*
X167371038Y-46458095D02*
X168228180Y-46458095D01*
X167228180Y-47410476D02*
X167751990Y-47410476D01*
X167751990Y-47410476D02*
X167847228Y-47362857D01*
X167847228Y-47362857D02*
X167894847Y-47267619D01*
X167894847Y-47267619D02*
X167894847Y-47077143D01*
X167894847Y-47077143D02*
X167847228Y-46981905D01*
X167275800Y-47410476D02*
X167228180Y-47315238D01*
X167228180Y-47315238D02*
X167228180Y-47077143D01*
X167228180Y-47077143D02*
X167275800Y-46981905D01*
X167275800Y-46981905D02*
X167371038Y-46934286D01*
X167371038Y-46934286D02*
X167466276Y-46934286D01*
X167466276Y-46934286D02*
X167561514Y-46981905D01*
X167561514Y-46981905D02*
X167609133Y-47077143D01*
X167609133Y-47077143D02*
X167609133Y-47315238D01*
X167609133Y-47315238D02*
X167656752Y-47410476D01*
X167894847Y-47791429D02*
X167228180Y-48029524D01*
X167894847Y-48267619D02*
X167228180Y-48029524D01*
X167228180Y-48029524D02*
X166990085Y-47934286D01*
X166990085Y-47934286D02*
X166942466Y-47886667D01*
X166942466Y-47886667D02*
X166894847Y-47791429D01*
X165713419Y-43386665D02*
X165665800Y-43339046D01*
X165665800Y-43339046D02*
X165618180Y-43196189D01*
X165618180Y-43196189D02*
X165618180Y-43100951D01*
X165618180Y-43100951D02*
X165665800Y-42958094D01*
X165665800Y-42958094D02*
X165761038Y-42862856D01*
X165761038Y-42862856D02*
X165856276Y-42815237D01*
X165856276Y-42815237D02*
X166046752Y-42767618D01*
X166046752Y-42767618D02*
X166189609Y-42767618D01*
X166189609Y-42767618D02*
X166380085Y-42815237D01*
X166380085Y-42815237D02*
X166475323Y-42862856D01*
X166475323Y-42862856D02*
X166570561Y-42958094D01*
X166570561Y-42958094D02*
X166618180Y-43100951D01*
X166618180Y-43100951D02*
X166618180Y-43196189D01*
X166618180Y-43196189D02*
X166570561Y-43339046D01*
X166570561Y-43339046D02*
X166522942Y-43386665D01*
X165618180Y-43958094D02*
X165665800Y-43862856D01*
X165665800Y-43862856D02*
X165713419Y-43815237D01*
X165713419Y-43815237D02*
X165808657Y-43767618D01*
X165808657Y-43767618D02*
X166094371Y-43767618D01*
X166094371Y-43767618D02*
X166189609Y-43815237D01*
X166189609Y-43815237D02*
X166237228Y-43862856D01*
X166237228Y-43862856D02*
X166284847Y-43958094D01*
X166284847Y-43958094D02*
X166284847Y-44100951D01*
X166284847Y-44100951D02*
X166237228Y-44196189D01*
X166237228Y-44196189D02*
X166189609Y-44243808D01*
X166189609Y-44243808D02*
X166094371Y-44291427D01*
X166094371Y-44291427D02*
X165808657Y-44291427D01*
X165808657Y-44291427D02*
X165713419Y-44243808D01*
X165713419Y-44243808D02*
X165665800Y-44196189D01*
X165665800Y-44196189D02*
X165618180Y-44100951D01*
X165618180Y-44100951D02*
X165618180Y-43958094D01*
X166284847Y-44719999D02*
X165618180Y-44719999D01*
X166189609Y-44719999D02*
X166237228Y-44767618D01*
X166237228Y-44767618D02*
X166284847Y-44862856D01*
X166284847Y-44862856D02*
X166284847Y-45005713D01*
X166284847Y-45005713D02*
X166237228Y-45100951D01*
X166237228Y-45100951D02*
X166141990Y-45148570D01*
X166141990Y-45148570D02*
X165618180Y-45148570D01*
X166284847Y-45481904D02*
X166284847Y-45862856D01*
X166618180Y-45624761D02*
X165761038Y-45624761D01*
X165761038Y-45624761D02*
X165665800Y-45672380D01*
X165665800Y-45672380D02*
X165618180Y-45767618D01*
X165618180Y-45767618D02*
X165618180Y-45862856D01*
X165618180Y-46196190D02*
X166284847Y-46196190D01*
X166094371Y-46196190D02*
X166189609Y-46243809D01*
X166189609Y-46243809D02*
X166237228Y-46291428D01*
X166237228Y-46291428D02*
X166284847Y-46386666D01*
X166284847Y-46386666D02*
X166284847Y-46481904D01*
X165618180Y-47243809D02*
X166141990Y-47243809D01*
X166141990Y-47243809D02*
X166237228Y-47196190D01*
X166237228Y-47196190D02*
X166284847Y-47100952D01*
X166284847Y-47100952D02*
X166284847Y-46910476D01*
X166284847Y-46910476D02*
X166237228Y-46815238D01*
X165665800Y-47243809D02*
X165618180Y-47148571D01*
X165618180Y-47148571D02*
X165618180Y-46910476D01*
X165618180Y-46910476D02*
X165665800Y-46815238D01*
X165665800Y-46815238D02*
X165761038Y-46767619D01*
X165761038Y-46767619D02*
X165856276Y-46767619D01*
X165856276Y-46767619D02*
X165951514Y-46815238D01*
X165951514Y-46815238D02*
X165999133Y-46910476D01*
X165999133Y-46910476D02*
X165999133Y-47148571D01*
X165999133Y-47148571D02*
X166046752Y-47243809D01*
X165665800Y-47672381D02*
X165618180Y-47767619D01*
X165618180Y-47767619D02*
X165618180Y-47958095D01*
X165618180Y-47958095D02*
X165665800Y-48053333D01*
X165665800Y-48053333D02*
X165761038Y-48100952D01*
X165761038Y-48100952D02*
X165808657Y-48100952D01*
X165808657Y-48100952D02*
X165903895Y-48053333D01*
X165903895Y-48053333D02*
X165951514Y-47958095D01*
X165951514Y-47958095D02*
X165951514Y-47815238D01*
X165951514Y-47815238D02*
X165999133Y-47720000D01*
X165999133Y-47720000D02*
X166094371Y-47672381D01*
X166094371Y-47672381D02*
X166141990Y-47672381D01*
X166141990Y-47672381D02*
X166237228Y-47720000D01*
X166237228Y-47720000D02*
X166284847Y-47815238D01*
X166284847Y-47815238D02*
X166284847Y-47958095D01*
X166284847Y-47958095D02*
X166237228Y-48053333D01*
X166284847Y-48386667D02*
X166284847Y-48767619D01*
X166618180Y-48529524D02*
X165761038Y-48529524D01*
X165761038Y-48529524D02*
X165665800Y-48577143D01*
X165665800Y-48577143D02*
X165618180Y-48672381D01*
X165618180Y-48672381D02*
X165618180Y-48767619D01*
X175041158Y-104121057D02*
X175088777Y-104073438D01*
X175088777Y-104073438D02*
X175184015Y-104025819D01*
X175184015Y-104025819D02*
X175422110Y-104025819D01*
X175422110Y-104025819D02*
X175517348Y-104073438D01*
X175517348Y-104073438D02*
X175564967Y-104121057D01*
X175564967Y-104121057D02*
X175612586Y-104216295D01*
X175612586Y-104216295D02*
X175612586Y-104311533D01*
X175612586Y-104311533D02*
X175564967Y-104454390D01*
X175564967Y-104454390D02*
X174993539Y-105025819D01*
X174993539Y-105025819D02*
X175612586Y-105025819D01*
X176231634Y-104025819D02*
X176326872Y-104025819D01*
X176326872Y-104025819D02*
X176422110Y-104073438D01*
X176422110Y-104073438D02*
X176469729Y-104121057D01*
X176469729Y-104121057D02*
X176517348Y-104216295D01*
X176517348Y-104216295D02*
X176564967Y-104406771D01*
X176564967Y-104406771D02*
X176564967Y-104644866D01*
X176564967Y-104644866D02*
X176517348Y-104835342D01*
X176517348Y-104835342D02*
X176469729Y-104930580D01*
X176469729Y-104930580D02*
X176422110Y-104978200D01*
X176422110Y-104978200D02*
X176326872Y-105025819D01*
X176326872Y-105025819D02*
X176231634Y-105025819D01*
X176231634Y-105025819D02*
X176136396Y-104978200D01*
X176136396Y-104978200D02*
X176088777Y-104930580D01*
X176088777Y-104930580D02*
X176041158Y-104835342D01*
X176041158Y-104835342D02*
X175993539Y-104644866D01*
X175993539Y-104644866D02*
X175993539Y-104406771D01*
X175993539Y-104406771D02*
X176041158Y-104216295D01*
X176041158Y-104216295D02*
X176088777Y-104121057D01*
X176088777Y-104121057D02*
X176136396Y-104073438D01*
X176136396Y-104073438D02*
X176231634Y-104025819D01*
X176993539Y-105025819D02*
X176993539Y-104025819D01*
X177088777Y-104644866D02*
X177374491Y-105025819D01*
X177374491Y-104359152D02*
X176993539Y-104740104D01*
X159022022Y-127203519D02*
X159355355Y-128203519D01*
X159355355Y-128203519D02*
X159688688Y-127203519D01*
X160164879Y-128203519D02*
X160069641Y-128155900D01*
X160069641Y-128155900D02*
X160022022Y-128108280D01*
X160022022Y-128108280D02*
X159974403Y-128013042D01*
X159974403Y-128013042D02*
X159974403Y-127727328D01*
X159974403Y-127727328D02*
X160022022Y-127632090D01*
X160022022Y-127632090D02*
X160069641Y-127584471D01*
X160069641Y-127584471D02*
X160164879Y-127536852D01*
X160164879Y-127536852D02*
X160307736Y-127536852D01*
X160307736Y-127536852D02*
X160402974Y-127584471D01*
X160402974Y-127584471D02*
X160450593Y-127632090D01*
X160450593Y-127632090D02*
X160498212Y-127727328D01*
X160498212Y-127727328D02*
X160498212Y-128013042D01*
X160498212Y-128013042D02*
X160450593Y-128108280D01*
X160450593Y-128108280D02*
X160402974Y-128155900D01*
X160402974Y-128155900D02*
X160307736Y-128203519D01*
X160307736Y-128203519D02*
X160164879Y-128203519D01*
X161069641Y-128203519D02*
X160974403Y-128155900D01*
X160974403Y-128155900D02*
X160926784Y-128060661D01*
X160926784Y-128060661D02*
X160926784Y-127203519D01*
X161307737Y-127536852D02*
X161688689Y-127536852D01*
X161450594Y-127203519D02*
X161450594Y-128060661D01*
X161450594Y-128060661D02*
X161498213Y-128155900D01*
X161498213Y-128155900D02*
X161593451Y-128203519D01*
X161593451Y-128203519D02*
X161688689Y-128203519D01*
X162450594Y-128203519D02*
X162450594Y-127679709D01*
X162450594Y-127679709D02*
X162402975Y-127584471D01*
X162402975Y-127584471D02*
X162307737Y-127536852D01*
X162307737Y-127536852D02*
X162117261Y-127536852D01*
X162117261Y-127536852D02*
X162022023Y-127584471D01*
X162450594Y-128155900D02*
X162355356Y-128203519D01*
X162355356Y-128203519D02*
X162117261Y-128203519D01*
X162117261Y-128203519D02*
X162022023Y-128155900D01*
X162022023Y-128155900D02*
X161974404Y-128060661D01*
X161974404Y-128060661D02*
X161974404Y-127965423D01*
X161974404Y-127965423D02*
X162022023Y-127870185D01*
X162022023Y-127870185D02*
X162117261Y-127822566D01*
X162117261Y-127822566D02*
X162355356Y-127822566D01*
X162355356Y-127822566D02*
X162450594Y-127774947D01*
X163355356Y-127536852D02*
X163355356Y-128346376D01*
X163355356Y-128346376D02*
X163307737Y-128441614D01*
X163307737Y-128441614D02*
X163260118Y-128489233D01*
X163260118Y-128489233D02*
X163164880Y-128536852D01*
X163164880Y-128536852D02*
X163022023Y-128536852D01*
X163022023Y-128536852D02*
X162926785Y-128489233D01*
X163355356Y-128155900D02*
X163260118Y-128203519D01*
X163260118Y-128203519D02*
X163069642Y-128203519D01*
X163069642Y-128203519D02*
X162974404Y-128155900D01*
X162974404Y-128155900D02*
X162926785Y-128108280D01*
X162926785Y-128108280D02*
X162879166Y-128013042D01*
X162879166Y-128013042D02*
X162879166Y-127727328D01*
X162879166Y-127727328D02*
X162926785Y-127632090D01*
X162926785Y-127632090D02*
X162974404Y-127584471D01*
X162974404Y-127584471D02*
X163069642Y-127536852D01*
X163069642Y-127536852D02*
X163260118Y-127536852D01*
X163260118Y-127536852D02*
X163355356Y-127584471D01*
X164212499Y-128155900D02*
X164117261Y-128203519D01*
X164117261Y-128203519D02*
X163926785Y-128203519D01*
X163926785Y-128203519D02*
X163831547Y-128155900D01*
X163831547Y-128155900D02*
X163783928Y-128060661D01*
X163783928Y-128060661D02*
X163783928Y-127679709D01*
X163783928Y-127679709D02*
X163831547Y-127584471D01*
X163831547Y-127584471D02*
X163926785Y-127536852D01*
X163926785Y-127536852D02*
X164117261Y-127536852D01*
X164117261Y-127536852D02*
X164212499Y-127584471D01*
X164212499Y-127584471D02*
X164260118Y-127679709D01*
X164260118Y-127679709D02*
X164260118Y-127774947D01*
X164260118Y-127774947D02*
X163783928Y-127870185D01*
X165450595Y-128203519D02*
X165450595Y-127203519D01*
X165450595Y-127203519D02*
X165688690Y-127203519D01*
X165688690Y-127203519D02*
X165831547Y-127251138D01*
X165831547Y-127251138D02*
X165926785Y-127346376D01*
X165926785Y-127346376D02*
X165974404Y-127441614D01*
X165974404Y-127441614D02*
X166022023Y-127632090D01*
X166022023Y-127632090D02*
X166022023Y-127774947D01*
X166022023Y-127774947D02*
X165974404Y-127965423D01*
X165974404Y-127965423D02*
X165926785Y-128060661D01*
X165926785Y-128060661D02*
X165831547Y-128155900D01*
X165831547Y-128155900D02*
X165688690Y-128203519D01*
X165688690Y-128203519D02*
X165450595Y-128203519D01*
X166450595Y-128203519D02*
X166450595Y-127536852D01*
X166450595Y-127203519D02*
X166402976Y-127251138D01*
X166402976Y-127251138D02*
X166450595Y-127298757D01*
X166450595Y-127298757D02*
X166498214Y-127251138D01*
X166498214Y-127251138D02*
X166450595Y-127203519D01*
X166450595Y-127203519D02*
X166450595Y-127298757D01*
X166831547Y-127536852D02*
X167069642Y-128203519D01*
X167069642Y-128203519D02*
X167307737Y-127536852D01*
X167688690Y-128203519D02*
X167688690Y-127536852D01*
X167688690Y-127203519D02*
X167641071Y-127251138D01*
X167641071Y-127251138D02*
X167688690Y-127298757D01*
X167688690Y-127298757D02*
X167736309Y-127251138D01*
X167736309Y-127251138D02*
X167688690Y-127203519D01*
X167688690Y-127203519D02*
X167688690Y-127298757D01*
X168593451Y-128203519D02*
X168593451Y-127203519D01*
X168593451Y-128155900D02*
X168498213Y-128203519D01*
X168498213Y-128203519D02*
X168307737Y-128203519D01*
X168307737Y-128203519D02*
X168212499Y-128155900D01*
X168212499Y-128155900D02*
X168164880Y-128108280D01*
X168164880Y-128108280D02*
X168117261Y-128013042D01*
X168117261Y-128013042D02*
X168117261Y-127727328D01*
X168117261Y-127727328D02*
X168164880Y-127632090D01*
X168164880Y-127632090D02*
X168212499Y-127584471D01*
X168212499Y-127584471D02*
X168307737Y-127536852D01*
X168307737Y-127536852D02*
X168498213Y-127536852D01*
X168498213Y-127536852D02*
X168593451Y-127584471D01*
X169450594Y-128155900D02*
X169355356Y-128203519D01*
X169355356Y-128203519D02*
X169164880Y-128203519D01*
X169164880Y-128203519D02*
X169069642Y-128155900D01*
X169069642Y-128155900D02*
X169022023Y-128060661D01*
X169022023Y-128060661D02*
X169022023Y-127679709D01*
X169022023Y-127679709D02*
X169069642Y-127584471D01*
X169069642Y-127584471D02*
X169164880Y-127536852D01*
X169164880Y-127536852D02*
X169355356Y-127536852D01*
X169355356Y-127536852D02*
X169450594Y-127584471D01*
X169450594Y-127584471D02*
X169498213Y-127679709D01*
X169498213Y-127679709D02*
X169498213Y-127774947D01*
X169498213Y-127774947D02*
X169022023Y-127870185D01*
X169926785Y-128203519D02*
X169926785Y-127536852D01*
X169926785Y-127727328D02*
X169974404Y-127632090D01*
X169974404Y-127632090D02*
X170022023Y-127584471D01*
X170022023Y-127584471D02*
X170117261Y-127536852D01*
X170117261Y-127536852D02*
X170212499Y-127536852D01*
X171307738Y-128203519D02*
X171307738Y-127203519D01*
X171783928Y-127536852D02*
X171783928Y-128203519D01*
X171783928Y-127632090D02*
X171831547Y-127584471D01*
X171831547Y-127584471D02*
X171926785Y-127536852D01*
X171926785Y-127536852D02*
X172069642Y-127536852D01*
X172069642Y-127536852D02*
X172164880Y-127584471D01*
X172164880Y-127584471D02*
X172212499Y-127679709D01*
X172212499Y-127679709D02*
X172212499Y-128203519D01*
X172688690Y-127536852D02*
X172688690Y-128536852D01*
X172688690Y-127584471D02*
X172783928Y-127536852D01*
X172783928Y-127536852D02*
X172974404Y-127536852D01*
X172974404Y-127536852D02*
X173069642Y-127584471D01*
X173069642Y-127584471D02*
X173117261Y-127632090D01*
X173117261Y-127632090D02*
X173164880Y-127727328D01*
X173164880Y-127727328D02*
X173164880Y-128013042D01*
X173164880Y-128013042D02*
X173117261Y-128108280D01*
X173117261Y-128108280D02*
X173069642Y-128155900D01*
X173069642Y-128155900D02*
X172974404Y-128203519D01*
X172974404Y-128203519D02*
X172783928Y-128203519D01*
X172783928Y-128203519D02*
X172688690Y-128155900D01*
X174022023Y-127536852D02*
X174022023Y-128203519D01*
X173593452Y-127536852D02*
X173593452Y-128060661D01*
X173593452Y-128060661D02*
X173641071Y-128155900D01*
X173641071Y-128155900D02*
X173736309Y-128203519D01*
X173736309Y-128203519D02*
X173879166Y-128203519D01*
X173879166Y-128203519D02*
X173974404Y-128155900D01*
X173974404Y-128155900D02*
X174022023Y-128108280D01*
X174355357Y-127536852D02*
X174736309Y-127536852D01*
X174498214Y-127203519D02*
X174498214Y-128060661D01*
X174498214Y-128060661D02*
X174545833Y-128155900D01*
X174545833Y-128155900D02*
X174641071Y-128203519D01*
X174641071Y-128203519D02*
X174736309Y-128203519D01*
X175022024Y-128155900D02*
X175117262Y-128203519D01*
X175117262Y-128203519D02*
X175307738Y-128203519D01*
X175307738Y-128203519D02*
X175402976Y-128155900D01*
X175402976Y-128155900D02*
X175450595Y-128060661D01*
X175450595Y-128060661D02*
X175450595Y-128013042D01*
X175450595Y-128013042D02*
X175402976Y-127917804D01*
X175402976Y-127917804D02*
X175307738Y-127870185D01*
X175307738Y-127870185D02*
X175164881Y-127870185D01*
X175164881Y-127870185D02*
X175069643Y-127822566D01*
X175069643Y-127822566D02*
X175022024Y-127727328D01*
X175022024Y-127727328D02*
X175022024Y-127679709D01*
X175022024Y-127679709D02*
X175069643Y-127584471D01*
X175069643Y-127584471D02*
X175164881Y-127536852D01*
X175164881Y-127536852D02*
X175307738Y-127536852D01*
X175307738Y-127536852D02*
X175402976Y-127584471D01*
X132736419Y-59928380D02*
X132688800Y-59880761D01*
X132688800Y-59880761D02*
X132641180Y-59737904D01*
X132641180Y-59737904D02*
X132641180Y-59642666D01*
X132641180Y-59642666D02*
X132688800Y-59499809D01*
X132688800Y-59499809D02*
X132784038Y-59404571D01*
X132784038Y-59404571D02*
X132879276Y-59356952D01*
X132879276Y-59356952D02*
X133069752Y-59309333D01*
X133069752Y-59309333D02*
X133212609Y-59309333D01*
X133212609Y-59309333D02*
X133403085Y-59356952D01*
X133403085Y-59356952D02*
X133498323Y-59404571D01*
X133498323Y-59404571D02*
X133593561Y-59499809D01*
X133593561Y-59499809D02*
X133641180Y-59642666D01*
X133641180Y-59642666D02*
X133641180Y-59737904D01*
X133641180Y-59737904D02*
X133593561Y-59880761D01*
X133593561Y-59880761D02*
X133545942Y-59928380D01*
X133307847Y-60261714D02*
X132641180Y-60499809D01*
X133307847Y-60737904D02*
X132641180Y-60499809D01*
X132641180Y-60499809D02*
X132403085Y-60404571D01*
X132403085Y-60404571D02*
X132355466Y-60356952D01*
X132355466Y-60356952D02*
X132307847Y-60261714D01*
X132688800Y-61547428D02*
X132641180Y-61452190D01*
X132641180Y-61452190D02*
X132641180Y-61261714D01*
X132641180Y-61261714D02*
X132688800Y-61166476D01*
X132688800Y-61166476D02*
X132736419Y-61118857D01*
X132736419Y-61118857D02*
X132831657Y-61071238D01*
X132831657Y-61071238D02*
X133117371Y-61071238D01*
X133117371Y-61071238D02*
X133212609Y-61118857D01*
X133212609Y-61118857D02*
X133260228Y-61166476D01*
X133260228Y-61166476D02*
X133307847Y-61261714D01*
X133307847Y-61261714D02*
X133307847Y-61452190D01*
X133307847Y-61452190D02*
X133260228Y-61547428D01*
X132641180Y-62118857D02*
X132688800Y-62023619D01*
X132688800Y-62023619D02*
X132784038Y-61976000D01*
X132784038Y-61976000D02*
X133641180Y-61976000D01*
X132688800Y-62880762D02*
X132641180Y-62785524D01*
X132641180Y-62785524D02*
X132641180Y-62595048D01*
X132641180Y-62595048D02*
X132688800Y-62499810D01*
X132688800Y-62499810D02*
X132784038Y-62452191D01*
X132784038Y-62452191D02*
X133164990Y-62452191D01*
X133164990Y-62452191D02*
X133260228Y-62499810D01*
X133260228Y-62499810D02*
X133307847Y-62595048D01*
X133307847Y-62595048D02*
X133307847Y-62785524D01*
X133307847Y-62785524D02*
X133260228Y-62880762D01*
X133260228Y-62880762D02*
X133164990Y-62928381D01*
X133164990Y-62928381D02*
X133069752Y-62928381D01*
X133069752Y-62928381D02*
X132974514Y-62452191D01*
X133545942Y-64071239D02*
X133593561Y-64118858D01*
X133593561Y-64118858D02*
X133641180Y-64214096D01*
X133641180Y-64214096D02*
X133641180Y-64452191D01*
X133641180Y-64452191D02*
X133593561Y-64547429D01*
X133593561Y-64547429D02*
X133545942Y-64595048D01*
X133545942Y-64595048D02*
X133450704Y-64642667D01*
X133450704Y-64642667D02*
X133355466Y-64642667D01*
X133355466Y-64642667D02*
X133212609Y-64595048D01*
X133212609Y-64595048D02*
X132641180Y-64023620D01*
X132641180Y-64023620D02*
X132641180Y-64642667D01*
X163658779Y-138807866D02*
X164420684Y-138807866D01*
X164039731Y-139188819D02*
X164039731Y-138426914D01*
X175564967Y-106565819D02*
X175088777Y-106565819D01*
X175088777Y-106565819D02*
X175041158Y-107042009D01*
X175041158Y-107042009D02*
X175088777Y-106994390D01*
X175088777Y-106994390D02*
X175184015Y-106946771D01*
X175184015Y-106946771D02*
X175422110Y-106946771D01*
X175422110Y-106946771D02*
X175517348Y-106994390D01*
X175517348Y-106994390D02*
X175564967Y-107042009D01*
X175564967Y-107042009D02*
X175612586Y-107137247D01*
X175612586Y-107137247D02*
X175612586Y-107375342D01*
X175612586Y-107375342D02*
X175564967Y-107470580D01*
X175564967Y-107470580D02*
X175517348Y-107518200D01*
X175517348Y-107518200D02*
X175422110Y-107565819D01*
X175422110Y-107565819D02*
X175184015Y-107565819D01*
X175184015Y-107565819D02*
X175088777Y-107518200D01*
X175088777Y-107518200D02*
X175041158Y-107470580D01*
X176231634Y-106565819D02*
X176326872Y-106565819D01*
X176326872Y-106565819D02*
X176422110Y-106613438D01*
X176422110Y-106613438D02*
X176469729Y-106661057D01*
X176469729Y-106661057D02*
X176517348Y-106756295D01*
X176517348Y-106756295D02*
X176564967Y-106946771D01*
X176564967Y-106946771D02*
X176564967Y-107184866D01*
X176564967Y-107184866D02*
X176517348Y-107375342D01*
X176517348Y-107375342D02*
X176469729Y-107470580D01*
X176469729Y-107470580D02*
X176422110Y-107518200D01*
X176422110Y-107518200D02*
X176326872Y-107565819D01*
X176326872Y-107565819D02*
X176231634Y-107565819D01*
X176231634Y-107565819D02*
X176136396Y-107518200D01*
X176136396Y-107518200D02*
X176088777Y-107470580D01*
X176088777Y-107470580D02*
X176041158Y-107375342D01*
X176041158Y-107375342D02*
X175993539Y-107184866D01*
X175993539Y-107184866D02*
X175993539Y-106946771D01*
X175993539Y-106946771D02*
X176041158Y-106756295D01*
X176041158Y-106756295D02*
X176088777Y-106661057D01*
X176088777Y-106661057D02*
X176136396Y-106613438D01*
X176136396Y-106613438D02*
X176231634Y-106565819D01*
X176993539Y-107565819D02*
X176993539Y-106565819D01*
X177088777Y-107184866D02*
X177374491Y-107565819D01*
X177374491Y-106899152D02*
X176993539Y-107280104D01*
X132736419Y-50022380D02*
X132688800Y-49974761D01*
X132688800Y-49974761D02*
X132641180Y-49831904D01*
X132641180Y-49831904D02*
X132641180Y-49736666D01*
X132641180Y-49736666D02*
X132688800Y-49593809D01*
X132688800Y-49593809D02*
X132784038Y-49498571D01*
X132784038Y-49498571D02*
X132879276Y-49450952D01*
X132879276Y-49450952D02*
X133069752Y-49403333D01*
X133069752Y-49403333D02*
X133212609Y-49403333D01*
X133212609Y-49403333D02*
X133403085Y-49450952D01*
X133403085Y-49450952D02*
X133498323Y-49498571D01*
X133498323Y-49498571D02*
X133593561Y-49593809D01*
X133593561Y-49593809D02*
X133641180Y-49736666D01*
X133641180Y-49736666D02*
X133641180Y-49831904D01*
X133641180Y-49831904D02*
X133593561Y-49974761D01*
X133593561Y-49974761D02*
X133545942Y-50022380D01*
X133307847Y-50355714D02*
X132641180Y-50593809D01*
X133307847Y-50831904D02*
X132641180Y-50593809D01*
X132641180Y-50593809D02*
X132403085Y-50498571D01*
X132403085Y-50498571D02*
X132355466Y-50450952D01*
X132355466Y-50450952D02*
X132307847Y-50355714D01*
X132688800Y-51641428D02*
X132641180Y-51546190D01*
X132641180Y-51546190D02*
X132641180Y-51355714D01*
X132641180Y-51355714D02*
X132688800Y-51260476D01*
X132688800Y-51260476D02*
X132736419Y-51212857D01*
X132736419Y-51212857D02*
X132831657Y-51165238D01*
X132831657Y-51165238D02*
X133117371Y-51165238D01*
X133117371Y-51165238D02*
X133212609Y-51212857D01*
X133212609Y-51212857D02*
X133260228Y-51260476D01*
X133260228Y-51260476D02*
X133307847Y-51355714D01*
X133307847Y-51355714D02*
X133307847Y-51546190D01*
X133307847Y-51546190D02*
X133260228Y-51641428D01*
X132641180Y-52212857D02*
X132688800Y-52117619D01*
X132688800Y-52117619D02*
X132784038Y-52070000D01*
X132784038Y-52070000D02*
X133641180Y-52070000D01*
X132688800Y-52974762D02*
X132641180Y-52879524D01*
X132641180Y-52879524D02*
X132641180Y-52689048D01*
X132641180Y-52689048D02*
X132688800Y-52593810D01*
X132688800Y-52593810D02*
X132784038Y-52546191D01*
X132784038Y-52546191D02*
X133164990Y-52546191D01*
X133164990Y-52546191D02*
X133260228Y-52593810D01*
X133260228Y-52593810D02*
X133307847Y-52689048D01*
X133307847Y-52689048D02*
X133307847Y-52879524D01*
X133307847Y-52879524D02*
X133260228Y-52974762D01*
X133260228Y-52974762D02*
X133164990Y-53022381D01*
X133164990Y-53022381D02*
X133069752Y-53022381D01*
X133069752Y-53022381D02*
X132974514Y-52546191D01*
X132641180Y-54736667D02*
X132641180Y-54165239D01*
X132641180Y-54450953D02*
X133641180Y-54450953D01*
X133641180Y-54450953D02*
X133498323Y-54355715D01*
X133498323Y-54355715D02*
X133403085Y-54260477D01*
X133403085Y-54260477D02*
X133355466Y-54165239D01*
X131023333Y-94374200D02*
X131137619Y-94412295D01*
X131137619Y-94412295D02*
X131328095Y-94412295D01*
X131328095Y-94412295D02*
X131404286Y-94374200D01*
X131404286Y-94374200D02*
X131442381Y-94336104D01*
X131442381Y-94336104D02*
X131480476Y-94259914D01*
X131480476Y-94259914D02*
X131480476Y-94183723D01*
X131480476Y-94183723D02*
X131442381Y-94107533D01*
X131442381Y-94107533D02*
X131404286Y-94069438D01*
X131404286Y-94069438D02*
X131328095Y-94031342D01*
X131328095Y-94031342D02*
X131175714Y-93993247D01*
X131175714Y-93993247D02*
X131099524Y-93955152D01*
X131099524Y-93955152D02*
X131061429Y-93917057D01*
X131061429Y-93917057D02*
X131023333Y-93840866D01*
X131023333Y-93840866D02*
X131023333Y-93764676D01*
X131023333Y-93764676D02*
X131061429Y-93688485D01*
X131061429Y-93688485D02*
X131099524Y-93650390D01*
X131099524Y-93650390D02*
X131175714Y-93612295D01*
X131175714Y-93612295D02*
X131366191Y-93612295D01*
X131366191Y-93612295D02*
X131480476Y-93650390D01*
X131975715Y-94031342D02*
X131975715Y-94412295D01*
X131709048Y-93612295D02*
X131975715Y-94031342D01*
X131975715Y-94031342D02*
X132242381Y-93612295D01*
X132509048Y-94412295D02*
X132509048Y-93612295D01*
X132509048Y-93612295D02*
X132966191Y-94412295D01*
X132966191Y-94412295D02*
X132966191Y-93612295D01*
X133804286Y-94336104D02*
X133766190Y-94374200D01*
X133766190Y-94374200D02*
X133651905Y-94412295D01*
X133651905Y-94412295D02*
X133575714Y-94412295D01*
X133575714Y-94412295D02*
X133461428Y-94374200D01*
X133461428Y-94374200D02*
X133385238Y-94298009D01*
X133385238Y-94298009D02*
X133347143Y-94221819D01*
X133347143Y-94221819D02*
X133309047Y-94069438D01*
X133309047Y-94069438D02*
X133309047Y-93955152D01*
X133309047Y-93955152D02*
X133347143Y-93802771D01*
X133347143Y-93802771D02*
X133385238Y-93726580D01*
X133385238Y-93726580D02*
X133461428Y-93650390D01*
X133461428Y-93650390D02*
X133575714Y-93612295D01*
X133575714Y-93612295D02*
X133651905Y-93612295D01*
X133651905Y-93612295D02*
X133766190Y-93650390D01*
X133766190Y-93650390D02*
X133804286Y-93688485D01*
X175612586Y-112645819D02*
X175041158Y-112645819D01*
X175326872Y-112645819D02*
X175326872Y-111645819D01*
X175326872Y-111645819D02*
X175231634Y-111788676D01*
X175231634Y-111788676D02*
X175136396Y-111883914D01*
X175136396Y-111883914D02*
X175041158Y-111931533D01*
X176041158Y-112645819D02*
X176041158Y-111645819D01*
X176041158Y-111645819D02*
X176374491Y-112360104D01*
X176374491Y-112360104D02*
X176707824Y-111645819D01*
X176707824Y-111645819D02*
X176707824Y-112645819D01*
X175104586Y-110105819D02*
X174533158Y-110105819D01*
X174818872Y-110105819D02*
X174818872Y-109105819D01*
X174818872Y-109105819D02*
X174723634Y-109248676D01*
X174723634Y-109248676D02*
X174628396Y-109343914D01*
X174628396Y-109343914D02*
X174533158Y-109391533D01*
X175723634Y-109105819D02*
X175818872Y-109105819D01*
X175818872Y-109105819D02*
X175914110Y-109153438D01*
X175914110Y-109153438D02*
X175961729Y-109201057D01*
X175961729Y-109201057D02*
X176009348Y-109296295D01*
X176009348Y-109296295D02*
X176056967Y-109486771D01*
X176056967Y-109486771D02*
X176056967Y-109724866D01*
X176056967Y-109724866D02*
X176009348Y-109915342D01*
X176009348Y-109915342D02*
X175961729Y-110010580D01*
X175961729Y-110010580D02*
X175914110Y-110058200D01*
X175914110Y-110058200D02*
X175818872Y-110105819D01*
X175818872Y-110105819D02*
X175723634Y-110105819D01*
X175723634Y-110105819D02*
X175628396Y-110058200D01*
X175628396Y-110058200D02*
X175580777Y-110010580D01*
X175580777Y-110010580D02*
X175533158Y-109915342D01*
X175533158Y-109915342D02*
X175485539Y-109724866D01*
X175485539Y-109724866D02*
X175485539Y-109486771D01*
X175485539Y-109486771D02*
X175533158Y-109296295D01*
X175533158Y-109296295D02*
X175580777Y-109201057D01*
X175580777Y-109201057D02*
X175628396Y-109153438D01*
X175628396Y-109153438D02*
X175723634Y-109105819D01*
X176676015Y-109105819D02*
X176771253Y-109105819D01*
X176771253Y-109105819D02*
X176866491Y-109153438D01*
X176866491Y-109153438D02*
X176914110Y-109201057D01*
X176914110Y-109201057D02*
X176961729Y-109296295D01*
X176961729Y-109296295D02*
X177009348Y-109486771D01*
X177009348Y-109486771D02*
X177009348Y-109724866D01*
X177009348Y-109724866D02*
X176961729Y-109915342D01*
X176961729Y-109915342D02*
X176914110Y-110010580D01*
X176914110Y-110010580D02*
X176866491Y-110058200D01*
X176866491Y-110058200D02*
X176771253Y-110105819D01*
X176771253Y-110105819D02*
X176676015Y-110105819D01*
X176676015Y-110105819D02*
X176580777Y-110058200D01*
X176580777Y-110058200D02*
X176533158Y-110010580D01*
X176533158Y-110010580D02*
X176485539Y-109915342D01*
X176485539Y-109915342D02*
X176437920Y-109724866D01*
X176437920Y-109724866D02*
X176437920Y-109486771D01*
X176437920Y-109486771D02*
X176485539Y-109296295D01*
X176485539Y-109296295D02*
X176533158Y-109201057D01*
X176533158Y-109201057D02*
X176580777Y-109153438D01*
X176580777Y-109153438D02*
X176676015Y-109105819D01*
X177437920Y-110105819D02*
X177437920Y-109105819D01*
X177533158Y-109724866D02*
X177818872Y-110105819D01*
X177818872Y-109439152D02*
X177437920Y-109820104D01*
X131061429Y-96962295D02*
X131061429Y-96162295D01*
X131442381Y-96962295D02*
X131442381Y-96162295D01*
X131442381Y-96162295D02*
X131899524Y-96962295D01*
X131899524Y-96962295D02*
X131899524Y-96162295D01*
X132166190Y-96162295D02*
X132623333Y-96162295D01*
X132394761Y-96962295D02*
X132394761Y-96162295D01*
X141905714Y-95089104D02*
X142381904Y-95089104D01*
X141810476Y-95374819D02*
X142143809Y-94374819D01*
X142143809Y-94374819D02*
X142477142Y-95374819D01*
X143334285Y-95374819D02*
X142762857Y-95374819D01*
X143048571Y-95374819D02*
X143048571Y-94374819D01*
X143048571Y-94374819D02*
X142953333Y-94517676D01*
X142953333Y-94517676D02*
X142858095Y-94612914D01*
X142858095Y-94612914D02*
X142762857Y-94660533D01*
X171536666Y-98983819D02*
X171536666Y-99698104D01*
X171536666Y-99698104D02*
X171489047Y-99840961D01*
X171489047Y-99840961D02*
X171393809Y-99936200D01*
X171393809Y-99936200D02*
X171250952Y-99983819D01*
X171250952Y-99983819D02*
X171155714Y-99983819D01*
X172489047Y-98983819D02*
X172012857Y-98983819D01*
X172012857Y-98983819D02*
X171965238Y-99460009D01*
X171965238Y-99460009D02*
X172012857Y-99412390D01*
X172012857Y-99412390D02*
X172108095Y-99364771D01*
X172108095Y-99364771D02*
X172346190Y-99364771D01*
X172346190Y-99364771D02*
X172441428Y-99412390D01*
X172441428Y-99412390D02*
X172489047Y-99460009D01*
X172489047Y-99460009D02*
X172536666Y-99555247D01*
X172536666Y-99555247D02*
X172536666Y-99793342D01*
X172536666Y-99793342D02*
X172489047Y-99888580D01*
X172489047Y-99888580D02*
X172441428Y-99936200D01*
X172441428Y-99936200D02*
X172346190Y-99983819D01*
X172346190Y-99983819D02*
X172108095Y-99983819D01*
X172108095Y-99983819D02*
X172012857Y-99936200D01*
X172012857Y-99936200D02*
X171965238Y-99888580D01*
X162393333Y-77901580D02*
X162345714Y-77949200D01*
X162345714Y-77949200D02*
X162202857Y-77996819D01*
X162202857Y-77996819D02*
X162107619Y-77996819D01*
X162107619Y-77996819D02*
X161964762Y-77949200D01*
X161964762Y-77949200D02*
X161869524Y-77853961D01*
X161869524Y-77853961D02*
X161821905Y-77758723D01*
X161821905Y-77758723D02*
X161774286Y-77568247D01*
X161774286Y-77568247D02*
X161774286Y-77425390D01*
X161774286Y-77425390D02*
X161821905Y-77234914D01*
X161821905Y-77234914D02*
X161869524Y-77139676D01*
X161869524Y-77139676D02*
X161964762Y-77044438D01*
X161964762Y-77044438D02*
X162107619Y-76996819D01*
X162107619Y-76996819D02*
X162202857Y-76996819D01*
X162202857Y-76996819D02*
X162345714Y-77044438D01*
X162345714Y-77044438D02*
X162393333Y-77092057D01*
X162726667Y-76996819D02*
X163393333Y-76996819D01*
X163393333Y-76996819D02*
X162964762Y-77996819D01*
X181901180Y-63754095D02*
X181091657Y-63754095D01*
X181091657Y-63754095D02*
X180996419Y-63801714D01*
X180996419Y-63801714D02*
X180948800Y-63849333D01*
X180948800Y-63849333D02*
X180901180Y-63944571D01*
X180901180Y-63944571D02*
X180901180Y-64135047D01*
X180901180Y-64135047D02*
X180948800Y-64230285D01*
X180948800Y-64230285D02*
X180996419Y-64277904D01*
X180996419Y-64277904D02*
X181091657Y-64325523D01*
X181091657Y-64325523D02*
X181901180Y-64325523D01*
X181901180Y-64706476D02*
X181901180Y-65373142D01*
X181901180Y-65373142D02*
X180901180Y-64944571D01*
X184392219Y-61537849D02*
X184630314Y-61537849D01*
X184535076Y-61775944D02*
X184630314Y-61537849D01*
X184630314Y-61537849D02*
X184535076Y-61299754D01*
X184820790Y-61680706D02*
X184630314Y-61537849D01*
X184630314Y-61537849D02*
X184820790Y-61394992D01*
X185482580Y-61537850D02*
X185244485Y-61537850D01*
X185339723Y-61299755D02*
X185244485Y-61537850D01*
X185244485Y-61537850D02*
X185339723Y-61775945D01*
X185054009Y-61394993D02*
X185244485Y-61537850D01*
X185244485Y-61537850D02*
X185054009Y-61680707D01*
X135225819Y-87083523D02*
X134225819Y-87083523D01*
X134225819Y-87083523D02*
X134225819Y-86702571D01*
X134225819Y-86702571D02*
X134273438Y-86607333D01*
X134273438Y-86607333D02*
X134321057Y-86559714D01*
X134321057Y-86559714D02*
X134416295Y-86512095D01*
X134416295Y-86512095D02*
X134559152Y-86512095D01*
X134559152Y-86512095D02*
X134654390Y-86559714D01*
X134654390Y-86559714D02*
X134702009Y-86607333D01*
X134702009Y-86607333D02*
X134749628Y-86702571D01*
X134749628Y-86702571D02*
X134749628Y-87083523D01*
X135225819Y-86083523D02*
X134559152Y-86083523D01*
X134654390Y-86083523D02*
X134606771Y-86035904D01*
X134606771Y-86035904D02*
X134559152Y-85940666D01*
X134559152Y-85940666D02*
X134559152Y-85797809D01*
X134559152Y-85797809D02*
X134606771Y-85702571D01*
X134606771Y-85702571D02*
X134702009Y-85654952D01*
X134702009Y-85654952D02*
X135225819Y-85654952D01*
X134702009Y-85654952D02*
X134606771Y-85607333D01*
X134606771Y-85607333D02*
X134559152Y-85512095D01*
X134559152Y-85512095D02*
X134559152Y-85369238D01*
X134559152Y-85369238D02*
X134606771Y-85273999D01*
X134606771Y-85273999D02*
X134702009Y-85226380D01*
X134702009Y-85226380D02*
X135225819Y-85226380D01*
X135225819Y-84607333D02*
X135178200Y-84702571D01*
X135178200Y-84702571D02*
X135130580Y-84750190D01*
X135130580Y-84750190D02*
X135035342Y-84797809D01*
X135035342Y-84797809D02*
X134749628Y-84797809D01*
X134749628Y-84797809D02*
X134654390Y-84750190D01*
X134654390Y-84750190D02*
X134606771Y-84702571D01*
X134606771Y-84702571D02*
X134559152Y-84607333D01*
X134559152Y-84607333D02*
X134559152Y-84464476D01*
X134559152Y-84464476D02*
X134606771Y-84369238D01*
X134606771Y-84369238D02*
X134654390Y-84321619D01*
X134654390Y-84321619D02*
X134749628Y-84274000D01*
X134749628Y-84274000D02*
X135035342Y-84274000D01*
X135035342Y-84274000D02*
X135130580Y-84321619D01*
X135130580Y-84321619D02*
X135178200Y-84369238D01*
X135178200Y-84369238D02*
X135225819Y-84464476D01*
X135225819Y-84464476D02*
X135225819Y-84607333D01*
X135225819Y-83416857D02*
X134225819Y-83416857D01*
X135178200Y-83416857D02*
X135225819Y-83512095D01*
X135225819Y-83512095D02*
X135225819Y-83702571D01*
X135225819Y-83702571D02*
X135178200Y-83797809D01*
X135178200Y-83797809D02*
X135130580Y-83845428D01*
X135130580Y-83845428D02*
X135035342Y-83893047D01*
X135035342Y-83893047D02*
X134749628Y-83893047D01*
X134749628Y-83893047D02*
X134654390Y-83845428D01*
X134654390Y-83845428D02*
X134606771Y-83797809D01*
X134606771Y-83797809D02*
X134559152Y-83702571D01*
X134559152Y-83702571D02*
X134559152Y-83512095D01*
X134559152Y-83512095D02*
X134606771Y-83416857D01*
X135225819Y-82416857D02*
X135225819Y-82988285D01*
X135225819Y-82702571D02*
X134225819Y-82702571D01*
X134225819Y-82702571D02*
X134368676Y-82797809D01*
X134368676Y-82797809D02*
X134463914Y-82893047D01*
X134463914Y-82893047D02*
X134511533Y-82988285D01*
X126174667Y-56473200D02*
X126317524Y-56520819D01*
X126317524Y-56520819D02*
X126555619Y-56520819D01*
X126555619Y-56520819D02*
X126650857Y-56473200D01*
X126650857Y-56473200D02*
X126698476Y-56425580D01*
X126698476Y-56425580D02*
X126746095Y-56330342D01*
X126746095Y-56330342D02*
X126746095Y-56235104D01*
X126746095Y-56235104D02*
X126698476Y-56139866D01*
X126698476Y-56139866D02*
X126650857Y-56092247D01*
X126650857Y-56092247D02*
X126555619Y-56044628D01*
X126555619Y-56044628D02*
X126365143Y-55997009D01*
X126365143Y-55997009D02*
X126269905Y-55949390D01*
X126269905Y-55949390D02*
X126222286Y-55901771D01*
X126222286Y-55901771D02*
X126174667Y-55806533D01*
X126174667Y-55806533D02*
X126174667Y-55711295D01*
X126174667Y-55711295D02*
X126222286Y-55616057D01*
X126222286Y-55616057D02*
X126269905Y-55568438D01*
X126269905Y-55568438D02*
X126365143Y-55520819D01*
X126365143Y-55520819D02*
X126603238Y-55520819D01*
X126603238Y-55520819D02*
X126746095Y-55568438D01*
X127079429Y-55520819D02*
X127317524Y-56520819D01*
X127317524Y-56520819D02*
X127508000Y-55806533D01*
X127508000Y-55806533D02*
X127698476Y-56520819D01*
X127698476Y-56520819D02*
X127936572Y-55520819D01*
X128269905Y-55616057D02*
X128317524Y-55568438D01*
X128317524Y-55568438D02*
X128412762Y-55520819D01*
X128412762Y-55520819D02*
X128650857Y-55520819D01*
X128650857Y-55520819D02*
X128746095Y-55568438D01*
X128746095Y-55568438D02*
X128793714Y-55616057D01*
X128793714Y-55616057D02*
X128841333Y-55711295D01*
X128841333Y-55711295D02*
X128841333Y-55806533D01*
X128841333Y-55806533D02*
X128793714Y-55949390D01*
X128793714Y-55949390D02*
X128222286Y-56520819D01*
X128222286Y-56520819D02*
X128841333Y-56520819D01*
X175135819Y-119638904D02*
X175945342Y-119638904D01*
X175945342Y-119638904D02*
X176040580Y-119591285D01*
X176040580Y-119591285D02*
X176088200Y-119543666D01*
X176088200Y-119543666D02*
X176135819Y-119448428D01*
X176135819Y-119448428D02*
X176135819Y-119257952D01*
X176135819Y-119257952D02*
X176088200Y-119162714D01*
X176088200Y-119162714D02*
X176040580Y-119115095D01*
X176040580Y-119115095D02*
X175945342Y-119067476D01*
X175945342Y-119067476D02*
X175135819Y-119067476D01*
X176135819Y-118067476D02*
X176135819Y-118638904D01*
X176135819Y-118353190D02*
X175135819Y-118353190D01*
X175135819Y-118353190D02*
X175278676Y-118448428D01*
X175278676Y-118448428D02*
X175373914Y-118543666D01*
X175373914Y-118543666D02*
X175421533Y-118638904D01*
X171450095Y-64478819D02*
X171450095Y-65288342D01*
X171450095Y-65288342D02*
X171497714Y-65383580D01*
X171497714Y-65383580D02*
X171545333Y-65431200D01*
X171545333Y-65431200D02*
X171640571Y-65478819D01*
X171640571Y-65478819D02*
X171831047Y-65478819D01*
X171831047Y-65478819D02*
X171926285Y-65431200D01*
X171926285Y-65431200D02*
X171973904Y-65383580D01*
X171973904Y-65383580D02*
X172021523Y-65288342D01*
X172021523Y-65288342D02*
X172021523Y-64478819D01*
X172450095Y-64574057D02*
X172497714Y-64526438D01*
X172497714Y-64526438D02*
X172592952Y-64478819D01*
X172592952Y-64478819D02*
X172831047Y-64478819D01*
X172831047Y-64478819D02*
X172926285Y-64526438D01*
X172926285Y-64526438D02*
X172973904Y-64574057D01*
X172973904Y-64574057D02*
X173021523Y-64669295D01*
X173021523Y-64669295D02*
X173021523Y-64764533D01*
X173021523Y-64764533D02*
X172973904Y-64907390D01*
X172973904Y-64907390D02*
X172402476Y-65478819D01*
X172402476Y-65478819D02*
X173021523Y-65478819D01*
X168402000Y-59157519D02*
X168402000Y-59395614D01*
X168163905Y-59300376D02*
X168402000Y-59395614D01*
X168402000Y-59395614D02*
X168640095Y-59300376D01*
X168259143Y-59586090D02*
X168402000Y-59395614D01*
X168402000Y-59395614D02*
X168544857Y-59586090D01*
X168402000Y-59157519D02*
X168402000Y-59395614D01*
X168163905Y-59300376D02*
X168402000Y-59395614D01*
X168402000Y-59395614D02*
X168640095Y-59300376D01*
X168259143Y-59586090D02*
X168402000Y-59395614D01*
X168402000Y-59395614D02*
X168544857Y-59586090D01*
X187689319Y-120291334D02*
X188403604Y-120291334D01*
X188403604Y-120291334D02*
X188546461Y-120338953D01*
X188546461Y-120338953D02*
X188641700Y-120434191D01*
X188641700Y-120434191D02*
X188689319Y-120577048D01*
X188689319Y-120577048D02*
X188689319Y-120672286D01*
X187784557Y-119862762D02*
X187736938Y-119815143D01*
X187736938Y-119815143D02*
X187689319Y-119719905D01*
X187689319Y-119719905D02*
X187689319Y-119481810D01*
X187689319Y-119481810D02*
X187736938Y-119386572D01*
X187736938Y-119386572D02*
X187784557Y-119338953D01*
X187784557Y-119338953D02*
X187879795Y-119291334D01*
X187879795Y-119291334D02*
X187975033Y-119291334D01*
X187975033Y-119291334D02*
X188117890Y-119338953D01*
X188117890Y-119338953D02*
X188689319Y-119910381D01*
X188689319Y-119910381D02*
X188689319Y-119291334D01*
X171142819Y-48616238D02*
X170666628Y-48949571D01*
X171142819Y-49187666D02*
X170142819Y-49187666D01*
X170142819Y-49187666D02*
X170142819Y-48806714D01*
X170142819Y-48806714D02*
X170190438Y-48711476D01*
X170190438Y-48711476D02*
X170238057Y-48663857D01*
X170238057Y-48663857D02*
X170333295Y-48616238D01*
X170333295Y-48616238D02*
X170476152Y-48616238D01*
X170476152Y-48616238D02*
X170571390Y-48663857D01*
X170571390Y-48663857D02*
X170619009Y-48711476D01*
X170619009Y-48711476D02*
X170666628Y-48806714D01*
X170666628Y-48806714D02*
X170666628Y-49187666D01*
X170142819Y-48330523D02*
X171142819Y-47997190D01*
X171142819Y-47997190D02*
X170142819Y-47663857D01*
X171142819Y-46806714D02*
X171142819Y-47378142D01*
X171142819Y-47092428D02*
X170142819Y-47092428D01*
X170142819Y-47092428D02*
X170285676Y-47187666D01*
X170285676Y-47187666D02*
X170380914Y-47282904D01*
X170380914Y-47282904D02*
X170428533Y-47378142D01*
X172132666Y-126849819D02*
X172132666Y-127564104D01*
X172132666Y-127564104D02*
X172085047Y-127706961D01*
X172085047Y-127706961D02*
X171989809Y-127802200D01*
X171989809Y-127802200D02*
X171846952Y-127849819D01*
X171846952Y-127849819D02*
X171751714Y-127849819D01*
X173037428Y-127183152D02*
X173037428Y-127849819D01*
X172799333Y-126802200D02*
X172561238Y-127516485D01*
X172561238Y-127516485D02*
X173180285Y-127516485D01*
X160020095Y-54826819D02*
X160020095Y-55636342D01*
X160020095Y-55636342D02*
X160067714Y-55731580D01*
X160067714Y-55731580D02*
X160115333Y-55779200D01*
X160115333Y-55779200D02*
X160210571Y-55826819D01*
X160210571Y-55826819D02*
X160401047Y-55826819D01*
X160401047Y-55826819D02*
X160496285Y-55779200D01*
X160496285Y-55779200D02*
X160543904Y-55731580D01*
X160543904Y-55731580D02*
X160591523Y-55636342D01*
X160591523Y-55636342D02*
X160591523Y-54826819D01*
X161496285Y-54826819D02*
X161305809Y-54826819D01*
X161305809Y-54826819D02*
X161210571Y-54874438D01*
X161210571Y-54874438D02*
X161162952Y-54922057D01*
X161162952Y-54922057D02*
X161067714Y-55064914D01*
X161067714Y-55064914D02*
X161020095Y-55255390D01*
X161020095Y-55255390D02*
X161020095Y-55636342D01*
X161020095Y-55636342D02*
X161067714Y-55731580D01*
X161067714Y-55731580D02*
X161115333Y-55779200D01*
X161115333Y-55779200D02*
X161210571Y-55826819D01*
X161210571Y-55826819D02*
X161401047Y-55826819D01*
X161401047Y-55826819D02*
X161496285Y-55779200D01*
X161496285Y-55779200D02*
X161543904Y-55731580D01*
X161543904Y-55731580D02*
X161591523Y-55636342D01*
X161591523Y-55636342D02*
X161591523Y-55398247D01*
X161591523Y-55398247D02*
X161543904Y-55303009D01*
X161543904Y-55303009D02*
X161496285Y-55255390D01*
X161496285Y-55255390D02*
X161401047Y-55207771D01*
X161401047Y-55207771D02*
X161210571Y-55207771D01*
X161210571Y-55207771D02*
X161115333Y-55255390D01*
X161115333Y-55255390D02*
X161067714Y-55303009D01*
X161067714Y-55303009D02*
X161020095Y-55398247D01*
X156972000Y-43155519D02*
X156972000Y-43393614D01*
X156733905Y-43298376D02*
X156972000Y-43393614D01*
X156972000Y-43393614D02*
X157210095Y-43298376D01*
X156829143Y-43584090D02*
X156972000Y-43393614D01*
X156972000Y-43393614D02*
X157114857Y-43584090D01*
X156972000Y-43155519D02*
X156972000Y-43393614D01*
X156733905Y-43298376D02*
X156972000Y-43393614D01*
X156972000Y-43393614D02*
X157210095Y-43298376D01*
X156829143Y-43584090D02*
X156972000Y-43393614D01*
X156972000Y-43393614D02*
X157114857Y-43584090D01*
X126174667Y-66633200D02*
X126317524Y-66680819D01*
X126317524Y-66680819D02*
X126555619Y-66680819D01*
X126555619Y-66680819D02*
X126650857Y-66633200D01*
X126650857Y-66633200D02*
X126698476Y-66585580D01*
X126698476Y-66585580D02*
X126746095Y-66490342D01*
X126746095Y-66490342D02*
X126746095Y-66395104D01*
X126746095Y-66395104D02*
X126698476Y-66299866D01*
X126698476Y-66299866D02*
X126650857Y-66252247D01*
X126650857Y-66252247D02*
X126555619Y-66204628D01*
X126555619Y-66204628D02*
X126365143Y-66157009D01*
X126365143Y-66157009D02*
X126269905Y-66109390D01*
X126269905Y-66109390D02*
X126222286Y-66061771D01*
X126222286Y-66061771D02*
X126174667Y-65966533D01*
X126174667Y-65966533D02*
X126174667Y-65871295D01*
X126174667Y-65871295D02*
X126222286Y-65776057D01*
X126222286Y-65776057D02*
X126269905Y-65728438D01*
X126269905Y-65728438D02*
X126365143Y-65680819D01*
X126365143Y-65680819D02*
X126603238Y-65680819D01*
X126603238Y-65680819D02*
X126746095Y-65728438D01*
X127079429Y-65680819D02*
X127317524Y-66680819D01*
X127317524Y-66680819D02*
X127508000Y-65966533D01*
X127508000Y-65966533D02*
X127698476Y-66680819D01*
X127698476Y-66680819D02*
X127936572Y-65680819D01*
X128841333Y-66680819D02*
X128269905Y-66680819D01*
X128555619Y-66680819D02*
X128555619Y-65680819D01*
X128555619Y-65680819D02*
X128460381Y-65823676D01*
X128460381Y-65823676D02*
X128365143Y-65918914D01*
X128365143Y-65918914D02*
X128269905Y-65966533D01*
X160956666Y-126849819D02*
X160956666Y-127564104D01*
X160956666Y-127564104D02*
X160909047Y-127706961D01*
X160909047Y-127706961D02*
X160813809Y-127802200D01*
X160813809Y-127802200D02*
X160670952Y-127849819D01*
X160670952Y-127849819D02*
X160575714Y-127849819D01*
X161337619Y-126849819D02*
X161956666Y-126849819D01*
X161956666Y-126849819D02*
X161623333Y-127230771D01*
X161623333Y-127230771D02*
X161766190Y-127230771D01*
X161766190Y-127230771D02*
X161861428Y-127278390D01*
X161861428Y-127278390D02*
X161909047Y-127326009D01*
X161909047Y-127326009D02*
X161956666Y-127421247D01*
X161956666Y-127421247D02*
X161956666Y-127659342D01*
X161956666Y-127659342D02*
X161909047Y-127754580D01*
X161909047Y-127754580D02*
X161861428Y-127802200D01*
X161861428Y-127802200D02*
X161766190Y-127849819D01*
X161766190Y-127849819D02*
X161480476Y-127849819D01*
X161480476Y-127849819D02*
X161385238Y-127802200D01*
X161385238Y-127802200D02*
X161337619Y-127754580D01*
X188468095Y-47714819D02*
X188468095Y-48524342D01*
X188468095Y-48524342D02*
X188515714Y-48619580D01*
X188515714Y-48619580D02*
X188563333Y-48667200D01*
X188563333Y-48667200D02*
X188658571Y-48714819D01*
X188658571Y-48714819D02*
X188849047Y-48714819D01*
X188849047Y-48714819D02*
X188944285Y-48667200D01*
X188944285Y-48667200D02*
X188991904Y-48619580D01*
X188991904Y-48619580D02*
X189039523Y-48524342D01*
X189039523Y-48524342D02*
X189039523Y-47714819D01*
X189944285Y-48048152D02*
X189944285Y-48714819D01*
X189706190Y-47667200D02*
X189468095Y-48381485D01*
X189468095Y-48381485D02*
X190087142Y-48381485D01*
X179747666Y-98983819D02*
X179747666Y-99698104D01*
X179747666Y-99698104D02*
X179700047Y-99840961D01*
X179700047Y-99840961D02*
X179604809Y-99936200D01*
X179604809Y-99936200D02*
X179461952Y-99983819D01*
X179461952Y-99983819D02*
X179366714Y-99983819D01*
X180652428Y-98983819D02*
X180461952Y-98983819D01*
X180461952Y-98983819D02*
X180366714Y-99031438D01*
X180366714Y-99031438D02*
X180319095Y-99079057D01*
X180319095Y-99079057D02*
X180223857Y-99221914D01*
X180223857Y-99221914D02*
X180176238Y-99412390D01*
X180176238Y-99412390D02*
X180176238Y-99793342D01*
X180176238Y-99793342D02*
X180223857Y-99888580D01*
X180223857Y-99888580D02*
X180271476Y-99936200D01*
X180271476Y-99936200D02*
X180366714Y-99983819D01*
X180366714Y-99983819D02*
X180557190Y-99983819D01*
X180557190Y-99983819D02*
X180652428Y-99936200D01*
X180652428Y-99936200D02*
X180700047Y-99888580D01*
X180700047Y-99888580D02*
X180747666Y-99793342D01*
X180747666Y-99793342D02*
X180747666Y-99555247D01*
X180747666Y-99555247D02*
X180700047Y-99460009D01*
X180700047Y-99460009D02*
X180652428Y-99412390D01*
X180652428Y-99412390D02*
X180557190Y-99364771D01*
X180557190Y-99364771D02*
X180366714Y-99364771D01*
X180366714Y-99364771D02*
X180271476Y-99412390D01*
X180271476Y-99412390D02*
X180223857Y-99460009D01*
X180223857Y-99460009D02*
X180176238Y-99555247D01*
X160095892Y-71809766D02*
X160401334Y-71809766D01*
X159759906Y-72023575D02*
X160095892Y-71809766D01*
X160095892Y-71809766D02*
X159759906Y-71595956D01*
X159820994Y-71412692D02*
X159790450Y-71382148D01*
X159790450Y-71382148D02*
X159759906Y-71321059D01*
X159759906Y-71321059D02*
X159759906Y-71168338D01*
X159759906Y-71168338D02*
X159790450Y-71107250D01*
X159790450Y-71107250D02*
X159820994Y-71076706D01*
X159820994Y-71076706D02*
X159882082Y-71046161D01*
X159882082Y-71046161D02*
X159943171Y-71046161D01*
X159943171Y-71046161D02*
X160034803Y-71076706D01*
X160034803Y-71076706D02*
X160401334Y-71443236D01*
X160401334Y-71443236D02*
X160401334Y-71046161D01*
X162393333Y-69121580D02*
X162345714Y-69169200D01*
X162345714Y-69169200D02*
X162202857Y-69216819D01*
X162202857Y-69216819D02*
X162107619Y-69216819D01*
X162107619Y-69216819D02*
X161964762Y-69169200D01*
X161964762Y-69169200D02*
X161869524Y-69073961D01*
X161869524Y-69073961D02*
X161821905Y-68978723D01*
X161821905Y-68978723D02*
X161774286Y-68788247D01*
X161774286Y-68788247D02*
X161774286Y-68645390D01*
X161774286Y-68645390D02*
X161821905Y-68454914D01*
X161821905Y-68454914D02*
X161869524Y-68359676D01*
X161869524Y-68359676D02*
X161964762Y-68264438D01*
X161964762Y-68264438D02*
X162107619Y-68216819D01*
X162107619Y-68216819D02*
X162202857Y-68216819D01*
X162202857Y-68216819D02*
X162345714Y-68264438D01*
X162345714Y-68264438D02*
X162393333Y-68312057D01*
X163298095Y-68216819D02*
X162821905Y-68216819D01*
X162821905Y-68216819D02*
X162774286Y-68693009D01*
X162774286Y-68693009D02*
X162821905Y-68645390D01*
X162821905Y-68645390D02*
X162917143Y-68597771D01*
X162917143Y-68597771D02*
X163155238Y-68597771D01*
X163155238Y-68597771D02*
X163250476Y-68645390D01*
X163250476Y-68645390D02*
X163298095Y-68693009D01*
X163298095Y-68693009D02*
X163345714Y-68788247D01*
X163345714Y-68788247D02*
X163345714Y-69026342D01*
X163345714Y-69026342D02*
X163298095Y-69121580D01*
X163298095Y-69121580D02*
X163250476Y-69169200D01*
X163250476Y-69169200D02*
X163155238Y-69216819D01*
X163155238Y-69216819D02*
X162917143Y-69216819D01*
X162917143Y-69216819D02*
X162821905Y-69169200D01*
X162821905Y-69169200D02*
X162774286Y-69121580D01*
D11*
%TO.C,A1*%
X133600000Y-96060000D02*
X133600000Y-98730000D01*
X133600000Y-101270000D02*
X133600000Y-139500000D01*
X133600000Y-139500000D02*
X151640000Y-139500000D01*
X136270000Y-98730000D02*
X133600000Y-98730000D01*
X136270000Y-101270000D02*
X133600000Y-101270000D01*
X136270000Y-101270000D02*
X136270000Y-98730000D01*
X136270000Y-101270000D02*
X136270000Y-136830000D01*
X136270000Y-136830000D02*
X133600000Y-136830000D01*
X148970000Y-98730000D02*
X148970000Y-136830000D01*
X148970000Y-98730000D02*
X151640000Y-98730000D01*
X148970000Y-136830000D02*
X151640000Y-136830000D01*
X151640000Y-96060000D02*
X133600000Y-96060000D01*
X151640000Y-139500000D02*
X151640000Y-96060000D01*
%TO.C,Logo1*%
D12*
X128020872Y-123291023D02*
X128124471Y-123293618D01*
X128213632Y-123297754D01*
X128281928Y-123303437D01*
X128322934Y-123310669D01*
X128331326Y-123315029D01*
X128339792Y-123339302D01*
X128353565Y-123394574D01*
X128371450Y-123475338D01*
X128392252Y-123576088D01*
X128414777Y-123691317D01*
X128426582Y-123754098D01*
X128448849Y-123873213D01*
X128469021Y-123979435D01*
X128486085Y-124067573D01*
X128499031Y-124132434D01*
X128506845Y-124168826D01*
X128508578Y-124174816D01*
X128528110Y-124184939D01*
X128575157Y-124206338D01*
X128642997Y-124236161D01*
X128724909Y-124271555D01*
X128814172Y-124309668D01*
X128904065Y-124347647D01*
X128987865Y-124382640D01*
X129058853Y-124411794D01*
X129110306Y-124432257D01*
X129135503Y-124441177D01*
X129136604Y-124441343D01*
X129156481Y-124431231D01*
X129202223Y-124402883D01*
X129269283Y-124359277D01*
X129353116Y-124303394D01*
X129449174Y-124238213D01*
X129504350Y-124200321D01*
X129605519Y-124131275D01*
X129697370Y-124069950D01*
X129775256Y-124019337D01*
X129834531Y-123982429D01*
X129870549Y-123962218D01*
X129878623Y-123959299D01*
X129897416Y-123971847D01*
X129937543Y-124006537D01*
X129994507Y-124058937D01*
X130063815Y-124124616D01*
X130140969Y-124199144D01*
X130221475Y-124278087D01*
X130300837Y-124357017D01*
X130374560Y-124431500D01*
X130438148Y-124497106D01*
X130487106Y-124549404D01*
X130516939Y-124583961D01*
X130524058Y-124595522D01*
X130514047Y-124614346D01*
X130485922Y-124659369D01*
X130442546Y-124726213D01*
X130386782Y-124810501D01*
X130321494Y-124907856D01*
X130271754Y-124981293D01*
X130019449Y-125352333D01*
X130274445Y-125970905D01*
X130719069Y-126054725D01*
X131163693Y-126138546D01*
X131163693Y-127063994D01*
X130719069Y-127147814D01*
X130274445Y-127231635D01*
X130146947Y-127540920D01*
X130019449Y-127850206D01*
X130271754Y-128221246D01*
X130342004Y-128325157D01*
X130404728Y-128419087D01*
X130457062Y-128498652D01*
X130496143Y-128559470D01*
X130519107Y-128597157D01*
X130524058Y-128607421D01*
X130511324Y-128625910D01*
X130476118Y-128665420D01*
X130422938Y-128721522D01*
X130356282Y-128789787D01*
X130280646Y-128865786D01*
X130200528Y-128945092D01*
X130120426Y-129023275D01*
X130044836Y-129095907D01*
X129978255Y-129158559D01*
X129925182Y-129206803D01*
X129890113Y-129236210D01*
X129878377Y-129243241D01*
X129856740Y-129233123D01*
X129809338Y-129204759D01*
X129740807Y-129161129D01*
X129655785Y-129105218D01*
X129558907Y-129040006D01*
X129503650Y-129002219D01*
X129402752Y-128933343D01*
X129311701Y-128872140D01*
X129235030Y-128821578D01*
X129177272Y-128784628D01*
X129142957Y-128764258D01*
X129135746Y-128761197D01*
X129115252Y-128768136D01*
X129067487Y-128787051D01*
X128999168Y-128815087D01*
X128917011Y-128849391D01*
X128827730Y-128887109D01*
X128738042Y-128925387D01*
X128654662Y-128961370D01*
X128584306Y-128992206D01*
X128533690Y-129015039D01*
X128509529Y-129027017D01*
X128508578Y-129027724D01*
X128503964Y-129046531D01*
X128493672Y-129096618D01*
X128478713Y-129172793D01*
X128460099Y-129269865D01*
X128438841Y-129382643D01*
X128426582Y-129448442D01*
X128403638Y-129568950D01*
X128381805Y-129677797D01*
X128362278Y-129769476D01*
X128346252Y-129838481D01*
X128334921Y-129879304D01*
X128331326Y-129887511D01*
X128306994Y-129895548D01*
X128252041Y-129902033D01*
X128172892Y-129906970D01*
X128075974Y-129910364D01*
X127967713Y-129912218D01*
X127854535Y-129912538D01*
X127742865Y-129911327D01*
X127639132Y-129908590D01*
X127549759Y-129904331D01*
X127481174Y-129898555D01*
X127439803Y-129891267D01*
X127431190Y-129886895D01*
X127420867Y-129860764D01*
X127406108Y-129805393D01*
X127388648Y-129728107D01*
X127370220Y-129636230D01*
X127364259Y-129604158D01*
X127335934Y-129449524D01*
X127313124Y-129327375D01*
X127294920Y-129233673D01*
X127280417Y-129164384D01*
X127268708Y-129115471D01*
X127258885Y-129082897D01*
X127250044Y-129062628D01*
X127241276Y-129050626D01*
X127239543Y-129048947D01*
X127211629Y-129032184D01*
X127157305Y-129006614D01*
X127083223Y-128974788D01*
X126996035Y-128939260D01*
X126902392Y-128902583D01*
X126808948Y-128867311D01*
X126722353Y-128835996D01*
X126649260Y-128811193D01*
X126596322Y-128795454D01*
X126570189Y-128791332D01*
X126569274Y-128791676D01*
X126547914Y-128805641D01*
X126500916Y-128837322D01*
X126433173Y-128883391D01*
X126349577Y-128940518D01*
X126255018Y-129005373D01*
X126228146Y-129023843D01*
X126130725Y-129089699D01*
X126041837Y-129147650D01*
X125966588Y-129194538D01*
X125910080Y-129227207D01*
X125877419Y-129242500D01*
X125873407Y-129243241D01*
X125852316Y-129230392D01*
X125810536Y-129194888D01*
X125752555Y-129141293D01*
X125682865Y-129074171D01*
X125605955Y-128998087D01*
X125526317Y-128917604D01*
X125448439Y-128837287D01*
X125376814Y-128761699D01*
X125315930Y-128695405D01*
X125270279Y-128642969D01*
X125244350Y-128608955D01*
X125240117Y-128599545D01*
X125250088Y-128577643D01*
X125276980Y-128532800D01*
X125316264Y-128472321D01*
X125347883Y-128425789D01*
X125405902Y-128341475D01*
X125474216Y-128241626D01*
X125542421Y-128141473D01*
X125578925Y-128087627D01*
X125702200Y-127905371D01*
X125619480Y-127752381D01*
X125583241Y-127682682D01*
X125555074Y-127623414D01*
X125539009Y-127583311D01*
X125536774Y-127573103D01*
X125553278Y-127560829D01*
X125599918Y-127536613D01*
X125672391Y-127502263D01*
X125766394Y-127459588D01*
X125877626Y-127410394D01*
X126001785Y-127356490D01*
X126134568Y-127299684D01*
X126271673Y-127241782D01*
X126408798Y-127184593D01*
X126541642Y-127129924D01*
X126665902Y-127079584D01*
X126777275Y-127035380D01*
X126871461Y-126999119D01*
X126944156Y-126972609D01*
X126991059Y-126957658D01*
X127007167Y-126955254D01*
X127027714Y-126974311D01*
X127061067Y-127016036D01*
X127100298Y-127071706D01*
X127103401Y-127076378D01*
X127218577Y-127220264D01*
X127352947Y-127336283D01*
X127502216Y-127423430D01*
X127662087Y-127480699D01*
X127828263Y-127507086D01*
X127996448Y-127501585D01*
X128162345Y-127463190D01*
X128321658Y-127390895D01*
X128356513Y-127369626D01*
X128497263Y-127258996D01*
X128610286Y-127128302D01*
X128694997Y-126982064D01*
X128750806Y-126824808D01*
X128777126Y-126661057D01*
X128773370Y-126495333D01*
X128738950Y-126332162D01*
X128673277Y-126176065D01*
X128575765Y-126031567D01*
X128536187Y-125986869D01*
X128412297Y-125873112D01*
X128281876Y-125790218D01*
X128135685Y-125733356D01*
X127990912Y-125701687D01*
X127828140Y-125693869D01*
X127664560Y-125719938D01*
X127505702Y-125777245D01*
X127357094Y-125863144D01*
X127224265Y-125974986D01*
X127112744Y-126110123D01*
X127100989Y-126127883D01*
X127062492Y-126184150D01*
X127029137Y-126226923D01*
X127007840Y-126247372D01*
X127007167Y-126247669D01*
X126984129Y-126243279D01*
X126931843Y-126225876D01*
X126854610Y-126197268D01*
X126756732Y-126159265D01*
X126642509Y-126113674D01*
X126516242Y-126062303D01*
X126382233Y-126006962D01*
X126244782Y-125949458D01*
X126108192Y-125891601D01*
X125976763Y-125835198D01*
X125854795Y-125782058D01*
X125746591Y-125733990D01*
X125656451Y-125692801D01*
X125588677Y-125660301D01*
X125547570Y-125638297D01*
X125536774Y-125629436D01*
X125545181Y-125602360D01*
X125567728Y-125551697D01*
X125600387Y-125486183D01*
X125619480Y-125450159D01*
X125702200Y-125297168D01*
X125578925Y-125114912D01*
X125515772Y-125021875D01*
X125446273Y-124920015D01*
X125380835Y-124824562D01*
X125347883Y-124776750D01*
X125302727Y-124709505D01*
X125266943Y-124652564D01*
X125245062Y-124613354D01*
X125240437Y-124600619D01*
X125252915Y-124582083D01*
X125287748Y-124541059D01*
X125341322Y-124481525D01*
X125410017Y-124407458D01*
X125490219Y-124322835D01*
X125541714Y-124269315D01*
X125633714Y-124175681D01*
X125716001Y-124094759D01*
X125785055Y-124029823D01*
X125837356Y-123984142D01*
X125869384Y-123960989D01*
X125875884Y-123958768D01*
X125900606Y-123969076D01*
X125950595Y-123997561D01*
X126020788Y-124041063D01*
X126106125Y-124096423D01*
X126201544Y-124160480D01*
X126228146Y-124178697D01*
X126324833Y-124245073D01*
X126411883Y-124304622D01*
X126484405Y-124354016D01*
X126537507Y-124389925D01*
X126566297Y-124409019D01*
X126569274Y-124410864D01*
X126592218Y-124408105D01*
X126642664Y-124393462D01*
X126713959Y-124369487D01*
X126799453Y-124338734D01*
X126892493Y-124303756D01*
X126986426Y-124267107D01*
X127074601Y-124231339D01*
X127150366Y-124199006D01*
X127207069Y-124172662D01*
X127238057Y-124154858D01*
X127239543Y-124153593D01*
X127248399Y-124142706D01*
X127257157Y-124124318D01*
X127266723Y-124094394D01*
X127278004Y-124048897D01*
X127291907Y-123983791D01*
X127309337Y-123895039D01*
X127331202Y-123778607D01*
X127358409Y-123630458D01*
X127364259Y-123598382D01*
X127382626Y-123503314D01*
X127400595Y-123420435D01*
X127416431Y-123357070D01*
X127428400Y-123320542D01*
X127431190Y-123315644D01*
X127455928Y-123307573D01*
X127511210Y-123301013D01*
X127590611Y-123295967D01*
X127687704Y-123292441D01*
X127796062Y-123290439D01*
X127909260Y-123289964D01*
X128020872Y-123291023D01*
G36*
X128020872Y-123291023D02*
G01*
X128124471Y-123293618D01*
X128213632Y-123297754D01*
X128281928Y-123303437D01*
X128322934Y-123310669D01*
X128331326Y-123315029D01*
X128339792Y-123339302D01*
X128353565Y-123394574D01*
X128371450Y-123475338D01*
X128392252Y-123576088D01*
X128414777Y-123691317D01*
X128426582Y-123754098D01*
X128448849Y-123873213D01*
X128469021Y-123979435D01*
X128486085Y-124067573D01*
X128499031Y-124132434D01*
X128506845Y-124168826D01*
X128508578Y-124174816D01*
X128528110Y-124184939D01*
X128575157Y-124206338D01*
X128642997Y-124236161D01*
X128724909Y-124271555D01*
X128814172Y-124309668D01*
X128904065Y-124347647D01*
X128987865Y-124382640D01*
X129058853Y-124411794D01*
X129110306Y-124432257D01*
X129135503Y-124441177D01*
X129136604Y-124441343D01*
X129156481Y-124431231D01*
X129202223Y-124402883D01*
X129269283Y-124359277D01*
X129353116Y-124303394D01*
X129449174Y-124238213D01*
X129504350Y-124200321D01*
X129605519Y-124131275D01*
X129697370Y-124069950D01*
X129775256Y-124019337D01*
X129834531Y-123982429D01*
X129870549Y-123962218D01*
X129878623Y-123959299D01*
X129897416Y-123971847D01*
X129937543Y-124006537D01*
X129994507Y-124058937D01*
X130063815Y-124124616D01*
X130140969Y-124199144D01*
X130221475Y-124278087D01*
X130300837Y-124357017D01*
X130374560Y-124431500D01*
X130438148Y-124497106D01*
X130487106Y-124549404D01*
X130516939Y-124583961D01*
X130524058Y-124595522D01*
X130514047Y-124614346D01*
X130485922Y-124659369D01*
X130442546Y-124726213D01*
X130386782Y-124810501D01*
X130321494Y-124907856D01*
X130271754Y-124981293D01*
X130019449Y-125352333D01*
X130274445Y-125970905D01*
X130719069Y-126054725D01*
X131163693Y-126138546D01*
X131163693Y-127063994D01*
X130719069Y-127147814D01*
X130274445Y-127231635D01*
X130146947Y-127540920D01*
X130019449Y-127850206D01*
X130271754Y-128221246D01*
X130342004Y-128325157D01*
X130404728Y-128419087D01*
X130457062Y-128498652D01*
X130496143Y-128559470D01*
X130519107Y-128597157D01*
X130524058Y-128607421D01*
X130511324Y-128625910D01*
X130476118Y-128665420D01*
X130422938Y-128721522D01*
X130356282Y-128789787D01*
X130280646Y-128865786D01*
X130200528Y-128945092D01*
X130120426Y-129023275D01*
X130044836Y-129095907D01*
X129978255Y-129158559D01*
X129925182Y-129206803D01*
X129890113Y-129236210D01*
X129878377Y-129243241D01*
X129856740Y-129233123D01*
X129809338Y-129204759D01*
X129740807Y-129161129D01*
X129655785Y-129105218D01*
X129558907Y-129040006D01*
X129503650Y-129002219D01*
X129402752Y-128933343D01*
X129311701Y-128872140D01*
X129235030Y-128821578D01*
X129177272Y-128784628D01*
X129142957Y-128764258D01*
X129135746Y-128761197D01*
X129115252Y-128768136D01*
X129067487Y-128787051D01*
X128999168Y-128815087D01*
X128917011Y-128849391D01*
X128827730Y-128887109D01*
X128738042Y-128925387D01*
X128654662Y-128961370D01*
X128584306Y-128992206D01*
X128533690Y-129015039D01*
X128509529Y-129027017D01*
X128508578Y-129027724D01*
X128503964Y-129046531D01*
X128493672Y-129096618D01*
X128478713Y-129172793D01*
X128460099Y-129269865D01*
X128438841Y-129382643D01*
X128426582Y-129448442D01*
X128403638Y-129568950D01*
X128381805Y-129677797D01*
X128362278Y-129769476D01*
X128346252Y-129838481D01*
X128334921Y-129879304D01*
X128331326Y-129887511D01*
X128306994Y-129895548D01*
X128252041Y-129902033D01*
X128172892Y-129906970D01*
X128075974Y-129910364D01*
X127967713Y-129912218D01*
X127854535Y-129912538D01*
X127742865Y-129911327D01*
X127639132Y-129908590D01*
X127549759Y-129904331D01*
X127481174Y-129898555D01*
X127439803Y-129891267D01*
X127431190Y-129886895D01*
X127420867Y-129860764D01*
X127406108Y-129805393D01*
X127388648Y-129728107D01*
X127370220Y-129636230D01*
X127364259Y-129604158D01*
X127335934Y-129449524D01*
X127313124Y-129327375D01*
X127294920Y-129233673D01*
X127280417Y-129164384D01*
X127268708Y-129115471D01*
X127258885Y-129082897D01*
X127250044Y-129062628D01*
X127241276Y-129050626D01*
X127239543Y-129048947D01*
X127211629Y-129032184D01*
X127157305Y-129006614D01*
X127083223Y-128974788D01*
X126996035Y-128939260D01*
X126902392Y-128902583D01*
X126808948Y-128867311D01*
X126722353Y-128835996D01*
X126649260Y-128811193D01*
X126596322Y-128795454D01*
X126570189Y-128791332D01*
X126569274Y-128791676D01*
X126547914Y-128805641D01*
X126500916Y-128837322D01*
X126433173Y-128883391D01*
X126349577Y-128940518D01*
X126255018Y-129005373D01*
X126228146Y-129023843D01*
X126130725Y-129089699D01*
X126041837Y-129147650D01*
X125966588Y-129194538D01*
X125910080Y-129227207D01*
X125877419Y-129242500D01*
X125873407Y-129243241D01*
X125852316Y-129230392D01*
X125810536Y-129194888D01*
X125752555Y-129141293D01*
X125682865Y-129074171D01*
X125605955Y-128998087D01*
X125526317Y-128917604D01*
X125448439Y-128837287D01*
X125376814Y-128761699D01*
X125315930Y-128695405D01*
X125270279Y-128642969D01*
X125244350Y-128608955D01*
X125240117Y-128599545D01*
X125250088Y-128577643D01*
X125276980Y-128532800D01*
X125316264Y-128472321D01*
X125347883Y-128425789D01*
X125405902Y-128341475D01*
X125474216Y-128241626D01*
X125542421Y-128141473D01*
X125578925Y-128087627D01*
X125702200Y-127905371D01*
X125619480Y-127752381D01*
X125583241Y-127682682D01*
X125555074Y-127623414D01*
X125539009Y-127583311D01*
X125536774Y-127573103D01*
X125553278Y-127560829D01*
X125599918Y-127536613D01*
X125672391Y-127502263D01*
X125766394Y-127459588D01*
X125877626Y-127410394D01*
X126001785Y-127356490D01*
X126134568Y-127299684D01*
X126271673Y-127241782D01*
X126408798Y-127184593D01*
X126541642Y-127129924D01*
X126665902Y-127079584D01*
X126777275Y-127035380D01*
X126871461Y-126999119D01*
X126944156Y-126972609D01*
X126991059Y-126957658D01*
X127007167Y-126955254D01*
X127027714Y-126974311D01*
X127061067Y-127016036D01*
X127100298Y-127071706D01*
X127103401Y-127076378D01*
X127218577Y-127220264D01*
X127352947Y-127336283D01*
X127502216Y-127423430D01*
X127662087Y-127480699D01*
X127828263Y-127507086D01*
X127996448Y-127501585D01*
X128162345Y-127463190D01*
X128321658Y-127390895D01*
X128356513Y-127369626D01*
X128497263Y-127258996D01*
X128610286Y-127128302D01*
X128694997Y-126982064D01*
X128750806Y-126824808D01*
X128777126Y-126661057D01*
X128773370Y-126495333D01*
X128738950Y-126332162D01*
X128673277Y-126176065D01*
X128575765Y-126031567D01*
X128536187Y-125986869D01*
X128412297Y-125873112D01*
X128281876Y-125790218D01*
X128135685Y-125733356D01*
X127990912Y-125701687D01*
X127828140Y-125693869D01*
X127664560Y-125719938D01*
X127505702Y-125777245D01*
X127357094Y-125863144D01*
X127224265Y-125974986D01*
X127112744Y-126110123D01*
X127100989Y-126127883D01*
X127062492Y-126184150D01*
X127029137Y-126226923D01*
X127007840Y-126247372D01*
X127007167Y-126247669D01*
X126984129Y-126243279D01*
X126931843Y-126225876D01*
X126854610Y-126197268D01*
X126756732Y-126159265D01*
X126642509Y-126113674D01*
X126516242Y-126062303D01*
X126382233Y-126006962D01*
X126244782Y-125949458D01*
X126108192Y-125891601D01*
X125976763Y-125835198D01*
X125854795Y-125782058D01*
X125746591Y-125733990D01*
X125656451Y-125692801D01*
X125588677Y-125660301D01*
X125547570Y-125638297D01*
X125536774Y-125629436D01*
X125545181Y-125602360D01*
X125567728Y-125551697D01*
X125600387Y-125486183D01*
X125619480Y-125450159D01*
X125702200Y-125297168D01*
X125578925Y-125114912D01*
X125515772Y-125021875D01*
X125446273Y-124920015D01*
X125380835Y-124824562D01*
X125347883Y-124776750D01*
X125302727Y-124709505D01*
X125266943Y-124652564D01*
X125245062Y-124613354D01*
X125240437Y-124600619D01*
X125252915Y-124582083D01*
X125287748Y-124541059D01*
X125341322Y-124481525D01*
X125410017Y-124407458D01*
X125490219Y-124322835D01*
X125541714Y-124269315D01*
X125633714Y-124175681D01*
X125716001Y-124094759D01*
X125785055Y-124029823D01*
X125837356Y-123984142D01*
X125869384Y-123960989D01*
X125875884Y-123958768D01*
X125900606Y-123969076D01*
X125950595Y-123997561D01*
X126020788Y-124041063D01*
X126106125Y-124096423D01*
X126201544Y-124160480D01*
X126228146Y-124178697D01*
X126324833Y-124245073D01*
X126411883Y-124304622D01*
X126484405Y-124354016D01*
X126537507Y-124389925D01*
X126566297Y-124409019D01*
X126569274Y-124410864D01*
X126592218Y-124408105D01*
X126642664Y-124393462D01*
X126713959Y-124369487D01*
X126799453Y-124338734D01*
X126892493Y-124303756D01*
X126986426Y-124267107D01*
X127074601Y-124231339D01*
X127150366Y-124199006D01*
X127207069Y-124172662D01*
X127238057Y-124154858D01*
X127239543Y-124153593D01*
X127248399Y-124142706D01*
X127257157Y-124124318D01*
X127266723Y-124094394D01*
X127278004Y-124048897D01*
X127291907Y-123983791D01*
X127309337Y-123895039D01*
X127331202Y-123778607D01*
X127358409Y-123630458D01*
X127364259Y-123598382D01*
X127382626Y-123503314D01*
X127400595Y-123420435D01*
X127416431Y-123357070D01*
X127428400Y-123320542D01*
X127431190Y-123315644D01*
X127455928Y-123307573D01*
X127511210Y-123301013D01*
X127590611Y-123295967D01*
X127687704Y-123292441D01*
X127796062Y-123290439D01*
X127909260Y-123289964D01*
X128020872Y-123291023D01*
G37*
D11*
%TO.C,J5*%
X169270000Y-100529000D02*
X170600000Y-100529000D01*
X169270000Y-101859000D02*
X169270000Y-100529000D01*
X169270000Y-103129000D02*
X169270000Y-113349000D01*
X169270000Y-103129000D02*
X171870000Y-103129000D01*
X169270000Y-113349000D02*
X174470000Y-113349000D01*
X171870000Y-100529000D02*
X174470000Y-100529000D01*
X171870000Y-103129000D02*
X171870000Y-100529000D01*
X174470000Y-100529000D02*
X174470000Y-113349000D01*
%TO.C,C7*%
X163271252Y-76602000D02*
X161848748Y-76602000D01*
X163271252Y-74782000D02*
X161848748Y-74782000D01*
D13*
%TO.C,U7*%
X178727100Y-62395100D02*
X178727100Y-66636900D01*
X183984900Y-66636900D02*
X183984900Y-62395100D01*
D11*
%TO.C,Pmod1*%
X151571000Y-79064000D02*
X151571000Y-87694000D01*
X148971000Y-79064000D02*
X148971000Y-87694000D01*
X146431000Y-79064000D02*
X146431000Y-87694000D01*
X143891000Y-79064000D02*
X143891000Y-87694000D01*
X141351000Y-79064000D02*
X141351000Y-87694000D01*
X138811000Y-79064000D02*
X138811000Y-87694000D01*
X138692900Y-79064000D02*
X138692900Y-87694000D01*
X138574805Y-79064000D02*
X138574805Y-87694000D01*
X138456710Y-79064000D02*
X138456710Y-87694000D01*
X138338615Y-79064000D02*
X138338615Y-87694000D01*
X138220520Y-79064000D02*
X138220520Y-87694000D01*
X138102425Y-79064000D02*
X138102425Y-87694000D01*
X137984330Y-79064000D02*
X137984330Y-87694000D01*
X137866235Y-79064000D02*
X137866235Y-87694000D01*
X137748140Y-79064000D02*
X137748140Y-87694000D01*
X137630045Y-79064000D02*
X137630045Y-87694000D01*
X137511950Y-79064000D02*
X137511950Y-87694000D01*
X137393855Y-79064000D02*
X137393855Y-87694000D01*
X137275760Y-79064000D02*
X137275760Y-87694000D01*
X137157665Y-79064000D02*
X137157665Y-87694000D01*
X137039570Y-79064000D02*
X137039570Y-87694000D01*
X136921475Y-79064000D02*
X136921475Y-87694000D01*
X136803380Y-79064000D02*
X136803380Y-87694000D01*
X136685285Y-79064000D02*
X136685285Y-87694000D01*
X136567190Y-79064000D02*
X136567190Y-87694000D01*
X136449095Y-79064000D02*
X136449095Y-87694000D01*
X136331000Y-79064000D02*
X136331000Y-87694000D01*
X136211000Y-79064000D02*
X151571000Y-79064000D01*
X136211000Y-79064000D02*
X136211000Y-87694000D01*
X150601000Y-87694000D02*
X150601000Y-88104000D01*
X149881000Y-87694000D02*
X149881000Y-88104000D01*
X148061000Y-87694000D02*
X148061000Y-88104000D01*
X147341000Y-87694000D02*
X147341000Y-88104000D01*
X145521000Y-87694000D02*
X145521000Y-88104000D01*
X144801000Y-87694000D02*
X144801000Y-88104000D01*
X142981000Y-87694000D02*
X142981000Y-88104000D01*
X142261000Y-87694000D02*
X142261000Y-88104000D01*
X140441000Y-87694000D02*
X140441000Y-88104000D01*
X139721000Y-87694000D02*
X139721000Y-88104000D01*
X137901000Y-87694000D02*
X137901000Y-88044000D01*
X137181000Y-87694000D02*
X137181000Y-88044000D01*
X136211000Y-87694000D02*
X151571000Y-87694000D01*
X136211000Y-89154000D02*
X136211000Y-90264000D01*
X136211000Y-90264000D02*
X137541000Y-90264000D01*
D14*
X133731000Y-39754000D02*
X153731000Y-39754000D01*
X153731000Y-39754000D02*
X153731000Y-87754000D01*
X153731000Y-87754000D02*
X133731000Y-87754000D01*
X133731000Y-87754000D02*
X133731000Y-39754000D01*
D11*
%TO.C,SW2*%
X131008000Y-52566000D02*
X131008000Y-51066000D01*
X129758000Y-48566000D02*
X125258000Y-48566000D01*
X125258000Y-55066000D02*
X129758000Y-55066000D01*
X124008000Y-51066000D02*
X124008000Y-52566000D01*
D15*
%TO.C,U1*%
X174621000Y-117127000D02*
X174621000Y-123477000D01*
X155071000Y-117127000D02*
X155071000Y-123477000D01*
D16*
X173836000Y-115267000D02*
G75*
G03*
X173836000Y-115267000I-100000J0D01*
G01*
D13*
%TO.C,U2*%
X168529000Y-59817000D02*
X168529000Y-60131960D01*
X168529000Y-62296040D02*
X168529000Y-62679439D01*
X168529000Y-64828561D02*
X168529000Y-65219439D01*
X168529000Y-67368561D02*
X168529000Y-67759439D01*
X168529000Y-69908561D02*
X168529000Y-70231000D01*
X168529000Y-70231000D02*
X175895000Y-70231000D01*
X175895000Y-59817000D02*
X168529000Y-59817000D01*
X175895000Y-60139439D02*
X175895000Y-59817000D01*
X175895000Y-62679439D02*
X175895000Y-62288561D01*
X175895000Y-65219439D02*
X175895000Y-64828561D01*
X175895000Y-67759439D02*
X175895000Y-67368561D01*
X175895000Y-70231000D02*
X175895000Y-69908561D01*
%TO.C,J2*%
X178365000Y-130022201D02*
X188182161Y-130022201D01*
X178365000Y-128890631D02*
X178365000Y-130022201D01*
X178365000Y-123977001D02*
X178619000Y-123977001D01*
X178619000Y-123977001D02*
X178619000Y-123723001D01*
X178365000Y-123723001D02*
X178365000Y-123977001D01*
X178619000Y-123723001D02*
X178365000Y-123723001D01*
X178365000Y-122920630D02*
X178365000Y-126269351D01*
X190176000Y-120005861D02*
X190176000Y-119417841D01*
X178365000Y-117677801D02*
X178365000Y-120299350D01*
X179088560Y-117677801D02*
X178365000Y-117677801D01*
X182788560Y-117677801D02*
X180795440Y-117677801D01*
X188635759Y-117677801D02*
X184495440Y-117677801D01*
D11*
%TO.C,RV1*%
X169359000Y-50366000D02*
X179129000Y-50366000D01*
X169359000Y-50366000D02*
X169359000Y-40596000D01*
X179129000Y-50366000D02*
X179129000Y-40596000D01*
X169359000Y-40596000D02*
X179129000Y-40596000D01*
%TO.C,J4*%
X167166000Y-137815000D02*
X167166000Y-138555000D01*
X167166000Y-138555000D02*
X167666000Y-138555000D01*
X167406000Y-128394000D02*
X167406000Y-138315000D01*
X167406000Y-128394000D02*
X177526000Y-128394000D01*
X167406000Y-131354000D02*
X177526000Y-131354000D01*
X167406000Y-136255000D02*
X177526000Y-136255000D01*
X167406000Y-137755000D02*
X177526000Y-137755000D01*
X167406000Y-138315000D02*
X177526000Y-138315000D01*
X173739000Y-134678000D02*
X173692000Y-134724000D01*
X173932000Y-134894000D02*
X173897000Y-134929000D01*
X176036000Y-132380000D02*
X176001000Y-132416000D01*
X176241000Y-132586000D02*
X176194000Y-132632000D01*
X177526000Y-128394000D02*
X177526000Y-138315000D01*
X168431001Y-132971001D02*
G75*
G03*
X168430574Y-134338042I1534992J-684000D01*
G01*
X170649999Y-132120001D02*
G75*
G03*
X169282958Y-132119574I-684000J-1534992D01*
G01*
X169282000Y-135189999D02*
G75*
G03*
X169994805Y-135335252I683999J1535000D01*
G01*
X169966000Y-135334999D02*
G75*
G03*
X170649318Y-135189755I0J1679999D01*
G01*
X171501000Y-134339000D02*
G75*
G03*
X171501426Y-132971958I-1535000J684000D01*
G01*
X176646000Y-133655000D02*
G75*
G03*
X176646000Y-133655000I-1680000J0D01*
G01*
D13*
%TO.C,U6*%
X157099000Y-43561000D02*
X157099000Y-44129960D01*
X157099000Y-46294040D02*
X157099000Y-46677439D01*
X157099000Y-48826561D02*
X157099000Y-49217439D01*
X157099000Y-51366561D02*
X157099000Y-51757439D01*
X157099000Y-53906561D02*
X157099000Y-54297439D01*
X157099000Y-56446561D02*
X157099000Y-56837439D01*
X157099000Y-58986561D02*
X157099000Y-59377439D01*
X157099000Y-61526561D02*
X157099000Y-61917439D01*
X157099000Y-64066561D02*
X157099000Y-64457439D01*
X157099000Y-66606561D02*
X157099000Y-67183000D01*
X157099000Y-67183000D02*
X164465000Y-67183000D01*
X164465000Y-43561000D02*
X157099000Y-43561000D01*
X164465000Y-44137439D02*
X164465000Y-43561000D01*
X164465000Y-46677439D02*
X164465000Y-46286561D01*
X164465000Y-49217439D02*
X164465000Y-48826561D01*
X164465000Y-51757439D02*
X164465000Y-51366561D01*
X164465000Y-54297439D02*
X164465000Y-53906561D01*
X164465000Y-56837439D02*
X164465000Y-56446561D01*
X164465000Y-59377439D02*
X164465000Y-58986561D01*
X164465000Y-61917439D02*
X164465000Y-61526561D01*
X164465000Y-64457439D02*
X164465000Y-64066561D01*
X164465000Y-67183000D02*
X164465000Y-66606561D01*
D11*
%TO.C,SW1*%
X131008000Y-62726000D02*
X131008000Y-61226000D01*
X129758000Y-58726000D02*
X125258000Y-58726000D01*
X125258000Y-65226000D02*
X129758000Y-65226000D01*
X124008000Y-61226000D02*
X124008000Y-62726000D01*
%TO.C,J3*%
X155990000Y-137815000D02*
X155990000Y-138555000D01*
X155990000Y-138555000D02*
X156490000Y-138555000D01*
X156230000Y-128394000D02*
X156230000Y-138315000D01*
X156230000Y-128394000D02*
X166350000Y-128394000D01*
X156230000Y-131354000D02*
X166350000Y-131354000D01*
X156230000Y-136255000D02*
X166350000Y-136255000D01*
X156230000Y-137755000D02*
X166350000Y-137755000D01*
X156230000Y-138315000D02*
X166350000Y-138315000D01*
X162563000Y-134678000D02*
X162516000Y-134724000D01*
X162756000Y-134894000D02*
X162721000Y-134929000D01*
X164860000Y-132380000D02*
X164825000Y-132416000D01*
X165065000Y-132586000D02*
X165018000Y-132632000D01*
X166350000Y-128394000D02*
X166350000Y-138315000D01*
X157255001Y-132971001D02*
G75*
G03*
X157254574Y-134338042I1534992J-684000D01*
G01*
X159473999Y-132120001D02*
G75*
G03*
X158106958Y-132119574I-684000J-1534992D01*
G01*
X158106000Y-135189999D02*
G75*
G03*
X158818805Y-135335252I683999J1535000D01*
G01*
X158790000Y-135334999D02*
G75*
G03*
X159473318Y-135189755I0J1679999D01*
G01*
X160325000Y-134339000D02*
G75*
G03*
X160325426Y-132971958I-1535000J684000D01*
G01*
X165470000Y-133655000D02*
G75*
G03*
X165470000Y-133655000I-1680000J0D01*
G01*
%TO.C,U4*%
X190240000Y-42159100D02*
X153960000Y-42159100D01*
X153960000Y-42159100D02*
X153960000Y-122439100D01*
X190240000Y-42169100D02*
X190240000Y-42959100D01*
X184600000Y-45299100D02*
X184600000Y-118299100D01*
X159600000Y-45299100D02*
X184600000Y-45299100D01*
X190600000Y-48799100D02*
X190600000Y-51799100D01*
X165100680Y-49999380D02*
X179100000Y-49999380D01*
X179600000Y-50499100D02*
X179600000Y-113999100D01*
X164600000Y-113999760D02*
X164600000Y-50499100D01*
X179100000Y-114499100D02*
X165100000Y-114499100D01*
X184600000Y-118299100D02*
X159600000Y-118299100D01*
X159600000Y-118299100D02*
X159600000Y-45299100D01*
X190240000Y-122439100D02*
X190240000Y-42959100D01*
X153960000Y-122439100D02*
X190240000Y-122439100D01*
X179601540Y-50499760D02*
G75*
G03*
X179101160Y-49999380I-500380J0D01*
G01*
X165100680Y-49999380D02*
G75*
G03*
X164600300Y-50499760I0J-500380D01*
G01*
X179100000Y-114499100D02*
G75*
G03*
X179600000Y-113999100I0J500000D01*
G01*
X164600360Y-113999760D02*
G75*
G03*
X165100680Y-114500140I500340J-40D01*
G01*
%TO.C,J6*%
X177481000Y-100529000D02*
X178811000Y-100529000D01*
X177481000Y-101859000D02*
X177481000Y-100529000D01*
X177481000Y-103129000D02*
X177481000Y-113349000D01*
X177481000Y-103129000D02*
X180081000Y-103129000D01*
X177481000Y-113349000D02*
X182681000Y-113349000D01*
X180081000Y-100529000D02*
X182681000Y-100529000D01*
X180081000Y-103129000D02*
X180081000Y-100529000D01*
X182681000Y-100529000D02*
X182681000Y-113349000D01*
D15*
%TO.C,Y2*%
X159022000Y-69652000D02*
X159022000Y-76652000D01*
X157982000Y-69652000D02*
X159022000Y-69652000D01*
X154922000Y-69652000D02*
X155962000Y-69652000D01*
X159022000Y-76652000D02*
X157982000Y-76652000D01*
X155962000Y-76652000D02*
X154922000Y-76652000D01*
X154922000Y-76652000D02*
X154922000Y-69652000D01*
D11*
%TO.C,C5*%
X161848748Y-69702000D02*
X163271252Y-69702000D01*
X161848748Y-71522000D02*
X163271252Y-71522000D01*
%TD*%
M02*
