%TF.GenerationSoftware,KiCad,Pcbnew,7.0.7*%
%TF.CreationDate,2024-11-29T17:50:20-06:00*%
%TF.ProjectId,DAQ Rev 2,44415120-5265-4762-9032-2e6b69636164,rev?*%
%TF.SameCoordinates,Original*%
%TF.FileFunction,Soldermask,Top*%
%TF.FilePolarity,Negative*%
%FSLAX46Y46*%
G04 Gerber Fmt 4.6, Leading zero omitted, Abs format (unit mm)*
G04 Created by KiCad (PCBNEW 7.0.7) date 2024-11-29 17:50:20*
%MOMM*%
%LPD*%
G01*
G04 APERTURE LIST*
G04 Aperture macros list*
%AMRoundRect*
0 Rectangle with rounded corners*
0 $1 Rounding radius*
0 $2 $3 $4 $5 $6 $7 $8 $9 X,Y pos of 4 corners*
0 Add a 4 corners polygon primitive as box body*
4,1,4,$2,$3,$4,$5,$6,$7,$8,$9,$2,$3,0*
0 Add four circle primitives for the rounded corners*
1,1,$1+$1,$2,$3*
1,1,$1+$1,$4,$5*
1,1,$1+$1,$6,$7*
1,1,$1+$1,$8,$9*
0 Add four rect primitives between the rounded corners*
20,1,$1+$1,$2,$3,$4,$5,0*
20,1,$1+$1,$4,$5,$6,$7,0*
20,1,$1+$1,$6,$7,$8,$9,0*
20,1,$1+$1,$8,$9,$2,$3,0*%
G04 Aperture macros list end*
%ADD10C,5.700000*%
%ADD11RoundRect,0.050000X-0.800000X-0.800000X0.800000X-0.800000X0.800000X0.800000X-0.800000X0.800000X0*%
%ADD12O,1.700000X1.700000*%
%ADD13RoundRect,0.050000X-0.850000X-0.850000X0.850000X-0.850000X0.850000X0.850000X-0.850000X0.850000X0*%
%ADD14O,1.800000X1.800000*%
%ADD15RoundRect,0.300000X0.412500X0.650000X-0.412500X0.650000X-0.412500X-0.650000X0.412500X-0.650000X0*%
%ADD16RoundRect,0.050000X-0.266700X0.730250X-0.266700X-0.730250X0.266700X-0.730250X0.266700X0.730250X0*%
%ADD17RoundRect,0.050000X-0.850000X0.850000X-0.850000X-0.850000X0.850000X-0.850000X0.850000X0.850000X0*%
%ADD18C,2.100000*%
%ADD19RoundRect,0.102000X-0.565000X0.565000X-0.565000X-0.565000X0.565000X-0.565000X0.565000X0.565000X0*%
%ADD20C,1.334000*%
%ADD21RoundRect,0.050000X-0.749300X-0.749300X0.749300X-0.749300X0.749300X0.749300X-0.749300X0.749300X0*%
%ADD22C,1.598600*%
%ADD23RoundRect,0.050000X0.571500X-0.406400X0.571500X0.406400X-0.571500X0.406400X-0.571500X-0.406400X0*%
%ADD24RoundRect,0.050000X0.520700X-0.622300X0.520700X0.622300X-0.520700X0.622300X-0.520700X-0.622300X0*%
%ADD25RoundRect,0.050000X0.698500X-0.800100X0.698500X0.800100X-0.698500X0.800100X-0.698500X-0.800100X0*%
%ADD26RoundRect,0.050000X0.890300X-0.515300X0.890300X0.515300X-0.890300X0.515300X-0.890300X-0.515300X0*%
%ADD27RoundRect,0.050000X0.698500X-0.977900X0.698500X0.977900X-0.698500X0.977900X-0.698500X-0.977900X0*%
%ADD28C,1.540000*%
%ADD29RoundRect,0.050000X-1.300000X-1.300000X1.300000X-1.300000X1.300000X1.300000X-1.300000X1.300000X0*%
%ADD30C,2.700000*%
%ADD31RoundRect,0.050000X-1.300000X0.900000X-1.300000X-0.900000X1.300000X-0.900000X1.300000X0.900000X0*%
%ADD32O,2.700000X1.900000*%
%ADD33RoundRect,0.102000X-0.600000X1.750000X-0.600000X-1.750000X0.600000X-1.750000X0.600000X1.750000X0*%
%ADD34RoundRect,0.300000X-0.412500X-0.650000X0.412500X-0.650000X0.412500X0.650000X-0.412500X0.650000X0*%
%ADD35RoundRect,0.050000X1.600000X-0.350000X1.600000X0.350000X-1.600000X0.350000X-1.600000X-0.350000X0*%
%ADD36RoundRect,0.050000X2.150000X-0.350000X2.150000X0.350000X-2.150000X0.350000X-2.150000X-0.350000X0*%
G04 APERTURE END LIST*
D10*
%TO.C,H1*%
X127600000Y-44800000D03*
%TD*%
%TO.C,H2*%
X187600000Y-44800000D03*
%TD*%
%TO.C,H3*%
X127600000Y-134800000D03*
%TD*%
%TO.C,H4*%
X187600000Y-134800000D03*
%TD*%
D11*
%TO.C,A1*%
X135000000Y-100000000D03*
D12*
X135000000Y-102540000D03*
X135000000Y-105080000D03*
X135000000Y-107620000D03*
X135000000Y-110160000D03*
X135000000Y-112700000D03*
X135000000Y-115240000D03*
X135000000Y-117780000D03*
X135000000Y-120320000D03*
X135000000Y-122860000D03*
X135000000Y-125400000D03*
X135000000Y-127940000D03*
X135000000Y-130480000D03*
X135000000Y-133020000D03*
X135000000Y-135560000D03*
X150240000Y-135560000D03*
X150240000Y-133020000D03*
X150240000Y-130480000D03*
X150240000Y-127940000D03*
X150240000Y-125400000D03*
X150240000Y-122860000D03*
X150240000Y-120320000D03*
X150240000Y-117780000D03*
X150240000Y-115240000D03*
X150240000Y-112700000D03*
X150240000Y-110160000D03*
X150240000Y-107620000D03*
X150240000Y-105080000D03*
X150240000Y-102540000D03*
X150240000Y-100000000D03*
%TD*%
D13*
%TO.C,J5*%
X170600000Y-101859000D03*
D14*
X173140000Y-101859000D03*
X170600000Y-104399000D03*
X173140000Y-104399000D03*
X170600000Y-106939000D03*
X173140000Y-106939000D03*
X170600000Y-109479000D03*
X173140000Y-109479000D03*
X170600000Y-112019000D03*
X173140000Y-112019000D03*
%TD*%
D15*
%TO.C,C7*%
X164122500Y-75692000D03*
X160997500Y-75692000D03*
%TD*%
D16*
%TO.C,U7*%
X183261000Y-61791850D03*
X181991000Y-61791850D03*
X180721000Y-61791850D03*
X179451000Y-61791850D03*
X179451000Y-67240150D03*
X180721000Y-67240150D03*
X181991000Y-67240150D03*
X183261000Y-67240150D03*
%TD*%
D17*
%TO.C,Pmod1*%
X137541000Y-89154000D03*
D14*
X140081000Y-89154000D03*
X142621000Y-89154000D03*
X145161000Y-89154000D03*
X147701000Y-89154000D03*
X150241000Y-89154000D03*
%TD*%
D18*
%TO.C,SW2*%
X130758000Y-54066000D03*
X124258000Y-54066000D03*
X130758000Y-49566000D03*
X124258000Y-49566000D03*
%TD*%
D19*
%TO.C,U1*%
X173736000Y-116332000D03*
D20*
X171196000Y-116332000D03*
X168656000Y-116332000D03*
X166116000Y-116332000D03*
X163576000Y-116332000D03*
X161036000Y-116332000D03*
X158496000Y-116332000D03*
X155956000Y-116332000D03*
X155956000Y-124272000D03*
X158496000Y-124272000D03*
X161036000Y-124272000D03*
X163576000Y-124272000D03*
X166116000Y-124272000D03*
X168656000Y-124272000D03*
X171196000Y-124272000D03*
X173736000Y-124272000D03*
%TD*%
D21*
%TO.C,U2*%
X168402000Y-61214000D03*
D22*
X168402000Y-63754000D03*
X168402000Y-66294000D03*
X168402000Y-68834000D03*
X176022000Y-68834000D03*
X176022000Y-66294000D03*
X176022000Y-63754000D03*
X176022000Y-61214000D03*
%TD*%
D23*
%TO.C,J2*%
X189792000Y-120745001D03*
X189792000Y-121845001D03*
X189792000Y-122945002D03*
X189792000Y-124045002D03*
X189792000Y-125145002D03*
X189792000Y-126245003D03*
X189792000Y-127345000D03*
X189792000Y-128445001D03*
D24*
X183642000Y-118110000D03*
X179942000Y-118110000D03*
D25*
X189666999Y-118285001D03*
D26*
X189478800Y-129699301D03*
D27*
X178967000Y-127579991D03*
X178967000Y-121609990D03*
%TD*%
D28*
%TO.C,RV1*%
X176784000Y-41910000D03*
X174244000Y-41910000D03*
X171704000Y-41910000D03*
%TD*%
D29*
%TO.C,J4*%
X169966000Y-133655000D03*
D30*
X174966000Y-133655000D03*
%TD*%
D21*
%TO.C,U6*%
X156972000Y-45212000D03*
D22*
X156972000Y-47752000D03*
X156972000Y-50292000D03*
X156972000Y-52832000D03*
X156972000Y-55372000D03*
X156972000Y-57912000D03*
X156972000Y-60452000D03*
X156972000Y-62992000D03*
X156972000Y-65532000D03*
X164592000Y-65532000D03*
X164592000Y-62992000D03*
X164592000Y-60452000D03*
X164592000Y-57912000D03*
X164592000Y-55372000D03*
X164592000Y-52832000D03*
X164592000Y-50292000D03*
X164592000Y-47752000D03*
X164592000Y-45212000D03*
%TD*%
D18*
%TO.C,SW1*%
X130758000Y-64226000D03*
X124258000Y-64226000D03*
X130758000Y-59726000D03*
X124258000Y-59726000D03*
%TD*%
D29*
%TO.C,J3*%
X158790000Y-133655000D03*
D30*
X163790000Y-133655000D03*
%TD*%
D31*
%TO.C,U4*%
X187600000Y-50299100D03*
D32*
X187600000Y-52839100D03*
X187600000Y-55379100D03*
X187600000Y-57919100D03*
X187600000Y-60459100D03*
X187600000Y-62999100D03*
X187600000Y-65539100D03*
X187600000Y-68079100D03*
X187600000Y-70619100D03*
X187600000Y-73159100D03*
X187600000Y-75699100D03*
X187600000Y-78239100D03*
X187600000Y-80779100D03*
X187600000Y-83319100D03*
X187600000Y-85859100D03*
X187600000Y-88399100D03*
%TD*%
D13*
%TO.C,J6*%
X178811000Y-101859000D03*
D14*
X181351000Y-101859000D03*
X178811000Y-104399000D03*
X181351000Y-104399000D03*
X178811000Y-106939000D03*
X181351000Y-106939000D03*
X178811000Y-109479000D03*
X181351000Y-109479000D03*
X178811000Y-112019000D03*
X181351000Y-112019000D03*
%TD*%
D33*
%TO.C,Y2*%
X156972000Y-70402000D03*
X156972000Y-75902000D03*
%TD*%
D34*
%TO.C,C5*%
X160997500Y-70612000D03*
X164122500Y-70612000D03*
%TD*%
D35*
%TO.C,J1*%
X118130000Y-102770000D03*
D36*
X117580000Y-101770000D03*
X117580000Y-100770000D03*
X117580000Y-99770000D03*
X117580000Y-98770000D03*
X117580000Y-97770000D03*
X117580000Y-96770000D03*
X117580000Y-95770000D03*
X117580000Y-94770000D03*
X117580000Y-93770000D03*
X117580000Y-92770000D03*
X117580000Y-89770000D03*
X117580000Y-88770000D03*
X117580000Y-87770000D03*
X117580000Y-86770000D03*
X117580000Y-85770000D03*
X117580000Y-84770000D03*
X117580000Y-83770000D03*
%TD*%
M02*
