%TF.GenerationSoftware,KiCad,Pcbnew,8.0.7*%
%TF.CreationDate,2025-01-17T12:14:06-05:00*%
%TF.ProjectId,BREAD_slice_v2,42524541-445f-4736-9c69-63655f76322e,rev?*%
%TF.SameCoordinates,Original*%
%TF.FileFunction,Legend,Top*%
%TF.FilePolarity,Positive*%
%FSLAX46Y46*%
G04 Gerber Fmt 4.6, Leading zero omitted, Abs format (unit mm)*
G04 Created by KiCad (PCBNEW 8.0.7) date 2025-01-17 12:14:06*
%MOMM*%
%LPD*%
G01*
G04 APERTURE LIST*
%ADD10C,0.150000*%
%ADD11C,0.127000*%
%ADD12C,0.200000*%
%ADD13C,0.120000*%
%ADD14C,0.010000*%
%ADD15C,0.152400*%
G04 APERTURE END LIST*
D10*
X199369819Y-109297618D02*
X198369819Y-109297618D01*
X198369819Y-109297618D02*
X198369819Y-108916666D01*
X198369819Y-108916666D02*
X198417438Y-108821428D01*
X198417438Y-108821428D02*
X198465057Y-108773809D01*
X198465057Y-108773809D02*
X198560295Y-108726190D01*
X198560295Y-108726190D02*
X198703152Y-108726190D01*
X198703152Y-108726190D02*
X198798390Y-108773809D01*
X198798390Y-108773809D02*
X198846009Y-108821428D01*
X198846009Y-108821428D02*
X198893628Y-108916666D01*
X198893628Y-108916666D02*
X198893628Y-109297618D01*
X198369819Y-108392856D02*
X199369819Y-108154761D01*
X199369819Y-108154761D02*
X198655533Y-107964285D01*
X198655533Y-107964285D02*
X199369819Y-107773809D01*
X199369819Y-107773809D02*
X198369819Y-107535714D01*
X199369819Y-106583333D02*
X198893628Y-106916666D01*
X199369819Y-107154761D02*
X198369819Y-107154761D01*
X198369819Y-107154761D02*
X198369819Y-106773809D01*
X198369819Y-106773809D02*
X198417438Y-106678571D01*
X198417438Y-106678571D02*
X198465057Y-106630952D01*
X198465057Y-106630952D02*
X198560295Y-106583333D01*
X198560295Y-106583333D02*
X198703152Y-106583333D01*
X198703152Y-106583333D02*
X198798390Y-106630952D01*
X198798390Y-106630952D02*
X198846009Y-106678571D01*
X198846009Y-106678571D02*
X198893628Y-106773809D01*
X198893628Y-106773809D02*
X198893628Y-107154761D01*
X199322200Y-105440475D02*
X199369819Y-105297618D01*
X199369819Y-105297618D02*
X199369819Y-105059523D01*
X199369819Y-105059523D02*
X199322200Y-104964285D01*
X199322200Y-104964285D02*
X199274580Y-104916666D01*
X199274580Y-104916666D02*
X199179342Y-104869047D01*
X199179342Y-104869047D02*
X199084104Y-104869047D01*
X199084104Y-104869047D02*
X198988866Y-104916666D01*
X198988866Y-104916666D02*
X198941247Y-104964285D01*
X198941247Y-104964285D02*
X198893628Y-105059523D01*
X198893628Y-105059523D02*
X198846009Y-105249999D01*
X198846009Y-105249999D02*
X198798390Y-105345237D01*
X198798390Y-105345237D02*
X198750771Y-105392856D01*
X198750771Y-105392856D02*
X198655533Y-105440475D01*
X198655533Y-105440475D02*
X198560295Y-105440475D01*
X198560295Y-105440475D02*
X198465057Y-105392856D01*
X198465057Y-105392856D02*
X198417438Y-105345237D01*
X198417438Y-105345237D02*
X198369819Y-105249999D01*
X198369819Y-105249999D02*
X198369819Y-105011904D01*
X198369819Y-105011904D02*
X198417438Y-104869047D01*
X198846009Y-104440475D02*
X198846009Y-104107142D01*
X199369819Y-103964285D02*
X199369819Y-104440475D01*
X199369819Y-104440475D02*
X198369819Y-104440475D01*
X198369819Y-104440475D02*
X198369819Y-103964285D01*
X199369819Y-103059523D02*
X199369819Y-103535713D01*
X199369819Y-103535713D02*
X198369819Y-103535713D01*
X198465057Y-74210839D02*
X198417438Y-74163220D01*
X198417438Y-74163220D02*
X198369819Y-74067982D01*
X198369819Y-74067982D02*
X198369819Y-73829887D01*
X198369819Y-73829887D02*
X198417438Y-73734649D01*
X198417438Y-73734649D02*
X198465057Y-73687030D01*
X198465057Y-73687030D02*
X198560295Y-73639411D01*
X198560295Y-73639411D02*
X198655533Y-73639411D01*
X198655533Y-73639411D02*
X198798390Y-73687030D01*
X198798390Y-73687030D02*
X199369819Y-74258458D01*
X199369819Y-74258458D02*
X199369819Y-73639411D01*
X198846009Y-72877506D02*
X198893628Y-72734649D01*
X198893628Y-72734649D02*
X198941247Y-72687030D01*
X198941247Y-72687030D02*
X199036485Y-72639411D01*
X199036485Y-72639411D02*
X199179342Y-72639411D01*
X199179342Y-72639411D02*
X199274580Y-72687030D01*
X199274580Y-72687030D02*
X199322200Y-72734649D01*
X199322200Y-72734649D02*
X199369819Y-72829887D01*
X199369819Y-72829887D02*
X199369819Y-73210839D01*
X199369819Y-73210839D02*
X198369819Y-73210839D01*
X198369819Y-73210839D02*
X198369819Y-72877506D01*
X198369819Y-72877506D02*
X198417438Y-72782268D01*
X198417438Y-72782268D02*
X198465057Y-72734649D01*
X198465057Y-72734649D02*
X198560295Y-72687030D01*
X198560295Y-72687030D02*
X198655533Y-72687030D01*
X198655533Y-72687030D02*
X198750771Y-72734649D01*
X198750771Y-72734649D02*
X198798390Y-72782268D01*
X198798390Y-72782268D02*
X198846009Y-72877506D01*
X198846009Y-72877506D02*
X198846009Y-73210839D01*
X198465057Y-71496553D02*
X198417438Y-71448934D01*
X198417438Y-71448934D02*
X198369819Y-71353696D01*
X198369819Y-71353696D02*
X198369819Y-71115601D01*
X198369819Y-71115601D02*
X198417438Y-71020363D01*
X198417438Y-71020363D02*
X198465057Y-70972744D01*
X198465057Y-70972744D02*
X198560295Y-70925125D01*
X198560295Y-70925125D02*
X198655533Y-70925125D01*
X198655533Y-70925125D02*
X198798390Y-70972744D01*
X198798390Y-70972744D02*
X199369819Y-71544172D01*
X199369819Y-71544172D02*
X199369819Y-70925125D01*
X199084104Y-70544172D02*
X199084104Y-70067982D01*
X199369819Y-70639410D02*
X198369819Y-70306077D01*
X198369819Y-70306077D02*
X199369819Y-69972744D01*
X199369819Y-68353696D02*
X199369819Y-68925124D01*
X199369819Y-68639410D02*
X198369819Y-68639410D01*
X198369819Y-68639410D02*
X198512676Y-68734648D01*
X198512676Y-68734648D02*
X198607914Y-68829886D01*
X198607914Y-68829886D02*
X198655533Y-68925124D01*
X199084104Y-67972743D02*
X199084104Y-67496553D01*
X199369819Y-68067981D02*
X198369819Y-67734648D01*
X198369819Y-67734648D02*
X199369819Y-67401315D01*
X199369819Y-65782267D02*
X199369819Y-66353695D01*
X199369819Y-66067981D02*
X198369819Y-66067981D01*
X198369819Y-66067981D02*
X198512676Y-66163219D01*
X198512676Y-66163219D02*
X198607914Y-66258457D01*
X198607914Y-66258457D02*
X198655533Y-66353695D01*
X198846009Y-65020362D02*
X198893628Y-64877505D01*
X198893628Y-64877505D02*
X198941247Y-64829886D01*
X198941247Y-64829886D02*
X199036485Y-64782267D01*
X199036485Y-64782267D02*
X199179342Y-64782267D01*
X199179342Y-64782267D02*
X199274580Y-64829886D01*
X199274580Y-64829886D02*
X199322200Y-64877505D01*
X199322200Y-64877505D02*
X199369819Y-64972743D01*
X199369819Y-64972743D02*
X199369819Y-65353695D01*
X199369819Y-65353695D02*
X198369819Y-65353695D01*
X198369819Y-65353695D02*
X198369819Y-65020362D01*
X198369819Y-65020362D02*
X198417438Y-64925124D01*
X198417438Y-64925124D02*
X198465057Y-64877505D01*
X198465057Y-64877505D02*
X198560295Y-64829886D01*
X198560295Y-64829886D02*
X198655533Y-64829886D01*
X198655533Y-64829886D02*
X198750771Y-64877505D01*
X198750771Y-64877505D02*
X198798390Y-64925124D01*
X198798390Y-64925124D02*
X198846009Y-65020362D01*
X198846009Y-65020362D02*
X198846009Y-65353695D01*
X199274580Y-100773809D02*
X199322200Y-100821428D01*
X199322200Y-100821428D02*
X199369819Y-100964285D01*
X199369819Y-100964285D02*
X199369819Y-101059523D01*
X199369819Y-101059523D02*
X199322200Y-101202380D01*
X199322200Y-101202380D02*
X199226961Y-101297618D01*
X199226961Y-101297618D02*
X199131723Y-101345237D01*
X199131723Y-101345237D02*
X198941247Y-101392856D01*
X198941247Y-101392856D02*
X198798390Y-101392856D01*
X198798390Y-101392856D02*
X198607914Y-101345237D01*
X198607914Y-101345237D02*
X198512676Y-101297618D01*
X198512676Y-101297618D02*
X198417438Y-101202380D01*
X198417438Y-101202380D02*
X198369819Y-101059523D01*
X198369819Y-101059523D02*
X198369819Y-100964285D01*
X198369819Y-100964285D02*
X198417438Y-100821428D01*
X198417438Y-100821428D02*
X198465057Y-100773809D01*
X198369819Y-100345237D02*
X199179342Y-100345237D01*
X199179342Y-100345237D02*
X199274580Y-100297618D01*
X199274580Y-100297618D02*
X199322200Y-100249999D01*
X199322200Y-100249999D02*
X199369819Y-100154761D01*
X199369819Y-100154761D02*
X199369819Y-99964285D01*
X199369819Y-99964285D02*
X199322200Y-99869047D01*
X199322200Y-99869047D02*
X199274580Y-99821428D01*
X199274580Y-99821428D02*
X199179342Y-99773809D01*
X199179342Y-99773809D02*
X198369819Y-99773809D01*
X199322200Y-99345237D02*
X199369819Y-99202380D01*
X199369819Y-99202380D02*
X199369819Y-98964285D01*
X199369819Y-98964285D02*
X199322200Y-98869047D01*
X199322200Y-98869047D02*
X199274580Y-98821428D01*
X199274580Y-98821428D02*
X199179342Y-98773809D01*
X199179342Y-98773809D02*
X199084104Y-98773809D01*
X199084104Y-98773809D02*
X198988866Y-98821428D01*
X198988866Y-98821428D02*
X198941247Y-98869047D01*
X198941247Y-98869047D02*
X198893628Y-98964285D01*
X198893628Y-98964285D02*
X198846009Y-99154761D01*
X198846009Y-99154761D02*
X198798390Y-99249999D01*
X198798390Y-99249999D02*
X198750771Y-99297618D01*
X198750771Y-99297618D02*
X198655533Y-99345237D01*
X198655533Y-99345237D02*
X198560295Y-99345237D01*
X198560295Y-99345237D02*
X198465057Y-99297618D01*
X198465057Y-99297618D02*
X198417438Y-99249999D01*
X198417438Y-99249999D02*
X198369819Y-99154761D01*
X198369819Y-99154761D02*
X198369819Y-98916666D01*
X198369819Y-98916666D02*
X198417438Y-98773809D01*
X198369819Y-98488094D02*
X198369819Y-97916666D01*
X199369819Y-98202380D02*
X198369819Y-98202380D01*
X199369819Y-96821427D02*
X198369819Y-96821427D01*
X198369819Y-96821427D02*
X198369819Y-96440475D01*
X198369819Y-96440475D02*
X198417438Y-96345237D01*
X198417438Y-96345237D02*
X198465057Y-96297618D01*
X198465057Y-96297618D02*
X198560295Y-96249999D01*
X198560295Y-96249999D02*
X198703152Y-96249999D01*
X198703152Y-96249999D02*
X198798390Y-96297618D01*
X198798390Y-96297618D02*
X198846009Y-96345237D01*
X198846009Y-96345237D02*
X198893628Y-96440475D01*
X198893628Y-96440475D02*
X198893628Y-96821427D01*
X198369819Y-95916665D02*
X199369819Y-95678570D01*
X199369819Y-95678570D02*
X198655533Y-95488094D01*
X198655533Y-95488094D02*
X199369819Y-95297618D01*
X199369819Y-95297618D02*
X198369819Y-95059523D01*
X199369819Y-94107142D02*
X198893628Y-94440475D01*
X199369819Y-94678570D02*
X198369819Y-94678570D01*
X198369819Y-94678570D02*
X198369819Y-94297618D01*
X198369819Y-94297618D02*
X198417438Y-94202380D01*
X198417438Y-94202380D02*
X198465057Y-94154761D01*
X198465057Y-94154761D02*
X198560295Y-94107142D01*
X198560295Y-94107142D02*
X198703152Y-94107142D01*
X198703152Y-94107142D02*
X198798390Y-94154761D01*
X198798390Y-94154761D02*
X198846009Y-94202380D01*
X198846009Y-94202380D02*
X198893628Y-94297618D01*
X198893628Y-94297618D02*
X198893628Y-94678570D01*
X198465057Y-91960839D02*
X198417438Y-91913220D01*
X198417438Y-91913220D02*
X198369819Y-91817982D01*
X198369819Y-91817982D02*
X198369819Y-91579887D01*
X198369819Y-91579887D02*
X198417438Y-91484649D01*
X198417438Y-91484649D02*
X198465057Y-91437030D01*
X198465057Y-91437030D02*
X198560295Y-91389411D01*
X198560295Y-91389411D02*
X198655533Y-91389411D01*
X198655533Y-91389411D02*
X198798390Y-91437030D01*
X198798390Y-91437030D02*
X199369819Y-92008458D01*
X199369819Y-92008458D02*
X199369819Y-91389411D01*
X198846009Y-90627506D02*
X198893628Y-90484649D01*
X198893628Y-90484649D02*
X198941247Y-90437030D01*
X198941247Y-90437030D02*
X199036485Y-90389411D01*
X199036485Y-90389411D02*
X199179342Y-90389411D01*
X199179342Y-90389411D02*
X199274580Y-90437030D01*
X199274580Y-90437030D02*
X199322200Y-90484649D01*
X199322200Y-90484649D02*
X199369819Y-90579887D01*
X199369819Y-90579887D02*
X199369819Y-90960839D01*
X199369819Y-90960839D02*
X198369819Y-90960839D01*
X198369819Y-90960839D02*
X198369819Y-90627506D01*
X198369819Y-90627506D02*
X198417438Y-90532268D01*
X198417438Y-90532268D02*
X198465057Y-90484649D01*
X198465057Y-90484649D02*
X198560295Y-90437030D01*
X198560295Y-90437030D02*
X198655533Y-90437030D01*
X198655533Y-90437030D02*
X198750771Y-90484649D01*
X198750771Y-90484649D02*
X198798390Y-90532268D01*
X198798390Y-90532268D02*
X198846009Y-90627506D01*
X198846009Y-90627506D02*
X198846009Y-90960839D01*
X198465057Y-89246553D02*
X198417438Y-89198934D01*
X198417438Y-89198934D02*
X198369819Y-89103696D01*
X198369819Y-89103696D02*
X198369819Y-88865601D01*
X198369819Y-88865601D02*
X198417438Y-88770363D01*
X198417438Y-88770363D02*
X198465057Y-88722744D01*
X198465057Y-88722744D02*
X198560295Y-88675125D01*
X198560295Y-88675125D02*
X198655533Y-88675125D01*
X198655533Y-88675125D02*
X198798390Y-88722744D01*
X198798390Y-88722744D02*
X199369819Y-89294172D01*
X199369819Y-89294172D02*
X199369819Y-88675125D01*
X199084104Y-88294172D02*
X199084104Y-87817982D01*
X199369819Y-88389410D02*
X198369819Y-88056077D01*
X198369819Y-88056077D02*
X199369819Y-87722744D01*
X199369819Y-86103696D02*
X199369819Y-86675124D01*
X199369819Y-86389410D02*
X198369819Y-86389410D01*
X198369819Y-86389410D02*
X198512676Y-86484648D01*
X198512676Y-86484648D02*
X198607914Y-86579886D01*
X198607914Y-86579886D02*
X198655533Y-86675124D01*
X199084104Y-85722743D02*
X199084104Y-85246553D01*
X199369819Y-85817981D02*
X198369819Y-85484648D01*
X198369819Y-85484648D02*
X199369819Y-85151315D01*
X199369819Y-83532267D02*
X199369819Y-84103695D01*
X199369819Y-83817981D02*
X198369819Y-83817981D01*
X198369819Y-83817981D02*
X198512676Y-83913219D01*
X198512676Y-83913219D02*
X198607914Y-84008457D01*
X198607914Y-84008457D02*
X198655533Y-84103695D01*
X198846009Y-82770362D02*
X198893628Y-82627505D01*
X198893628Y-82627505D02*
X198941247Y-82579886D01*
X198941247Y-82579886D02*
X199036485Y-82532267D01*
X199036485Y-82532267D02*
X199179342Y-82532267D01*
X199179342Y-82532267D02*
X199274580Y-82579886D01*
X199274580Y-82579886D02*
X199322200Y-82627505D01*
X199322200Y-82627505D02*
X199369819Y-82722743D01*
X199369819Y-82722743D02*
X199369819Y-83103695D01*
X199369819Y-83103695D02*
X198369819Y-83103695D01*
X198369819Y-83103695D02*
X198369819Y-82770362D01*
X198369819Y-82770362D02*
X198417438Y-82675124D01*
X198417438Y-82675124D02*
X198465057Y-82627505D01*
X198465057Y-82627505D02*
X198560295Y-82579886D01*
X198560295Y-82579886D02*
X198655533Y-82579886D01*
X198655533Y-82579886D02*
X198750771Y-82627505D01*
X198750771Y-82627505D02*
X198798390Y-82675124D01*
X198798390Y-82675124D02*
X198846009Y-82770362D01*
X198846009Y-82770362D02*
X198846009Y-83103695D01*
X198465057Y-139710839D02*
X198417438Y-139663220D01*
X198417438Y-139663220D02*
X198369819Y-139567982D01*
X198369819Y-139567982D02*
X198369819Y-139329887D01*
X198369819Y-139329887D02*
X198417438Y-139234649D01*
X198417438Y-139234649D02*
X198465057Y-139187030D01*
X198465057Y-139187030D02*
X198560295Y-139139411D01*
X198560295Y-139139411D02*
X198655533Y-139139411D01*
X198655533Y-139139411D02*
X198798390Y-139187030D01*
X198798390Y-139187030D02*
X199369819Y-139758458D01*
X199369819Y-139758458D02*
X199369819Y-139139411D01*
X198846009Y-138377506D02*
X198893628Y-138234649D01*
X198893628Y-138234649D02*
X198941247Y-138187030D01*
X198941247Y-138187030D02*
X199036485Y-138139411D01*
X199036485Y-138139411D02*
X199179342Y-138139411D01*
X199179342Y-138139411D02*
X199274580Y-138187030D01*
X199274580Y-138187030D02*
X199322200Y-138234649D01*
X199322200Y-138234649D02*
X199369819Y-138329887D01*
X199369819Y-138329887D02*
X199369819Y-138710839D01*
X199369819Y-138710839D02*
X198369819Y-138710839D01*
X198369819Y-138710839D02*
X198369819Y-138377506D01*
X198369819Y-138377506D02*
X198417438Y-138282268D01*
X198417438Y-138282268D02*
X198465057Y-138234649D01*
X198465057Y-138234649D02*
X198560295Y-138187030D01*
X198560295Y-138187030D02*
X198655533Y-138187030D01*
X198655533Y-138187030D02*
X198750771Y-138234649D01*
X198750771Y-138234649D02*
X198798390Y-138282268D01*
X198798390Y-138282268D02*
X198846009Y-138377506D01*
X198846009Y-138377506D02*
X198846009Y-138710839D01*
X198465057Y-136996553D02*
X198417438Y-136948934D01*
X198417438Y-136948934D02*
X198369819Y-136853696D01*
X198369819Y-136853696D02*
X198369819Y-136615601D01*
X198369819Y-136615601D02*
X198417438Y-136520363D01*
X198417438Y-136520363D02*
X198465057Y-136472744D01*
X198465057Y-136472744D02*
X198560295Y-136425125D01*
X198560295Y-136425125D02*
X198655533Y-136425125D01*
X198655533Y-136425125D02*
X198798390Y-136472744D01*
X198798390Y-136472744D02*
X199369819Y-137044172D01*
X199369819Y-137044172D02*
X199369819Y-136425125D01*
X199084104Y-136044172D02*
X199084104Y-135567982D01*
X199369819Y-136139410D02*
X198369819Y-135806077D01*
X198369819Y-135806077D02*
X199369819Y-135472744D01*
X199369819Y-133853696D02*
X199369819Y-134425124D01*
X199369819Y-134139410D02*
X198369819Y-134139410D01*
X198369819Y-134139410D02*
X198512676Y-134234648D01*
X198512676Y-134234648D02*
X198607914Y-134329886D01*
X198607914Y-134329886D02*
X198655533Y-134425124D01*
X199084104Y-133472743D02*
X199084104Y-132996553D01*
X199369819Y-133567981D02*
X198369819Y-133234648D01*
X198369819Y-133234648D02*
X199369819Y-132901315D01*
X199369819Y-131282267D02*
X199369819Y-131853695D01*
X199369819Y-131567981D02*
X198369819Y-131567981D01*
X198369819Y-131567981D02*
X198512676Y-131663219D01*
X198512676Y-131663219D02*
X198607914Y-131758457D01*
X198607914Y-131758457D02*
X198655533Y-131853695D01*
X198846009Y-130520362D02*
X198893628Y-130377505D01*
X198893628Y-130377505D02*
X198941247Y-130329886D01*
X198941247Y-130329886D02*
X199036485Y-130282267D01*
X199036485Y-130282267D02*
X199179342Y-130282267D01*
X199179342Y-130282267D02*
X199274580Y-130329886D01*
X199274580Y-130329886D02*
X199322200Y-130377505D01*
X199322200Y-130377505D02*
X199369819Y-130472743D01*
X199369819Y-130472743D02*
X199369819Y-130853695D01*
X199369819Y-130853695D02*
X198369819Y-130853695D01*
X198369819Y-130853695D02*
X198369819Y-130520362D01*
X198369819Y-130520362D02*
X198417438Y-130425124D01*
X198417438Y-130425124D02*
X198465057Y-130377505D01*
X198465057Y-130377505D02*
X198560295Y-130329886D01*
X198560295Y-130329886D02*
X198655533Y-130329886D01*
X198655533Y-130329886D02*
X198750771Y-130377505D01*
X198750771Y-130377505D02*
X198798390Y-130425124D01*
X198798390Y-130425124D02*
X198846009Y-130520362D01*
X198846009Y-130520362D02*
X198846009Y-130853695D01*
X165690475Y-144626121D02*
X165833332Y-144673740D01*
X165833332Y-144673740D02*
X165880951Y-144721359D01*
X165880951Y-144721359D02*
X165928570Y-144816597D01*
X165928570Y-144816597D02*
X165928570Y-144959454D01*
X165928570Y-144959454D02*
X165880951Y-145054692D01*
X165880951Y-145054692D02*
X165833332Y-145102312D01*
X165833332Y-145102312D02*
X165738094Y-145149931D01*
X165738094Y-145149931D02*
X165357142Y-145149931D01*
X165357142Y-145149931D02*
X165357142Y-144149931D01*
X165357142Y-144149931D02*
X165690475Y-144149931D01*
X165690475Y-144149931D02*
X165785713Y-144197550D01*
X165785713Y-144197550D02*
X165833332Y-144245169D01*
X165833332Y-144245169D02*
X165880951Y-144340407D01*
X165880951Y-144340407D02*
X165880951Y-144435645D01*
X165880951Y-144435645D02*
X165833332Y-144530883D01*
X165833332Y-144530883D02*
X165785713Y-144578502D01*
X165785713Y-144578502D02*
X165690475Y-144626121D01*
X165690475Y-144626121D02*
X165357142Y-144626121D01*
X166928570Y-145149931D02*
X166595237Y-144673740D01*
X166357142Y-145149931D02*
X166357142Y-144149931D01*
X166357142Y-144149931D02*
X166738094Y-144149931D01*
X166738094Y-144149931D02*
X166833332Y-144197550D01*
X166833332Y-144197550D02*
X166880951Y-144245169D01*
X166880951Y-144245169D02*
X166928570Y-144340407D01*
X166928570Y-144340407D02*
X166928570Y-144483264D01*
X166928570Y-144483264D02*
X166880951Y-144578502D01*
X166880951Y-144578502D02*
X166833332Y-144626121D01*
X166833332Y-144626121D02*
X166738094Y-144673740D01*
X166738094Y-144673740D02*
X166357142Y-144673740D01*
X167357142Y-144626121D02*
X167690475Y-144626121D01*
X167833332Y-145149931D02*
X167357142Y-145149931D01*
X167357142Y-145149931D02*
X167357142Y-144149931D01*
X167357142Y-144149931D02*
X167833332Y-144149931D01*
X168214285Y-144864216D02*
X168690475Y-144864216D01*
X168119047Y-145149931D02*
X168452380Y-144149931D01*
X168452380Y-144149931D02*
X168785713Y-145149931D01*
X169119047Y-145149931D02*
X169119047Y-144149931D01*
X169119047Y-144149931D02*
X169357142Y-144149931D01*
X169357142Y-144149931D02*
X169499999Y-144197550D01*
X169499999Y-144197550D02*
X169595237Y-144292788D01*
X169595237Y-144292788D02*
X169642856Y-144388026D01*
X169642856Y-144388026D02*
X169690475Y-144578502D01*
X169690475Y-144578502D02*
X169690475Y-144721359D01*
X169690475Y-144721359D02*
X169642856Y-144911835D01*
X169642856Y-144911835D02*
X169595237Y-145007073D01*
X169595237Y-145007073D02*
X169499999Y-145102312D01*
X169499999Y-145102312D02*
X169357142Y-145149931D01*
X169357142Y-145149931D02*
X169119047Y-145149931D01*
X170833333Y-145102312D02*
X170976190Y-145149931D01*
X170976190Y-145149931D02*
X171214285Y-145149931D01*
X171214285Y-145149931D02*
X171309523Y-145102312D01*
X171309523Y-145102312D02*
X171357142Y-145054692D01*
X171357142Y-145054692D02*
X171404761Y-144959454D01*
X171404761Y-144959454D02*
X171404761Y-144864216D01*
X171404761Y-144864216D02*
X171357142Y-144768978D01*
X171357142Y-144768978D02*
X171309523Y-144721359D01*
X171309523Y-144721359D02*
X171214285Y-144673740D01*
X171214285Y-144673740D02*
X171023809Y-144626121D01*
X171023809Y-144626121D02*
X170928571Y-144578502D01*
X170928571Y-144578502D02*
X170880952Y-144530883D01*
X170880952Y-144530883D02*
X170833333Y-144435645D01*
X170833333Y-144435645D02*
X170833333Y-144340407D01*
X170833333Y-144340407D02*
X170880952Y-144245169D01*
X170880952Y-144245169D02*
X170928571Y-144197550D01*
X170928571Y-144197550D02*
X171023809Y-144149931D01*
X171023809Y-144149931D02*
X171261904Y-144149931D01*
X171261904Y-144149931D02*
X171404761Y-144197550D01*
X171690476Y-144483264D02*
X172071428Y-144483264D01*
X171833333Y-144149931D02*
X171833333Y-145007073D01*
X171833333Y-145007073D02*
X171880952Y-145102312D01*
X171880952Y-145102312D02*
X171976190Y-145149931D01*
X171976190Y-145149931D02*
X172071428Y-145149931D01*
X172785714Y-145102312D02*
X172690476Y-145149931D01*
X172690476Y-145149931D02*
X172500000Y-145149931D01*
X172500000Y-145149931D02*
X172404762Y-145102312D01*
X172404762Y-145102312D02*
X172357143Y-145007073D01*
X172357143Y-145007073D02*
X172357143Y-144626121D01*
X172357143Y-144626121D02*
X172404762Y-144530883D01*
X172404762Y-144530883D02*
X172500000Y-144483264D01*
X172500000Y-144483264D02*
X172690476Y-144483264D01*
X172690476Y-144483264D02*
X172785714Y-144530883D01*
X172785714Y-144530883D02*
X172833333Y-144626121D01*
X172833333Y-144626121D02*
X172833333Y-144721359D01*
X172833333Y-144721359D02*
X172357143Y-144816597D01*
X173261905Y-144483264D02*
X173261905Y-145483264D01*
X173261905Y-144530883D02*
X173357143Y-144483264D01*
X173357143Y-144483264D02*
X173547619Y-144483264D01*
X173547619Y-144483264D02*
X173642857Y-144530883D01*
X173642857Y-144530883D02*
X173690476Y-144578502D01*
X173690476Y-144578502D02*
X173738095Y-144673740D01*
X173738095Y-144673740D02*
X173738095Y-144959454D01*
X173738095Y-144959454D02*
X173690476Y-145054692D01*
X173690476Y-145054692D02*
X173642857Y-145102312D01*
X173642857Y-145102312D02*
X173547619Y-145149931D01*
X173547619Y-145149931D02*
X173357143Y-145149931D01*
X173357143Y-145149931D02*
X173261905Y-145102312D01*
X174166667Y-144483264D02*
X174166667Y-145483264D01*
X174166667Y-144530883D02*
X174261905Y-144483264D01*
X174261905Y-144483264D02*
X174452381Y-144483264D01*
X174452381Y-144483264D02*
X174547619Y-144530883D01*
X174547619Y-144530883D02*
X174595238Y-144578502D01*
X174595238Y-144578502D02*
X174642857Y-144673740D01*
X174642857Y-144673740D02*
X174642857Y-144959454D01*
X174642857Y-144959454D02*
X174595238Y-145054692D01*
X174595238Y-145054692D02*
X174547619Y-145102312D01*
X174547619Y-145102312D02*
X174452381Y-145149931D01*
X174452381Y-145149931D02*
X174261905Y-145149931D01*
X174261905Y-145149931D02*
X174166667Y-145102312D01*
X175452381Y-145102312D02*
X175357143Y-145149931D01*
X175357143Y-145149931D02*
X175166667Y-145149931D01*
X175166667Y-145149931D02*
X175071429Y-145102312D01*
X175071429Y-145102312D02*
X175023810Y-145007073D01*
X175023810Y-145007073D02*
X175023810Y-144626121D01*
X175023810Y-144626121D02*
X175071429Y-144530883D01*
X175071429Y-144530883D02*
X175166667Y-144483264D01*
X175166667Y-144483264D02*
X175357143Y-144483264D01*
X175357143Y-144483264D02*
X175452381Y-144530883D01*
X175452381Y-144530883D02*
X175500000Y-144626121D01*
X175500000Y-144626121D02*
X175500000Y-144721359D01*
X175500000Y-144721359D02*
X175023810Y-144816597D01*
X175928572Y-145149931D02*
X175928572Y-144483264D01*
X175928572Y-144673740D02*
X175976191Y-144578502D01*
X175976191Y-144578502D02*
X176023810Y-144530883D01*
X176023810Y-144530883D02*
X176119048Y-144483264D01*
X176119048Y-144483264D02*
X176214286Y-144483264D01*
X177166668Y-144149931D02*
X177500001Y-145149931D01*
X177500001Y-145149931D02*
X177833334Y-144149931D01*
X178119049Y-144245169D02*
X178166668Y-144197550D01*
X178166668Y-144197550D02*
X178261906Y-144149931D01*
X178261906Y-144149931D02*
X178500001Y-144149931D01*
X178500001Y-144149931D02*
X178595239Y-144197550D01*
X178595239Y-144197550D02*
X178642858Y-144245169D01*
X178642858Y-144245169D02*
X178690477Y-144340407D01*
X178690477Y-144340407D02*
X178690477Y-144435645D01*
X178690477Y-144435645D02*
X178642858Y-144578502D01*
X178642858Y-144578502D02*
X178071430Y-145149931D01*
X178071430Y-145149931D02*
X178690477Y-145149931D01*
X169714286Y-146759875D02*
X169619048Y-146712256D01*
X169619048Y-146712256D02*
X169571429Y-146664636D01*
X169571429Y-146664636D02*
X169523810Y-146569398D01*
X169523810Y-146569398D02*
X169523810Y-146283684D01*
X169523810Y-146283684D02*
X169571429Y-146188446D01*
X169571429Y-146188446D02*
X169619048Y-146140827D01*
X169619048Y-146140827D02*
X169714286Y-146093208D01*
X169714286Y-146093208D02*
X169857143Y-146093208D01*
X169857143Y-146093208D02*
X169952381Y-146140827D01*
X169952381Y-146140827D02*
X170000000Y-146188446D01*
X170000000Y-146188446D02*
X170047619Y-146283684D01*
X170047619Y-146283684D02*
X170047619Y-146569398D01*
X170047619Y-146569398D02*
X170000000Y-146664636D01*
X170000000Y-146664636D02*
X169952381Y-146712256D01*
X169952381Y-146712256D02*
X169857143Y-146759875D01*
X169857143Y-146759875D02*
X169714286Y-146759875D01*
X170428572Y-146712256D02*
X170523810Y-146759875D01*
X170523810Y-146759875D02*
X170714286Y-146759875D01*
X170714286Y-146759875D02*
X170809524Y-146712256D01*
X170809524Y-146712256D02*
X170857143Y-146617017D01*
X170857143Y-146617017D02*
X170857143Y-146569398D01*
X170857143Y-146569398D02*
X170809524Y-146474160D01*
X170809524Y-146474160D02*
X170714286Y-146426541D01*
X170714286Y-146426541D02*
X170571429Y-146426541D01*
X170571429Y-146426541D02*
X170476191Y-146378922D01*
X170476191Y-146378922D02*
X170428572Y-146283684D01*
X170428572Y-146283684D02*
X170428572Y-146236065D01*
X170428572Y-146236065D02*
X170476191Y-146140827D01*
X170476191Y-146140827D02*
X170571429Y-146093208D01*
X170571429Y-146093208D02*
X170714286Y-146093208D01*
X170714286Y-146093208D02*
X170809524Y-146140827D01*
X171285715Y-146759875D02*
X171285715Y-145759875D01*
X171714286Y-146759875D02*
X171714286Y-146236065D01*
X171714286Y-146236065D02*
X171666667Y-146140827D01*
X171666667Y-146140827D02*
X171571429Y-146093208D01*
X171571429Y-146093208D02*
X171428572Y-146093208D01*
X171428572Y-146093208D02*
X171333334Y-146140827D01*
X171333334Y-146140827D02*
X171285715Y-146188446D01*
X172571429Y-146712256D02*
X172476191Y-146759875D01*
X172476191Y-146759875D02*
X172285715Y-146759875D01*
X172285715Y-146759875D02*
X172190477Y-146712256D01*
X172190477Y-146712256D02*
X172142858Y-146617017D01*
X172142858Y-146617017D02*
X172142858Y-146236065D01*
X172142858Y-146236065D02*
X172190477Y-146140827D01*
X172190477Y-146140827D02*
X172285715Y-146093208D01*
X172285715Y-146093208D02*
X172476191Y-146093208D01*
X172476191Y-146093208D02*
X172571429Y-146140827D01*
X172571429Y-146140827D02*
X172619048Y-146236065D01*
X172619048Y-146236065D02*
X172619048Y-146331303D01*
X172619048Y-146331303D02*
X172142858Y-146426541D01*
X173047620Y-146664636D02*
X173095239Y-146712256D01*
X173095239Y-146712256D02*
X173047620Y-146759875D01*
X173047620Y-146759875D02*
X173000001Y-146712256D01*
X173000001Y-146712256D02*
X173047620Y-146664636D01*
X173047620Y-146664636D02*
X173047620Y-146759875D01*
X173523810Y-146759875D02*
X173523810Y-146093208D01*
X173523810Y-145759875D02*
X173476191Y-145807494D01*
X173476191Y-145807494D02*
X173523810Y-145855113D01*
X173523810Y-145855113D02*
X173571429Y-145807494D01*
X173571429Y-145807494D02*
X173523810Y-145759875D01*
X173523810Y-145759875D02*
X173523810Y-145855113D01*
X174142857Y-146759875D02*
X174047619Y-146712256D01*
X174047619Y-146712256D02*
X174000000Y-146664636D01*
X174000000Y-146664636D02*
X173952381Y-146569398D01*
X173952381Y-146569398D02*
X173952381Y-146283684D01*
X173952381Y-146283684D02*
X174000000Y-146188446D01*
X174000000Y-146188446D02*
X174047619Y-146140827D01*
X174047619Y-146140827D02*
X174142857Y-146093208D01*
X174142857Y-146093208D02*
X174285714Y-146093208D01*
X174285714Y-146093208D02*
X174380952Y-146140827D01*
X174380952Y-146140827D02*
X174428571Y-146188446D01*
X174428571Y-146188446D02*
X174476190Y-146283684D01*
X174476190Y-146283684D02*
X174476190Y-146569398D01*
X174476190Y-146569398D02*
X174428571Y-146664636D01*
X174428571Y-146664636D02*
X174380952Y-146712256D01*
X174380952Y-146712256D02*
X174285714Y-146759875D01*
X174285714Y-146759875D02*
X174142857Y-146759875D01*
X168666666Y-148369819D02*
X168333333Y-147893628D01*
X168095238Y-148369819D02*
X168095238Y-147369819D01*
X168095238Y-147369819D02*
X168476190Y-147369819D01*
X168476190Y-147369819D02*
X168571428Y-147417438D01*
X168571428Y-147417438D02*
X168619047Y-147465057D01*
X168619047Y-147465057D02*
X168666666Y-147560295D01*
X168666666Y-147560295D02*
X168666666Y-147703152D01*
X168666666Y-147703152D02*
X168619047Y-147798390D01*
X168619047Y-147798390D02*
X168571428Y-147846009D01*
X168571428Y-147846009D02*
X168476190Y-147893628D01*
X168476190Y-147893628D02*
X168095238Y-147893628D01*
X169095238Y-147846009D02*
X169428571Y-147846009D01*
X169571428Y-148369819D02*
X169095238Y-148369819D01*
X169095238Y-148369819D02*
X169095238Y-147369819D01*
X169095238Y-147369819D02*
X169571428Y-147369819D01*
X169857143Y-147369819D02*
X170190476Y-148369819D01*
X170190476Y-148369819D02*
X170523809Y-147369819D01*
X170761905Y-147369819D02*
X171380952Y-147369819D01*
X171380952Y-147369819D02*
X171047619Y-147750771D01*
X171047619Y-147750771D02*
X171190476Y-147750771D01*
X171190476Y-147750771D02*
X171285714Y-147798390D01*
X171285714Y-147798390D02*
X171333333Y-147846009D01*
X171333333Y-147846009D02*
X171380952Y-147941247D01*
X171380952Y-147941247D02*
X171380952Y-148179342D01*
X171380952Y-148179342D02*
X171333333Y-148274580D01*
X171333333Y-148274580D02*
X171285714Y-148322200D01*
X171285714Y-148322200D02*
X171190476Y-148369819D01*
X171190476Y-148369819D02*
X170904762Y-148369819D01*
X170904762Y-148369819D02*
X170809524Y-148322200D01*
X170809524Y-148322200D02*
X170761905Y-148274580D01*
X172523810Y-147465057D02*
X172571429Y-147417438D01*
X172571429Y-147417438D02*
X172666667Y-147369819D01*
X172666667Y-147369819D02*
X172904762Y-147369819D01*
X172904762Y-147369819D02*
X173000000Y-147417438D01*
X173000000Y-147417438D02*
X173047619Y-147465057D01*
X173047619Y-147465057D02*
X173095238Y-147560295D01*
X173095238Y-147560295D02*
X173095238Y-147655533D01*
X173095238Y-147655533D02*
X173047619Y-147798390D01*
X173047619Y-147798390D02*
X172476191Y-148369819D01*
X172476191Y-148369819D02*
X173095238Y-148369819D01*
X173714286Y-147369819D02*
X173809524Y-147369819D01*
X173809524Y-147369819D02*
X173904762Y-147417438D01*
X173904762Y-147417438D02*
X173952381Y-147465057D01*
X173952381Y-147465057D02*
X174000000Y-147560295D01*
X174000000Y-147560295D02*
X174047619Y-147750771D01*
X174047619Y-147750771D02*
X174047619Y-147988866D01*
X174047619Y-147988866D02*
X174000000Y-148179342D01*
X174000000Y-148179342D02*
X173952381Y-148274580D01*
X173952381Y-148274580D02*
X173904762Y-148322200D01*
X173904762Y-148322200D02*
X173809524Y-148369819D01*
X173809524Y-148369819D02*
X173714286Y-148369819D01*
X173714286Y-148369819D02*
X173619048Y-148322200D01*
X173619048Y-148322200D02*
X173571429Y-148274580D01*
X173571429Y-148274580D02*
X173523810Y-148179342D01*
X173523810Y-148179342D02*
X173476191Y-147988866D01*
X173476191Y-147988866D02*
X173476191Y-147750771D01*
X173476191Y-147750771D02*
X173523810Y-147560295D01*
X173523810Y-147560295D02*
X173571429Y-147465057D01*
X173571429Y-147465057D02*
X173619048Y-147417438D01*
X173619048Y-147417438D02*
X173714286Y-147369819D01*
X174428572Y-147465057D02*
X174476191Y-147417438D01*
X174476191Y-147417438D02*
X174571429Y-147369819D01*
X174571429Y-147369819D02*
X174809524Y-147369819D01*
X174809524Y-147369819D02*
X174904762Y-147417438D01*
X174904762Y-147417438D02*
X174952381Y-147465057D01*
X174952381Y-147465057D02*
X175000000Y-147560295D01*
X175000000Y-147560295D02*
X175000000Y-147655533D01*
X175000000Y-147655533D02*
X174952381Y-147798390D01*
X174952381Y-147798390D02*
X174380953Y-148369819D01*
X174380953Y-148369819D02*
X175000000Y-148369819D01*
X175857143Y-147703152D02*
X175857143Y-148369819D01*
X175619048Y-147322200D02*
X175380953Y-148036485D01*
X175380953Y-148036485D02*
X176000000Y-148036485D01*
X198465057Y-121710839D02*
X198417438Y-121663220D01*
X198417438Y-121663220D02*
X198369819Y-121567982D01*
X198369819Y-121567982D02*
X198369819Y-121329887D01*
X198369819Y-121329887D02*
X198417438Y-121234649D01*
X198417438Y-121234649D02*
X198465057Y-121187030D01*
X198465057Y-121187030D02*
X198560295Y-121139411D01*
X198560295Y-121139411D02*
X198655533Y-121139411D01*
X198655533Y-121139411D02*
X198798390Y-121187030D01*
X198798390Y-121187030D02*
X199369819Y-121758458D01*
X199369819Y-121758458D02*
X199369819Y-121139411D01*
X198846009Y-120377506D02*
X198893628Y-120234649D01*
X198893628Y-120234649D02*
X198941247Y-120187030D01*
X198941247Y-120187030D02*
X199036485Y-120139411D01*
X199036485Y-120139411D02*
X199179342Y-120139411D01*
X199179342Y-120139411D02*
X199274580Y-120187030D01*
X199274580Y-120187030D02*
X199322200Y-120234649D01*
X199322200Y-120234649D02*
X199369819Y-120329887D01*
X199369819Y-120329887D02*
X199369819Y-120710839D01*
X199369819Y-120710839D02*
X198369819Y-120710839D01*
X198369819Y-120710839D02*
X198369819Y-120377506D01*
X198369819Y-120377506D02*
X198417438Y-120282268D01*
X198417438Y-120282268D02*
X198465057Y-120234649D01*
X198465057Y-120234649D02*
X198560295Y-120187030D01*
X198560295Y-120187030D02*
X198655533Y-120187030D01*
X198655533Y-120187030D02*
X198750771Y-120234649D01*
X198750771Y-120234649D02*
X198798390Y-120282268D01*
X198798390Y-120282268D02*
X198846009Y-120377506D01*
X198846009Y-120377506D02*
X198846009Y-120710839D01*
X198465057Y-118996553D02*
X198417438Y-118948934D01*
X198417438Y-118948934D02*
X198369819Y-118853696D01*
X198369819Y-118853696D02*
X198369819Y-118615601D01*
X198369819Y-118615601D02*
X198417438Y-118520363D01*
X198417438Y-118520363D02*
X198465057Y-118472744D01*
X198465057Y-118472744D02*
X198560295Y-118425125D01*
X198560295Y-118425125D02*
X198655533Y-118425125D01*
X198655533Y-118425125D02*
X198798390Y-118472744D01*
X198798390Y-118472744D02*
X199369819Y-119044172D01*
X199369819Y-119044172D02*
X199369819Y-118425125D01*
X199084104Y-118044172D02*
X199084104Y-117567982D01*
X199369819Y-118139410D02*
X198369819Y-117806077D01*
X198369819Y-117806077D02*
X199369819Y-117472744D01*
X199369819Y-115853696D02*
X199369819Y-116425124D01*
X199369819Y-116139410D02*
X198369819Y-116139410D01*
X198369819Y-116139410D02*
X198512676Y-116234648D01*
X198512676Y-116234648D02*
X198607914Y-116329886D01*
X198607914Y-116329886D02*
X198655533Y-116425124D01*
X199084104Y-115472743D02*
X199084104Y-114996553D01*
X199369819Y-115567981D02*
X198369819Y-115234648D01*
X198369819Y-115234648D02*
X199369819Y-114901315D01*
X199369819Y-113282267D02*
X199369819Y-113853695D01*
X199369819Y-113567981D02*
X198369819Y-113567981D01*
X198369819Y-113567981D02*
X198512676Y-113663219D01*
X198512676Y-113663219D02*
X198607914Y-113758457D01*
X198607914Y-113758457D02*
X198655533Y-113853695D01*
X198846009Y-112520362D02*
X198893628Y-112377505D01*
X198893628Y-112377505D02*
X198941247Y-112329886D01*
X198941247Y-112329886D02*
X199036485Y-112282267D01*
X199036485Y-112282267D02*
X199179342Y-112282267D01*
X199179342Y-112282267D02*
X199274580Y-112329886D01*
X199274580Y-112329886D02*
X199322200Y-112377505D01*
X199322200Y-112377505D02*
X199369819Y-112472743D01*
X199369819Y-112472743D02*
X199369819Y-112853695D01*
X199369819Y-112853695D02*
X198369819Y-112853695D01*
X198369819Y-112853695D02*
X198369819Y-112520362D01*
X198369819Y-112520362D02*
X198417438Y-112425124D01*
X198417438Y-112425124D02*
X198465057Y-112377505D01*
X198465057Y-112377505D02*
X198560295Y-112329886D01*
X198560295Y-112329886D02*
X198655533Y-112329886D01*
X198655533Y-112329886D02*
X198750771Y-112377505D01*
X198750771Y-112377505D02*
X198798390Y-112425124D01*
X198798390Y-112425124D02*
X198846009Y-112520362D01*
X198846009Y-112520362D02*
X198846009Y-112853695D01*
X150965595Y-81324819D02*
X150965595Y-82134342D01*
X150965595Y-82134342D02*
X151013214Y-82229580D01*
X151013214Y-82229580D02*
X151060833Y-82277200D01*
X151060833Y-82277200D02*
X151156071Y-82324819D01*
X151156071Y-82324819D02*
X151346547Y-82324819D01*
X151346547Y-82324819D02*
X151441785Y-82277200D01*
X151441785Y-82277200D02*
X151489404Y-82229580D01*
X151489404Y-82229580D02*
X151537023Y-82134342D01*
X151537023Y-82134342D02*
X151537023Y-81324819D01*
X152537023Y-82324819D02*
X151965595Y-82324819D01*
X152251309Y-82324819D02*
X152251309Y-81324819D01*
X152251309Y-81324819D02*
X152156071Y-81467676D01*
X152156071Y-81467676D02*
X152060833Y-81562914D01*
X152060833Y-81562914D02*
X151965595Y-81610533D01*
X139134819Y-114166666D02*
X138658628Y-114499999D01*
X139134819Y-114738094D02*
X138134819Y-114738094D01*
X138134819Y-114738094D02*
X138134819Y-114357142D01*
X138134819Y-114357142D02*
X138182438Y-114261904D01*
X138182438Y-114261904D02*
X138230057Y-114214285D01*
X138230057Y-114214285D02*
X138325295Y-114166666D01*
X138325295Y-114166666D02*
X138468152Y-114166666D01*
X138468152Y-114166666D02*
X138563390Y-114214285D01*
X138563390Y-114214285D02*
X138611009Y-114261904D01*
X138611009Y-114261904D02*
X138658628Y-114357142D01*
X138658628Y-114357142D02*
X138658628Y-114738094D01*
X138134819Y-113261904D02*
X138134819Y-113738094D01*
X138134819Y-113738094D02*
X138611009Y-113785713D01*
X138611009Y-113785713D02*
X138563390Y-113738094D01*
X138563390Y-113738094D02*
X138515771Y-113642856D01*
X138515771Y-113642856D02*
X138515771Y-113404761D01*
X138515771Y-113404761D02*
X138563390Y-113309523D01*
X138563390Y-113309523D02*
X138611009Y-113261904D01*
X138611009Y-113261904D02*
X138706247Y-113214285D01*
X138706247Y-113214285D02*
X138944342Y-113214285D01*
X138944342Y-113214285D02*
X139039580Y-113261904D01*
X139039580Y-113261904D02*
X139087200Y-113309523D01*
X139087200Y-113309523D02*
X139134819Y-113404761D01*
X139134819Y-113404761D02*
X139134819Y-113642856D01*
X139134819Y-113642856D02*
X139087200Y-113738094D01*
X139087200Y-113738094D02*
X139039580Y-113785713D01*
X135704819Y-76333333D02*
X136419104Y-76333333D01*
X136419104Y-76333333D02*
X136561961Y-76380952D01*
X136561961Y-76380952D02*
X136657200Y-76476190D01*
X136657200Y-76476190D02*
X136704819Y-76619047D01*
X136704819Y-76619047D02*
X136704819Y-76714285D01*
X136038152Y-75428571D02*
X136704819Y-75428571D01*
X135657200Y-75666666D02*
X136371485Y-75904761D01*
X136371485Y-75904761D02*
X136371485Y-75285714D01*
X179169104Y-117714285D02*
X179169104Y-117238095D01*
X179454819Y-117809523D02*
X178454819Y-117476190D01*
X178454819Y-117476190D02*
X179454819Y-117142857D01*
X178788152Y-116380952D02*
X179454819Y-116380952D01*
X178407200Y-116619047D02*
X179121485Y-116857142D01*
X179121485Y-116857142D02*
X179121485Y-116238095D01*
X161833333Y-118859580D02*
X161785714Y-118907200D01*
X161785714Y-118907200D02*
X161642857Y-118954819D01*
X161642857Y-118954819D02*
X161547619Y-118954819D01*
X161547619Y-118954819D02*
X161404762Y-118907200D01*
X161404762Y-118907200D02*
X161309524Y-118811961D01*
X161309524Y-118811961D02*
X161261905Y-118716723D01*
X161261905Y-118716723D02*
X161214286Y-118526247D01*
X161214286Y-118526247D02*
X161214286Y-118383390D01*
X161214286Y-118383390D02*
X161261905Y-118192914D01*
X161261905Y-118192914D02*
X161309524Y-118097676D01*
X161309524Y-118097676D02*
X161404762Y-118002438D01*
X161404762Y-118002438D02*
X161547619Y-117954819D01*
X161547619Y-117954819D02*
X161642857Y-117954819D01*
X161642857Y-117954819D02*
X161785714Y-118002438D01*
X161785714Y-118002438D02*
X161833333Y-118050057D01*
X162690476Y-118288152D02*
X162690476Y-118954819D01*
X162452381Y-117907200D02*
X162214286Y-118621485D01*
X162214286Y-118621485D02*
X162833333Y-118621485D01*
X139384819Y-135166666D02*
X138908628Y-135499999D01*
X139384819Y-135738094D02*
X138384819Y-135738094D01*
X138384819Y-135738094D02*
X138384819Y-135357142D01*
X138384819Y-135357142D02*
X138432438Y-135261904D01*
X138432438Y-135261904D02*
X138480057Y-135214285D01*
X138480057Y-135214285D02*
X138575295Y-135166666D01*
X138575295Y-135166666D02*
X138718152Y-135166666D01*
X138718152Y-135166666D02*
X138813390Y-135214285D01*
X138813390Y-135214285D02*
X138861009Y-135261904D01*
X138861009Y-135261904D02*
X138908628Y-135357142D01*
X138908628Y-135357142D02*
X138908628Y-135738094D01*
X138718152Y-134309523D02*
X139384819Y-134309523D01*
X138337200Y-134547618D02*
X139051485Y-134785713D01*
X139051485Y-134785713D02*
X139051485Y-134166666D01*
X194238095Y-141654819D02*
X194238095Y-140654819D01*
X194238095Y-141131009D02*
X194809523Y-141131009D01*
X194809523Y-141654819D02*
X194809523Y-140654819D01*
X195714285Y-140988152D02*
X195714285Y-141654819D01*
X195476190Y-140607200D02*
X195238095Y-141321485D01*
X195238095Y-141321485D02*
X195857142Y-141321485D01*
X163333333Y-55859580D02*
X163285714Y-55907200D01*
X163285714Y-55907200D02*
X163142857Y-55954819D01*
X163142857Y-55954819D02*
X163047619Y-55954819D01*
X163047619Y-55954819D02*
X162904762Y-55907200D01*
X162904762Y-55907200D02*
X162809524Y-55811961D01*
X162809524Y-55811961D02*
X162761905Y-55716723D01*
X162761905Y-55716723D02*
X162714286Y-55526247D01*
X162714286Y-55526247D02*
X162714286Y-55383390D01*
X162714286Y-55383390D02*
X162761905Y-55192914D01*
X162761905Y-55192914D02*
X162809524Y-55097676D01*
X162809524Y-55097676D02*
X162904762Y-55002438D01*
X162904762Y-55002438D02*
X163047619Y-54954819D01*
X163047619Y-54954819D02*
X163142857Y-54954819D01*
X163142857Y-54954819D02*
X163285714Y-55002438D01*
X163285714Y-55002438D02*
X163333333Y-55050057D01*
X164285714Y-55954819D02*
X163714286Y-55954819D01*
X164000000Y-55954819D02*
X164000000Y-54954819D01*
X164000000Y-54954819D02*
X163904762Y-55097676D01*
X163904762Y-55097676D02*
X163809524Y-55192914D01*
X163809524Y-55192914D02*
X163714286Y-55240533D01*
X189584819Y-88119523D02*
X190299104Y-88119523D01*
X190299104Y-88119523D02*
X190441961Y-88167142D01*
X190441961Y-88167142D02*
X190537200Y-88262380D01*
X190537200Y-88262380D02*
X190584819Y-88405237D01*
X190584819Y-88405237D02*
X190584819Y-88500475D01*
X190584819Y-87119523D02*
X190584819Y-87690951D01*
X190584819Y-87405237D02*
X189584819Y-87405237D01*
X189584819Y-87405237D02*
X189727676Y-87500475D01*
X189727676Y-87500475D02*
X189822914Y-87595713D01*
X189822914Y-87595713D02*
X189870533Y-87690951D01*
X189584819Y-86500475D02*
X189584819Y-86405237D01*
X189584819Y-86405237D02*
X189632438Y-86309999D01*
X189632438Y-86309999D02*
X189680057Y-86262380D01*
X189680057Y-86262380D02*
X189775295Y-86214761D01*
X189775295Y-86214761D02*
X189965771Y-86167142D01*
X189965771Y-86167142D02*
X190203866Y-86167142D01*
X190203866Y-86167142D02*
X190394342Y-86214761D01*
X190394342Y-86214761D02*
X190489580Y-86262380D01*
X190489580Y-86262380D02*
X190537200Y-86309999D01*
X190537200Y-86309999D02*
X190584819Y-86405237D01*
X190584819Y-86405237D02*
X190584819Y-86500475D01*
X190584819Y-86500475D02*
X190537200Y-86595713D01*
X190537200Y-86595713D02*
X190489580Y-86643332D01*
X190489580Y-86643332D02*
X190394342Y-86690951D01*
X190394342Y-86690951D02*
X190203866Y-86738570D01*
X190203866Y-86738570D02*
X189965771Y-86738570D01*
X189965771Y-86738570D02*
X189775295Y-86690951D01*
X189775295Y-86690951D02*
X189680057Y-86643332D01*
X189680057Y-86643332D02*
X189632438Y-86595713D01*
X189632438Y-86595713D02*
X189584819Y-86500475D01*
X139384819Y-129738094D02*
X138384819Y-129738094D01*
X138384819Y-129738094D02*
X138384819Y-129499999D01*
X138384819Y-129499999D02*
X138432438Y-129357142D01*
X138432438Y-129357142D02*
X138527676Y-129261904D01*
X138527676Y-129261904D02*
X138622914Y-129214285D01*
X138622914Y-129214285D02*
X138813390Y-129166666D01*
X138813390Y-129166666D02*
X138956247Y-129166666D01*
X138956247Y-129166666D02*
X139146723Y-129214285D01*
X139146723Y-129214285D02*
X139241961Y-129261904D01*
X139241961Y-129261904D02*
X139337200Y-129357142D01*
X139337200Y-129357142D02*
X139384819Y-129499999D01*
X139384819Y-129499999D02*
X139384819Y-129738094D01*
X138718152Y-128309523D02*
X139384819Y-128309523D01*
X138337200Y-128547618D02*
X139051485Y-128785713D01*
X139051485Y-128785713D02*
X139051485Y-128166666D01*
X151384819Y-129738094D02*
X150384819Y-129738094D01*
X150384819Y-129738094D02*
X150384819Y-129499999D01*
X150384819Y-129499999D02*
X150432438Y-129357142D01*
X150432438Y-129357142D02*
X150527676Y-129261904D01*
X150527676Y-129261904D02*
X150622914Y-129214285D01*
X150622914Y-129214285D02*
X150813390Y-129166666D01*
X150813390Y-129166666D02*
X150956247Y-129166666D01*
X150956247Y-129166666D02*
X151146723Y-129214285D01*
X151146723Y-129214285D02*
X151241961Y-129261904D01*
X151241961Y-129261904D02*
X151337200Y-129357142D01*
X151337200Y-129357142D02*
X151384819Y-129499999D01*
X151384819Y-129499999D02*
X151384819Y-129738094D01*
X151384819Y-128214285D02*
X151384819Y-128785713D01*
X151384819Y-128499999D02*
X150384819Y-128499999D01*
X150384819Y-128499999D02*
X150527676Y-128595237D01*
X150527676Y-128595237D02*
X150622914Y-128690475D01*
X150622914Y-128690475D02*
X150670533Y-128785713D01*
X172833333Y-56359580D02*
X172785714Y-56407200D01*
X172785714Y-56407200D02*
X172642857Y-56454819D01*
X172642857Y-56454819D02*
X172547619Y-56454819D01*
X172547619Y-56454819D02*
X172404762Y-56407200D01*
X172404762Y-56407200D02*
X172309524Y-56311961D01*
X172309524Y-56311961D02*
X172261905Y-56216723D01*
X172261905Y-56216723D02*
X172214286Y-56026247D01*
X172214286Y-56026247D02*
X172214286Y-55883390D01*
X172214286Y-55883390D02*
X172261905Y-55692914D01*
X172261905Y-55692914D02*
X172309524Y-55597676D01*
X172309524Y-55597676D02*
X172404762Y-55502438D01*
X172404762Y-55502438D02*
X172547619Y-55454819D01*
X172547619Y-55454819D02*
X172642857Y-55454819D01*
X172642857Y-55454819D02*
X172785714Y-55502438D01*
X172785714Y-55502438D02*
X172833333Y-55550057D01*
X173166667Y-55454819D02*
X173785714Y-55454819D01*
X173785714Y-55454819D02*
X173452381Y-55835771D01*
X173452381Y-55835771D02*
X173595238Y-55835771D01*
X173595238Y-55835771D02*
X173690476Y-55883390D01*
X173690476Y-55883390D02*
X173738095Y-55931009D01*
X173738095Y-55931009D02*
X173785714Y-56026247D01*
X173785714Y-56026247D02*
X173785714Y-56264342D01*
X173785714Y-56264342D02*
X173738095Y-56359580D01*
X173738095Y-56359580D02*
X173690476Y-56407200D01*
X173690476Y-56407200D02*
X173595238Y-56454819D01*
X173595238Y-56454819D02*
X173309524Y-56454819D01*
X173309524Y-56454819D02*
X173214286Y-56407200D01*
X173214286Y-56407200D02*
X173166667Y-56359580D01*
X148896666Y-139584819D02*
X148896666Y-140299104D01*
X148896666Y-140299104D02*
X148849047Y-140441961D01*
X148849047Y-140441961D02*
X148753809Y-140537200D01*
X148753809Y-140537200D02*
X148610952Y-140584819D01*
X148610952Y-140584819D02*
X148515714Y-140584819D01*
X149325238Y-139680057D02*
X149372857Y-139632438D01*
X149372857Y-139632438D02*
X149468095Y-139584819D01*
X149468095Y-139584819D02*
X149706190Y-139584819D01*
X149706190Y-139584819D02*
X149801428Y-139632438D01*
X149801428Y-139632438D02*
X149849047Y-139680057D01*
X149849047Y-139680057D02*
X149896666Y-139775295D01*
X149896666Y-139775295D02*
X149896666Y-139870533D01*
X149896666Y-139870533D02*
X149849047Y-140013390D01*
X149849047Y-140013390D02*
X149277619Y-140584819D01*
X149277619Y-140584819D02*
X149896666Y-140584819D01*
X143384819Y-129738094D02*
X142384819Y-129738094D01*
X142384819Y-129738094D02*
X142384819Y-129499999D01*
X142384819Y-129499999D02*
X142432438Y-129357142D01*
X142432438Y-129357142D02*
X142527676Y-129261904D01*
X142527676Y-129261904D02*
X142622914Y-129214285D01*
X142622914Y-129214285D02*
X142813390Y-129166666D01*
X142813390Y-129166666D02*
X142956247Y-129166666D01*
X142956247Y-129166666D02*
X143146723Y-129214285D01*
X143146723Y-129214285D02*
X143241961Y-129261904D01*
X143241961Y-129261904D02*
X143337200Y-129357142D01*
X143337200Y-129357142D02*
X143384819Y-129499999D01*
X143384819Y-129499999D02*
X143384819Y-129738094D01*
X142384819Y-128833332D02*
X142384819Y-128214285D01*
X142384819Y-128214285D02*
X142765771Y-128547618D01*
X142765771Y-128547618D02*
X142765771Y-128404761D01*
X142765771Y-128404761D02*
X142813390Y-128309523D01*
X142813390Y-128309523D02*
X142861009Y-128261904D01*
X142861009Y-128261904D02*
X142956247Y-128214285D01*
X142956247Y-128214285D02*
X143194342Y-128214285D01*
X143194342Y-128214285D02*
X143289580Y-128261904D01*
X143289580Y-128261904D02*
X143337200Y-128309523D01*
X143337200Y-128309523D02*
X143384819Y-128404761D01*
X143384819Y-128404761D02*
X143384819Y-128690475D01*
X143384819Y-128690475D02*
X143337200Y-128785713D01*
X143337200Y-128785713D02*
X143289580Y-128833332D01*
X179169104Y-135714285D02*
X179169104Y-135238095D01*
X179454819Y-135809523D02*
X178454819Y-135476190D01*
X178454819Y-135476190D02*
X179454819Y-135142857D01*
X178454819Y-134904761D02*
X178454819Y-134285714D01*
X178454819Y-134285714D02*
X178835771Y-134619047D01*
X178835771Y-134619047D02*
X178835771Y-134476190D01*
X178835771Y-134476190D02*
X178883390Y-134380952D01*
X178883390Y-134380952D02*
X178931009Y-134333333D01*
X178931009Y-134333333D02*
X179026247Y-134285714D01*
X179026247Y-134285714D02*
X179264342Y-134285714D01*
X179264342Y-134285714D02*
X179359580Y-134333333D01*
X179359580Y-134333333D02*
X179407200Y-134380952D01*
X179407200Y-134380952D02*
X179454819Y-134476190D01*
X179454819Y-134476190D02*
X179454819Y-134761904D01*
X179454819Y-134761904D02*
X179407200Y-134857142D01*
X179407200Y-134857142D02*
X179359580Y-134904761D01*
X147428095Y-118264819D02*
X147428095Y-119074342D01*
X147428095Y-119074342D02*
X147475714Y-119169580D01*
X147475714Y-119169580D02*
X147523333Y-119217200D01*
X147523333Y-119217200D02*
X147618571Y-119264819D01*
X147618571Y-119264819D02*
X147809047Y-119264819D01*
X147809047Y-119264819D02*
X147904285Y-119217200D01*
X147904285Y-119217200D02*
X147951904Y-119169580D01*
X147951904Y-119169580D02*
X147999523Y-119074342D01*
X147999523Y-119074342D02*
X147999523Y-118264819D01*
X148428095Y-118360057D02*
X148475714Y-118312438D01*
X148475714Y-118312438D02*
X148570952Y-118264819D01*
X148570952Y-118264819D02*
X148809047Y-118264819D01*
X148809047Y-118264819D02*
X148904285Y-118312438D01*
X148904285Y-118312438D02*
X148951904Y-118360057D01*
X148951904Y-118360057D02*
X148999523Y-118455295D01*
X148999523Y-118455295D02*
X148999523Y-118550533D01*
X148999523Y-118550533D02*
X148951904Y-118693390D01*
X148951904Y-118693390D02*
X148380476Y-119264819D01*
X148380476Y-119264819D02*
X148999523Y-119264819D01*
X144750000Y-112943519D02*
X144750000Y-113181614D01*
X144511905Y-113086376D02*
X144750000Y-113181614D01*
X144750000Y-113181614D02*
X144988095Y-113086376D01*
X144607143Y-113372090D02*
X144750000Y-113181614D01*
X144750000Y-113181614D02*
X144892857Y-113372090D01*
X144000000Y-112943519D02*
X144000000Y-113181614D01*
X143761905Y-113086376D02*
X144000000Y-113181614D01*
X144000000Y-113181614D02*
X144238095Y-113086376D01*
X143857143Y-113372090D02*
X144000000Y-113181614D01*
X144000000Y-113181614D02*
X144142857Y-113372090D01*
X179169104Y-88019285D02*
X179169104Y-87543095D01*
X179454819Y-88114523D02*
X178454819Y-87781190D01*
X178454819Y-87781190D02*
X179454819Y-87447857D01*
X179454819Y-86590714D02*
X179454819Y-87162142D01*
X179454819Y-86876428D02*
X178454819Y-86876428D01*
X178454819Y-86876428D02*
X178597676Y-86971666D01*
X178597676Y-86971666D02*
X178692914Y-87066904D01*
X178692914Y-87066904D02*
X178740533Y-87162142D01*
X189584819Y-70314523D02*
X190299104Y-70314523D01*
X190299104Y-70314523D02*
X190441961Y-70362142D01*
X190441961Y-70362142D02*
X190537200Y-70457380D01*
X190537200Y-70457380D02*
X190584819Y-70600237D01*
X190584819Y-70600237D02*
X190584819Y-70695475D01*
X190584819Y-69314523D02*
X190584819Y-69885951D01*
X190584819Y-69600237D02*
X189584819Y-69600237D01*
X189584819Y-69600237D02*
X189727676Y-69695475D01*
X189727676Y-69695475D02*
X189822914Y-69790713D01*
X189822914Y-69790713D02*
X189870533Y-69885951D01*
X190584819Y-68362142D02*
X190584819Y-68933570D01*
X190584819Y-68647856D02*
X189584819Y-68647856D01*
X189584819Y-68647856D02*
X189727676Y-68743094D01*
X189727676Y-68743094D02*
X189822914Y-68838332D01*
X189822914Y-68838332D02*
X189870533Y-68933570D01*
X135704819Y-126333333D02*
X136419104Y-126333333D01*
X136419104Y-126333333D02*
X136561961Y-126380952D01*
X136561961Y-126380952D02*
X136657200Y-126476190D01*
X136657200Y-126476190D02*
X136704819Y-126619047D01*
X136704819Y-126619047D02*
X136704819Y-126714285D01*
X135704819Y-125952380D02*
X135704819Y-125285714D01*
X135704819Y-125285714D02*
X136704819Y-125714285D01*
X194238095Y-51654819D02*
X194238095Y-50654819D01*
X194238095Y-51131009D02*
X194809523Y-51131009D01*
X194809523Y-51654819D02*
X194809523Y-50654819D01*
X195238095Y-50750057D02*
X195285714Y-50702438D01*
X195285714Y-50702438D02*
X195380952Y-50654819D01*
X195380952Y-50654819D02*
X195619047Y-50654819D01*
X195619047Y-50654819D02*
X195714285Y-50702438D01*
X195714285Y-50702438D02*
X195761904Y-50750057D01*
X195761904Y-50750057D02*
X195809523Y-50845295D01*
X195809523Y-50845295D02*
X195809523Y-50940533D01*
X195809523Y-50940533D02*
X195761904Y-51083390D01*
X195761904Y-51083390D02*
X195190476Y-51654819D01*
X195190476Y-51654819D02*
X195809523Y-51654819D01*
X189584819Y-135338333D02*
X190299104Y-135338333D01*
X190299104Y-135338333D02*
X190441961Y-135385952D01*
X190441961Y-135385952D02*
X190537200Y-135481190D01*
X190537200Y-135481190D02*
X190584819Y-135624047D01*
X190584819Y-135624047D02*
X190584819Y-135719285D01*
X190013390Y-134719285D02*
X189965771Y-134814523D01*
X189965771Y-134814523D02*
X189918152Y-134862142D01*
X189918152Y-134862142D02*
X189822914Y-134909761D01*
X189822914Y-134909761D02*
X189775295Y-134909761D01*
X189775295Y-134909761D02*
X189680057Y-134862142D01*
X189680057Y-134862142D02*
X189632438Y-134814523D01*
X189632438Y-134814523D02*
X189584819Y-134719285D01*
X189584819Y-134719285D02*
X189584819Y-134528809D01*
X189584819Y-134528809D02*
X189632438Y-134433571D01*
X189632438Y-134433571D02*
X189680057Y-134385952D01*
X189680057Y-134385952D02*
X189775295Y-134338333D01*
X189775295Y-134338333D02*
X189822914Y-134338333D01*
X189822914Y-134338333D02*
X189918152Y-134385952D01*
X189918152Y-134385952D02*
X189965771Y-134433571D01*
X189965771Y-134433571D02*
X190013390Y-134528809D01*
X190013390Y-134528809D02*
X190013390Y-134719285D01*
X190013390Y-134719285D02*
X190061009Y-134814523D01*
X190061009Y-134814523D02*
X190108628Y-134862142D01*
X190108628Y-134862142D02*
X190203866Y-134909761D01*
X190203866Y-134909761D02*
X190394342Y-134909761D01*
X190394342Y-134909761D02*
X190489580Y-134862142D01*
X190489580Y-134862142D02*
X190537200Y-134814523D01*
X190537200Y-134814523D02*
X190584819Y-134719285D01*
X190584819Y-134719285D02*
X190584819Y-134528809D01*
X190584819Y-134528809D02*
X190537200Y-134433571D01*
X190537200Y-134433571D02*
X190489580Y-134385952D01*
X190489580Y-134385952D02*
X190394342Y-134338333D01*
X190394342Y-134338333D02*
X190203866Y-134338333D01*
X190203866Y-134338333D02*
X190108628Y-134385952D01*
X190108628Y-134385952D02*
X190061009Y-134433571D01*
X190061009Y-134433571D02*
X190013390Y-134528809D01*
X135704819Y-63123333D02*
X136419104Y-63123333D01*
X136419104Y-63123333D02*
X136561961Y-63170952D01*
X136561961Y-63170952D02*
X136657200Y-63266190D01*
X136657200Y-63266190D02*
X136704819Y-63409047D01*
X136704819Y-63409047D02*
X136704819Y-63504285D01*
X135704819Y-62218571D02*
X135704819Y-62409047D01*
X135704819Y-62409047D02*
X135752438Y-62504285D01*
X135752438Y-62504285D02*
X135800057Y-62551904D01*
X135800057Y-62551904D02*
X135942914Y-62647142D01*
X135942914Y-62647142D02*
X136133390Y-62694761D01*
X136133390Y-62694761D02*
X136514342Y-62694761D01*
X136514342Y-62694761D02*
X136609580Y-62647142D01*
X136609580Y-62647142D02*
X136657200Y-62599523D01*
X136657200Y-62599523D02*
X136704819Y-62504285D01*
X136704819Y-62504285D02*
X136704819Y-62313809D01*
X136704819Y-62313809D02*
X136657200Y-62218571D01*
X136657200Y-62218571D02*
X136609580Y-62170952D01*
X136609580Y-62170952D02*
X136514342Y-62123333D01*
X136514342Y-62123333D02*
X136276247Y-62123333D01*
X136276247Y-62123333D02*
X136181009Y-62170952D01*
X136181009Y-62170952D02*
X136133390Y-62218571D01*
X136133390Y-62218571D02*
X136085771Y-62313809D01*
X136085771Y-62313809D02*
X136085771Y-62504285D01*
X136085771Y-62504285D02*
X136133390Y-62599523D01*
X136133390Y-62599523D02*
X136181009Y-62647142D01*
X136181009Y-62647142D02*
X136276247Y-62694761D01*
X143384819Y-135166666D02*
X142908628Y-135499999D01*
X143384819Y-135738094D02*
X142384819Y-135738094D01*
X142384819Y-135738094D02*
X142384819Y-135357142D01*
X142384819Y-135357142D02*
X142432438Y-135261904D01*
X142432438Y-135261904D02*
X142480057Y-135214285D01*
X142480057Y-135214285D02*
X142575295Y-135166666D01*
X142575295Y-135166666D02*
X142718152Y-135166666D01*
X142718152Y-135166666D02*
X142813390Y-135214285D01*
X142813390Y-135214285D02*
X142861009Y-135261904D01*
X142861009Y-135261904D02*
X142908628Y-135357142D01*
X142908628Y-135357142D02*
X142908628Y-135738094D01*
X142384819Y-134833332D02*
X142384819Y-134214285D01*
X142384819Y-134214285D02*
X142765771Y-134547618D01*
X142765771Y-134547618D02*
X142765771Y-134404761D01*
X142765771Y-134404761D02*
X142813390Y-134309523D01*
X142813390Y-134309523D02*
X142861009Y-134261904D01*
X142861009Y-134261904D02*
X142956247Y-134214285D01*
X142956247Y-134214285D02*
X143194342Y-134214285D01*
X143194342Y-134214285D02*
X143289580Y-134261904D01*
X143289580Y-134261904D02*
X143337200Y-134309523D01*
X143337200Y-134309523D02*
X143384819Y-134404761D01*
X143384819Y-134404761D02*
X143384819Y-134690475D01*
X143384819Y-134690475D02*
X143337200Y-134785713D01*
X143337200Y-134785713D02*
X143289580Y-134833332D01*
X147384819Y-129738094D02*
X146384819Y-129738094D01*
X146384819Y-129738094D02*
X146384819Y-129499999D01*
X146384819Y-129499999D02*
X146432438Y-129357142D01*
X146432438Y-129357142D02*
X146527676Y-129261904D01*
X146527676Y-129261904D02*
X146622914Y-129214285D01*
X146622914Y-129214285D02*
X146813390Y-129166666D01*
X146813390Y-129166666D02*
X146956247Y-129166666D01*
X146956247Y-129166666D02*
X147146723Y-129214285D01*
X147146723Y-129214285D02*
X147241961Y-129261904D01*
X147241961Y-129261904D02*
X147337200Y-129357142D01*
X147337200Y-129357142D02*
X147384819Y-129499999D01*
X147384819Y-129499999D02*
X147384819Y-129738094D01*
X146480057Y-128785713D02*
X146432438Y-128738094D01*
X146432438Y-128738094D02*
X146384819Y-128642856D01*
X146384819Y-128642856D02*
X146384819Y-128404761D01*
X146384819Y-128404761D02*
X146432438Y-128309523D01*
X146432438Y-128309523D02*
X146480057Y-128261904D01*
X146480057Y-128261904D02*
X146575295Y-128214285D01*
X146575295Y-128214285D02*
X146670533Y-128214285D01*
X146670533Y-128214285D02*
X146813390Y-128261904D01*
X146813390Y-128261904D02*
X147384819Y-128833332D01*
X147384819Y-128833332D02*
X147384819Y-128214285D01*
X162359580Y-137166666D02*
X162407200Y-137214285D01*
X162407200Y-137214285D02*
X162454819Y-137357142D01*
X162454819Y-137357142D02*
X162454819Y-137452380D01*
X162454819Y-137452380D02*
X162407200Y-137595237D01*
X162407200Y-137595237D02*
X162311961Y-137690475D01*
X162311961Y-137690475D02*
X162216723Y-137738094D01*
X162216723Y-137738094D02*
X162026247Y-137785713D01*
X162026247Y-137785713D02*
X161883390Y-137785713D01*
X161883390Y-137785713D02*
X161692914Y-137738094D01*
X161692914Y-137738094D02*
X161597676Y-137690475D01*
X161597676Y-137690475D02*
X161502438Y-137595237D01*
X161502438Y-137595237D02*
X161454819Y-137452380D01*
X161454819Y-137452380D02*
X161454819Y-137357142D01*
X161454819Y-137357142D02*
X161502438Y-137214285D01*
X161502438Y-137214285D02*
X161550057Y-137166666D01*
X161454819Y-136261904D02*
X161454819Y-136738094D01*
X161454819Y-136738094D02*
X161931009Y-136785713D01*
X161931009Y-136785713D02*
X161883390Y-136738094D01*
X161883390Y-136738094D02*
X161835771Y-136642856D01*
X161835771Y-136642856D02*
X161835771Y-136404761D01*
X161835771Y-136404761D02*
X161883390Y-136309523D01*
X161883390Y-136309523D02*
X161931009Y-136261904D01*
X161931009Y-136261904D02*
X162026247Y-136214285D01*
X162026247Y-136214285D02*
X162264342Y-136214285D01*
X162264342Y-136214285D02*
X162359580Y-136261904D01*
X162359580Y-136261904D02*
X162407200Y-136309523D01*
X162407200Y-136309523D02*
X162454819Y-136404761D01*
X162454819Y-136404761D02*
X162454819Y-136642856D01*
X162454819Y-136642856D02*
X162407200Y-136738094D01*
X162407200Y-136738094D02*
X162359580Y-136785713D01*
X147384819Y-135166666D02*
X146908628Y-135499999D01*
X147384819Y-135738094D02*
X146384819Y-135738094D01*
X146384819Y-135738094D02*
X146384819Y-135357142D01*
X146384819Y-135357142D02*
X146432438Y-135261904D01*
X146432438Y-135261904D02*
X146480057Y-135214285D01*
X146480057Y-135214285D02*
X146575295Y-135166666D01*
X146575295Y-135166666D02*
X146718152Y-135166666D01*
X146718152Y-135166666D02*
X146813390Y-135214285D01*
X146813390Y-135214285D02*
X146861009Y-135261904D01*
X146861009Y-135261904D02*
X146908628Y-135357142D01*
X146908628Y-135357142D02*
X146908628Y-135738094D01*
X146480057Y-134785713D02*
X146432438Y-134738094D01*
X146432438Y-134738094D02*
X146384819Y-134642856D01*
X146384819Y-134642856D02*
X146384819Y-134404761D01*
X146384819Y-134404761D02*
X146432438Y-134309523D01*
X146432438Y-134309523D02*
X146480057Y-134261904D01*
X146480057Y-134261904D02*
X146575295Y-134214285D01*
X146575295Y-134214285D02*
X146670533Y-134214285D01*
X146670533Y-134214285D02*
X146813390Y-134261904D01*
X146813390Y-134261904D02*
X147384819Y-134833332D01*
X147384819Y-134833332D02*
X147384819Y-134214285D01*
X190954819Y-106166668D02*
X191669104Y-106166668D01*
X191669104Y-106166668D02*
X191811961Y-106214287D01*
X191811961Y-106214287D02*
X191907200Y-106309525D01*
X191907200Y-106309525D02*
X191954819Y-106452382D01*
X191954819Y-106452382D02*
X191954819Y-106547620D01*
X190954819Y-105785715D02*
X190954819Y-105166668D01*
X190954819Y-105166668D02*
X191335771Y-105500001D01*
X191335771Y-105500001D02*
X191335771Y-105357144D01*
X191335771Y-105357144D02*
X191383390Y-105261906D01*
X191383390Y-105261906D02*
X191431009Y-105214287D01*
X191431009Y-105214287D02*
X191526247Y-105166668D01*
X191526247Y-105166668D02*
X191764342Y-105166668D01*
X191764342Y-105166668D02*
X191859580Y-105214287D01*
X191859580Y-105214287D02*
X191907200Y-105261906D01*
X191907200Y-105261906D02*
X191954819Y-105357144D01*
X191954819Y-105357144D02*
X191954819Y-105642858D01*
X191954819Y-105642858D02*
X191907200Y-105738096D01*
X191907200Y-105738096D02*
X191859580Y-105785715D01*
X189954819Y-98063333D02*
X190669104Y-98063333D01*
X190669104Y-98063333D02*
X190811961Y-98110952D01*
X190811961Y-98110952D02*
X190907200Y-98206190D01*
X190907200Y-98206190D02*
X190954819Y-98349047D01*
X190954819Y-98349047D02*
X190954819Y-98444285D01*
X189954819Y-97110952D02*
X189954819Y-97587142D01*
X189954819Y-97587142D02*
X190431009Y-97634761D01*
X190431009Y-97634761D02*
X190383390Y-97587142D01*
X190383390Y-97587142D02*
X190335771Y-97491904D01*
X190335771Y-97491904D02*
X190335771Y-97253809D01*
X190335771Y-97253809D02*
X190383390Y-97158571D01*
X190383390Y-97158571D02*
X190431009Y-97110952D01*
X190431009Y-97110952D02*
X190526247Y-97063333D01*
X190526247Y-97063333D02*
X190764342Y-97063333D01*
X190764342Y-97063333D02*
X190859580Y-97110952D01*
X190859580Y-97110952D02*
X190907200Y-97158571D01*
X190907200Y-97158571D02*
X190954819Y-97253809D01*
X190954819Y-97253809D02*
X190954819Y-97491904D01*
X190954819Y-97491904D02*
X190907200Y-97587142D01*
X190907200Y-97587142D02*
X190859580Y-97634761D01*
X185333333Y-101859580D02*
X185285714Y-101907200D01*
X185285714Y-101907200D02*
X185142857Y-101954819D01*
X185142857Y-101954819D02*
X185047619Y-101954819D01*
X185047619Y-101954819D02*
X184904762Y-101907200D01*
X184904762Y-101907200D02*
X184809524Y-101811961D01*
X184809524Y-101811961D02*
X184761905Y-101716723D01*
X184761905Y-101716723D02*
X184714286Y-101526247D01*
X184714286Y-101526247D02*
X184714286Y-101383390D01*
X184714286Y-101383390D02*
X184761905Y-101192914D01*
X184761905Y-101192914D02*
X184809524Y-101097676D01*
X184809524Y-101097676D02*
X184904762Y-101002438D01*
X184904762Y-101002438D02*
X185047619Y-100954819D01*
X185047619Y-100954819D02*
X185142857Y-100954819D01*
X185142857Y-100954819D02*
X185285714Y-101002438D01*
X185285714Y-101002438D02*
X185333333Y-101050057D01*
X185714286Y-101050057D02*
X185761905Y-101002438D01*
X185761905Y-101002438D02*
X185857143Y-100954819D01*
X185857143Y-100954819D02*
X186095238Y-100954819D01*
X186095238Y-100954819D02*
X186190476Y-101002438D01*
X186190476Y-101002438D02*
X186238095Y-101050057D01*
X186238095Y-101050057D02*
X186285714Y-101145295D01*
X186285714Y-101145295D02*
X186285714Y-101240533D01*
X186285714Y-101240533D02*
X186238095Y-101383390D01*
X186238095Y-101383390D02*
X185666667Y-101954819D01*
X185666667Y-101954819D02*
X186285714Y-101954819D01*
X134238095Y-141654819D02*
X134238095Y-140654819D01*
X134238095Y-141131009D02*
X134809523Y-141131009D01*
X134809523Y-141654819D02*
X134809523Y-140654819D01*
X135190476Y-140654819D02*
X135809523Y-140654819D01*
X135809523Y-140654819D02*
X135476190Y-141035771D01*
X135476190Y-141035771D02*
X135619047Y-141035771D01*
X135619047Y-141035771D02*
X135714285Y-141083390D01*
X135714285Y-141083390D02*
X135761904Y-141131009D01*
X135761904Y-141131009D02*
X135809523Y-141226247D01*
X135809523Y-141226247D02*
X135809523Y-141464342D01*
X135809523Y-141464342D02*
X135761904Y-141559580D01*
X135761904Y-141559580D02*
X135714285Y-141607200D01*
X135714285Y-141607200D02*
X135619047Y-141654819D01*
X135619047Y-141654819D02*
X135333333Y-141654819D01*
X135333333Y-141654819D02*
X135238095Y-141607200D01*
X135238095Y-141607200D02*
X135190476Y-141559580D01*
X134238095Y-51654819D02*
X134238095Y-50654819D01*
X134238095Y-51131009D02*
X134809523Y-51131009D01*
X134809523Y-51654819D02*
X134809523Y-50654819D01*
X135809523Y-51654819D02*
X135238095Y-51654819D01*
X135523809Y-51654819D02*
X135523809Y-50654819D01*
X135523809Y-50654819D02*
X135428571Y-50797676D01*
X135428571Y-50797676D02*
X135333333Y-50892914D01*
X135333333Y-50892914D02*
X135238095Y-50940533D01*
X179169104Y-70214285D02*
X179169104Y-69738095D01*
X179454819Y-70309523D02*
X178454819Y-69976190D01*
X178454819Y-69976190D02*
X179454819Y-69642857D01*
X178550057Y-69357142D02*
X178502438Y-69309523D01*
X178502438Y-69309523D02*
X178454819Y-69214285D01*
X178454819Y-69214285D02*
X178454819Y-68976190D01*
X178454819Y-68976190D02*
X178502438Y-68880952D01*
X178502438Y-68880952D02*
X178550057Y-68833333D01*
X178550057Y-68833333D02*
X178645295Y-68785714D01*
X178645295Y-68785714D02*
X178740533Y-68785714D01*
X178740533Y-68785714D02*
X178883390Y-68833333D01*
X178883390Y-68833333D02*
X179454819Y-69404761D01*
X179454819Y-69404761D02*
X179454819Y-68785714D01*
X189584819Y-117338333D02*
X190299104Y-117338333D01*
X190299104Y-117338333D02*
X190441961Y-117385952D01*
X190441961Y-117385952D02*
X190537200Y-117481190D01*
X190537200Y-117481190D02*
X190584819Y-117624047D01*
X190584819Y-117624047D02*
X190584819Y-117719285D01*
X190584819Y-116814523D02*
X190584819Y-116624047D01*
X190584819Y-116624047D02*
X190537200Y-116528809D01*
X190537200Y-116528809D02*
X190489580Y-116481190D01*
X190489580Y-116481190D02*
X190346723Y-116385952D01*
X190346723Y-116385952D02*
X190156247Y-116338333D01*
X190156247Y-116338333D02*
X189775295Y-116338333D01*
X189775295Y-116338333D02*
X189680057Y-116385952D01*
X189680057Y-116385952D02*
X189632438Y-116433571D01*
X189632438Y-116433571D02*
X189584819Y-116528809D01*
X189584819Y-116528809D02*
X189584819Y-116719285D01*
X189584819Y-116719285D02*
X189632438Y-116814523D01*
X189632438Y-116814523D02*
X189680057Y-116862142D01*
X189680057Y-116862142D02*
X189775295Y-116909761D01*
X189775295Y-116909761D02*
X190013390Y-116909761D01*
X190013390Y-116909761D02*
X190108628Y-116862142D01*
X190108628Y-116862142D02*
X190156247Y-116814523D01*
X190156247Y-116814523D02*
X190203866Y-116719285D01*
X190203866Y-116719285D02*
X190203866Y-116528809D01*
X190203866Y-116528809D02*
X190156247Y-116433571D01*
X190156247Y-116433571D02*
X190108628Y-116385952D01*
X190108628Y-116385952D02*
X190013390Y-116338333D01*
X151384819Y-135166666D02*
X150908628Y-135499999D01*
X151384819Y-135738094D02*
X150384819Y-135738094D01*
X150384819Y-135738094D02*
X150384819Y-135357142D01*
X150384819Y-135357142D02*
X150432438Y-135261904D01*
X150432438Y-135261904D02*
X150480057Y-135214285D01*
X150480057Y-135214285D02*
X150575295Y-135166666D01*
X150575295Y-135166666D02*
X150718152Y-135166666D01*
X150718152Y-135166666D02*
X150813390Y-135214285D01*
X150813390Y-135214285D02*
X150861009Y-135261904D01*
X150861009Y-135261904D02*
X150908628Y-135357142D01*
X150908628Y-135357142D02*
X150908628Y-135738094D01*
X151384819Y-134214285D02*
X151384819Y-134785713D01*
X151384819Y-134499999D02*
X150384819Y-134499999D01*
X150384819Y-134499999D02*
X150527676Y-134595237D01*
X150527676Y-134595237D02*
X150622914Y-134690475D01*
X150622914Y-134690475D02*
X150670533Y-134785713D01*
D11*
%TO.C,U1*%
X137757500Y-58740000D02*
X137757500Y-105000000D01*
X142727500Y-106000000D02*
X138757500Y-106000000D01*
X142727500Y-112740000D02*
X142727500Y-106000000D01*
X147677500Y-56740000D02*
X147677500Y-57740000D01*
X147677500Y-57740000D02*
X138757500Y-57740000D01*
X155777500Y-56740000D02*
X147677500Y-56740000D01*
X155777500Y-57740000D02*
X155777500Y-56740000D01*
X160727500Y-106000000D02*
X160727500Y-112740000D01*
X160727500Y-112740000D02*
X142727500Y-112740000D01*
X164697500Y-57740000D02*
X155777500Y-57740000D01*
X164697500Y-106000000D02*
X160727500Y-106000000D01*
X165697500Y-58740000D02*
X165697500Y-105000000D01*
X137757500Y-58740000D02*
G75*
G02*
X138757500Y-57740000I1000000J0D01*
G01*
X138757500Y-106000000D02*
G75*
G02*
X137757500Y-105000000I0J1000000D01*
G01*
X164697500Y-57740000D02*
G75*
G02*
X165697500Y-58740000I1J-999999D01*
G01*
X165697500Y-105000000D02*
G75*
G02*
X164697500Y-106000000I-999999J-1D01*
G01*
D12*
X166327500Y-104705000D02*
G75*
G02*
X166127500Y-104705000I-100000J0D01*
G01*
X166127500Y-104705000D02*
G75*
G02*
X166327500Y-104705000I100000J0D01*
G01*
D13*
%TO.C,R5*%
X139590000Y-114727064D02*
X139590000Y-113272936D01*
X141410000Y-114727064D02*
X141410000Y-113272936D01*
%TO.C,J4*%
X123310000Y-68345000D02*
X123310000Y-83705000D01*
X123310000Y-68345000D02*
X131940000Y-68345000D01*
X123310000Y-68465000D02*
X131940000Y-68465000D01*
X123310000Y-68583095D02*
X131940000Y-68583095D01*
X123310000Y-68701190D02*
X131940000Y-68701190D01*
X123310000Y-68819285D02*
X131940000Y-68819285D01*
X123310000Y-68937380D02*
X131940000Y-68937380D01*
X123310000Y-69055475D02*
X131940000Y-69055475D01*
X123310000Y-69173570D02*
X131940000Y-69173570D01*
X123310000Y-69291665D02*
X131940000Y-69291665D01*
X123310000Y-69409760D02*
X131940000Y-69409760D01*
X123310000Y-69527855D02*
X131940000Y-69527855D01*
X123310000Y-69645950D02*
X131940000Y-69645950D01*
X123310000Y-69764045D02*
X131940000Y-69764045D01*
X123310000Y-69882140D02*
X131940000Y-69882140D01*
X123310000Y-70000235D02*
X131940000Y-70000235D01*
X123310000Y-70118330D02*
X131940000Y-70118330D01*
X123310000Y-70236425D02*
X131940000Y-70236425D01*
X123310000Y-70354520D02*
X131940000Y-70354520D01*
X123310000Y-70472615D02*
X131940000Y-70472615D01*
X123310000Y-70590710D02*
X131940000Y-70590710D01*
X123310000Y-70708805D02*
X131940000Y-70708805D01*
X123310000Y-70826900D02*
X131940000Y-70826900D01*
X123310000Y-70945000D02*
X131940000Y-70945000D01*
X123310000Y-73485000D02*
X131940000Y-73485000D01*
X123310000Y-76025000D02*
X131940000Y-76025000D01*
X123310000Y-78565000D02*
X131940000Y-78565000D01*
X123310000Y-81105000D02*
X131940000Y-81105000D01*
X123310000Y-83705000D02*
X131940000Y-83705000D01*
X131940000Y-68345000D02*
X131940000Y-83705000D01*
X131940000Y-69315000D02*
X132290000Y-69315000D01*
X131940000Y-70035000D02*
X132290000Y-70035000D01*
X131940000Y-71855000D02*
X132350000Y-71855000D01*
X131940000Y-72575000D02*
X132350000Y-72575000D01*
X131940000Y-74395000D02*
X132350000Y-74395000D01*
X131940000Y-75115000D02*
X132350000Y-75115000D01*
X131940000Y-76935000D02*
X132350000Y-76935000D01*
X131940000Y-77655000D02*
X132350000Y-77655000D01*
X131940000Y-79475000D02*
X132350000Y-79475000D01*
X131940000Y-80195000D02*
X132350000Y-80195000D01*
X131940000Y-82015000D02*
X132350000Y-82015000D01*
X131940000Y-82735000D02*
X132350000Y-82735000D01*
X133400000Y-68345000D02*
X134510000Y-68345000D01*
X134510000Y-68345000D02*
X134510000Y-69675000D01*
%TO.C,A4*%
X168710000Y-109260000D02*
X168710000Y-124760000D01*
X168710000Y-124760000D02*
X189290000Y-124760000D01*
X186620000Y-109260000D02*
X168710000Y-109260000D01*
X186620000Y-111930000D02*
X168710000Y-111930000D01*
X186620000Y-111930000D02*
X186620000Y-109260000D01*
X189290000Y-109260000D02*
X187890000Y-109260000D01*
X189290000Y-110660000D02*
X189290000Y-109260000D01*
X189290000Y-111930000D02*
X186620000Y-111930000D01*
X189290000Y-122090000D02*
X168710000Y-122090000D01*
X189290000Y-124760000D02*
X189290000Y-111930000D01*
D12*
%TO.C,C4*%
X156350000Y-118500000D02*
G75*
G02*
X156150000Y-118500000I-100000J0D01*
G01*
X156150000Y-118500000D02*
G75*
G02*
X156350000Y-118500000I100000J0D01*
G01*
D11*
X167000000Y-118500000D02*
G75*
G02*
X157000000Y-118500000I-5000000J0D01*
G01*
X157000000Y-118500000D02*
G75*
G02*
X167000000Y-118500000I5000000J0D01*
G01*
D14*
%TO.C,Logo1*%
X162055814Y-143468931D02*
X162139635Y-143913555D01*
X162448920Y-144041053D01*
X162758206Y-144168551D01*
X163129246Y-143916246D01*
X163233157Y-143845996D01*
X163327087Y-143783272D01*
X163406652Y-143730938D01*
X163467470Y-143691857D01*
X163505157Y-143668893D01*
X163515421Y-143663942D01*
X163533910Y-143676676D01*
X163573420Y-143711882D01*
X163629522Y-143765062D01*
X163697787Y-143831718D01*
X163773786Y-143907354D01*
X163853092Y-143987472D01*
X163931275Y-144067574D01*
X164003907Y-144143164D01*
X164066559Y-144209745D01*
X164114803Y-144262818D01*
X164144210Y-144297887D01*
X164151241Y-144309623D01*
X164141123Y-144331260D01*
X164112759Y-144378662D01*
X164069129Y-144447193D01*
X164013218Y-144532215D01*
X163948006Y-144629093D01*
X163910219Y-144684350D01*
X163841343Y-144785248D01*
X163780140Y-144876299D01*
X163729578Y-144952970D01*
X163692628Y-145010728D01*
X163672258Y-145045043D01*
X163669197Y-145052254D01*
X163676136Y-145072748D01*
X163695051Y-145120513D01*
X163723087Y-145188832D01*
X163757391Y-145270989D01*
X163795109Y-145360270D01*
X163833387Y-145449958D01*
X163869370Y-145533338D01*
X163900206Y-145603694D01*
X163923039Y-145654310D01*
X163935017Y-145678471D01*
X163935724Y-145679422D01*
X163954531Y-145684036D01*
X164004618Y-145694328D01*
X164080793Y-145709287D01*
X164177865Y-145727901D01*
X164290643Y-145749159D01*
X164356442Y-145761418D01*
X164476950Y-145784362D01*
X164585797Y-145806195D01*
X164677476Y-145825722D01*
X164746481Y-145841748D01*
X164787304Y-145853079D01*
X164795511Y-145856674D01*
X164803548Y-145881006D01*
X164810033Y-145935959D01*
X164814970Y-146015108D01*
X164818364Y-146112026D01*
X164820218Y-146220287D01*
X164820538Y-146333465D01*
X164819327Y-146445135D01*
X164816590Y-146548868D01*
X164812331Y-146638241D01*
X164806555Y-146706826D01*
X164799267Y-146748197D01*
X164794895Y-146756810D01*
X164768764Y-146767133D01*
X164713393Y-146781892D01*
X164636107Y-146799352D01*
X164544230Y-146817780D01*
X164512158Y-146823741D01*
X164357524Y-146852066D01*
X164235375Y-146874876D01*
X164141673Y-146893080D01*
X164072384Y-146907583D01*
X164023471Y-146919292D01*
X163990897Y-146929115D01*
X163970628Y-146937956D01*
X163958626Y-146946724D01*
X163956947Y-146948457D01*
X163940184Y-146976371D01*
X163914614Y-147030695D01*
X163882788Y-147104777D01*
X163847260Y-147191965D01*
X163810583Y-147285608D01*
X163775311Y-147379052D01*
X163743996Y-147465647D01*
X163719193Y-147538740D01*
X163703454Y-147591678D01*
X163699332Y-147617811D01*
X163699676Y-147618726D01*
X163713641Y-147640086D01*
X163745322Y-147687084D01*
X163791391Y-147754827D01*
X163848518Y-147838423D01*
X163913373Y-147932982D01*
X163931843Y-147959854D01*
X163997699Y-148057275D01*
X164055650Y-148146163D01*
X164102538Y-148221412D01*
X164135207Y-148277920D01*
X164150500Y-148310581D01*
X164151241Y-148314593D01*
X164138392Y-148335684D01*
X164102888Y-148377464D01*
X164049293Y-148435445D01*
X163982171Y-148505135D01*
X163906087Y-148582045D01*
X163825604Y-148661683D01*
X163745287Y-148739561D01*
X163669699Y-148811186D01*
X163603405Y-148872070D01*
X163550969Y-148917721D01*
X163516955Y-148943650D01*
X163507545Y-148947883D01*
X163485643Y-148937912D01*
X163440800Y-148911020D01*
X163380321Y-148871736D01*
X163333789Y-148840117D01*
X163249475Y-148782098D01*
X163149626Y-148713784D01*
X163049473Y-148645579D01*
X162995627Y-148609075D01*
X162813371Y-148485800D01*
X162660381Y-148568520D01*
X162590682Y-148604759D01*
X162531414Y-148632926D01*
X162491311Y-148648991D01*
X162481103Y-148651226D01*
X162468829Y-148634722D01*
X162444613Y-148588082D01*
X162410263Y-148515609D01*
X162367588Y-148421606D01*
X162318394Y-148310374D01*
X162264490Y-148186215D01*
X162207684Y-148053432D01*
X162149782Y-147916327D01*
X162092593Y-147779202D01*
X162037924Y-147646358D01*
X161987584Y-147522098D01*
X161943380Y-147410725D01*
X161907119Y-147316539D01*
X161880609Y-147243844D01*
X161865658Y-147196941D01*
X161863254Y-147180833D01*
X161882311Y-147160286D01*
X161924036Y-147126933D01*
X161979706Y-147087702D01*
X161984378Y-147084599D01*
X162128264Y-146969423D01*
X162244283Y-146835053D01*
X162331430Y-146685784D01*
X162388699Y-146525913D01*
X162415086Y-146359737D01*
X162409585Y-146191552D01*
X162371190Y-146025655D01*
X162298895Y-145866342D01*
X162277626Y-145831487D01*
X162166996Y-145690737D01*
X162036302Y-145577714D01*
X161890064Y-145493003D01*
X161732808Y-145437194D01*
X161569057Y-145410874D01*
X161403333Y-145414630D01*
X161240162Y-145449050D01*
X161084065Y-145514723D01*
X160939567Y-145612235D01*
X160894869Y-145651813D01*
X160781112Y-145775703D01*
X160698218Y-145906124D01*
X160641356Y-146052315D01*
X160609687Y-146197088D01*
X160601869Y-146359860D01*
X160627938Y-146523440D01*
X160685245Y-146682298D01*
X160771144Y-146830906D01*
X160882986Y-146963735D01*
X161018123Y-147075256D01*
X161035883Y-147087011D01*
X161092150Y-147125508D01*
X161134923Y-147158863D01*
X161155372Y-147180160D01*
X161155669Y-147180833D01*
X161151279Y-147203871D01*
X161133876Y-147256157D01*
X161105268Y-147333390D01*
X161067265Y-147431268D01*
X161021674Y-147545491D01*
X160970303Y-147671758D01*
X160914962Y-147805767D01*
X160857458Y-147943218D01*
X160799601Y-148079808D01*
X160743198Y-148211237D01*
X160690058Y-148333205D01*
X160641990Y-148441409D01*
X160600801Y-148531549D01*
X160568301Y-148599323D01*
X160546297Y-148640430D01*
X160537436Y-148651226D01*
X160510360Y-148642819D01*
X160459697Y-148620272D01*
X160394183Y-148587613D01*
X160358159Y-148568520D01*
X160205168Y-148485800D01*
X160022912Y-148609075D01*
X159929875Y-148672228D01*
X159828015Y-148741727D01*
X159732562Y-148807165D01*
X159684750Y-148840117D01*
X159617505Y-148885273D01*
X159560564Y-148921057D01*
X159521354Y-148942938D01*
X159508619Y-148947563D01*
X159490083Y-148935085D01*
X159449059Y-148900252D01*
X159389525Y-148846678D01*
X159315458Y-148777983D01*
X159230835Y-148697781D01*
X159177315Y-148646286D01*
X159083681Y-148554286D01*
X159002759Y-148471999D01*
X158937823Y-148402945D01*
X158892142Y-148350644D01*
X158868989Y-148318616D01*
X158866768Y-148312116D01*
X158877076Y-148287394D01*
X158905561Y-148237405D01*
X158949063Y-148167212D01*
X159004423Y-148081875D01*
X159068480Y-147986456D01*
X159086697Y-147959854D01*
X159153073Y-147863167D01*
X159212622Y-147776117D01*
X159262016Y-147703595D01*
X159297925Y-147650493D01*
X159317019Y-147621703D01*
X159318864Y-147618726D01*
X159316105Y-147595782D01*
X159301462Y-147545336D01*
X159277487Y-147474041D01*
X159246734Y-147388547D01*
X159211756Y-147295507D01*
X159175107Y-147201574D01*
X159139339Y-147113399D01*
X159107006Y-147037634D01*
X159080662Y-146980931D01*
X159062858Y-146949943D01*
X159061593Y-146948457D01*
X159050706Y-146939601D01*
X159032318Y-146930843D01*
X159002394Y-146921277D01*
X158956897Y-146909996D01*
X158891791Y-146896093D01*
X158803039Y-146878663D01*
X158686607Y-146856798D01*
X158538458Y-146829591D01*
X158506382Y-146823741D01*
X158411314Y-146805374D01*
X158328435Y-146787405D01*
X158265070Y-146771569D01*
X158228542Y-146759600D01*
X158223644Y-146756810D01*
X158215573Y-146732072D01*
X158209013Y-146676790D01*
X158203967Y-146597389D01*
X158200441Y-146500296D01*
X158198439Y-146391938D01*
X158197964Y-146278740D01*
X158199023Y-146167128D01*
X158201618Y-146063529D01*
X158205754Y-145974368D01*
X158211437Y-145906072D01*
X158218669Y-145865066D01*
X158223029Y-145856674D01*
X158247302Y-145848208D01*
X158302574Y-145834435D01*
X158383338Y-145816550D01*
X158484088Y-145795748D01*
X158599317Y-145773223D01*
X158662098Y-145761418D01*
X158781213Y-145739151D01*
X158887435Y-145718979D01*
X158975573Y-145701915D01*
X159040434Y-145688969D01*
X159076826Y-145681155D01*
X159082816Y-145679422D01*
X159092939Y-145659890D01*
X159114338Y-145612843D01*
X159144161Y-145545003D01*
X159179555Y-145463091D01*
X159217668Y-145373828D01*
X159255647Y-145283935D01*
X159290640Y-145200135D01*
X159319794Y-145129147D01*
X159340257Y-145077694D01*
X159349177Y-145052497D01*
X159349343Y-145051396D01*
X159339231Y-145031519D01*
X159310883Y-144985777D01*
X159267277Y-144918717D01*
X159211394Y-144834884D01*
X159146213Y-144738826D01*
X159108321Y-144683650D01*
X159039275Y-144582481D01*
X158977950Y-144490630D01*
X158927337Y-144412744D01*
X158890429Y-144353469D01*
X158870218Y-144317451D01*
X158867299Y-144309377D01*
X158879847Y-144290584D01*
X158914537Y-144250457D01*
X158966937Y-144193493D01*
X159032616Y-144124185D01*
X159107144Y-144047031D01*
X159186087Y-143966525D01*
X159265017Y-143887163D01*
X159339500Y-143813440D01*
X159405106Y-143749852D01*
X159457404Y-143700894D01*
X159491961Y-143671061D01*
X159503522Y-143663942D01*
X159522346Y-143673953D01*
X159567369Y-143702078D01*
X159634213Y-143745454D01*
X159718501Y-143801218D01*
X159815856Y-143866506D01*
X159889293Y-143916246D01*
X160260333Y-144168551D01*
X160878905Y-143913555D01*
X160962725Y-143468931D01*
X161046546Y-143024307D01*
X161971994Y-143024307D01*
X162055814Y-143468931D01*
G36*
X162055814Y-143468931D02*
G01*
X162139635Y-143913555D01*
X162448920Y-144041053D01*
X162758206Y-144168551D01*
X163129246Y-143916246D01*
X163233157Y-143845996D01*
X163327087Y-143783272D01*
X163406652Y-143730938D01*
X163467470Y-143691857D01*
X163505157Y-143668893D01*
X163515421Y-143663942D01*
X163533910Y-143676676D01*
X163573420Y-143711882D01*
X163629522Y-143765062D01*
X163697787Y-143831718D01*
X163773786Y-143907354D01*
X163853092Y-143987472D01*
X163931275Y-144067574D01*
X164003907Y-144143164D01*
X164066559Y-144209745D01*
X164114803Y-144262818D01*
X164144210Y-144297887D01*
X164151241Y-144309623D01*
X164141123Y-144331260D01*
X164112759Y-144378662D01*
X164069129Y-144447193D01*
X164013218Y-144532215D01*
X163948006Y-144629093D01*
X163910219Y-144684350D01*
X163841343Y-144785248D01*
X163780140Y-144876299D01*
X163729578Y-144952970D01*
X163692628Y-145010728D01*
X163672258Y-145045043D01*
X163669197Y-145052254D01*
X163676136Y-145072748D01*
X163695051Y-145120513D01*
X163723087Y-145188832D01*
X163757391Y-145270989D01*
X163795109Y-145360270D01*
X163833387Y-145449958D01*
X163869370Y-145533338D01*
X163900206Y-145603694D01*
X163923039Y-145654310D01*
X163935017Y-145678471D01*
X163935724Y-145679422D01*
X163954531Y-145684036D01*
X164004618Y-145694328D01*
X164080793Y-145709287D01*
X164177865Y-145727901D01*
X164290643Y-145749159D01*
X164356442Y-145761418D01*
X164476950Y-145784362D01*
X164585797Y-145806195D01*
X164677476Y-145825722D01*
X164746481Y-145841748D01*
X164787304Y-145853079D01*
X164795511Y-145856674D01*
X164803548Y-145881006D01*
X164810033Y-145935959D01*
X164814970Y-146015108D01*
X164818364Y-146112026D01*
X164820218Y-146220287D01*
X164820538Y-146333465D01*
X164819327Y-146445135D01*
X164816590Y-146548868D01*
X164812331Y-146638241D01*
X164806555Y-146706826D01*
X164799267Y-146748197D01*
X164794895Y-146756810D01*
X164768764Y-146767133D01*
X164713393Y-146781892D01*
X164636107Y-146799352D01*
X164544230Y-146817780D01*
X164512158Y-146823741D01*
X164357524Y-146852066D01*
X164235375Y-146874876D01*
X164141673Y-146893080D01*
X164072384Y-146907583D01*
X164023471Y-146919292D01*
X163990897Y-146929115D01*
X163970628Y-146937956D01*
X163958626Y-146946724D01*
X163956947Y-146948457D01*
X163940184Y-146976371D01*
X163914614Y-147030695D01*
X163882788Y-147104777D01*
X163847260Y-147191965D01*
X163810583Y-147285608D01*
X163775311Y-147379052D01*
X163743996Y-147465647D01*
X163719193Y-147538740D01*
X163703454Y-147591678D01*
X163699332Y-147617811D01*
X163699676Y-147618726D01*
X163713641Y-147640086D01*
X163745322Y-147687084D01*
X163791391Y-147754827D01*
X163848518Y-147838423D01*
X163913373Y-147932982D01*
X163931843Y-147959854D01*
X163997699Y-148057275D01*
X164055650Y-148146163D01*
X164102538Y-148221412D01*
X164135207Y-148277920D01*
X164150500Y-148310581D01*
X164151241Y-148314593D01*
X164138392Y-148335684D01*
X164102888Y-148377464D01*
X164049293Y-148435445D01*
X163982171Y-148505135D01*
X163906087Y-148582045D01*
X163825604Y-148661683D01*
X163745287Y-148739561D01*
X163669699Y-148811186D01*
X163603405Y-148872070D01*
X163550969Y-148917721D01*
X163516955Y-148943650D01*
X163507545Y-148947883D01*
X163485643Y-148937912D01*
X163440800Y-148911020D01*
X163380321Y-148871736D01*
X163333789Y-148840117D01*
X163249475Y-148782098D01*
X163149626Y-148713784D01*
X163049473Y-148645579D01*
X162995627Y-148609075D01*
X162813371Y-148485800D01*
X162660381Y-148568520D01*
X162590682Y-148604759D01*
X162531414Y-148632926D01*
X162491311Y-148648991D01*
X162481103Y-148651226D01*
X162468829Y-148634722D01*
X162444613Y-148588082D01*
X162410263Y-148515609D01*
X162367588Y-148421606D01*
X162318394Y-148310374D01*
X162264490Y-148186215D01*
X162207684Y-148053432D01*
X162149782Y-147916327D01*
X162092593Y-147779202D01*
X162037924Y-147646358D01*
X161987584Y-147522098D01*
X161943380Y-147410725D01*
X161907119Y-147316539D01*
X161880609Y-147243844D01*
X161865658Y-147196941D01*
X161863254Y-147180833D01*
X161882311Y-147160286D01*
X161924036Y-147126933D01*
X161979706Y-147087702D01*
X161984378Y-147084599D01*
X162128264Y-146969423D01*
X162244283Y-146835053D01*
X162331430Y-146685784D01*
X162388699Y-146525913D01*
X162415086Y-146359737D01*
X162409585Y-146191552D01*
X162371190Y-146025655D01*
X162298895Y-145866342D01*
X162277626Y-145831487D01*
X162166996Y-145690737D01*
X162036302Y-145577714D01*
X161890064Y-145493003D01*
X161732808Y-145437194D01*
X161569057Y-145410874D01*
X161403333Y-145414630D01*
X161240162Y-145449050D01*
X161084065Y-145514723D01*
X160939567Y-145612235D01*
X160894869Y-145651813D01*
X160781112Y-145775703D01*
X160698218Y-145906124D01*
X160641356Y-146052315D01*
X160609687Y-146197088D01*
X160601869Y-146359860D01*
X160627938Y-146523440D01*
X160685245Y-146682298D01*
X160771144Y-146830906D01*
X160882986Y-146963735D01*
X161018123Y-147075256D01*
X161035883Y-147087011D01*
X161092150Y-147125508D01*
X161134923Y-147158863D01*
X161155372Y-147180160D01*
X161155669Y-147180833D01*
X161151279Y-147203871D01*
X161133876Y-147256157D01*
X161105268Y-147333390D01*
X161067265Y-147431268D01*
X161021674Y-147545491D01*
X160970303Y-147671758D01*
X160914962Y-147805767D01*
X160857458Y-147943218D01*
X160799601Y-148079808D01*
X160743198Y-148211237D01*
X160690058Y-148333205D01*
X160641990Y-148441409D01*
X160600801Y-148531549D01*
X160568301Y-148599323D01*
X160546297Y-148640430D01*
X160537436Y-148651226D01*
X160510360Y-148642819D01*
X160459697Y-148620272D01*
X160394183Y-148587613D01*
X160358159Y-148568520D01*
X160205168Y-148485800D01*
X160022912Y-148609075D01*
X159929875Y-148672228D01*
X159828015Y-148741727D01*
X159732562Y-148807165D01*
X159684750Y-148840117D01*
X159617505Y-148885273D01*
X159560564Y-148921057D01*
X159521354Y-148942938D01*
X159508619Y-148947563D01*
X159490083Y-148935085D01*
X159449059Y-148900252D01*
X159389525Y-148846678D01*
X159315458Y-148777983D01*
X159230835Y-148697781D01*
X159177315Y-148646286D01*
X159083681Y-148554286D01*
X159002759Y-148471999D01*
X158937823Y-148402945D01*
X158892142Y-148350644D01*
X158868989Y-148318616D01*
X158866768Y-148312116D01*
X158877076Y-148287394D01*
X158905561Y-148237405D01*
X158949063Y-148167212D01*
X159004423Y-148081875D01*
X159068480Y-147986456D01*
X159086697Y-147959854D01*
X159153073Y-147863167D01*
X159212622Y-147776117D01*
X159262016Y-147703595D01*
X159297925Y-147650493D01*
X159317019Y-147621703D01*
X159318864Y-147618726D01*
X159316105Y-147595782D01*
X159301462Y-147545336D01*
X159277487Y-147474041D01*
X159246734Y-147388547D01*
X159211756Y-147295507D01*
X159175107Y-147201574D01*
X159139339Y-147113399D01*
X159107006Y-147037634D01*
X159080662Y-146980931D01*
X159062858Y-146949943D01*
X159061593Y-146948457D01*
X159050706Y-146939601D01*
X159032318Y-146930843D01*
X159002394Y-146921277D01*
X158956897Y-146909996D01*
X158891791Y-146896093D01*
X158803039Y-146878663D01*
X158686607Y-146856798D01*
X158538458Y-146829591D01*
X158506382Y-146823741D01*
X158411314Y-146805374D01*
X158328435Y-146787405D01*
X158265070Y-146771569D01*
X158228542Y-146759600D01*
X158223644Y-146756810D01*
X158215573Y-146732072D01*
X158209013Y-146676790D01*
X158203967Y-146597389D01*
X158200441Y-146500296D01*
X158198439Y-146391938D01*
X158197964Y-146278740D01*
X158199023Y-146167128D01*
X158201618Y-146063529D01*
X158205754Y-145974368D01*
X158211437Y-145906072D01*
X158218669Y-145865066D01*
X158223029Y-145856674D01*
X158247302Y-145848208D01*
X158302574Y-145834435D01*
X158383338Y-145816550D01*
X158484088Y-145795748D01*
X158599317Y-145773223D01*
X158662098Y-145761418D01*
X158781213Y-145739151D01*
X158887435Y-145718979D01*
X158975573Y-145701915D01*
X159040434Y-145688969D01*
X159076826Y-145681155D01*
X159082816Y-145679422D01*
X159092939Y-145659890D01*
X159114338Y-145612843D01*
X159144161Y-145545003D01*
X159179555Y-145463091D01*
X159217668Y-145373828D01*
X159255647Y-145283935D01*
X159290640Y-145200135D01*
X159319794Y-145129147D01*
X159340257Y-145077694D01*
X159349177Y-145052497D01*
X159349343Y-145051396D01*
X159339231Y-145031519D01*
X159310883Y-144985777D01*
X159267277Y-144918717D01*
X159211394Y-144834884D01*
X159146213Y-144738826D01*
X159108321Y-144683650D01*
X159039275Y-144582481D01*
X158977950Y-144490630D01*
X158927337Y-144412744D01*
X158890429Y-144353469D01*
X158870218Y-144317451D01*
X158867299Y-144309377D01*
X158879847Y-144290584D01*
X158914537Y-144250457D01*
X158966937Y-144193493D01*
X159032616Y-144124185D01*
X159107144Y-144047031D01*
X159186087Y-143966525D01*
X159265017Y-143887163D01*
X159339500Y-143813440D01*
X159405106Y-143749852D01*
X159457404Y-143700894D01*
X159491961Y-143671061D01*
X159503522Y-143663942D01*
X159522346Y-143673953D01*
X159567369Y-143702078D01*
X159634213Y-143745454D01*
X159718501Y-143801218D01*
X159815856Y-143866506D01*
X159889293Y-143916246D01*
X160260333Y-144168551D01*
X160878905Y-143913555D01*
X160962725Y-143468931D01*
X161046546Y-143024307D01*
X161971994Y-143024307D01*
X162055814Y-143468931D01*
G37*
D13*
%TO.C,R4*%
X139840000Y-135727064D02*
X139840000Y-134272936D01*
X141660000Y-135727064D02*
X141660000Y-134272936D01*
D11*
%TO.C,C1*%
X160500000Y-54000000D02*
X166500000Y-54000000D01*
X160500000Y-57000000D02*
X160500000Y-54000000D01*
X166500000Y-54000000D02*
X166500000Y-57000000D01*
X166500000Y-57000000D02*
X160500000Y-57000000D01*
D13*
%TO.C,J10*%
X191130000Y-81879000D02*
X197870000Y-81879000D01*
X191130000Y-92740000D02*
X191130000Y-81879000D01*
X191130000Y-92740000D02*
X197870000Y-92740000D01*
X192250000Y-92740000D02*
X192250000Y-81879000D01*
X197350000Y-92740000D02*
X197350000Y-81879000D01*
X197470000Y-92980000D02*
X198110000Y-92980000D01*
X197870000Y-92740000D02*
X197870000Y-81879000D01*
X198110000Y-92980000D02*
X198110000Y-92580000D01*
%TO.C,D4*%
X139615000Y-127400000D02*
X139615000Y-131460000D01*
X139615000Y-131460000D02*
X141885000Y-131460000D01*
X141885000Y-131460000D02*
X141885000Y-127400000D01*
%TO.C,D1*%
X151615000Y-127400000D02*
X151615000Y-131460000D01*
X151615000Y-131460000D02*
X153885000Y-131460000D01*
X153885000Y-131460000D02*
X153885000Y-127400000D01*
D12*
%TO.C,C3*%
X167350000Y-56000000D02*
G75*
G02*
X167150000Y-56000000I-100000J0D01*
G01*
X167150000Y-56000000D02*
G75*
G02*
X167350000Y-56000000I100000J0D01*
G01*
D11*
X178000000Y-56000000D02*
G75*
G02*
X168000000Y-56000000I-5000000J0D01*
G01*
X168000000Y-56000000D02*
G75*
G02*
X178000000Y-56000000I5000000J0D01*
G01*
D13*
%TO.C,J2*%
X143560000Y-147470000D02*
X143560000Y-148110000D01*
X143560000Y-148110000D02*
X143960000Y-148110000D01*
X143800000Y-141130000D02*
X143800000Y-147870000D01*
X143800000Y-141130000D02*
X154661000Y-141130000D01*
X143800000Y-142250000D02*
X154661000Y-142250000D01*
X143800000Y-147350000D02*
X154661000Y-147350000D01*
X143800000Y-147870000D02*
X154661000Y-147870000D01*
X154661000Y-141130000D02*
X154661000Y-147870000D01*
%TO.C,D3*%
X143615000Y-127400000D02*
X143615000Y-131460000D01*
X143615000Y-131460000D02*
X145885000Y-131460000D01*
X145885000Y-131460000D02*
X145885000Y-127400000D01*
%TO.C,A3*%
X168710000Y-127260000D02*
X168710000Y-142760000D01*
X168710000Y-142760000D02*
X189290000Y-142760000D01*
X186620000Y-127260000D02*
X168710000Y-127260000D01*
X186620000Y-129930000D02*
X168710000Y-129930000D01*
X186620000Y-129930000D02*
X186620000Y-127260000D01*
X189290000Y-127260000D02*
X187890000Y-127260000D01*
X189290000Y-128660000D02*
X189290000Y-127260000D01*
X189290000Y-129930000D02*
X186620000Y-129930000D01*
X189290000Y-140090000D02*
X168710000Y-140090000D01*
X189290000Y-142760000D02*
X189290000Y-129930000D01*
D15*
%TO.C,U2*%
X144507000Y-113603000D02*
X144507000Y-113917960D01*
X144507000Y-116082040D02*
X144507000Y-116465439D01*
X144507000Y-118614561D02*
X144507000Y-119005439D01*
X144507000Y-121154561D02*
X144507000Y-121545439D01*
X144507000Y-123694561D02*
X144507000Y-124017000D01*
X144507000Y-124017000D02*
X151873000Y-124017000D01*
X151873000Y-113603000D02*
X144507000Y-113603000D01*
X151873000Y-113925439D02*
X151873000Y-113603000D01*
X151873000Y-116465439D02*
X151873000Y-116074561D01*
X151873000Y-119005439D02*
X151873000Y-118614561D01*
X151873000Y-121545439D02*
X151873000Y-121154561D01*
X151873000Y-124017000D02*
X151873000Y-123694561D01*
D13*
%TO.C,A1*%
X168710000Y-79545000D02*
X168710000Y-92375000D01*
X168710000Y-82215000D02*
X189290000Y-82215000D01*
X168710000Y-92375000D02*
X171380000Y-92375000D01*
X168710000Y-93645000D02*
X168710000Y-95045000D01*
X168710000Y-95045000D02*
X170110000Y-95045000D01*
X171380000Y-92375000D02*
X171380000Y-95045000D01*
X171380000Y-92375000D02*
X189290000Y-92375000D01*
X171380000Y-95045000D02*
X189290000Y-95045000D01*
X189290000Y-79545000D02*
X168710000Y-79545000D01*
X189290000Y-95045000D02*
X189290000Y-79545000D01*
%TO.C,J11*%
X191130000Y-64074000D02*
X197870000Y-64074000D01*
X191130000Y-74935000D02*
X191130000Y-64074000D01*
X191130000Y-74935000D02*
X197870000Y-74935000D01*
X192250000Y-74935000D02*
X192250000Y-64074000D01*
X197350000Y-74935000D02*
X197350000Y-64074000D01*
X197470000Y-75175000D02*
X198110000Y-75175000D01*
X197870000Y-74935000D02*
X197870000Y-64074000D01*
X198110000Y-75175000D02*
X198110000Y-74775000D01*
%TO.C,J7*%
X123310000Y-113220000D02*
X123310000Y-138740000D01*
X123310000Y-113220000D02*
X131940000Y-113220000D01*
X123310000Y-113340000D02*
X131940000Y-113340000D01*
X123310000Y-113458095D02*
X131940000Y-113458095D01*
X123310000Y-113576190D02*
X131940000Y-113576190D01*
X123310000Y-113694285D02*
X131940000Y-113694285D01*
X123310000Y-113812380D02*
X131940000Y-113812380D01*
X123310000Y-113930475D02*
X131940000Y-113930475D01*
X123310000Y-114048570D02*
X131940000Y-114048570D01*
X123310000Y-114166665D02*
X131940000Y-114166665D01*
X123310000Y-114284760D02*
X131940000Y-114284760D01*
X123310000Y-114402855D02*
X131940000Y-114402855D01*
X123310000Y-114520950D02*
X131940000Y-114520950D01*
X123310000Y-114639045D02*
X131940000Y-114639045D01*
X123310000Y-114757140D02*
X131940000Y-114757140D01*
X123310000Y-114875235D02*
X131940000Y-114875235D01*
X123310000Y-114993330D02*
X131940000Y-114993330D01*
X123310000Y-115111425D02*
X131940000Y-115111425D01*
X123310000Y-115229520D02*
X131940000Y-115229520D01*
X123310000Y-115347615D02*
X131940000Y-115347615D01*
X123310000Y-115465710D02*
X131940000Y-115465710D01*
X123310000Y-115583805D02*
X131940000Y-115583805D01*
X123310000Y-115701900D02*
X131940000Y-115701900D01*
X123310000Y-115820000D02*
X131940000Y-115820000D01*
X123310000Y-118360000D02*
X131940000Y-118360000D01*
X123310000Y-120900000D02*
X131940000Y-120900000D01*
X123310000Y-123440000D02*
X131940000Y-123440000D01*
X123310000Y-125980000D02*
X131940000Y-125980000D01*
X123310000Y-128520000D02*
X131940000Y-128520000D01*
X123310000Y-131060000D02*
X131940000Y-131060000D01*
X123310000Y-133600000D02*
X131940000Y-133600000D01*
X123310000Y-136140000D02*
X131940000Y-136140000D01*
X123310000Y-138740000D02*
X131940000Y-138740000D01*
X131940000Y-113220000D02*
X131940000Y-138740000D01*
X131940000Y-114190000D02*
X132290000Y-114190000D01*
X131940000Y-114910000D02*
X132290000Y-114910000D01*
X131940000Y-116730000D02*
X132350000Y-116730000D01*
X131940000Y-117450000D02*
X132350000Y-117450000D01*
X131940000Y-119270000D02*
X132350000Y-119270000D01*
X131940000Y-119990000D02*
X132350000Y-119990000D01*
X131940000Y-121810000D02*
X132350000Y-121810000D01*
X131940000Y-122530000D02*
X132350000Y-122530000D01*
X131940000Y-124350000D02*
X132350000Y-124350000D01*
X131940000Y-125070000D02*
X132350000Y-125070000D01*
X131940000Y-126890000D02*
X132350000Y-126890000D01*
X131940000Y-127610000D02*
X132350000Y-127610000D01*
X131940000Y-129430000D02*
X132350000Y-129430000D01*
X131940000Y-130150000D02*
X132350000Y-130150000D01*
X131940000Y-131970000D02*
X132350000Y-131970000D01*
X131940000Y-132690000D02*
X132350000Y-132690000D01*
X131940000Y-134510000D02*
X132350000Y-134510000D01*
X131940000Y-135230000D02*
X132350000Y-135230000D01*
X131940000Y-137050000D02*
X132350000Y-137050000D01*
X131940000Y-137770000D02*
X132350000Y-137770000D01*
X133400000Y-113220000D02*
X134510000Y-113220000D01*
X134510000Y-113220000D02*
X134510000Y-114550000D01*
%TO.C,J8*%
X191130000Y-129574000D02*
X197870000Y-129574000D01*
X191130000Y-140435000D02*
X191130000Y-129574000D01*
X191130000Y-140435000D02*
X197870000Y-140435000D01*
X192250000Y-140435000D02*
X192250000Y-129574000D01*
X197350000Y-140435000D02*
X197350000Y-129574000D01*
X197470000Y-140675000D02*
X198110000Y-140675000D01*
X197870000Y-140435000D02*
X197870000Y-129574000D01*
X198110000Y-140675000D02*
X198110000Y-140275000D01*
%TO.C,J6*%
X132195000Y-63020000D02*
X132195000Y-65620000D01*
X132195000Y-63020000D02*
X134855000Y-63020000D01*
X132195000Y-65620000D02*
X134855000Y-65620000D01*
X133525000Y-60420000D02*
X134855000Y-60420000D01*
X134855000Y-60420000D02*
X134855000Y-61750000D01*
X134855000Y-63020000D02*
X134855000Y-65620000D01*
%TO.C,R3*%
X143840000Y-135727064D02*
X143840000Y-134272936D01*
X145660000Y-135727064D02*
X145660000Y-134272936D01*
%TO.C,D2*%
X147615000Y-127400000D02*
X147615000Y-131460000D01*
X147615000Y-131460000D02*
X149885000Y-131460000D01*
X149885000Y-131460000D02*
X149885000Y-127400000D01*
D12*
%TO.C,C5*%
X162100000Y-131250000D02*
G75*
G02*
X161900000Y-131250000I-100000J0D01*
G01*
X161900000Y-131250000D02*
G75*
G02*
X162100000Y-131250000I100000J0D01*
G01*
D11*
X167000000Y-137000000D02*
G75*
G02*
X157000000Y-137000000I-5000000J0D01*
G01*
X157000000Y-137000000D02*
G75*
G02*
X167000000Y-137000000I5000000J0D01*
G01*
D13*
%TO.C,R2*%
X147840000Y-135727064D02*
X147840000Y-134272936D01*
X149660000Y-135727064D02*
X149660000Y-134272936D01*
%TO.C,J3*%
X193170000Y-104950000D02*
X193170000Y-110090000D01*
X193170000Y-104950000D02*
X195830000Y-104950000D01*
X193170000Y-110090000D02*
X195830000Y-110090000D01*
X194500000Y-102350000D02*
X195830000Y-102350000D01*
X195830000Y-102350000D02*
X195830000Y-103680000D01*
X195830000Y-104950000D02*
X195830000Y-110090000D01*
%TO.C,J5*%
X191130000Y-94840000D02*
X197870000Y-94840000D01*
X191130000Y-100620000D02*
X191130000Y-94840000D01*
X191130000Y-100620000D02*
X197870000Y-100620000D01*
X192250000Y-100620000D02*
X192250000Y-94840000D01*
X197350000Y-100620000D02*
X197350000Y-94840000D01*
X197470000Y-100860000D02*
X198110000Y-100860000D01*
X197870000Y-100620000D02*
X197870000Y-94840000D01*
X198110000Y-100860000D02*
X198110000Y-100460000D01*
D11*
%TO.C,C2*%
X190500000Y-101500000D02*
G75*
G02*
X180500000Y-101500000I-5000000J0D01*
G01*
X180500000Y-101500000D02*
G75*
G02*
X190500000Y-101500000I5000000J0D01*
G01*
D12*
X191350000Y-101500000D02*
G75*
G02*
X191150000Y-101500000I-100000J0D01*
G01*
X191150000Y-101500000D02*
G75*
G02*
X191350000Y-101500000I100000J0D01*
G01*
D13*
%TO.C,A2*%
X168710000Y-61760000D02*
X168710000Y-77260000D01*
X168710000Y-77260000D02*
X189290000Y-77260000D01*
X186620000Y-61760000D02*
X168710000Y-61760000D01*
X186620000Y-64430000D02*
X168710000Y-64430000D01*
X186620000Y-64430000D02*
X186620000Y-61760000D01*
X189290000Y-61760000D02*
X187890000Y-61760000D01*
X189290000Y-63160000D02*
X189290000Y-61760000D01*
X189290000Y-64430000D02*
X186620000Y-64430000D01*
X189290000Y-74590000D02*
X168710000Y-74590000D01*
X189290000Y-77260000D02*
X189290000Y-64430000D01*
%TO.C,J9*%
X191130000Y-111574000D02*
X197870000Y-111574000D01*
X191130000Y-122435000D02*
X191130000Y-111574000D01*
X191130000Y-122435000D02*
X197870000Y-122435000D01*
X192250000Y-122435000D02*
X192250000Y-111574000D01*
X197350000Y-122435000D02*
X197350000Y-111574000D01*
X197470000Y-122675000D02*
X198110000Y-122675000D01*
X197870000Y-122435000D02*
X197870000Y-111574000D01*
X198110000Y-122675000D02*
X198110000Y-122275000D01*
%TO.C,R1*%
X151840000Y-135727064D02*
X151840000Y-134272936D01*
X153660000Y-135727064D02*
X153660000Y-134272936D01*
%TD*%
M02*
