M48
; DRILL file {KiCad 8.0.7} date 2025-01-17T12:14:12-0500
; FORMAT={-:-/ absolute / inch / decimal}
; #@! TF.CreationDate,2025-01-17T12:14:12-05:00
; #@! TF.GenerationSoftware,Kicad,Pcbnew,8.0.7
; #@! TF.FileFunction,Plated,1,2,PTH
FMAT,2
INCH
; #@! TA.AperFunction,Plated,PTH,ViaDrill
T1C0.0118
; #@! TA.AperFunction,Plated,PTH,ComponentDrill
T2C0.0315
; #@! TA.AperFunction,Plated,PTH,ComponentDrill
T3C0.0335
; #@! TA.AperFunction,Plated,PTH,ComponentDrill
T4C0.0354
; #@! TA.AperFunction,Plated,PTH,ComponentDrill
T5C0.0390
; #@! TA.AperFunction,Plated,PTH,ViaDrill
T6C0.0394
; #@! TA.AperFunction,Plated,PTH,ComponentDrill
T7C0.0394
; #@! TA.AperFunction,Plated,PTH,ComponentDrill
T8C0.0433
; #@! TA.AperFunction,Plated,PTH,ComponentDrill
T9C0.1260
%
G90
G05
T1
X5.0394Y-3.7008
X5.0394Y-3.7795
X5.1181Y-3.563
X5.1181Y-3.6024
X5.1181Y-3.6417
X5.1181Y-4.2126
X5.1181Y-4.311
X5.1476Y-4.3504
X5.1575Y-3.938
X5.187Y-4.3504
X5.1969Y-3.5728
X5.2362Y-3.9961
X5.2559Y-3.3071
X5.2559Y-4.3504
X5.2756Y-3.6614
X5.2756Y-3.9764
X5.2953Y-4.1142
X5.3189Y-4.4134
X5.3248Y-4.2323
X5.374Y-2.7165
X5.374Y-3.2874
X5.3839Y-3.7205
X5.3839Y-4.3504
X5.4134Y-3.7598
X5.4528Y-4.2717
X5.4528Y-4.6098
X5.4823Y-4.2028
X5.5118Y-4.3504
X5.6004Y-4.5862
X5.6299Y-5.0787
X5.7087Y-3.6417
X5.7677Y-5.0684
X5.7874Y-3.7598
X5.8071Y-3.0512
X5.8661Y-2.9528
X5.9252Y-4.4094
X5.9252Y-5.0684
X5.9596Y-4.2589
X5.9646Y-2.7953
X5.9646Y-3.2087
X6.0039Y-2.8937
X6.0039Y-3.1102
X6.0236Y-4.1929
X6.063Y-4.7638
X6.0827Y-3.248
X6.1024Y-4.8819
X6.1191Y-5.0394
X6.122Y-3.3465
X6.122Y-4.9213
X6.1408Y-5.0
X6.1614Y-3.4449
X6.2032Y-3.5458
X6.2402Y-2.9528
X6.2795Y-2.7222
X6.2795Y-2.8346
X6.2795Y-3.0512
X6.2992Y-4.3602
X6.3189Y-3.1496
X6.3373Y-4.3344
X6.38Y-4.3147
X6.4194Y-4.295
X6.4588Y-4.2753
X6.752Y-2.7362
X6.752Y-3.2874
X6.811Y-5.374
X6.811Y-5.4134
X6.9587Y-4.0748
X7.0276Y-3.0906
X7.0472Y-2.7165
X7.0472Y-2.8618
X7.0866Y-5.374
X7.0866Y-5.4134
X7.185Y-4.0945
X7.2441Y-4.2819
T2
X6.6972Y-2.4866
X6.6972Y-2.9866
X6.6972Y-3.1868
X6.6972Y-3.6868
X6.6972Y-4.3567
X6.6972Y-4.8567
X6.6972Y-5.0654
X6.6972Y-5.5654
X6.7972Y-2.4866
X6.7972Y-2.9866
X6.7972Y-3.1868
X6.7972Y-3.6868
X6.7972Y-4.3567
X6.7972Y-4.8567
X6.7972Y-5.0654
X6.7972Y-5.5654
X6.8972Y-2.4866
X6.8972Y-2.9866
X6.8972Y-3.1868
X6.8972Y-3.6868
X6.8972Y-4.3567
X6.8972Y-4.8567
X6.8972Y-5.0654
X6.8972Y-5.5654
X6.9972Y-2.4866
X6.9972Y-2.9866
X6.9972Y-3.1868
X6.9972Y-3.6868
X6.9972Y-4.3567
X6.9972Y-4.8567
X6.9972Y-5.0654
X6.9972Y-5.5654
X7.0972Y-2.4866
X7.0972Y-2.9866
X7.0972Y-3.1868
X7.0972Y-3.6868
X7.0972Y-4.3567
X7.0972Y-4.8567
X7.0972Y-5.0654
X7.0972Y-5.5654
X7.1972Y-2.4866
X7.1972Y-2.9866
X7.1972Y-3.1868
X7.1972Y-3.6868
X7.1972Y-4.3567
X7.1972Y-4.8567
X7.1972Y-5.0654
X7.1972Y-5.5654
X7.2972Y-2.4866
X7.2972Y-2.9866
X7.2972Y-3.1868
X7.2972Y-3.6868
X7.2972Y-4.3567
X7.2972Y-4.8567
X7.2972Y-5.0654
X7.2972Y-5.5654
X7.3972Y-2.4866
X7.3972Y-2.9866
X7.3972Y-3.1868
X7.3972Y-3.6868
X7.3972Y-4.3567
X7.3972Y-4.8567
X7.3972Y-5.0654
X7.3972Y-5.5654
T3
X6.2795Y-4.6654
X6.378Y-5.2953
X6.378Y-5.4921
X6.4764Y-4.6654
X6.7126Y-2.2047
X6.9094Y-2.2047
X7.2047Y-3.9961
X7.4016Y-3.9961
T4
X5.4735Y-2.3222
X5.4735Y-2.4222
X5.4735Y-2.5222
X5.4735Y-2.6222
X5.4735Y-2.7222
X5.4735Y-2.8222
X5.4735Y-2.9222
X5.4735Y-3.0222
X5.4735Y-3.1222
X5.4735Y-3.2222
X5.4735Y-3.3222
X5.4735Y-3.4222
X5.4735Y-3.5222
X5.4735Y-3.6222
X5.4735Y-3.7222
X5.4735Y-3.8222
X5.4735Y-3.9222
X5.4735Y-4.0222
X5.4735Y-4.1222
X6.4735Y-2.3222
X6.4735Y-2.4222
X6.4735Y-2.5222
X6.4735Y-2.6222
X6.4735Y-2.7222
X6.4735Y-2.8222
X6.4735Y-2.9222
X6.4735Y-3.0222
X6.4735Y-3.1222
X6.4735Y-3.2222
X6.4735Y-3.3222
X6.4735Y-3.4222
X6.4735Y-3.5222
X6.4735Y-3.6222
X6.4735Y-3.7222
X6.4735Y-3.8222
X6.4735Y-3.9222
X6.4735Y-4.0222
X6.4735Y-4.1222
T5
X5.6843Y-4.5276
X5.6843Y-4.6276
X5.6843Y-4.7276
X5.6843Y-4.8276
X5.9843Y-4.5276
X5.9843Y-4.6276
X5.9843Y-4.7276
X5.9843Y-4.8276
T6
X6.6388Y-4.2175
T7
X5.252Y-2.7431
X5.252Y-2.8431
X5.252Y-2.9431
X5.252Y-3.0431
X5.252Y-3.1431
X5.252Y-3.2431
X5.252Y-4.5098
X5.252Y-4.6098
X5.252Y-4.7098
X5.252Y-4.8098
X5.252Y-4.9098
X5.252Y-5.0098
X5.252Y-5.1098
X5.252Y-5.2098
X5.252Y-5.3098
X5.252Y-5.4098
X5.2569Y-2.4311
X5.2569Y-2.5311
X7.6575Y-4.0819
X7.6575Y-4.1819
X7.6575Y-4.2819
T8
X5.7252Y-5.689
X5.8252Y-5.689
X5.9252Y-5.689
X6.0252Y-5.689
X7.6575Y-2.5864
X7.6575Y-2.6864
X7.6575Y-2.7864
X7.6575Y-2.8864
X7.6575Y-3.2874
X7.6575Y-3.3874
X7.6575Y-3.4874
X7.6575Y-3.5874
X7.6575Y-3.7976
X7.6575Y-3.8976
X7.6575Y-4.4565
X7.6575Y-4.5565
X7.6575Y-4.6565
X7.6575Y-4.7565
X7.6575Y-5.1652
X7.6575Y-5.2652
X7.6575Y-5.3652
X7.6575Y-5.4652
T9
X5.315Y-2.1654
X5.315Y-5.7087
X7.6772Y-2.1654
X7.6772Y-5.7087
M30
