M48
; DRILL file {KiCad 7.0.7} date Fri Nov 29 17:57:40 2024
; FORMAT={-:-/ absolute / inch / decimal}
; #@! TF.CreationDate,2024-11-29T17:57:40-06:00
; #@! TF.GenerationSoftware,Kicad,Pcbnew,7.0.7
; #@! TF.FileFunction,Plated,1,2,PTH
FMAT,2
INCH
; #@! TA.AperFunction,Plated,PTH,ViaDrill
T1C0.0157
; #@! TA.AperFunction,Plated,PTH,ComponentDrill
T2C0.0307
; #@! TA.AperFunction,Plated,PTH,ComponentDrill
T3C0.0354
; #@! TA.AperFunction,Plated,PTH,ComponentDrill
T4C0.0390
; #@! TA.AperFunction,Plated,PTH,ComponentDrill
T5C0.0394
; #@! TA.AperFunction,Plated,PTH,ComponentDrill
T6C0.0512
; #@! TA.AperFunction,Plated,PTH,ComponentDrill
T7C0.0551
; #@! TA.AperFunction,Plated,PTH,ComponentDrill
T8C0.1260
%
G90
G05
T1
X-0.7185Y1.6175
X-0.3971Y7.1711
X-0.1585Y4.7475
X0.3565Y2.4925
X0.5565Y3.6925
X0.6315Y3.7425
X0.7315Y1.9175
X0.9065Y2.3925
X0.9315Y2.313
X0.9815Y2.313
X1.0315Y2.4925
X1.0315Y2.313
X1.0901Y2.313
X1.2315Y2.5425
X1.3765Y5.1625
X1.4115Y5.1975
X1.4315Y1.9175
X1.6515Y5.3825
X1.6815Y3.5925
X1.7565Y5.4475
X1.8015Y4.2825
X1.8265Y5.3175
X1.8615Y5.2725
X1.8915Y5.2325
X1.9215Y5.1975
X1.9265Y3.8925
X1.955Y3.921
X1.9615Y5.1625
X2.1715Y1.9025
X2.1915Y2.6025
X2.2513Y2.7027
X2.2715Y5.3525
X2.3115Y4.0225
X2.3515Y3.9825
X2.4015Y5.3825
X2.4315Y7.6425
X2.4365Y5.4125
X2.4765Y5.4475
X2.5165Y5.4825
X2.7315Y1.8825
X3.3365Y5.3175
X3.3665Y5.2725
X3.3965Y5.2325
X3.4165Y3.8875
X3.4315Y5.1975
X3.4515Y3.9225
X3.4615Y5.1625
X3.6715Y1.9425
X3.7715Y5.3525
X3.8115Y4.0175
X3.8515Y3.9825
X3.8965Y5.3825
X3.9415Y5.4125
X3.9815Y7.4425
X3.9815Y5.4475
X4.0265Y5.4825
X4.2315Y1.9025
X4.8615Y5.3175
X4.8915Y5.2725
X4.8915Y3.8925
X4.9215Y5.2325
X4.9215Y3.9225
X4.9515Y5.1975
X4.9806Y5.1625
X5.1715Y1.9425
X5.2715Y5.3525
X5.324Y4.0175
X5.3565Y3.9825
X5.3865Y5.3825
X5.4265Y5.4125
X5.4715Y5.4475
X5.5165Y5.4825
X5.7315Y1.8825
X6.3515Y5.3175
X6.3815Y5.2725
X6.4115Y5.2325
X6.4265Y3.8925
X6.4465Y5.1975
X6.4615Y3.9225
X6.4765Y5.1625
X6.6715Y1.9225
X6.7715Y5.3525
X6.828Y4.0175
X6.8565Y3.9825
X6.8915Y5.3825
X6.9315Y5.4125
X6.9665Y5.4475
X7.0065Y5.4825
X7.2315Y1.9025
X7.8615Y5.3175
X7.8915Y5.2725
X7.9215Y5.2325
X7.9215Y3.8925
X7.95Y3.9225
X7.9515Y5.1975
X7.9811Y5.1625
X8.1915Y1.9425
X8.2715Y5.3525
X8.3115Y4.0175
X8.3515Y3.9825
X8.3965Y5.3825
X8.4315Y5.4125
X8.4665Y5.4475
X8.5015Y5.4825
X8.7315Y1.8825
X9.3565Y5.3175
X9.3865Y5.2725
X9.4215Y5.2325
X9.4215Y3.8925
X9.4515Y5.1975
X9.4515Y3.9225
X9.4765Y5.1625
X9.7315Y1.9025
X9.7715Y5.3525
X9.8115Y4.0175
X9.8515Y3.9825
X9.8965Y5.3825
X9.9365Y5.4125
X9.9815Y5.4475
X10.0215Y5.4825
X10.2115Y1.9225
X10.8465Y5.3175
X10.8765Y5.2725
X10.9065Y5.2325
X10.9265Y3.8875
X10.9465Y5.1975
X10.955Y3.9225
X10.9715Y5.1625
X11.2315Y1.9225
X11.2715Y5.3525
X11.3115Y4.0175
X11.3515Y3.9825
X11.3865Y5.3825
X11.4215Y5.4125
X11.4565Y5.4475
X11.4865Y5.4825
X11.7115Y1.9025
X12.3315Y5.3175
X12.3665Y5.2725
X12.3965Y5.2325
X12.4215Y3.8925
X12.4265Y5.1975
X12.4565Y3.9225
X12.4615Y5.1625
X12.7315Y1.9225
X12.8165Y5.3525
X12.833Y4.0204
X12.8615Y3.9825
X12.8865Y5.3825
X12.9215Y5.4125
X12.9515Y5.4475
X12.9815Y5.4825
X13.0815Y4.8325
X13.2115Y1.9025
T2
X2.0528Y4.9145
X2.0528Y4.8357
X2.0528Y4.757
X2.0528Y4.6783
X2.0528Y4.5995
X2.0528Y4.442
X2.0528Y4.3633
X2.0528Y4.2846
X2.0528Y4.2058
X2.1315Y4.9538
X2.1315Y4.8751
X2.1315Y4.7964
X2.1315Y4.7176
X2.1315Y4.6389
X2.1315Y4.5601
X2.1315Y4.4027
X2.1315Y4.3239
X2.1315Y4.2452
X2.2299Y4.9538
X2.2299Y4.8751
X2.2299Y4.7964
X2.2299Y4.7176
X2.2299Y4.6389
X2.2299Y4.5601
X2.2299Y4.4027
X2.2299Y4.3239
X2.2299Y4.2452
X2.3087Y4.9145
X2.3087Y4.8357
X2.3087Y4.757
X2.3087Y4.6783
X2.3087Y4.5995
X2.3087Y4.442
X2.3087Y4.3633
X2.3087Y4.2846
X2.3087Y4.2058
X3.553Y4.9145
X3.553Y4.8357
X3.553Y4.757
X3.553Y4.6783
X3.553Y4.5995
X3.553Y4.442
X3.553Y4.3633
X3.553Y4.2846
X3.553Y4.2058
X3.6317Y4.9538
X3.6317Y4.8751
X3.6317Y4.7964
X3.6317Y4.7176
X3.6317Y4.6389
X3.6317Y4.5601
X3.6317Y4.4027
X3.6317Y4.3239
X3.6317Y4.2452
X3.7301Y4.9538
X3.7301Y4.8751
X3.7301Y4.7964
X3.7301Y4.7176
X3.7301Y4.6389
X3.7301Y4.5601
X3.7301Y4.4027
X3.7301Y4.3239
X3.7301Y4.2452
X3.8089Y4.9145
X3.8089Y4.8357
X3.8089Y4.757
X3.8089Y4.6783
X3.8089Y4.5995
X3.8089Y4.442
X3.8089Y4.3633
X3.8089Y4.2846
X3.8089Y4.2058
X5.0532Y4.9145
X5.0532Y4.8357
X5.0532Y4.757
X5.0532Y4.6783
X5.0532Y4.5995
X5.0532Y4.442
X5.0532Y4.3633
X5.0532Y4.2846
X5.0532Y4.2058
X5.1319Y4.9538
X5.1319Y4.8751
X5.1319Y4.7964
X5.1319Y4.7176
X5.1319Y4.6389
X5.1319Y4.5601
X5.1319Y4.4027
X5.1319Y4.3239
X5.1319Y4.2452
X5.2304Y4.9538
X5.2304Y4.8751
X5.2304Y4.7964
X5.2304Y4.7176
X5.2304Y4.6389
X5.2304Y4.5601
X5.2304Y4.4027
X5.2304Y4.3239
X5.2304Y4.2452
X5.3091Y4.9145
X5.3091Y4.8357
X5.3091Y4.757
X5.3091Y4.6783
X5.3091Y4.5995
X5.3091Y4.442
X5.3091Y4.3633
X5.3091Y4.2846
X5.3091Y4.2058
X6.5534Y4.9145
X6.5534Y4.8357
X6.5534Y4.757
X6.5534Y4.6783
X6.5534Y4.5995
X6.5534Y4.442
X6.5534Y4.3633
X6.5534Y4.2846
X6.5534Y4.2058
X6.6322Y4.9538
X6.6322Y4.8751
X6.6322Y4.7964
X6.6322Y4.7176
X6.6322Y4.6389
X6.6322Y4.5601
X6.6322Y4.4027
X6.6322Y4.3239
X6.6322Y4.2452
X6.7306Y4.9538
X6.7306Y4.8751
X6.7306Y4.7964
X6.7306Y4.7176
X6.7306Y4.6389
X6.7306Y4.5601
X6.7306Y4.4027
X6.7306Y4.3239
X6.7306Y4.2452
X6.8093Y4.9145
X6.8093Y4.8357
X6.8093Y4.757
X6.8093Y4.6783
X6.8093Y4.5995
X6.8093Y4.442
X6.8093Y4.3633
X6.8093Y4.2846
X6.8093Y4.2058
X8.0537Y4.9145
X8.0537Y4.8357
X8.0537Y4.757
X8.0537Y4.6783
X8.0537Y4.5995
X8.0537Y4.442
X8.0537Y4.3633
X8.0537Y4.2846
X8.0537Y4.2058
X8.1324Y4.9538
X8.1324Y4.8751
X8.1324Y4.7964
X8.1324Y4.7176
X8.1324Y4.6389
X8.1324Y4.5601
X8.1324Y4.4027
X8.1324Y4.3239
X8.1324Y4.2452
X8.2308Y4.9538
X8.2308Y4.8751
X8.2308Y4.7964
X8.2308Y4.7176
X8.2308Y4.6389
X8.2308Y4.5601
X8.2308Y4.4027
X8.2308Y4.3239
X8.2308Y4.2452
X8.3096Y4.9145
X8.3096Y4.8357
X8.3096Y4.757
X8.3096Y4.6783
X8.3096Y4.5995
X8.3096Y4.442
X8.3096Y4.3633
X8.3096Y4.2846
X8.3096Y4.2058
X9.5539Y4.9145
X9.5539Y4.8357
X9.5539Y4.757
X9.5539Y4.6783
X9.5539Y4.5995
X9.5539Y4.442
X9.5539Y4.3633
X9.5539Y4.2846
X9.5539Y4.2058
X9.6326Y4.9538
X9.6326Y4.8751
X9.6326Y4.7964
X9.6326Y4.7176
X9.6326Y4.6389
X9.6326Y4.5601
X9.6326Y4.4027
X9.6326Y4.3239
X9.6326Y4.2452
X9.731Y4.9538
X9.731Y4.8751
X9.731Y4.7964
X9.731Y4.7176
X9.731Y4.6389
X9.731Y4.5601
X9.731Y4.4027
X9.731Y4.3239
X9.731Y4.2452
X9.8098Y4.9145
X9.8098Y4.8357
X9.8098Y4.757
X9.8098Y4.6783
X9.8098Y4.5995
X9.8098Y4.442
X9.8098Y4.3633
X9.8098Y4.2846
X9.8098Y4.2058
X11.0541Y4.9145
X11.0541Y4.8357
X11.0541Y4.757
X11.0541Y4.6783
X11.0541Y4.5995
X11.0541Y4.442
X11.0541Y4.3633
X11.0541Y4.2846
X11.0541Y4.2058
X11.1328Y4.9538
X11.1328Y4.8751
X11.1328Y4.7964
X11.1328Y4.7176
X11.1328Y4.6389
X11.1328Y4.5601
X11.1328Y4.4027
X11.1328Y4.3239
X11.1328Y4.2452
X11.2313Y4.9538
X11.2313Y4.8751
X11.2313Y4.7964
X11.2313Y4.7176
X11.2313Y4.6389
X11.2313Y4.5601
X11.2313Y4.4027
X11.2313Y4.3239
X11.2313Y4.2452
X11.31Y4.9145
X11.31Y4.8357
X11.31Y4.757
X11.31Y4.6783
X11.31Y4.5995
X11.31Y4.442
X11.31Y4.3633
X11.31Y4.2846
X11.31Y4.2058
X12.5543Y4.9145
X12.5543Y4.8357
X12.5543Y4.757
X12.5543Y4.6783
X12.5543Y4.5995
X12.5543Y4.442
X12.5543Y4.3633
X12.5543Y4.2846
X12.5543Y4.2058
X12.6331Y4.9538
X12.6331Y4.8751
X12.6331Y4.7964
X12.6331Y4.7176
X12.6331Y4.6389
X12.6331Y4.5601
X12.6331Y4.4027
X12.6331Y4.3239
X12.6331Y4.2452
X12.7315Y4.9538
X12.7315Y4.8751
X12.7315Y4.7964
X12.7315Y4.7176
X12.7315Y4.6389
X12.7315Y4.5601
X12.7315Y4.4027
X12.7315Y4.3239
X12.7315Y4.2452
X12.8102Y4.9145
X12.8102Y4.8357
X12.8102Y4.757
X12.8102Y4.6783
X12.8102Y4.5995
X12.8102Y4.442
X12.8102Y4.3633
X12.8102Y4.2846
X12.8102Y4.2058
T3
X-0.9587Y7.4825
X-0.8587Y7.4825
X-0.7185Y3.7415
X-0.7185Y3.6415
X-0.7185Y3.5415
X-0.7185Y3.4415
X-0.7185Y3.3415
X-0.7185Y3.2415
X-0.7185Y3.1415
X-0.7185Y3.0415
X-0.7185Y2.9415
X-0.7185Y2.8415
X-0.7185Y2.7415
X-0.7185Y2.6415
X-0.7185Y2.5415
X-0.7185Y2.4415
X-0.7185Y2.3415
X-0.7185Y2.2415
X-0.7185Y2.1415
X-0.7185Y2.0415
X-0.7185Y1.9415
X-0.4987Y7.4825
X-0.3987Y7.4825
X-0.0587Y7.4825
X0.0413Y7.4825
X0.2815Y3.7415
X0.2815Y3.6415
X0.2815Y3.5415
X0.2815Y3.4415
X0.2815Y3.3415
X0.2815Y3.2415
X0.2815Y3.1415
X0.2815Y3.0415
X0.2815Y2.9415
X0.2815Y2.8415
X0.2815Y2.7415
X0.2815Y2.6415
X0.2815Y2.5415
X0.2815Y2.4415
X0.2815Y2.3415
X0.2815Y2.2415
X0.2815Y2.1415
X0.2815Y2.0415
X0.2815Y1.9415
X1.8913Y1.8175
X1.9913Y1.8175
X2.3813Y1.8175
X2.4813Y1.8175
X3.3906Y1.8175
X3.4906Y1.8175
X3.8813Y1.8175
X3.9813Y1.8175
X4.8899Y1.8175
X4.9899Y1.8175
X5.3813Y1.8175
X5.4813Y1.8175
X6.3892Y1.8175
X6.4892Y1.8175
X6.8813Y1.8175
X6.9813Y1.8175
X7.8886Y1.8175
X7.9886Y1.8175
X8.3813Y1.8175
X8.4813Y1.8175
X9.3879Y1.8175
X9.4879Y1.8175
X9.8813Y1.8175
X9.9813Y1.8175
X10.8872Y1.8175
X10.9872Y1.8175
X11.3813Y1.8175
X11.4813Y1.8175
X12.3865Y1.8175
X12.4865Y1.8175
X12.8813Y1.8175
X12.9813Y1.8175
T4
X1.0315Y3.5925
X1.0315Y3.4925
X1.0315Y3.3925
X1.0315Y3.2925
X1.3315Y3.5925
X1.3315Y3.4925
X1.3315Y3.3925
X1.3315Y3.2925
T5
X-0.9191Y4.4927
X-0.9191Y4.3927
X-0.8191Y4.4927
X-0.8191Y4.3927
X-0.7191Y4.4927
X-0.7191Y4.3927
X-0.0085Y6.9425
X0.0915Y6.9425
X0.1915Y6.9425
X12.1817Y7.5925
X12.2817Y7.5925
T6
X0.6315Y7.5045
X0.8283Y7.5045
X12.9817Y7.5545
X13.1817Y7.5545
X13.3817Y7.5545
T7
X-0.935Y6.9193
X-0.935Y6.7539
X-0.935Y6.5886
X-0.935Y6.4232
X-0.935Y6.2579
X-0.935Y6.0925
X-0.935Y5.9272
X-0.935Y5.7618
X-0.935Y5.5965
X-0.935Y5.4311
X-0.935Y5.2657
X-0.935Y5.1004
X-0.7185Y6.9193
X-0.7185Y6.7539
X-0.7185Y6.5886
X-0.7185Y6.4232
X-0.7185Y6.2579
X-0.7185Y6.0925
X-0.7185Y5.9272
X-0.7185Y5.7618
X-0.7185Y5.5965
X-0.7185Y5.4311
X-0.7185Y5.2657
X-0.7185Y5.1004
T8
X-1.2185Y7.5925
X-1.2185Y1.5925
X13.7815Y7.5925
X13.7815Y1.5925
T0
M30
