%TF.GenerationSoftware,KiCad,Pcbnew,7.0.7*%
%TF.CreationDate,2024-11-29T17:58:44-06:00*%
%TF.ProjectId,updated_LOAF,75706461-7465-4645-9f4c-4f41462e6b69,rev?*%
%TF.SameCoordinates,PX2faf080PYee6b280*%
%TF.FileFunction,Legend,Bot*%
%TF.FilePolarity,Positive*%
%FSLAX46Y46*%
G04 Gerber Fmt 4.6, Leading zero omitted, Abs format (unit mm)*
G04 Created by KiCad (PCBNEW 7.0.7) date 2024-11-29 17:58:44*
%MOMM*%
%LPD*%
G01*
G04 APERTURE LIST*
%ADD10C,0.150000*%
%ADD11C,0.120000*%
G04 APERTURE END LIST*
D10*
X26304819Y118316667D02*
X25304819Y118316667D01*
X25304819Y118316667D02*
X25304819Y118078572D01*
X25304819Y118078572D02*
X25352438Y117935715D01*
X25352438Y117935715D02*
X25447676Y117840477D01*
X25447676Y117840477D02*
X25542914Y117792858D01*
X25542914Y117792858D02*
X25733390Y117745239D01*
X25733390Y117745239D02*
X25876247Y117745239D01*
X25876247Y117745239D02*
X26066723Y117792858D01*
X26066723Y117792858D02*
X26161961Y117840477D01*
X26161961Y117840477D02*
X26257200Y117935715D01*
X26257200Y117935715D02*
X26304819Y118078572D01*
X26304819Y118078572D02*
X26304819Y118316667D01*
X26304819Y116745239D02*
X25828628Y117078572D01*
X26304819Y117316667D02*
X25304819Y117316667D01*
X25304819Y117316667D02*
X25304819Y116935715D01*
X25304819Y116935715D02*
X25352438Y116840477D01*
X25352438Y116840477D02*
X25400057Y116792858D01*
X25400057Y116792858D02*
X25495295Y116745239D01*
X25495295Y116745239D02*
X25638152Y116745239D01*
X25638152Y116745239D02*
X25733390Y116792858D01*
X25733390Y116792858D02*
X25781009Y116840477D01*
X25781009Y116840477D02*
X25828628Y116935715D01*
X25828628Y116935715D02*
X25828628Y117316667D01*
X26019104Y116364286D02*
X26019104Y115888096D01*
X26304819Y116459524D02*
X25304819Y116126191D01*
X25304819Y116126191D02*
X26304819Y115792858D01*
X25400057Y115507143D02*
X25352438Y115459524D01*
X25352438Y115459524D02*
X25304819Y115364286D01*
X25304819Y115364286D02*
X25304819Y115126191D01*
X25304819Y115126191D02*
X25352438Y115030953D01*
X25352438Y115030953D02*
X25400057Y114983334D01*
X25400057Y114983334D02*
X25495295Y114935715D01*
X25495295Y114935715D02*
X25590533Y114935715D01*
X25590533Y114935715D02*
X25733390Y114983334D01*
X25733390Y114983334D02*
X26304819Y115554762D01*
X26304819Y115554762D02*
X26304819Y114935715D01*
X312054819Y118316667D02*
X311054819Y118316667D01*
X311054819Y118316667D02*
X311054819Y118078572D01*
X311054819Y118078572D02*
X311102438Y117935715D01*
X311102438Y117935715D02*
X311197676Y117840477D01*
X311197676Y117840477D02*
X311292914Y117792858D01*
X311292914Y117792858D02*
X311483390Y117745239D01*
X311483390Y117745239D02*
X311626247Y117745239D01*
X311626247Y117745239D02*
X311816723Y117792858D01*
X311816723Y117792858D02*
X311911961Y117840477D01*
X311911961Y117840477D02*
X312007200Y117935715D01*
X312007200Y117935715D02*
X312054819Y118078572D01*
X312054819Y118078572D02*
X312054819Y118316667D01*
X312054819Y116745239D02*
X311578628Y117078572D01*
X312054819Y117316667D02*
X311054819Y117316667D01*
X311054819Y117316667D02*
X311054819Y116935715D01*
X311054819Y116935715D02*
X311102438Y116840477D01*
X311102438Y116840477D02*
X311150057Y116792858D01*
X311150057Y116792858D02*
X311245295Y116745239D01*
X311245295Y116745239D02*
X311388152Y116745239D01*
X311388152Y116745239D02*
X311483390Y116792858D01*
X311483390Y116792858D02*
X311531009Y116840477D01*
X311531009Y116840477D02*
X311578628Y116935715D01*
X311578628Y116935715D02*
X311578628Y117316667D01*
X311769104Y116364286D02*
X311769104Y115888096D01*
X312054819Y116459524D02*
X311054819Y116126191D01*
X311054819Y116126191D02*
X312054819Y115792858D01*
X312054819Y114935715D02*
X312054819Y115507143D01*
X312054819Y115221429D02*
X311054819Y115221429D01*
X311054819Y115221429D02*
X311197676Y115316667D01*
X311197676Y115316667D02*
X311292914Y115411905D01*
X311292914Y115411905D02*
X311340533Y115507143D01*
D11*
%TO.C,DRA2*%
X14850000Y95400000D02*
X24850000Y95400000D01*
X24850000Y95400000D02*
X24850000Y137900000D01*
X14850000Y137900000D02*
X14850000Y95400000D01*
X24850000Y137900000D02*
X14850000Y137900000D01*
%TO.C,DRA1*%
X300600000Y95400000D02*
X310600000Y95400000D01*
X310600000Y95400000D02*
X310600000Y137900000D01*
X300600000Y137900000D02*
X300600000Y95400000D01*
X310600000Y137900000D02*
X300600000Y137900000D01*
%TD*%
M02*
