M48
; DRILL file {KiCad 7.0.7} date Fri Nov 29 17:57:40 2024
; FORMAT={-:-/ absolute / inch / decimal}
; #@! TF.CreationDate,2024-11-29T17:57:40-06:00
; #@! TF.GenerationSoftware,Kicad,Pcbnew,7.0.7
; #@! TF.FileFunction,NonPlated,1,2,NPTH
FMAT,2
INCH
; #@! TA.AperFunction,NonPlated,NPTH,ComponentDrill
T1C0.0551
; #@! TA.AperFunction,NonPlated,NPTH,ComponentDrill
T2C0.0945
; #@! TA.AperFunction,NonPlated,NPTH,ComponentDrill
T3C0.1260
%
G90
G05
T1
X0.8774Y2.1085
X1.2711Y2.1085
T2
X2.1807Y4.4952
X2.1807Y4.1349
X3.6809Y4.4952
X3.6809Y4.1349
X5.1812Y4.4952
X5.1812Y4.1349
X6.6814Y4.4952
X6.6814Y4.1349
X8.1816Y4.4952
X8.1816Y4.1349
X9.6818Y4.4952
X9.6818Y4.1349
X11.1821Y4.4952
X11.1821Y4.1349
X12.6823Y4.4952
X12.6823Y4.1349
T3
X0.7815Y5.0846
X0.7815Y4.5925
X0.7815Y4.1004
X1.9715Y7.0625
X1.9715Y2.1225
X3.4715Y7.0625
X3.4715Y2.1225
X4.9715Y7.0625
X4.9715Y2.1225
X6.4715Y7.0625
X6.4715Y2.1225
X7.9715Y7.0625
X7.9715Y2.1225
X9.4715Y7.0625
X9.4715Y2.1225
X10.9715Y7.0625
X10.9715Y2.1225
X12.0315Y5.0846
X12.0315Y4.5925
X12.0315Y4.1004
X12.4715Y7.0625
X12.4715Y2.1225
T0
M30
