%TF.GenerationSoftware,KiCad,Pcbnew,7.0.7*%
%TF.CreationDate,2024-11-29T17:58:43-06:00*%
%TF.ProjectId,updated_LOAF,75706461-7465-4645-9f4c-4f41462e6b69,rev?*%
%TF.SameCoordinates,PX2faf080PYee6b280*%
%TF.FileFunction,Copper,L1,Top*%
%TF.FilePolarity,Positive*%
%FSLAX46Y46*%
G04 Gerber Fmt 4.6, Leading zero omitted, Abs format (unit mm)*
G04 Created by KiCad (PCBNEW 7.0.7) date 2024-11-29 17:58:43*
%MOMM*%
%LPD*%
G01*
G04 APERTURE LIST*
G04 Aperture macros list*
%AMRoundRect*
0 Rectangle with rounded corners*
0 $1 Rounding radius*
0 $2 $3 $4 $5 $6 $7 $8 $9 X,Y pos of 4 corners*
0 Add a 4 corners polygon primitive as box body*
4,1,4,$2,$3,$4,$5,$6,$7,$8,$9,$2,$3,0*
0 Add four circle primitives for the rounded corners*
1,1,$1+$1,$2,$3*
1,1,$1+$1,$4,$5*
1,1,$1+$1,$6,$7*
1,1,$1+$1,$8,$9*
0 Add four rect primitives between the rounded corners*
20,1,$1+$1,$2,$3,$4,$5,0*
20,1,$1+$1,$4,$5,$6,$7,0*
20,1,$1+$1,$6,$7,$8,$9,0*
20,1,$1+$1,$8,$9,$2,$3,0*%
G04 Aperture macros list end*
%TA.AperFunction,ComponentPad*%
%ADD10R,1.700000X1.700000*%
%TD*%
%TA.AperFunction,ComponentPad*%
%ADD11O,1.700000X1.700000*%
%TD*%
%TA.AperFunction,ComponentPad*%
%ADD12R,1.800000X1.800000*%
%TD*%
%TA.AperFunction,ComponentPad*%
%ADD13C,1.800000*%
%TD*%
%TA.AperFunction,ComponentPad*%
%ADD14C,5.600000*%
%TD*%
%TA.AperFunction,SMDPad,CuDef*%
%ADD15C,4.000000*%
%TD*%
%TA.AperFunction,SMDPad,CuDef*%
%ADD16RoundRect,0.250000X0.400000X0.625000X-0.400000X0.625000X-0.400000X-0.625000X0.400000X-0.625000X0*%
%TD*%
%TA.AperFunction,ComponentPad*%
%ADD17R,1.288000X1.288000*%
%TD*%
%TA.AperFunction,ComponentPad*%
%ADD18C,1.288000*%
%TD*%
%TA.AperFunction,ComponentPad*%
%ADD19RoundRect,0.250001X-1.399999X1.099999X-1.399999X-1.099999X1.399999X-1.099999X1.399999X1.099999X0*%
%TD*%
%TA.AperFunction,ComponentPad*%
%ADD20O,3.300000X2.700000*%
%TD*%
%TA.AperFunction,SMDPad,CuDef*%
%ADD21RoundRect,0.250000X-0.400000X-0.625000X0.400000X-0.625000X0.400000X0.625000X-0.400000X0.625000X0*%
%TD*%
%TA.AperFunction,ComponentPad*%
%ADD22R,1.408000X1.408000*%
%TD*%
%TA.AperFunction,ComponentPad*%
%ADD23C,1.408000*%
%TD*%
%TA.AperFunction,SMDPad,CuDef*%
%ADD24RoundRect,0.250000X0.625000X-0.400000X0.625000X0.400000X-0.625000X0.400000X-0.625000X-0.400000X0*%
%TD*%
%TA.AperFunction,SMDPad,CuDef*%
%ADD25R,0.600000X1.500000*%
%TD*%
%TA.AperFunction,SMDPad,CuDef*%
%ADD26R,1.500000X2.340000*%
%TD*%
%TA.AperFunction,SMDPad,CuDef*%
%ADD27RoundRect,0.250000X-0.650000X0.412500X-0.650000X-0.412500X0.650000X-0.412500X0.650000X0.412500X0*%
%TD*%
%TA.AperFunction,ComponentPad*%
%ADD28R,2.600000X2.600000*%
%TD*%
%TA.AperFunction,ComponentPad*%
%ADD29C,2.600000*%
%TD*%
%TA.AperFunction,SMDPad,CuDef*%
%ADD30RoundRect,0.250000X-0.625000X0.400000X-0.625000X-0.400000X0.625000X-0.400000X0.625000X0.400000X0*%
%TD*%
%TA.AperFunction,ComponentPad*%
%ADD31R,1.498600X1.498600*%
%TD*%
%TA.AperFunction,ComponentPad*%
%ADD32C,1.498600*%
%TD*%
%TA.AperFunction,ViaPad*%
%ADD33C,0.800000*%
%TD*%
%TA.AperFunction,Conductor*%
%ADD34C,0.250000*%
%TD*%
%TA.AperFunction,Conductor*%
%ADD35C,0.400000*%
%TD*%
%TA.AperFunction,Conductor*%
%ADD36C,0.750000*%
%TD*%
%TA.AperFunction,Conductor*%
%ADD37C,2.000000*%
%TD*%
%TA.AperFunction,Conductor*%
%ADD38C,1.000000*%
%TD*%
G04 APERTURE END LIST*
D10*
%TO.P,JP1,1,A*%
%TO.N,/CANL*%
X311955000Y192850000D03*
D11*
%TO.P,JP1,2,B*%
%TO.N,Net-(JP1-B)*%
X309415000Y192850000D03*
%TD*%
D12*
%TO.P,D11,1,K*%
%TO.N,GND*%
X136685000Y46165000D03*
D13*
%TO.P,D11,2,A*%
%TO.N,Net-(D11-A)*%
X139225000Y46165000D03*
%TD*%
D12*
%TO.P,D7,1,K*%
%TO.N,GND*%
X276534426Y46165000D03*
D13*
%TO.P,D7,2,A*%
%TO.N,Net-(D7-A)*%
X279074426Y46165000D03*
%TD*%
D14*
%TO.P,H3,1*%
%TO.N,N/C*%
X350050000Y40450000D03*
%TD*%
D15*
%TO.P,TP6,1,1*%
%TO.N,/CANL*%
X135420000Y194120000D03*
%TD*%
D12*
%TO.P,D15,1,K*%
%TO.N,GND*%
X289085000Y46165000D03*
D13*
%TO.P,D15,2,A*%
%TO.N,Net-(D15-A)*%
X291625000Y46165000D03*
%TD*%
D16*
%TO.P,R21,1*%
%TO.N,+3.3V*%
X-16446000Y190056000D03*
%TO.P,R21,2*%
%TO.N,Net-(D17-A)*%
X-19546000Y190056000D03*
%TD*%
%TO.P,R5,1*%
%TO.N,Sl1Prs*%
X56960000Y46165000D03*
%TO.P,R5,2*%
%TO.N,Net-(D1-A)*%
X53860000Y46165000D03*
%TD*%
D15*
%TO.P,TP2,1,1*%
%TO.N,+3.3V*%
X66941600Y194120000D03*
%TD*%
D16*
%TO.P,R20,1*%
%TO.N,Sl8Lt*%
X335598000Y46165000D03*
%TO.P,R20,2*%
%TO.N,Net-(D16-A)*%
X332498000Y46165000D03*
%TD*%
D10*
%TO.P,J11,1,Pin_1*%
%TO.N,+3.3V*%
X-18265000Y114115000D03*
D11*
%TO.P,J11,2,Pin_2*%
%TO.N,ESP 3V3*%
X-18265000Y111575000D03*
%TO.P,J11,3,Pin_3*%
%TO.N,unconnected-(J11-Pin_3-Pad3)*%
X-20805000Y114115000D03*
%TO.P,J11,4,Pin_4*%
%TO.N,unconnected-(J11-Pin_4-Pad4)*%
X-20805000Y111575000D03*
%TO.P,J11,5,Pin_5*%
%TO.N,+5V*%
X-23345000Y114115000D03*
%TO.P,J11,6,Pin_6*%
%TO.N,ESP 5V*%
X-23345000Y111575000D03*
%TD*%
D16*
%TO.P,R17,1*%
%TO.N,Sl5Lt*%
X221404712Y46165000D03*
%TO.P,R17,2*%
%TO.N,Net-(D13-A)*%
X218304712Y46165000D03*
%TD*%
D15*
%TO.P,TP5,1,1*%
%TO.N,/CANH*%
X118300400Y194120000D03*
%TD*%
D16*
%TO.P,R23,1*%
%TO.N,+12V*%
X6414000Y190056000D03*
%TO.P,R23,2*%
%TO.N,Net-(D19-A)*%
X3314000Y190056000D03*
%TD*%
D12*
%TO.P,D16,1,K*%
%TO.N,GND*%
X327185000Y46165000D03*
D13*
%TO.P,D16,2,A*%
%TO.N,Net-(D16-A)*%
X329725000Y46165000D03*
%TD*%
D16*
%TO.P,R22,1*%
%TO.N,+5V*%
X-4762000Y190056000D03*
%TO.P,R22,2*%
%TO.N,Net-(D18-A)*%
X-7862000Y190056000D03*
%TD*%
D17*
%TO.P,J5,A1,A1*%
%TO.N,+12V*%
X170957142Y125827657D03*
D18*
%TO.P,J5,A2,A2*%
X172957142Y124827657D03*
%TO.P,J5,A3,A3*%
X170957142Y123827657D03*
%TO.P,J5,A4,A4*%
%TO.N,GND*%
X172957142Y122827657D03*
%TO.P,J5,A5,A5*%
%TO.N,/Spare5*%
X170957142Y121827657D03*
%TO.P,J5,A6,A6*%
%TO.N,/Spare6*%
X172957142Y120827657D03*
%TO.P,J5,A7,A7*%
%TO.N,/SCL*%
X170957142Y119827657D03*
%TO.P,J5,A8,A8*%
%TO.N,/SDA*%
X172957142Y118827657D03*
%TO.P,J5,A9,A9*%
%TO.N,+3.3V*%
X170957142Y117827657D03*
%TO.P,J5,A10,A10*%
X172957142Y116827657D03*
%TO.P,J5,A11,A11*%
%TO.N,/Spare7*%
X170957142Y115827657D03*
%TO.P,J5,A12,A12*%
%TO.N,Sl4Lt*%
X172957142Y112827657D03*
%TO.P,J5,A13,A13*%
%TO.N,+5V*%
X170957142Y111827657D03*
%TO.P,J5,A14,A14*%
X172957142Y110827657D03*
%TO.P,J5,A15,A15*%
%TO.N,GND*%
X170957142Y109827657D03*
%TO.P,J5,A16,A16*%
%TO.N,/EstpCh1*%
X172957142Y108827657D03*
%TO.P,J5,A17,A17*%
%TO.N,/EstpCh2*%
X170957142Y107827657D03*
%TO.P,J5,A18,A18*%
%TO.N,GND*%
X172957142Y106827657D03*
%TO.P,J5,B1,B1*%
%TO.N,+12V*%
X168457142Y125827657D03*
%TO.P,J5,B2,B2*%
X166457142Y124827657D03*
%TO.P,J5,B3,B3*%
X168457142Y123827657D03*
%TO.P,J5,B4,B4*%
%TO.N,GND*%
X166457142Y122827657D03*
%TO.P,J5,B5,B5*%
%TO.N,/CANH*%
X168457142Y121827657D03*
%TO.P,J5,B6,B6*%
%TO.N,/CANL*%
X166457142Y120827657D03*
%TO.P,J5,B7,B7*%
%TO.N,GND*%
X168457142Y119827657D03*
%TO.P,J5,B8,B8*%
%TO.N,+3.3V*%
X166457142Y118827657D03*
%TO.P,J5,B9,B9*%
%TO.N,/SYNC*%
X168457142Y117827657D03*
%TO.P,J5,B10,B10*%
%TO.N,/Spare1*%
X166457142Y116827657D03*
%TO.P,J5,B11,B11*%
%TO.N,/Spare2*%
X168457142Y115827657D03*
%TO.P,J5,B12,B12*%
%TO.N,/Spare3*%
X166457142Y112827657D03*
%TO.P,J5,B13,B13*%
%TO.N,/Spare4*%
X168457142Y111827657D03*
%TO.P,J5,B14,B14*%
%TO.N,+5V*%
X166457142Y110827657D03*
%TO.P,J5,B15,B15*%
X168457142Y109827657D03*
%TO.P,J5,B16,B16*%
%TO.N,GND*%
X166457142Y108827657D03*
%TO.P,J5,B17,B17*%
%TO.N,Sl4Prs*%
X168457142Y107827657D03*
%TO.P,J5,B18,B18*%
%TO.N,GND*%
X166457142Y106827657D03*
%TD*%
D19*
%TO.P,J3,1,+3.3V*%
%TO.N,+3.3V*%
X-18250000Y175750000D03*
D20*
%TO.P,J3,2,+3.3V*%
X-18250000Y171550000D03*
%TO.P,J3,3,GND*%
%TO.N,GND*%
X-18250000Y167350000D03*
%TO.P,J3,4,+5V*%
%TO.N,+5V*%
X-18250000Y163150000D03*
%TO.P,J3,5,GND*%
%TO.N,GND*%
X-18250000Y158950000D03*
%TO.P,J3,6,+5V*%
%TO.N,+5V*%
X-18250000Y154750000D03*
%TO.P,J3,7,GND*%
%TO.N,GND*%
X-18250000Y150550000D03*
%TO.P,J3,8,PWR_OK*%
%TO.N,unconnected-(J3-PWR_OK-Pad8)*%
X-18250000Y146350000D03*
%TO.P,J3,9,+5VSB*%
%TO.N,unconnected-(J3-+5VSB-Pad9)*%
X-18250000Y142150000D03*
%TO.P,J3,10,+12V*%
%TO.N,+12V*%
X-18250000Y137950000D03*
%TO.P,J3,11,+12V*%
X-18250000Y133750000D03*
%TO.P,J3,12,+3.3V*%
%TO.N,+3.3V*%
X-18250000Y129550000D03*
%TO.P,J3,13,+3.3V*%
X-23750000Y175750000D03*
%TO.P,J3,14,-12V*%
%TO.N,unconnected-(J3--12V-Pad14)*%
X-23750000Y171550000D03*
%TO.P,J3,15,GND*%
%TO.N,GND*%
X-23750000Y167350000D03*
%TO.P,J3,16,PS_ON#*%
%TO.N,unconnected-(J3-PS_ON#-Pad16)*%
X-23750000Y163150000D03*
%TO.P,J3,17,GND*%
%TO.N,GND*%
X-23750000Y158950000D03*
%TO.P,J3,18,GND*%
X-23750000Y154750000D03*
%TO.P,J3,19,GND*%
X-23750000Y150550000D03*
%TO.P,J3,20,NC*%
%TO.N,unconnected-(J3-NC-Pad20)*%
X-23750000Y146350000D03*
%TO.P,J3,21,+5V*%
%TO.N,+5V*%
X-23750000Y142150000D03*
%TO.P,J3,22,+5V*%
X-23750000Y137950000D03*
%TO.P,J3,23,+5V*%
X-23750000Y133750000D03*
%TO.P,J3,24,GND*%
%TO.N,GND*%
X-23750000Y129550000D03*
%TD*%
D12*
%TO.P,D14,1,K*%
%TO.N,GND*%
X250985000Y46165000D03*
D13*
%TO.P,D14,2,A*%
%TO.N,Net-(D14-A)*%
X253525000Y46165000D03*
%TD*%
D16*
%TO.P,R15,1*%
%TO.N,Sl3Lt*%
X145275856Y46165000D03*
%TO.P,R15,2*%
%TO.N,Net-(D11-A)*%
X142175856Y46165000D03*
%TD*%
%TO.P,R13,1*%
%TO.N,Sl1Lt*%
X69147000Y46165000D03*
%TO.P,R13,2*%
%TO.N,Net-(D9-A)*%
X66047000Y46165000D03*
%TD*%
D17*
%TO.P,J2,A1,A1*%
%TO.N,+12V*%
X94745714Y125827657D03*
D18*
%TO.P,J2,A2,A2*%
X96745714Y124827657D03*
%TO.P,J2,A3,A3*%
X94745714Y123827657D03*
%TO.P,J2,A4,A4*%
%TO.N,GND*%
X96745714Y122827657D03*
%TO.P,J2,A5,A5*%
%TO.N,/Spare5*%
X94745714Y121827657D03*
%TO.P,J2,A6,A6*%
%TO.N,/Spare6*%
X96745714Y120827657D03*
%TO.P,J2,A7,A7*%
%TO.N,/SCL*%
X94745714Y119827657D03*
%TO.P,J2,A8,A8*%
%TO.N,/SDA*%
X96745714Y118827657D03*
%TO.P,J2,A9,A9*%
%TO.N,+3.3V*%
X94745714Y117827657D03*
%TO.P,J2,A10,A10*%
X96745714Y116827657D03*
%TO.P,J2,A11,A11*%
%TO.N,/Spare7*%
X94745714Y115827657D03*
%TO.P,J2,A12,A12*%
%TO.N,Sl2Lt*%
X96745714Y112827657D03*
%TO.P,J2,A13,A13*%
%TO.N,+5V*%
X94745714Y111827657D03*
%TO.P,J2,A14,A14*%
X96745714Y110827657D03*
%TO.P,J2,A15,A15*%
%TO.N,GND*%
X94745714Y109827657D03*
%TO.P,J2,A16,A16*%
%TO.N,/EstpCh1*%
X96745714Y108827657D03*
%TO.P,J2,A17,A17*%
%TO.N,/EstpCh2*%
X94745714Y107827657D03*
%TO.P,J2,A18,A18*%
%TO.N,GND*%
X96745714Y106827657D03*
%TO.P,J2,B1,B1*%
%TO.N,+12V*%
X92245714Y125827657D03*
%TO.P,J2,B2,B2*%
X90245714Y124827657D03*
%TO.P,J2,B3,B3*%
X92245714Y123827657D03*
%TO.P,J2,B4,B4*%
%TO.N,GND*%
X90245714Y122827657D03*
%TO.P,J2,B5,B5*%
%TO.N,/CANH*%
X92245714Y121827657D03*
%TO.P,J2,B6,B6*%
%TO.N,/CANL*%
X90245714Y120827657D03*
%TO.P,J2,B7,B7*%
%TO.N,GND*%
X92245714Y119827657D03*
%TO.P,J2,B8,B8*%
%TO.N,+3.3V*%
X90245714Y118827657D03*
%TO.P,J2,B9,B9*%
%TO.N,/SYNC*%
X92245714Y117827657D03*
%TO.P,J2,B10,B10*%
%TO.N,/Spare1*%
X90245714Y116827657D03*
%TO.P,J2,B11,B11*%
%TO.N,/Spare2*%
X92245714Y115827657D03*
%TO.P,J2,B12,B12*%
%TO.N,/Spare3*%
X90245714Y112827657D03*
%TO.P,J2,B13,B13*%
%TO.N,/Spare4*%
X92245714Y111827657D03*
%TO.P,J2,B14,B14*%
%TO.N,+5V*%
X90245714Y110827657D03*
%TO.P,J2,B15,B15*%
X92245714Y109827657D03*
%TO.P,J2,B16,B16*%
%TO.N,GND*%
X90245714Y108827657D03*
%TO.P,J2,B17,B17*%
%TO.N,Sl2Prs*%
X92245714Y107827657D03*
%TO.P,J2,B18,B18*%
%TO.N,GND*%
X90245714Y106827657D03*
%TD*%
D12*
%TO.P,D6,1,K*%
%TO.N,GND*%
X238451855Y46165000D03*
D13*
%TO.P,D6,2,A*%
%TO.N,Net-(D6-A)*%
X240991855Y46165000D03*
%TD*%
D17*
%TO.P,J4,A1,A1*%
%TO.N,+12V*%
X132851428Y125827657D03*
D18*
%TO.P,J4,A2,A2*%
X134851428Y124827657D03*
%TO.P,J4,A3,A3*%
X132851428Y123827657D03*
%TO.P,J4,A4,A4*%
%TO.N,GND*%
X134851428Y122827657D03*
%TO.P,J4,A5,A5*%
%TO.N,/Spare5*%
X132851428Y121827657D03*
%TO.P,J4,A6,A6*%
%TO.N,/Spare6*%
X134851428Y120827657D03*
%TO.P,J4,A7,A7*%
%TO.N,/SCL*%
X132851428Y119827657D03*
%TO.P,J4,A8,A8*%
%TO.N,/SDA*%
X134851428Y118827657D03*
%TO.P,J4,A9,A9*%
%TO.N,+3.3V*%
X132851428Y117827657D03*
%TO.P,J4,A10,A10*%
X134851428Y116827657D03*
%TO.P,J4,A11,A11*%
%TO.N,/Spare7*%
X132851428Y115827657D03*
%TO.P,J4,A12,A12*%
%TO.N,Sl3Lt*%
X134851428Y112827657D03*
%TO.P,J4,A13,A13*%
%TO.N,+5V*%
X132851428Y111827657D03*
%TO.P,J4,A14,A14*%
X134851428Y110827657D03*
%TO.P,J4,A15,A15*%
%TO.N,GND*%
X132851428Y109827657D03*
%TO.P,J4,A16,A16*%
%TO.N,/EstpCh1*%
X134851428Y108827657D03*
%TO.P,J4,A17,A17*%
%TO.N,/EstpCh2*%
X132851428Y107827657D03*
%TO.P,J4,A18,A18*%
%TO.N,GND*%
X134851428Y106827657D03*
%TO.P,J4,B1,B1*%
%TO.N,+12V*%
X130351428Y125827657D03*
%TO.P,J4,B2,B2*%
X128351428Y124827657D03*
%TO.P,J4,B3,B3*%
X130351428Y123827657D03*
%TO.P,J4,B4,B4*%
%TO.N,GND*%
X128351428Y122827657D03*
%TO.P,J4,B5,B5*%
%TO.N,/CANH*%
X130351428Y121827657D03*
%TO.P,J4,B6,B6*%
%TO.N,/CANL*%
X128351428Y120827657D03*
%TO.P,J4,B7,B7*%
%TO.N,GND*%
X130351428Y119827657D03*
%TO.P,J4,B8,B8*%
%TO.N,+3.3V*%
X128351428Y118827657D03*
%TO.P,J4,B9,B9*%
%TO.N,/SYNC*%
X130351428Y117827657D03*
%TO.P,J4,B10,B10*%
%TO.N,/Spare1*%
X128351428Y116827657D03*
%TO.P,J4,B11,B11*%
%TO.N,/Spare2*%
X130351428Y115827657D03*
%TO.P,J4,B12,B12*%
%TO.N,/Spare3*%
X128351428Y112827657D03*
%TO.P,J4,B13,B13*%
%TO.N,/Spare4*%
X130351428Y111827657D03*
%TO.P,J4,B14,B14*%
%TO.N,+5V*%
X128351428Y110827657D03*
%TO.P,J4,B15,B15*%
X130351428Y109827657D03*
%TO.P,J4,B16,B16*%
%TO.N,GND*%
X128351428Y108827657D03*
%TO.P,J4,B17,B17*%
%TO.N,Sl3Prs*%
X130351428Y107827657D03*
%TO.P,J4,B18,B18*%
%TO.N,GND*%
X128351428Y106827657D03*
%TD*%
D12*
%TO.P,D10,1,K*%
%TO.N,GND*%
X98585000Y46165000D03*
D13*
%TO.P,D10,2,A*%
%TO.N,Net-(D10-A)*%
X101125000Y46165000D03*
%TD*%
D12*
%TO.P,D8,1,K*%
%TO.N,GND*%
X314617000Y46165000D03*
D13*
%TO.P,D8,2,A*%
%TO.N,Net-(D8-A)*%
X317157000Y46165000D03*
%TD*%
D21*
%TO.P,R24,1*%
%TO.N,/STBY*%
X38340000Y91250000D03*
%TO.P,R24,2*%
%TO.N,GND*%
X41440000Y91250000D03*
%TD*%
D22*
%TO.P,U1,J2_1,3V3*%
%TO.N,ESP 3V3*%
X-18250000Y95035000D03*
D23*
%TO.P,U1,J2_2,EN*%
%TO.N,unconnected-(U1-EN-PadJ2_2)*%
X-18250000Y92495000D03*
%TO.P,U1,J2_3,SENSOR_VP*%
%TO.N,unconnected-(U1-SENSOR_VP-PadJ2_3)*%
X-18250000Y89955000D03*
%TO.P,U1,J2_4,SENSOR_VN*%
%TO.N,unconnected-(U1-SENSOR_VN-PadJ2_4)*%
X-18250000Y87415000D03*
%TO.P,U1,J2_5,IO34*%
%TO.N,CLK*%
X-18250000Y84875000D03*
%TO.P,U1,J2_6,IO35*%
%TO.N,MOSI*%
X-18250000Y82335000D03*
%TO.P,U1,J2_7,IO32*%
%TO.N,MISO*%
X-18250000Y79795000D03*
%TO.P,U1,J2_8,IO33*%
%TO.N,CS*%
X-18250000Y77255000D03*
%TO.P,U1,J2_9,IO25*%
%TO.N,unconnected-(U1-IO25-PadJ2_9)*%
X-18250000Y74715000D03*
%TO.P,U1,J2_10,IO26*%
%TO.N,unconnected-(U1-IO26-PadJ2_10)*%
X-18250000Y72175000D03*
%TO.P,U1,J2_11,IO27*%
%TO.N,unconnected-(U1-IO27-PadJ2_11)*%
X-18250000Y69635000D03*
%TO.P,U1,J2_12,IO14*%
%TO.N,unconnected-(U1-IO14-PadJ2_12)*%
X-18250000Y67095000D03*
%TO.P,U1,J2_13,IO12*%
%TO.N,unconnected-(U1-IO12-PadJ2_13)*%
X-18250000Y64555000D03*
%TO.P,U1,J2_14,GND_J2_14*%
%TO.N,GND*%
X-18250000Y62015000D03*
%TO.P,U1,J2_15,IO13*%
%TO.N,unconnected-(U1-IO13-PadJ2_15)*%
X-18250000Y59475000D03*
%TO.P,U1,J2_16,SD2*%
%TO.N,unconnected-(U1-SD2-PadJ2_16)*%
X-18250000Y56935000D03*
%TO.P,U1,J2_17,SD3*%
%TO.N,unconnected-(U1-SD3-PadJ2_17)*%
X-18250000Y54395000D03*
%TO.P,U1,J2_18,CMD*%
%TO.N,unconnected-(U1-CMD-PadJ2_18)*%
X-18250000Y51855000D03*
%TO.P,U1,J2_19,EXT_5V*%
%TO.N,ESP 5V*%
X-18250000Y49315000D03*
%TO.P,U1,J3_1,GND_J3_1*%
%TO.N,GND*%
X7150000Y95035000D03*
%TO.P,U1,J3_2,IO23*%
%TO.N,unconnected-(U1-IO23-PadJ3_2)*%
X7150000Y92495000D03*
%TO.P,U1,J3_3,IO22*%
%TO.N,/SCL*%
X7150000Y89955000D03*
%TO.P,U1,J3_4,TXD0*%
%TO.N,unconnected-(U1-TXD0-PadJ3_4)*%
X7150000Y87415000D03*
%TO.P,U1,J3_5,RXD0*%
%TO.N,unconnected-(U1-RXD0-PadJ3_5)*%
X7150000Y84875000D03*
%TO.P,U1,J3_6,IO21*%
%TO.N,/SDA*%
X7150000Y82335000D03*
%TO.P,U1,J3_7,GND_J3_7*%
%TO.N,GND*%
X7150000Y79795000D03*
%TO.P,U1,J3_8,IO19*%
%TO.N,/TX*%
X7150000Y77255000D03*
%TO.P,U1,J3_9,IO18*%
%TO.N,/RX*%
X7150000Y74715000D03*
%TO.P,U1,J3_10,IO5*%
%TO.N,unconnected-(U1-IO5-PadJ3_10)*%
X7150000Y72175000D03*
%TO.P,U1,J3_11,IO17*%
%TO.N,unconnected-(U1-IO17-PadJ3_11)*%
X7150000Y69635000D03*
%TO.P,U1,J3_12,IO16*%
%TO.N,unconnected-(U1-IO16-PadJ3_12)*%
X7150000Y67095000D03*
%TO.P,U1,J3_13,IO4*%
%TO.N,unconnected-(U1-IO4-PadJ3_13)*%
X7150000Y64555000D03*
%TO.P,U1,J3_14,IO0*%
%TO.N,/EstpCh1*%
X7150000Y62015000D03*
%TO.P,U1,J3_15,IO2*%
%TO.N,/EstpCh2*%
X7150000Y59475000D03*
%TO.P,U1,J3_16,IO15*%
%TO.N,unconnected-(U1-IO15-PadJ3_16)*%
X7150000Y56935000D03*
%TO.P,U1,J3_17,SD1*%
%TO.N,unconnected-(U1-SD1-PadJ3_17)*%
X7150000Y54395000D03*
%TO.P,U1,J3_18,SD0*%
%TO.N,unconnected-(U1-SD0-PadJ3_18)*%
X7150000Y51855000D03*
%TO.P,U1,J3_19,CLK*%
%TO.N,unconnected-(U1-CLK-PadJ3_19)*%
X7150000Y49315000D03*
%TD*%
D17*
%TO.P,J8,A1,A1*%
%TO.N,+12V*%
X285274284Y125827657D03*
D18*
%TO.P,J8,A2,A2*%
X287274284Y124827657D03*
%TO.P,J8,A3,A3*%
X285274284Y123827657D03*
%TO.P,J8,A4,A4*%
%TO.N,GND*%
X287274284Y122827657D03*
%TO.P,J8,A5,A5*%
%TO.N,/Spare5*%
X285274284Y121827657D03*
%TO.P,J8,A6,A6*%
%TO.N,/Spare6*%
X287274284Y120827657D03*
%TO.P,J8,A7,A7*%
%TO.N,/SCL*%
X285274284Y119827657D03*
%TO.P,J8,A8,A8*%
%TO.N,/SDA*%
X287274284Y118827657D03*
%TO.P,J8,A9,A9*%
%TO.N,+3.3V*%
X285274284Y117827657D03*
%TO.P,J8,A10,A10*%
X287274284Y116827657D03*
%TO.P,J8,A11,A11*%
%TO.N,/Spare7*%
X285274284Y115827657D03*
%TO.P,J8,A12,A12*%
%TO.N,Sl7Lt*%
X287274284Y112827657D03*
%TO.P,J8,A13,A13*%
%TO.N,+5V*%
X285274284Y111827657D03*
%TO.P,J8,A14,A14*%
X287274284Y110827657D03*
%TO.P,J8,A15,A15*%
%TO.N,GND*%
X285274284Y109827657D03*
%TO.P,J8,A16,A16*%
%TO.N,/EstpCh1*%
X287274284Y108827657D03*
%TO.P,J8,A17,A17*%
%TO.N,/EstpCh2*%
X285274284Y107827657D03*
%TO.P,J8,A18,A18*%
%TO.N,GND*%
X287274284Y106827657D03*
%TO.P,J8,B1,B1*%
%TO.N,+12V*%
X282774284Y125827657D03*
%TO.P,J8,B2,B2*%
X280774284Y124827657D03*
%TO.P,J8,B3,B3*%
X282774284Y123827657D03*
%TO.P,J8,B4,B4*%
%TO.N,GND*%
X280774284Y122827657D03*
%TO.P,J8,B5,B5*%
%TO.N,/CANH*%
X282774284Y121827657D03*
%TO.P,J8,B6,B6*%
%TO.N,/CANL*%
X280774284Y120827657D03*
%TO.P,J8,B7,B7*%
%TO.N,GND*%
X282774284Y119827657D03*
%TO.P,J8,B8,B8*%
%TO.N,+3.3V*%
X280774284Y118827657D03*
%TO.P,J8,B9,B9*%
%TO.N,/SYNC*%
X282774284Y117827657D03*
%TO.P,J8,B10,B10*%
%TO.N,/Spare1*%
X280774284Y116827657D03*
%TO.P,J8,B11,B11*%
%TO.N,/Spare2*%
X282774284Y115827657D03*
%TO.P,J8,B12,B12*%
%TO.N,/Spare3*%
X280774284Y112827657D03*
%TO.P,J8,B13,B13*%
%TO.N,/Spare4*%
X282774284Y111827657D03*
%TO.P,J8,B14,B14*%
%TO.N,+5V*%
X280774284Y110827657D03*
%TO.P,J8,B15,B15*%
X282774284Y109827657D03*
%TO.P,J8,B16,B16*%
%TO.N,GND*%
X280774284Y108827657D03*
%TO.P,J8,B17,B17*%
%TO.N,Sl7Prs*%
X282774284Y107827657D03*
%TO.P,J8,B18,B18*%
%TO.N,GND*%
X280774284Y106827657D03*
%TD*%
D24*
%TO.P,R3,1*%
%TO.N,Net-(C1-Pad1)*%
X31280000Y73190000D03*
%TO.P,R3,2*%
%TO.N,/CANL*%
X31280000Y76290000D03*
%TD*%
D12*
%TO.P,D18,1,K*%
%TO.N,GND*%
X-12667000Y190056000D03*
D13*
%TO.P,D18,2,A*%
%TO.N,Net-(D18-A)*%
X-10127000Y190056000D03*
%TD*%
D25*
%TO.P,J14,CD,CD*%
%TO.N,CS*%
X32535000Y56505000D03*
D26*
%TO.P,J14,G1,COVER_GND*%
%TO.N,GND*%
X20115000Y48705000D03*
%TO.P,J14,G2,COVER_GND__1*%
X34455000Y48705000D03*
D25*
%TO.P,J14,P1,DAT2*%
%TO.N,unconnected-(J14-DAT2-PadP1)*%
X30185000Y56505000D03*
%TO.P,J14,P2,CD/DAT3*%
%TO.N,unconnected-(J14-CD{slash}DAT3-PadP2)*%
X29085000Y56505000D03*
%TO.P,J14,P3,CMD*%
%TO.N,MOSI*%
X27985000Y56505000D03*
%TO.P,J14,P4,VDD*%
%TO.N,ESP 3V3*%
X26885000Y56505000D03*
%TO.P,J14,P5,CLK*%
%TO.N,CLK*%
X25785000Y56505000D03*
%TO.P,J14,P6,VSS*%
%TO.N,GND*%
X24685000Y56505000D03*
%TO.P,J14,P7,DAT0*%
%TO.N,MISO*%
X23585000Y56505000D03*
%TO.P,J14,P8,DAT1*%
%TO.N,unconnected-(J14-DAT1-PadP8)*%
X22485000Y56505000D03*
%TO.P,J14,WP,WP*%
%TO.N,unconnected-(J14-PadWP)*%
X31285000Y56505000D03*
%TD*%
D16*
%TO.P,R14,1*%
%TO.N,Sl2Lt*%
X107211428Y46165000D03*
%TO.P,R14,2*%
%TO.N,Net-(D10-A)*%
X104111428Y46165000D03*
%TD*%
D14*
%TO.P,H1,1*%
%TO.N,N/C*%
X-30950000Y192850000D03*
%TD*%
%TO.P,H4,1*%
%TO.N,N/C*%
X-30950000Y40450000D03*
%TD*%
D12*
%TO.P,D13,1,K*%
%TO.N,GND*%
X212885000Y46165000D03*
D13*
%TO.P,D13,2,A*%
%TO.N,Net-(D13-A)*%
X215425000Y46165000D03*
%TD*%
D12*
%TO.P,D2,1,K*%
%TO.N,GND*%
X86121571Y46165000D03*
D13*
%TO.P,D2,2,A*%
%TO.N,Net-(D2-A)*%
X88661571Y46165000D03*
%TD*%
D16*
%TO.P,R19,1*%
%TO.N,Sl7Lt*%
X297533568Y46165000D03*
%TO.P,R19,2*%
%TO.N,Net-(D15-A)*%
X294433568Y46165000D03*
%TD*%
D27*
%TO.P,C1,1*%
%TO.N,Net-(C1-Pad1)*%
X31280000Y70245000D03*
%TO.P,C1,2*%
%TO.N,GND*%
X31280000Y67120000D03*
%TD*%
D28*
%TO.P,J9,1,Pin_1*%
%TO.N,GND*%
X21040000Y190615000D03*
D29*
%TO.P,J9,2,Pin_2*%
%TO.N,Net-(J9-Pin_2)*%
X16040000Y190615000D03*
%TD*%
D16*
%TO.P,R8,1*%
%TO.N,Sl4Prs*%
X171260000Y46165000D03*
%TO.P,R8,2*%
%TO.N,Net-(D4-A)*%
X168160000Y46165000D03*
%TD*%
D14*
%TO.P,H2,1*%
%TO.N,N/C*%
X350050000Y192850000D03*
%TD*%
D30*
%TO.P,R4,1*%
%TO.N,/SPLIT*%
X33820000Y76290000D03*
%TO.P,R4,2*%
%TO.N,Net-(C1-Pad1)*%
X33820000Y73190000D03*
%TD*%
D16*
%TO.P,R16,1*%
%TO.N,Sl4Lt*%
X183340284Y46165000D03*
%TO.P,R16,2*%
%TO.N,Net-(D12-A)*%
X180240284Y46165000D03*
%TD*%
%TO.P,R6,1*%
%TO.N,Sl2Prs*%
X95020000Y46165000D03*
%TO.P,R6,2*%
%TO.N,Net-(D2-A)*%
X91920000Y46165000D03*
%TD*%
D12*
%TO.P,D17,1,K*%
%TO.N,GND*%
X-24351000Y190056000D03*
D13*
%TO.P,D17,2,A*%
%TO.N,Net-(D17-A)*%
X-21811000Y190056000D03*
%TD*%
D27*
%TO.P,C2,1*%
%TO.N,ESP 5V*%
X-18250000Y45568500D03*
%TO.P,C2,2*%
%TO.N,GND*%
X-18250000Y42443500D03*
%TD*%
D31*
%TO.P,U2,1,TXD*%
%TO.N,/TX*%
X26200000Y91250000D03*
D32*
%TO.P,U2,2,VSS*%
%TO.N,GND*%
X26200000Y88710000D03*
%TO.P,U2,3,VDD*%
%TO.N,+5V*%
X26200000Y86170000D03*
%TO.P,U2,4,RXD*%
%TO.N,/RX*%
X26200000Y83630000D03*
%TO.P,U2,5,SPLIT*%
%TO.N,/SPLIT*%
X33820000Y83630000D03*
%TO.P,U2,6,CANL*%
%TO.N,/CANL*%
X33820000Y86170000D03*
%TO.P,U2,7,CANH*%
%TO.N,/CANH*%
X33820000Y88710000D03*
%TO.P,U2,8,STBY*%
%TO.N,/STBY*%
X33820000Y91250000D03*
%TD*%
D17*
%TO.P,J6,A1,A1*%
%TO.N,+12V*%
X209062856Y125827657D03*
D18*
%TO.P,J6,A2,A2*%
X211062856Y124827657D03*
%TO.P,J6,A3,A3*%
X209062856Y123827657D03*
%TO.P,J6,A4,A4*%
%TO.N,GND*%
X211062856Y122827657D03*
%TO.P,J6,A5,A5*%
%TO.N,/Spare5*%
X209062856Y121827657D03*
%TO.P,J6,A6,A6*%
%TO.N,/Spare6*%
X211062856Y120827657D03*
%TO.P,J6,A7,A7*%
%TO.N,/SCL*%
X209062856Y119827657D03*
%TO.P,J6,A8,A8*%
%TO.N,/SDA*%
X211062856Y118827657D03*
%TO.P,J6,A9,A9*%
%TO.N,+3.3V*%
X209062856Y117827657D03*
%TO.P,J6,A10,A10*%
X211062856Y116827657D03*
%TO.P,J6,A11,A11*%
%TO.N,/Spare7*%
X209062856Y115827657D03*
%TO.P,J6,A12,A12*%
%TO.N,Sl5Lt*%
X211062856Y112827657D03*
%TO.P,J6,A13,A13*%
%TO.N,+5V*%
X209062856Y111827657D03*
%TO.P,J6,A14,A14*%
X211062856Y110827657D03*
%TO.P,J6,A15,A15*%
%TO.N,GND*%
X209062856Y109827657D03*
%TO.P,J6,A16,A16*%
%TO.N,/EstpCh1*%
X211062856Y108827657D03*
%TO.P,J6,A17,A17*%
%TO.N,/EstpCh2*%
X209062856Y107827657D03*
%TO.P,J6,A18,A18*%
%TO.N,GND*%
X211062856Y106827657D03*
%TO.P,J6,B1,B1*%
%TO.N,+12V*%
X206562856Y125827657D03*
%TO.P,J6,B2,B2*%
X204562856Y124827657D03*
%TO.P,J6,B3,B3*%
X206562856Y123827657D03*
%TO.P,J6,B4,B4*%
%TO.N,GND*%
X204562856Y122827657D03*
%TO.P,J6,B5,B5*%
%TO.N,/CANH*%
X206562856Y121827657D03*
%TO.P,J6,B6,B6*%
%TO.N,/CANL*%
X204562856Y120827657D03*
%TO.P,J6,B7,B7*%
%TO.N,GND*%
X206562856Y119827657D03*
%TO.P,J6,B8,B8*%
%TO.N,+3.3V*%
X204562856Y118827657D03*
%TO.P,J6,B9,B9*%
%TO.N,/SYNC*%
X206562856Y117827657D03*
%TO.P,J6,B10,B10*%
%TO.N,/Spare1*%
X204562856Y116827657D03*
%TO.P,J6,B11,B11*%
%TO.N,/Spare2*%
X206562856Y115827657D03*
%TO.P,J6,B12,B12*%
%TO.N,/Spare3*%
X204562856Y112827657D03*
%TO.P,J6,B13,B13*%
%TO.N,/Spare4*%
X206562856Y111827657D03*
%TO.P,J6,B14,B14*%
%TO.N,+5V*%
X204562856Y110827657D03*
%TO.P,J6,B15,B15*%
X206562856Y109827657D03*
%TO.P,J6,B16,B16*%
%TO.N,GND*%
X204562856Y108827657D03*
%TO.P,J6,B17,B17*%
%TO.N,Sl5Prs*%
X206562856Y107827657D03*
%TO.P,J6,B18,B18*%
%TO.N,GND*%
X204562856Y106827657D03*
%TD*%
D12*
%TO.P,D19,1,K*%
%TO.N,GND*%
X-1491000Y190056000D03*
D13*
%TO.P,D19,2,A*%
%TO.N,Net-(D19-A)*%
X1049000Y190056000D03*
%TD*%
D16*
%TO.P,R18,1*%
%TO.N,Sl6Lt*%
X259469140Y46165000D03*
%TO.P,R18,2*%
%TO.N,Net-(D14-A)*%
X256369140Y46165000D03*
%TD*%
D15*
%TO.P,TP3,1,1*%
%TO.N,+12V*%
X84061200Y194120000D03*
%TD*%
D16*
%TO.P,R10,1*%
%TO.N,Sl6Prs*%
X247260000Y46165000D03*
%TO.P,R10,2*%
%TO.N,Net-(D6-A)*%
X244160000Y46165000D03*
%TD*%
%TO.P,R2,1*%
%TO.N,/CANH*%
X312230000Y196025000D03*
%TO.P,R2,2*%
%TO.N,Net-(JP1-B)*%
X309130000Y196025000D03*
%TD*%
%TO.P,R11,1*%
%TO.N,Sl7Prs*%
X285560000Y46165000D03*
%TO.P,R11,2*%
%TO.N,Net-(D7-A)*%
X282460000Y46165000D03*
%TD*%
D28*
%TO.P,J12,1,Pin_1*%
%TO.N,/CANH*%
X339895000Y191885000D03*
D29*
%TO.P,J12,2,Pin_2*%
%TO.N,/CANL*%
X334815000Y191885000D03*
%TO.P,J12,3,Pin_3*%
%TO.N,GND*%
X329735000Y191885000D03*
%TD*%
D30*
%TO.P,R1,1*%
%TO.N,/CANH*%
X28740000Y76290000D03*
%TO.P,R1,2*%
%TO.N,Net-(C1-Pad1)*%
X28740000Y73190000D03*
%TD*%
D12*
%TO.P,D4,1,K*%
%TO.N,GND*%
X162286713Y46165000D03*
D13*
%TO.P,D4,2,A*%
%TO.N,Net-(D4-A)*%
X164826713Y46165000D03*
%TD*%
D12*
%TO.P,D5,1,K*%
%TO.N,GND*%
X200369284Y46165000D03*
D13*
%TO.P,D5,2,A*%
%TO.N,Net-(D5-A)*%
X202909284Y46165000D03*
%TD*%
D17*
%TO.P,J1,A1,A1*%
%TO.N,+12V*%
X56640000Y125827657D03*
D18*
%TO.P,J1,A2,A2*%
X58640000Y124827657D03*
%TO.P,J1,A3,A3*%
X56640000Y123827657D03*
%TO.P,J1,A4,A4*%
%TO.N,GND*%
X58640000Y122827657D03*
%TO.P,J1,A5,A5*%
%TO.N,/Spare5*%
X56640000Y121827657D03*
%TO.P,J1,A6,A6*%
%TO.N,/Spare6*%
X58640000Y120827657D03*
%TO.P,J1,A7,A7*%
%TO.N,/SCL*%
X56640000Y119827657D03*
%TO.P,J1,A8,A8*%
%TO.N,/SDA*%
X58640000Y118827657D03*
%TO.P,J1,A9,A9*%
%TO.N,+3.3V*%
X56640000Y117827657D03*
%TO.P,J1,A10,A10*%
X58640000Y116827657D03*
%TO.P,J1,A11,A11*%
%TO.N,/Spare7*%
X56640000Y115827657D03*
%TO.P,J1,A12,A12*%
%TO.N,Sl1Lt*%
X58640000Y112827657D03*
%TO.P,J1,A13,A13*%
%TO.N,+5V*%
X56640000Y111827657D03*
%TO.P,J1,A14,A14*%
X58640000Y110827657D03*
%TO.P,J1,A15,A15*%
%TO.N,GND*%
X56640000Y109827657D03*
%TO.P,J1,A16,A16*%
%TO.N,/EstpCh1*%
X58640000Y108827657D03*
%TO.P,J1,A17,A17*%
%TO.N,/EstpCh2*%
X56640000Y107827657D03*
%TO.P,J1,A18,A18*%
%TO.N,GND*%
X58640000Y106827657D03*
%TO.P,J1,B1,B1*%
%TO.N,+12V*%
X54140000Y125827657D03*
%TO.P,J1,B2,B2*%
X52140000Y124827657D03*
%TO.P,J1,B3,B3*%
X54140000Y123827657D03*
%TO.P,J1,B4,B4*%
%TO.N,GND*%
X52140000Y122827657D03*
%TO.P,J1,B5,B5*%
%TO.N,/CANH*%
X54140000Y121827657D03*
%TO.P,J1,B6,B6*%
%TO.N,/CANL*%
X52140000Y120827657D03*
%TO.P,J1,B7,B7*%
%TO.N,GND*%
X54140000Y119827657D03*
%TO.P,J1,B8,B8*%
%TO.N,+3.3V*%
X52140000Y118827657D03*
%TO.P,J1,B9,B9*%
%TO.N,/SYNC*%
X54140000Y117827657D03*
%TO.P,J1,B10,B10*%
%TO.N,/Spare1*%
X52140000Y116827657D03*
%TO.P,J1,B11,B11*%
%TO.N,/Spare2*%
X54140000Y115827657D03*
%TO.P,J1,B12,B12*%
%TO.N,/Spare3*%
X52140000Y112827657D03*
%TO.P,J1,B13,B13*%
%TO.N,/Spare4*%
X54140000Y111827657D03*
%TO.P,J1,B14,B14*%
%TO.N,+5V*%
X52140000Y110827657D03*
%TO.P,J1,B15,B15*%
X54140000Y109827657D03*
%TO.P,J1,B16,B16*%
%TO.N,GND*%
X52140000Y108827657D03*
%TO.P,J1,B17,B17*%
%TO.N,Sl1Prs*%
X54140000Y107827657D03*
%TO.P,J1,B18,B18*%
%TO.N,GND*%
X52140000Y106827657D03*
%TD*%
D12*
%TO.P,D3,1,K*%
%TO.N,GND*%
X124204142Y46165000D03*
D13*
%TO.P,D3,2,A*%
%TO.N,Net-(D3-A)*%
X126744142Y46165000D03*
%TD*%
D16*
%TO.P,R12,1*%
%TO.N,Sl8Prs*%
X323406000Y46165000D03*
%TO.P,R12,2*%
%TO.N,Net-(D8-A)*%
X320306000Y46165000D03*
%TD*%
D12*
%TO.P,D12,1,K*%
%TO.N,GND*%
X174785000Y46165000D03*
D13*
%TO.P,D12,2,A*%
%TO.N,Net-(D12-A)*%
X177325000Y46165000D03*
%TD*%
D12*
%TO.P,D1,1,K*%
%TO.N,GND*%
X48039000Y46165000D03*
D13*
%TO.P,D1,2,A*%
%TO.N,Net-(D1-A)*%
X50579000Y46165000D03*
%TD*%
D12*
%TO.P,D9,1,K*%
%TO.N,GND*%
X60485000Y46165000D03*
D13*
%TO.P,D9,2,A*%
%TO.N,Net-(D9-A)*%
X63025000Y46165000D03*
%TD*%
D10*
%TO.P,JP2,1,A*%
%TO.N,+12V*%
X4864000Y176340000D03*
D11*
%TO.P,JP2,2,C*%
%TO.N,Net-(J9-Pin_2)*%
X2324000Y176340000D03*
%TO.P,JP2,3,B*%
%TO.N,+5V*%
X-216000Y176340000D03*
%TD*%
D15*
%TO.P,TP4,1,1*%
%TO.N,GND*%
X101180800Y194120000D03*
%TD*%
D16*
%TO.P,R7,1*%
%TO.N,Sl3Prs*%
X133080000Y46165000D03*
%TO.P,R7,2*%
%TO.N,Net-(D3-A)*%
X129980000Y46165000D03*
%TD*%
%TO.P,R9,1*%
%TO.N,Sl5Prs*%
X209360000Y46165000D03*
%TO.P,R9,2*%
%TO.N,Net-(D5-A)*%
X206260000Y46165000D03*
%TD*%
D17*
%TO.P,J7,A1,A1*%
%TO.N,+12V*%
X247168570Y125827657D03*
D18*
%TO.P,J7,A2,A2*%
X249168570Y124827657D03*
%TO.P,J7,A3,A3*%
X247168570Y123827657D03*
%TO.P,J7,A4,A4*%
%TO.N,GND*%
X249168570Y122827657D03*
%TO.P,J7,A5,A5*%
%TO.N,/Spare5*%
X247168570Y121827657D03*
%TO.P,J7,A6,A6*%
%TO.N,/Spare6*%
X249168570Y120827657D03*
%TO.P,J7,A7,A7*%
%TO.N,/SCL*%
X247168570Y119827657D03*
%TO.P,J7,A8,A8*%
%TO.N,/SDA*%
X249168570Y118827657D03*
%TO.P,J7,A9,A9*%
%TO.N,+3.3V*%
X247168570Y117827657D03*
%TO.P,J7,A10,A10*%
X249168570Y116827657D03*
%TO.P,J7,A11,A11*%
%TO.N,/Spare7*%
X247168570Y115827657D03*
%TO.P,J7,A12,A12*%
%TO.N,Sl6Lt*%
X249168570Y112827657D03*
%TO.P,J7,A13,A13*%
%TO.N,+5V*%
X247168570Y111827657D03*
%TO.P,J7,A14,A14*%
X249168570Y110827657D03*
%TO.P,J7,A15,A15*%
%TO.N,GND*%
X247168570Y109827657D03*
%TO.P,J7,A16,A16*%
%TO.N,/EstpCh1*%
X249168570Y108827657D03*
%TO.P,J7,A17,A17*%
%TO.N,/EstpCh2*%
X247168570Y107827657D03*
%TO.P,J7,A18,A18*%
%TO.N,GND*%
X249168570Y106827657D03*
%TO.P,J7,B1,B1*%
%TO.N,+12V*%
X244668570Y125827657D03*
%TO.P,J7,B2,B2*%
X242668570Y124827657D03*
%TO.P,J7,B3,B3*%
X244668570Y123827657D03*
%TO.P,J7,B4,B4*%
%TO.N,GND*%
X242668570Y122827657D03*
%TO.P,J7,B5,B5*%
%TO.N,/CANH*%
X244668570Y121827657D03*
%TO.P,J7,B6,B6*%
%TO.N,/CANL*%
X242668570Y120827657D03*
%TO.P,J7,B7,B7*%
%TO.N,GND*%
X244668570Y119827657D03*
%TO.P,J7,B8,B8*%
%TO.N,+3.3V*%
X242668570Y118827657D03*
%TO.P,J7,B9,B9*%
%TO.N,/SYNC*%
X244668570Y117827657D03*
%TO.P,J7,B10,B10*%
%TO.N,/Spare1*%
X242668570Y116827657D03*
%TO.P,J7,B11,B11*%
%TO.N,/Spare2*%
X244668570Y115827657D03*
%TO.P,J7,B12,B12*%
%TO.N,/Spare3*%
X242668570Y112827657D03*
%TO.P,J7,B13,B13*%
%TO.N,/Spare4*%
X244668570Y111827657D03*
%TO.P,J7,B14,B14*%
%TO.N,+5V*%
X242668570Y110827657D03*
%TO.P,J7,B15,B15*%
X244668570Y109827657D03*
%TO.P,J7,B16,B16*%
%TO.N,GND*%
X242668570Y108827657D03*
%TO.P,J7,B17,B17*%
%TO.N,Sl6Prs*%
X244668570Y107827657D03*
%TO.P,J7,B18,B18*%
%TO.N,GND*%
X242668570Y106827657D03*
%TD*%
D17*
%TO.P,J10,A1,A1*%
%TO.N,+12V*%
X323380000Y125827657D03*
D18*
%TO.P,J10,A2,A2*%
X325380000Y124827657D03*
%TO.P,J10,A3,A3*%
X323380000Y123827657D03*
%TO.P,J10,A4,A4*%
%TO.N,GND*%
X325380000Y122827657D03*
%TO.P,J10,A5,A5*%
%TO.N,/Spare5*%
X323380000Y121827657D03*
%TO.P,J10,A6,A6*%
%TO.N,/Spare6*%
X325380000Y120827657D03*
%TO.P,J10,A7,A7*%
%TO.N,/SCL*%
X323380000Y119827657D03*
%TO.P,J10,A8,A8*%
%TO.N,/SDA*%
X325380000Y118827657D03*
%TO.P,J10,A9,A9*%
%TO.N,+3.3V*%
X323380000Y117827657D03*
%TO.P,J10,A10,A10*%
X325380000Y116827657D03*
%TO.P,J10,A11,A11*%
%TO.N,/Spare7*%
X323380000Y115827657D03*
%TO.P,J10,A12,A12*%
%TO.N,Sl8Lt*%
X325380000Y112827657D03*
%TO.P,J10,A13,A13*%
%TO.N,+5V*%
X323380000Y111827657D03*
%TO.P,J10,A14,A14*%
X325380000Y110827657D03*
%TO.P,J10,A15,A15*%
%TO.N,GND*%
X323380000Y109827657D03*
%TO.P,J10,A16,A16*%
%TO.N,/EstpCh1*%
X325380000Y108827657D03*
%TO.P,J10,A17,A17*%
%TO.N,/EstpCh2*%
X323380000Y107827657D03*
%TO.P,J10,A18,A18*%
%TO.N,GND*%
X325380000Y106827657D03*
%TO.P,J10,B1,B1*%
%TO.N,+12V*%
X320880000Y125827657D03*
%TO.P,J10,B2,B2*%
X318880000Y124827657D03*
%TO.P,J10,B3,B3*%
X320880000Y123827657D03*
%TO.P,J10,B4,B4*%
%TO.N,GND*%
X318880000Y122827657D03*
%TO.P,J10,B5,B5*%
%TO.N,/CANH*%
X320880000Y121827657D03*
%TO.P,J10,B6,B6*%
%TO.N,/CANL*%
X318880000Y120827657D03*
%TO.P,J10,B7,B7*%
%TO.N,GND*%
X320880000Y119827657D03*
%TO.P,J10,B8,B8*%
%TO.N,+3.3V*%
X318880000Y118827657D03*
%TO.P,J10,B9,B9*%
%TO.N,/SYNC*%
X320880000Y117827657D03*
%TO.P,J10,B10,B10*%
%TO.N,/Spare1*%
X318880000Y116827657D03*
%TO.P,J10,B11,B11*%
%TO.N,/Spare2*%
X320880000Y115827657D03*
%TO.P,J10,B12,B12*%
%TO.N,/Spare3*%
X318880000Y112827657D03*
%TO.P,J10,B13,B13*%
%TO.N,/Spare4*%
X320880000Y111827657D03*
%TO.P,J10,B14,B14*%
%TO.N,+5V*%
X318880000Y110827657D03*
%TO.P,J10,B15,B15*%
X320880000Y109827657D03*
%TO.P,J10,B16,B16*%
%TO.N,GND*%
X318880000Y108827657D03*
%TO.P,J10,B17,B17*%
%TO.N,Sl8Prs*%
X320880000Y107827657D03*
%TO.P,J10,B18,B18*%
%TO.N,GND*%
X318880000Y106827657D03*
%TD*%
D15*
%TO.P,TP1,1,1*%
%TO.N,+5V*%
X49822000Y194120000D03*
%TD*%
D33*
%TO.N,/Spare5*%
X286296000Y135954000D03*
X133896000Y135954000D03*
X325539000Y135954000D03*
X210096000Y135954000D03*
X95796000Y135954000D03*
X248196000Y135954000D03*
X171996000Y135954000D03*
X57696000Y135954000D03*
%TO.N,/Spare6*%
X61887000Y137478000D03*
X328206000Y137478000D03*
X100114000Y137478000D03*
X252387000Y137478000D03*
X214160000Y137478000D03*
X176060000Y137478000D03*
X137833000Y137478000D03*
X290106000Y137478000D03*
%TO.N,GND*%
X31280000Y64580000D03*
X-18250000Y41085000D03*
X18580000Y48705000D03*
X332270000Y122746000D03*
X101130000Y189040000D03*
X42710000Y91250000D03*
X23660000Y58750500D03*
X36360000Y48705000D03*
X45758000Y108776000D03*
%TO.N,/Spare7*%
X140119000Y139256000D03*
X329730000Y139256000D03*
X63919000Y139256000D03*
X254546000Y139256000D03*
X291757000Y139256000D03*
X177965000Y139256000D03*
X215938000Y139256000D03*
X102273000Y139256000D03*
%TO.N,/SYNC*%
X277025000Y132906000D03*
X125006000Y132906000D03*
X201206000Y132906000D03*
X48044000Y132906000D03*
X239306000Y132906000D03*
X314871000Y132906000D03*
X86271000Y132906000D03*
X162852000Y132906000D03*
%TO.N,/Spare1*%
X124244000Y133922000D03*
X85509000Y133922000D03*
X314109000Y133922000D03*
X276263000Y133922000D03*
X238417000Y133922000D03*
X47282000Y133922000D03*
X162090000Y133922000D03*
X200444000Y133922000D03*
%TO.N,/Spare2*%
X275501000Y135065000D03*
X199682000Y135065000D03*
X123482000Y135065000D03*
X46393000Y135065000D03*
X161328000Y135065000D03*
X313220000Y135065000D03*
X237655000Y135065000D03*
X84747000Y135065000D03*
%TO.N,/Spare3*%
X239306000Y98870000D03*
X315506000Y98870000D03*
X48933000Y98870000D03*
X163233000Y98870000D03*
X86779000Y98743000D03*
X201206000Y98870000D03*
X124244000Y98870000D03*
X277533000Y98743000D03*
%TO.N,+5V*%
X16040000Y95060000D03*
%TO.N,/Spare4*%
X125006000Y99632000D03*
X201930500Y99632000D03*
X240068000Y99632000D03*
X164122000Y99632000D03*
X278257500Y99632000D03*
X49657500Y99594500D03*
X87668000Y99632000D03*
X316395000Y99632000D03*
%TO.N,/CANL*%
X87160000Y132017000D03*
X315633000Y132017000D03*
X48806000Y132017000D03*
X201968000Y132017000D03*
X163741000Y132017000D03*
X240068000Y132017000D03*
X125768000Y132017000D03*
X278041000Y132017000D03*
X35852000Y132017000D03*
%TO.N,/CANH*%
X49822000Y131128000D03*
X316522000Y131128000D03*
X278676000Y131128000D03*
X240703000Y131128000D03*
X126507928Y131128000D03*
X164503000Y131128000D03*
X87922000Y131128000D03*
X34963000Y131128000D03*
X202719356Y131128000D03*
%TO.N,+3.3V*%
X-10086000Y182146000D03*
X61760000Y194120000D03*
X-4026000Y120587000D03*
%TO.N,/EstpCh1*%
X174155000Y101156000D03*
X288328000Y101156000D03*
X326682000Y101156000D03*
X59728000Y101156000D03*
X97828000Y101156000D03*
X212128000Y101156000D03*
X250228000Y101156000D03*
X55664000Y66104000D03*
X136055000Y101156000D03*
%TO.N,/EstpCh2*%
X249212000Y102045000D03*
X96812000Y102045000D03*
X58712000Y102172000D03*
X173430500Y102045000D03*
X287312000Y102045000D03*
X135230043Y102045000D03*
X211112000Y102045000D03*
X57183701Y68648299D03*
X325957500Y102117046D03*
%TO.N,ESP 3V3*%
X14135000Y93790000D03*
X26200000Y58750500D03*
%TO.N,Sl1Prs*%
X55156000Y48324000D03*
%TO.N,Sl2Prs*%
X93256000Y49340000D03*
%TO.N,Sl3Prs*%
X131356000Y49340000D03*
%TO.N,Sl4Prs*%
X169456000Y48832000D03*
%TO.N,Sl5Prs*%
X208064000Y49340000D03*
%TO.N,Sl6Prs*%
X247180000Y48324000D03*
%TO.N,Sl7Prs*%
X285280000Y48832000D03*
%TO.N,Sl8Prs*%
X323380000Y48832000D03*
%TO.N,Sl2Lt*%
X107480000Y48324000D03*
%TO.N,Sl3Lt*%
X145580000Y47816000D03*
%TO.N,Sl4Lt*%
X183680000Y48324000D03*
%TO.N,Sl5Lt*%
X221780000Y47816000D03*
%TO.N,Sl6Lt*%
X259372000Y48832000D03*
%TO.N,Sl7Lt*%
X297472000Y48324000D03*
%TO.N,Sl8Lt*%
X335572000Y48324000D03*
%TO.N,Sl1Lt*%
X69380000Y47816000D03*
%TO.N,/SCL*%
X60998000Y136716000D03*
X213271000Y136716000D03*
X175044000Y136716000D03*
X327317000Y136716000D03*
X98971000Y136716000D03*
X289217000Y136716000D03*
X136817000Y136716000D03*
X41948000Y136716000D03*
X251371000Y136716000D03*
%TO.N,/SDA*%
X215049000Y138367000D03*
X176949000Y138367000D03*
X253530000Y138367000D03*
X44615000Y138367000D03*
X290995000Y138367000D03*
X328968000Y138367000D03*
X62903000Y138367000D03*
X138976000Y138367000D03*
X101130000Y138367000D03*
%TO.N,CLK*%
X24930000Y58750500D03*
X23025000Y60770000D03*
%TO.N,MOSI*%
X27687993Y58750969D03*
X26200000Y63310000D03*
X9055000Y63310000D03*
%TD*%
D34*
%TO.N,/Spare5*%
X57696000Y135954000D02*
X95796000Y135954000D01*
X248196000Y135954000D02*
X286296000Y135954000D01*
X286296000Y135954000D02*
X325539000Y135954000D01*
X95796000Y135954000D02*
X248196000Y135954000D01*
%TO.N,/Spare6*%
X100114000Y137478000D02*
X137833000Y137478000D01*
X290106000Y137478000D02*
X328206000Y137478000D01*
X61887000Y137478000D02*
X100114000Y137478000D01*
X252387000Y137478000D02*
X290106000Y137478000D01*
X176060000Y137478000D02*
X214160000Y137478000D01*
X214160000Y137478000D02*
X252387000Y137478000D01*
X137833000Y137478000D02*
X176060000Y137478000D01*
D35*
%TO.N,GND*%
X172913142Y106783657D02*
X169710000Y106783657D01*
X55596000Y106842657D02*
X55596000Y108783657D01*
X204580000Y122317561D02*
X204580000Y122794000D01*
X207810000Y106783657D02*
X204606856Y106783657D01*
X332188343Y122827657D02*
X332270000Y122746000D01*
X168480000Y119794000D02*
X168480000Y120317561D01*
X206580000Y120317561D02*
X204580000Y122317561D01*
X31280000Y66827500D02*
X31280000Y64580000D01*
X242712570Y106783657D02*
X242668570Y106827657D01*
X52140000Y108827657D02*
X45809657Y108827657D01*
X128395428Y106783657D02*
X128351428Y106827657D01*
X-18250000Y42443500D02*
X-18250000Y41085000D01*
X207810000Y108574801D02*
X207810000Y106783657D01*
X245910000Y108569087D02*
X245910000Y106783657D01*
X136851428Y108827657D02*
X134851428Y106827657D01*
X280774284Y108827657D02*
X251168570Y108827657D01*
X90280000Y122317561D02*
X90280000Y122794000D01*
X168480000Y120317561D02*
X166480000Y122317561D01*
X211062856Y122827657D02*
X242668570Y122827657D01*
X134851428Y122827657D02*
X166457142Y122827657D01*
X245910000Y106783657D02*
X242712570Y106783657D01*
X134851428Y106827657D02*
X134807428Y106783657D01*
X318880000Y122317561D02*
X318880000Y122794000D01*
X247168570Y109827657D02*
X245910000Y108569087D01*
X211018856Y106783657D02*
X207810000Y106783657D01*
X92280000Y119794000D02*
X92280000Y120317561D01*
X287230284Y106783657D02*
X284010000Y106783657D01*
X282780000Y119794000D02*
X282780000Y120317561D01*
X284010000Y106783657D02*
X280818284Y106783657D01*
X130380000Y119794000D02*
X130380000Y120317561D01*
X24685000Y57725500D02*
X24685000Y56505000D01*
X94745714Y109827657D02*
X93510000Y108591943D01*
X131483000Y106783657D02*
X128395428Y106783657D01*
X55918000Y106783657D02*
X52184000Y106783657D01*
X249168570Y122827657D02*
X280774284Y122827657D01*
X20115000Y48705000D02*
X18580000Y48705000D01*
X242668570Y108827657D02*
X213062856Y108827657D01*
X172957142Y106827657D02*
X172913142Y106783657D01*
X318880000Y108827657D02*
X289274284Y108827657D01*
X52184000Y106783657D02*
X52140000Y106827657D01*
X174957142Y108827657D02*
X172957142Y106827657D01*
X130380000Y120317561D02*
X128380000Y122317561D01*
X34455000Y48705000D02*
X36360000Y48705000D01*
X96745714Y122827657D02*
X128351428Y122827657D01*
X280818284Y106783657D02*
X280774284Y106827657D01*
X170957142Y109827657D02*
X169710000Y108580515D01*
X58640000Y122827657D02*
X90245714Y122827657D01*
X101180800Y194120000D02*
X101180800Y189090800D01*
X206580000Y119794000D02*
X206580000Y120317561D01*
X284010000Y108563373D02*
X284010000Y106783657D01*
X131610000Y108586229D02*
X132851428Y109827657D01*
X90245714Y108827657D02*
X60640000Y108827657D01*
X325380000Y122827657D02*
X332188343Y122827657D01*
X128380000Y122317561D02*
X128380000Y122794000D01*
X58640000Y106827657D02*
X58596000Y106783657D01*
X172957142Y122827657D02*
X204562856Y122827657D01*
X289274284Y108827657D02*
X287274284Y106827657D01*
X322110000Y108557657D02*
X322110000Y106783657D01*
X166480000Y122317561D02*
X166480000Y122794000D01*
X90289714Y106783657D02*
X90245714Y106827657D01*
X128351428Y108827657D02*
X98745714Y108827657D01*
X322364000Y106783657D02*
X318924000Y106783657D01*
X249168570Y106827657D02*
X249124570Y106783657D01*
X242680000Y122317561D02*
X242680000Y122794000D01*
X287274284Y106827657D02*
X287230284Y106783657D01*
X285274284Y109827657D02*
X284010000Y108563373D01*
X23660000Y58750500D02*
X24685000Y57725500D01*
X55596000Y108783657D02*
X56640000Y109827657D01*
X101180800Y189090800D02*
X101130000Y189040000D01*
X320880000Y120317561D02*
X318880000Y122317561D01*
X93510000Y106783657D02*
X90289714Y106783657D01*
X280780000Y122317561D02*
X280780000Y122794000D01*
X211062856Y106827657D02*
X211018856Y106783657D01*
X134807428Y106783657D02*
X131483000Y106783657D01*
X209062856Y109827657D02*
X207810000Y108574801D01*
X325380000Y106827657D02*
X325336000Y106783657D01*
X323380000Y109827657D02*
X322110000Y108557657D01*
X244680000Y119794000D02*
X244680000Y120317561D01*
X41440000Y91250000D02*
X42710000Y91250000D01*
X320880000Y119794000D02*
X320880000Y120317561D01*
X54140000Y119827657D02*
X54140000Y120351218D01*
X166457142Y108827657D02*
X136851428Y108827657D01*
X92280000Y120317561D02*
X90280000Y122317561D01*
X45809657Y108827657D02*
X45758000Y108776000D01*
X318924000Y106783657D02*
X318880000Y106827657D01*
X204562856Y108827657D02*
X174957142Y108827657D01*
X58596000Y106783657D02*
X55918000Y106783657D01*
X244680000Y120317561D02*
X242680000Y122317561D01*
X169710000Y108580515D02*
X169710000Y106783657D01*
X52140000Y122351218D02*
X52140000Y122827657D01*
X96701714Y106783657D02*
X93510000Y106783657D01*
X251168570Y108827657D02*
X249168570Y106827657D01*
X213062856Y108827657D02*
X211062856Y106827657D01*
X60640000Y108827657D02*
X58640000Y106827657D01*
X96745714Y106827657D02*
X96701714Y106783657D01*
X131483000Y106783657D02*
X131610000Y106910657D01*
X54140000Y120351218D02*
X52140000Y122351218D01*
X325336000Y106783657D02*
X322364000Y106783657D01*
X98745714Y108827657D02*
X96745714Y106827657D01*
X204606856Y106783657D02*
X204562856Y106827657D01*
X131610000Y106910657D02*
X131610000Y108586229D01*
X287274284Y122827657D02*
X318880000Y122827657D01*
X249124570Y106783657D02*
X245910000Y106783657D01*
X93510000Y108591943D02*
X93510000Y106783657D01*
X282780000Y120317561D02*
X280780000Y122317561D01*
X166501142Y106783657D02*
X166457142Y106827657D01*
X169710000Y106783657D02*
X166501142Y106783657D01*
D34*
%TO.N,/Spare7*%
X291757000Y139256000D02*
X329730000Y139256000D01*
X140119000Y139256000D02*
X177965000Y139256000D01*
X215938000Y139256000D02*
X254546000Y139256000D01*
X63919000Y139256000D02*
X102273000Y139256000D01*
X102273000Y139256000D02*
X140119000Y139256000D01*
X254546000Y139256000D02*
X291757000Y139256000D01*
X177965000Y139256000D02*
X215938000Y139256000D01*
%TO.N,Net-(D9-A)*%
X63025000Y46165000D02*
X66047000Y46165000D01*
%TO.N,/SYNC*%
X125006000Y132906000D02*
X162852000Y132906000D01*
X86271000Y132906000D02*
X125006000Y132906000D01*
X162852000Y132906000D02*
X201206000Y132906000D01*
X277025000Y132906000D02*
X314871000Y132906000D01*
X48044000Y132906000D02*
X86271000Y132906000D01*
X201206000Y132906000D02*
X239306000Y132906000D01*
X239306000Y132906000D02*
X277025000Y132906000D01*
%TO.N,/Spare1*%
X85509000Y133922000D02*
X124244000Y133922000D01*
X276263000Y133922000D02*
X314109000Y133922000D01*
X238417000Y133922000D02*
X276263000Y133922000D01*
X162090000Y133922000D02*
X200444000Y133922000D01*
X47282000Y133922000D02*
X85509000Y133922000D01*
X200444000Y133922000D02*
X238417000Y133922000D01*
X124244000Y133922000D02*
X162090000Y133922000D01*
%TO.N,/Spare2*%
X46393000Y135065000D02*
X313220000Y135065000D01*
%TO.N,/Spare3*%
X277406000Y98870000D02*
X277533000Y98743000D01*
X86779000Y98743000D02*
X86906000Y98870000D01*
X239306000Y98870000D02*
X277406000Y98870000D01*
X48933000Y98870000D02*
X86652000Y98870000D01*
X86652000Y98870000D02*
X86779000Y98743000D01*
X86906000Y98870000D02*
X124244000Y98870000D01*
X163233000Y98870000D02*
X201206000Y98870000D01*
X201206000Y98870000D02*
X239306000Y98870000D01*
X277660000Y98870000D02*
X277533000Y98743000D01*
X315506000Y98870000D02*
X277660000Y98870000D01*
X124244000Y98870000D02*
X163233000Y98870000D01*
D36*
%TO.N,+5V*%
X91185000Y110777000D02*
X92185000Y109777000D01*
X96685000Y110777000D02*
X128290714Y110777000D01*
X205612000Y110777000D02*
X206612000Y109777000D01*
X243712000Y110777000D02*
X244712000Y109777000D01*
X52140000Y110827657D02*
X-8933902Y110827657D01*
X130412000Y109777000D02*
X130912000Y109777000D01*
X54640000Y109827657D02*
X56640000Y111827657D01*
D37*
X-26800000Y128693755D02*
X-26800000Y130700000D01*
D36*
X248212000Y111777000D02*
X249212000Y110777000D01*
X7155726Y188606000D02*
X6970000Y188606000D01*
D37*
X-216000Y176340000D02*
X-15400000Y176340000D01*
D36*
X-8933902Y110827657D02*
X272343Y110827657D01*
X249212000Y110777000D02*
X280817714Y110777000D01*
D37*
X-23750000Y142150000D02*
X-23750000Y133750000D01*
D36*
X285185000Y111777000D02*
X286185000Y111777000D01*
X209112000Y111777000D02*
X210112000Y111777000D01*
D37*
X-15400000Y157600000D02*
X-18250000Y154750000D01*
D36*
X320880000Y109827657D02*
X321380000Y109827657D01*
X92685000Y109777000D02*
X94685000Y111777000D01*
X6970000Y188606000D02*
X-2756000Y178880000D01*
X171012000Y111777000D02*
X172012000Y111777000D01*
D37*
X-24526245Y178880000D02*
X-20790000Y178880000D01*
D36*
X12484000Y194120000D02*
X7639000Y189275000D01*
D37*
X-15400000Y177450609D02*
X-15400000Y176340000D01*
D36*
X92185000Y109777000D02*
X92685000Y109777000D01*
X206612000Y109777000D02*
X207112000Y109777000D01*
D37*
X-20790000Y178880000D02*
X-16829391Y178880000D01*
D36*
X324380000Y111827657D02*
X325380000Y110827657D01*
X272343Y110827657D02*
X16040000Y95060000D01*
X-4762000Y190056000D02*
X-2756000Y188050000D01*
X49822000Y194120000D02*
X12484000Y194120000D01*
X7639000Y189089274D02*
X7155726Y188606000D01*
D37*
X-26600000Y145000000D02*
X-26600000Y176806245D01*
D36*
X-2756000Y178880000D02*
X-20790000Y178880000D01*
X245212000Y109777000D02*
X247212000Y111777000D01*
X280685000Y110777000D02*
X281685000Y110777000D01*
D37*
X-17773122Y119666878D02*
X-23170622Y125064378D01*
D36*
X56640000Y111827657D02*
X57640000Y111827657D01*
X129412000Y110777000D02*
X130412000Y109777000D01*
X132912000Y111777000D02*
X133912000Y111777000D01*
X204612000Y110777000D02*
X205612000Y110777000D01*
X283185000Y109777000D02*
X285185000Y111777000D01*
X282685000Y109777000D02*
X283185000Y109777000D01*
X169012000Y109777000D02*
X171012000Y111777000D01*
D38*
X-23345000Y114115000D02*
X-23345000Y124890000D01*
D36*
X128412000Y110777000D02*
X129412000Y110777000D01*
X58640000Y110827657D02*
X90245714Y110827657D01*
D37*
X-23750000Y142150000D02*
X-26600000Y145000000D01*
D36*
X318880000Y110827657D02*
X319880000Y110827657D01*
X7639000Y189275000D02*
X7639000Y189089274D01*
D37*
X-17773122Y119666878D02*
X-17773122Y119666877D01*
D36*
X173012000Y110777000D02*
X204617714Y110777000D01*
X319880000Y110827657D02*
X320880000Y109827657D01*
D37*
X-18250000Y163150000D02*
X-15400000Y160300000D01*
D36*
X287185000Y110777000D02*
X318790714Y110777000D01*
X133912000Y111777000D02*
X134912000Y110777000D01*
X211112000Y110777000D02*
X242717714Y110777000D01*
D37*
X-15400000Y176340000D02*
X-15400000Y160300000D01*
D36*
X52140000Y110827657D02*
X53140000Y110827657D01*
D37*
X-23170622Y125064378D02*
X-26800000Y128693755D01*
D36*
X244712000Y109777000D02*
X245212000Y109777000D01*
X168512000Y109777000D02*
X169012000Y109777000D01*
D37*
X-26600000Y176806245D02*
X-24526245Y178880000D01*
D36*
X242712000Y110777000D02*
X243712000Y110777000D01*
D37*
X-16829391Y178880000D02*
X-15400000Y177450609D01*
D36*
X166512000Y110777000D02*
X167512000Y110777000D01*
D37*
X-15400000Y160300000D02*
X-15400000Y157600000D01*
D36*
X54140000Y109827657D02*
X54640000Y109827657D01*
X57640000Y111827657D02*
X58640000Y110827657D01*
X167512000Y110777000D02*
X168512000Y109777000D01*
X323380000Y111827657D02*
X324380000Y111827657D01*
X-2756000Y188050000D02*
X-2756000Y178880000D01*
X247212000Y111777000D02*
X248212000Y111777000D01*
X95685000Y111777000D02*
X96685000Y110777000D01*
X210112000Y111777000D02*
X211112000Y110777000D01*
D38*
X-23345000Y124890000D02*
X-23170622Y125064378D01*
D37*
X-26800000Y130700000D02*
X-23750000Y133750000D01*
D36*
X281685000Y110777000D02*
X282685000Y109777000D01*
X130912000Y109777000D02*
X132912000Y111777000D01*
X134912000Y110777000D02*
X166517714Y110777000D01*
X172012000Y111777000D02*
X173012000Y110777000D01*
D37*
X-17773122Y119666877D02*
X-8933902Y110827657D01*
D36*
X94685000Y111777000D02*
X95685000Y111777000D01*
X207112000Y109777000D02*
X209112000Y111777000D01*
X90185000Y110777000D02*
X91185000Y110777000D01*
X53140000Y110827657D02*
X54140000Y109827657D01*
X321380000Y109827657D02*
X323380000Y111827657D01*
X286185000Y111777000D02*
X287185000Y110777000D01*
D34*
%TO.N,/Spare4*%
X49695000Y99632000D02*
X87668000Y99632000D01*
X49657500Y99594500D02*
X49695000Y99632000D01*
X87668000Y99632000D02*
X125006000Y99632000D01*
X125006000Y99632000D02*
X164122000Y99632000D01*
X201930500Y99632000D02*
X278257500Y99632000D01*
X278257500Y99632000D02*
X316395000Y99632000D01*
X164122000Y99632000D02*
X201930500Y99632000D01*
D36*
%TO.N,+12V*%
X134912000Y124777000D02*
X166517714Y124777000D01*
X167512000Y124777000D02*
X168512000Y123777000D01*
X280824941Y124777000D02*
X281685000Y124777000D01*
X166457142Y124827657D02*
X166507799Y124777000D01*
X286185000Y123777000D02*
X287185000Y124777000D01*
X130412000Y123777000D02*
X132912000Y123777000D01*
D37*
X4864000Y176340000D02*
X4864000Y173490000D01*
D36*
X50888600Y196695000D02*
X13053000Y196695000D01*
X320880000Y123827657D02*
X323380000Y123827657D01*
X281685000Y124777000D02*
X282685000Y125777000D01*
D37*
X4864000Y173490000D02*
X-4489000Y164137000D01*
D36*
X243712000Y124777000D02*
X244712000Y123777000D01*
X84061200Y194120000D02*
X77228600Y187287400D01*
X242668570Y124827657D02*
X242719227Y124777000D01*
X132912000Y123777000D02*
X133912000Y123777000D01*
D37*
X-18250000Y133750000D02*
X-4489000Y133750000D01*
D36*
X204562856Y124827657D02*
X204613513Y124777000D01*
X211112000Y124777000D02*
X242717714Y124777000D01*
X323380000Y123827657D02*
X324380000Y123827657D01*
X166507799Y124777000D02*
X167512000Y124777000D01*
X172012000Y123777000D02*
X173012000Y124777000D01*
X205612000Y124777000D02*
X206612000Y123777000D01*
X205612000Y124777000D02*
X206612000Y125777000D01*
X324380000Y123827657D02*
X325380000Y124827657D01*
X209112000Y123777000D02*
X210112000Y123777000D01*
X243712000Y124777000D02*
X244712000Y125777000D01*
X60296200Y187287400D02*
X50888600Y196695000D01*
X133912000Y123777000D02*
X134912000Y124777000D01*
X32550000Y142608800D02*
X4369800Y142608800D01*
X210112000Y123777000D02*
X211112000Y124777000D01*
X173012000Y124777000D02*
X204617714Y124777000D01*
X13053000Y196695000D02*
X6414000Y190056000D01*
X168512000Y123777000D02*
X171012000Y123777000D01*
X280774284Y124827657D02*
X280824941Y124777000D01*
X204613513Y124777000D02*
X205612000Y124777000D01*
X249212000Y124777000D02*
X280817714Y124777000D01*
X77228600Y187287400D02*
X32550000Y142608800D01*
X171012000Y123777000D02*
X172012000Y123777000D01*
X242719227Y124777000D02*
X243712000Y124777000D01*
X167512000Y124777000D02*
X168512000Y125777000D01*
X77228600Y187287400D02*
X60296200Y187287400D01*
X129412000Y124777000D02*
X130412000Y123777000D01*
X128402085Y124777000D02*
X129412000Y124777000D01*
X248212000Y123777000D02*
X249212000Y124777000D01*
X318880000Y124827657D02*
X319880000Y124827657D01*
X282685000Y123777000D02*
X285185000Y123777000D01*
D37*
X-18250000Y137950000D02*
X-18250000Y133750000D01*
D36*
X129412000Y124777000D02*
X130412000Y125777000D01*
X206612000Y123777000D02*
X209112000Y123777000D01*
X319880000Y124827657D02*
X320880000Y123827657D01*
X281685000Y124777000D02*
X282685000Y123777000D01*
D37*
X-4489000Y133750000D02*
X4102000Y125159000D01*
D36*
X4369800Y142608800D02*
X-4489000Y133750000D01*
X319880000Y124827657D02*
X320880000Y125827657D01*
X287185000Y124777000D02*
X318790714Y124777000D01*
D37*
X-4489000Y164137000D02*
X-4489000Y133750000D01*
D34*
X323380000Y125827657D02*
X322411000Y126796657D01*
D36*
X244712000Y123777000D02*
X247212000Y123777000D01*
X128351428Y124827657D02*
X128402085Y124777000D01*
X285185000Y123777000D02*
X286185000Y123777000D01*
X247212000Y123777000D02*
X248212000Y123777000D01*
D34*
%TO.N,/CANL*%
X135420000Y194120000D02*
X129165000Y187865000D01*
X334815000Y133282000D02*
X334815000Y191885000D01*
X312615000Y193510000D02*
X333190000Y193510000D01*
X333550000Y132017000D02*
X334815000Y133282000D01*
X315633000Y132017000D02*
X333550000Y132017000D01*
X278041000Y132017000D02*
X240068000Y132017000D01*
X33820000Y86170000D02*
X31280000Y83630000D01*
X315633000Y132017000D02*
X278041000Y132017000D01*
X240068000Y132017000D02*
X201968000Y132017000D01*
X333190000Y193510000D02*
X334815000Y191885000D01*
X125768000Y132017000D02*
X87160000Y132017000D01*
X31280000Y83630000D02*
X31280000Y76290000D01*
X163741000Y132017000D02*
X125768000Y132017000D01*
X48806000Y132017000D02*
X35852000Y132017000D01*
X201968000Y132017000D02*
X163741000Y132017000D01*
X311955000Y192850000D02*
X312615000Y193510000D01*
X91700000Y187865000D02*
X35852000Y132017000D01*
X87160000Y132017000D02*
X48806000Y132017000D01*
X129165000Y187865000D02*
X91700000Y187865000D01*
%TO.N,/CANH*%
X49822000Y131128000D02*
X34963000Y131128000D01*
X87922000Y131128000D02*
X126507928Y131128000D01*
X333424396Y131255000D02*
X316649000Y131255000D01*
X339895000Y191885000D02*
X335265000Y187255000D01*
X28740000Y83630000D02*
X28740000Y76290000D01*
X337820000Y193960000D02*
X314295000Y193960000D01*
X34963000Y131128000D02*
X34963000Y132153305D01*
X339895000Y191885000D02*
X337820000Y193960000D01*
X126507928Y131128000D02*
X164503000Y131128000D01*
X164503000Y131128000D02*
X202719356Y131128000D01*
X34963000Y131128000D02*
X34709000Y131128000D01*
X240703000Y131128000D02*
X278676000Y131128000D01*
X112495400Y188315000D02*
X118300400Y194120000D01*
X314295000Y193960000D02*
X312230000Y196025000D01*
X34963000Y132153305D02*
X91124695Y188315000D01*
X278676000Y131128000D02*
X316522000Y131128000D01*
X91124695Y188315000D02*
X112495400Y188315000D01*
X87922000Y131128000D02*
X49822000Y131128000D01*
X202719356Y131128000D02*
X240703000Y131128000D01*
X335265000Y187255000D02*
X335265000Y133095604D01*
X335265000Y133095604D02*
X333424396Y131255000D01*
X316649000Y131255000D02*
X316522000Y131128000D01*
X33820000Y88710000D02*
X28740000Y83630000D01*
%TO.N,/STBY*%
X33820000Y91250000D02*
X38340000Y91250000D01*
%TO.N,/RX*%
X17285000Y74715000D02*
X7150000Y74715000D01*
X26200000Y83630000D02*
X17285000Y74715000D01*
%TO.N,/TX*%
X12205000Y77255000D02*
X26200000Y91250000D01*
X7150000Y77255000D02*
X12205000Y77255000D01*
%TO.N,+3.3V*%
X55640000Y118827657D02*
X52140000Y118827657D01*
X90245714Y118827657D02*
X93745714Y118827657D01*
D36*
X318123714Y119444000D02*
X318790714Y118777000D01*
X265431657Y118777000D02*
X280817714Y118777000D01*
X172012000Y117777000D02*
X173012000Y116777000D01*
X-2248000Y118809000D02*
X18933086Y118809000D01*
X227331657Y118777000D02*
X242717714Y118777000D01*
D37*
X-18250000Y175750000D02*
X-18250000Y171550000D01*
D34*
X318880000Y118457284D02*
X320540627Y116796657D01*
D36*
X247212000Y117777000D02*
X248212000Y117777000D01*
X286185000Y117777000D02*
X287185000Y116777000D01*
X209112000Y117777000D02*
X210112000Y117777000D01*
X72859657Y116827657D02*
X74859657Y118827657D01*
X285185000Y117777000D02*
X286185000Y117777000D01*
D34*
X56640000Y117827657D02*
X55640000Y118827657D01*
X204562856Y118827657D02*
X208062856Y118827657D01*
X93745714Y118827657D02*
X94745714Y117827657D01*
D36*
X187231657Y116777000D02*
X189231657Y118777000D01*
D34*
X169957142Y118827657D02*
X170957142Y117827657D01*
X320540627Y116796657D02*
X322349000Y116796657D01*
X318880000Y118827657D02*
X318880000Y118457284D01*
D36*
X287185000Y116777000D02*
X301404657Y116777000D01*
X18933086Y118809000D02*
X18949086Y118825000D01*
D34*
X128351428Y118827657D02*
X131851428Y118827657D01*
X284274284Y118827657D02*
X285274284Y117827657D01*
D36*
X189231657Y118777000D02*
X204617714Y118777000D01*
X151131657Y118777000D02*
X166517714Y118777000D01*
X18949086Y118825000D02*
X20750914Y118825000D01*
X57640000Y117827657D02*
X58640000Y116827657D01*
X58640000Y116827657D02*
X72859657Y116827657D01*
D34*
X131851428Y118827657D02*
X132851428Y117827657D01*
D36*
X301404657Y116777000D02*
X304071657Y119444000D01*
D34*
X166457142Y118827657D02*
X169957142Y118827657D01*
D36*
X132912000Y117777000D02*
X133912000Y117777000D01*
X249212000Y116777000D02*
X263431657Y116777000D01*
X94685000Y117777000D02*
X95685000Y117777000D01*
X173012000Y116777000D02*
X187231657Y116777000D01*
X149131657Y116777000D02*
X151131657Y118777000D01*
X61760000Y194120000D02*
X66941600Y194120000D01*
D34*
X322349000Y116796657D02*
X323380000Y117827657D01*
D36*
X134912000Y116777000D02*
X149131657Y116777000D01*
X304071657Y119444000D02*
X318123714Y119444000D01*
X225331657Y116777000D02*
X227331657Y118777000D01*
X-10086000Y182146000D02*
X-10086000Y183696000D01*
X171012000Y117777000D02*
X172012000Y117777000D01*
X74859657Y118827657D02*
X90245714Y118827657D01*
X112904657Y118777000D02*
X128290714Y118777000D01*
X20750914Y118825000D02*
X20766914Y118809000D01*
X324380000Y117827657D02*
X325380000Y116827657D01*
D34*
X280774284Y118827657D02*
X284274284Y118827657D01*
D36*
X110904657Y116777000D02*
X112904657Y118777000D01*
X52121343Y118809000D02*
X52140000Y118827657D01*
X96685000Y116777000D02*
X110904657Y116777000D01*
X95685000Y117777000D02*
X96685000Y116777000D01*
X248212000Y117777000D02*
X249212000Y116777000D01*
X263431657Y116777000D02*
X265431657Y118777000D01*
X323380000Y117827657D02*
X324380000Y117827657D01*
D34*
X242668570Y118827657D02*
X246168570Y118827657D01*
X208062856Y118827657D02*
X209062856Y117827657D01*
D36*
X210112000Y117777000D02*
X211112000Y116777000D01*
X133912000Y117777000D02*
X134912000Y116777000D01*
X-10086000Y183696000D02*
X-16446000Y190056000D01*
D34*
X246168570Y118827657D02*
X247168570Y117827657D01*
D36*
X-4026000Y120587000D02*
X-2248000Y118809000D01*
X211112000Y116777000D02*
X225331657Y116777000D01*
D37*
X-23750000Y175750000D02*
X-18250000Y175750000D01*
D36*
X56640000Y117827657D02*
X57640000Y117827657D01*
X20766914Y118809000D02*
X52121343Y118809000D01*
D34*
%TO.N,/EstpCh1*%
X136055000Y101156000D02*
X174155000Y101156000D01*
X250228000Y101156000D02*
X288328000Y101156000D01*
X59728000Y101156000D02*
X97828000Y101156000D01*
X212128000Y101156000D02*
X250228000Y101156000D01*
X51575000Y62015000D02*
X55664000Y66104000D01*
X174155000Y101156000D02*
X212128000Y101156000D01*
X288328000Y101156000D02*
X326682000Y101156000D01*
X97828000Y101156000D02*
X136055000Y101156000D01*
X7150000Y62015000D02*
X51575000Y62015000D01*
%TO.N,/EstpCh2*%
X325885454Y102045000D02*
X325957500Y102117046D01*
X287312000Y102045000D02*
X325885454Y102045000D01*
X173430500Y102045000D02*
X211112000Y102045000D01*
X249212000Y102045000D02*
X287312000Y102045000D01*
X58839000Y102045000D02*
X58712000Y102172000D01*
X53124000Y59500000D02*
X7175000Y59500000D01*
X57188000Y68644000D02*
X57188000Y63564000D01*
X135230043Y102045000D02*
X173430500Y102045000D01*
X7175000Y59500000D02*
X7150000Y59475000D01*
X57188000Y63564000D02*
X53124000Y59500000D01*
X57183701Y68648299D02*
X57188000Y68644000D01*
X211112000Y102045000D02*
X249212000Y102045000D01*
X135230043Y102045000D02*
X96812000Y102045000D01*
X96812000Y102045000D02*
X58839000Y102045000D01*
%TO.N,/SPLIT*%
X33820000Y83630000D02*
X33820000Y76290000D01*
%TO.N,Net-(D1-A)*%
X53860000Y46165000D02*
X50579000Y46165000D01*
%TO.N,Net-(D2-A)*%
X91920000Y46165000D02*
X88661571Y46165000D01*
%TO.N,Net-(D3-A)*%
X129980000Y46165000D02*
X126744142Y46165000D01*
%TO.N,Net-(D4-A)*%
X168160000Y46165000D02*
X164826713Y46165000D01*
%TO.N,Net-(D5-A)*%
X206260000Y46165000D02*
X202909284Y46165000D01*
%TO.N,Net-(D7-A)*%
X282460000Y46165000D02*
X279074426Y46165000D01*
%TO.N,Net-(D8-A)*%
X317157000Y46165000D02*
X320306000Y46165000D01*
%TO.N,Net-(D6-A)*%
X244160000Y46165000D02*
X240991855Y46165000D01*
%TO.N,ESP 3V3*%
X-18265000Y111575000D02*
X-18265000Y95050000D01*
X-18265000Y95050000D02*
X-18250000Y95035000D01*
X26200000Y58750500D02*
X26885000Y58065500D01*
X-17005000Y93790000D02*
X-18250000Y95035000D01*
X14135000Y93790000D02*
X-17005000Y93790000D01*
X26885000Y58065500D02*
X26885000Y56505000D01*
D35*
%TO.N,ESP 5V*%
X-18250000Y45568500D02*
X-18250000Y49315000D01*
D34*
X-23345000Y111575000D02*
X-23345000Y54410000D01*
X-23345000Y54410000D02*
X-18250000Y49315000D01*
%TO.N,Net-(JP1-B)*%
X309130000Y196025000D02*
X309415000Y195740000D01*
X309415000Y195740000D02*
X309415000Y192850000D01*
%TO.N,Net-(C1-Pad1)*%
X31280000Y69952500D02*
X31280000Y73190000D01*
X28740000Y73190000D02*
X33820000Y73190000D01*
%TO.N,Sl1Prs*%
X56960000Y46520000D02*
X55156000Y48324000D01*
X56960000Y46165000D02*
X56960000Y46520000D01*
%TO.N,Sl2Prs*%
X95020000Y47576000D02*
X95020000Y46165000D01*
X93256000Y49340000D02*
X95020000Y47576000D01*
%TO.N,Sl3Prs*%
X131356000Y49340000D02*
X133080000Y47616000D01*
X133080000Y47616000D02*
X133080000Y46165000D01*
%TO.N,Sl4Prs*%
X169456000Y48832000D02*
X171260000Y47028000D01*
X171260000Y47028000D02*
X171260000Y46165000D01*
%TO.N,Sl5Prs*%
X209360000Y48044000D02*
X209360000Y46165000D01*
X208064000Y49340000D02*
X209360000Y48044000D01*
%TO.N,Sl6Prs*%
X247260000Y46165000D02*
X247260000Y48244000D01*
X247260000Y48244000D02*
X247180000Y48324000D01*
%TO.N,Sl7Prs*%
X285280000Y46445000D02*
X285280000Y48832000D01*
X285560000Y46165000D02*
X285280000Y46445000D01*
%TO.N,Sl8Prs*%
X323406000Y46165000D02*
X323406000Y48806000D01*
X323406000Y48806000D02*
X323380000Y48832000D01*
%TO.N,Net-(D10-A)*%
X101125000Y46165000D02*
X104111428Y46165000D01*
%TO.N,Net-(D11-A)*%
X139225000Y46165000D02*
X142175856Y46165000D01*
%TO.N,Net-(D12-A)*%
X177325000Y46165000D02*
X180240284Y46165000D01*
%TO.N,Net-(D13-A)*%
X215425000Y46165000D02*
X218304712Y46165000D01*
%TO.N,Net-(D14-A)*%
X253525000Y46165000D02*
X256369140Y46165000D01*
%TO.N,Net-(D15-A)*%
X291625000Y46165000D02*
X294433568Y46165000D01*
%TO.N,Net-(D16-A)*%
X329725000Y46165000D02*
X332498000Y46165000D01*
%TO.N,Sl2Lt*%
X107480000Y48324000D02*
X107480000Y46433572D01*
X107480000Y46433572D02*
X107211428Y46165000D01*
%TO.N,Sl3Lt*%
X145580000Y46469144D02*
X145275856Y46165000D01*
X145580000Y47816000D02*
X145580000Y46469144D01*
%TO.N,Sl4Lt*%
X183680000Y46504716D02*
X183340284Y46165000D01*
X183680000Y48324000D02*
X183680000Y46504716D01*
%TO.N,Sl5Lt*%
X221780000Y46540288D02*
X221404712Y46165000D01*
X221780000Y47816000D02*
X221780000Y46540288D01*
%TO.N,Sl6Lt*%
X259469140Y46165000D02*
X259372000Y46262140D01*
X259372000Y46262140D02*
X259372000Y48832000D01*
%TO.N,Sl7Lt*%
X297533568Y46165000D02*
X297533568Y48262432D01*
X297533568Y48262432D02*
X297472000Y48324000D01*
%TO.N,Sl8Lt*%
X335598000Y46165000D02*
X335598000Y48298000D01*
X335598000Y48298000D02*
X335572000Y48324000D01*
%TO.N,Net-(D17-A)*%
X-19546000Y190056000D02*
X-21811000Y190056000D01*
%TO.N,Net-(D18-A)*%
X-10127000Y190056000D02*
X-7862000Y190056000D01*
%TO.N,Net-(D19-A)*%
X1049000Y190056000D02*
X3314000Y190056000D01*
%TO.N,Sl1Lt*%
X69380000Y47816000D02*
X69380000Y46398000D01*
X69380000Y46398000D02*
X69147000Y46165000D01*
D37*
%TO.N,Net-(J9-Pin_2)*%
X2324000Y178372000D02*
X14567000Y190615000D01*
X14567000Y190615000D02*
X16040000Y190615000D01*
X2324000Y176340000D02*
X2324000Y178372000D01*
D34*
%TO.N,/SCL*%
X41948000Y136716000D02*
X60998000Y136716000D01*
X60998000Y136716000D02*
X98971000Y136716000D01*
X98971000Y136716000D02*
X136817000Y136716000D01*
X136817000Y136716000D02*
X175044000Y136716000D01*
X213271000Y136716000D02*
X251371000Y136716000D01*
X251371000Y136716000D02*
X289217000Y136716000D01*
X289217000Y136716000D02*
X327317000Y136716000D01*
X175044000Y136716000D02*
X213271000Y136716000D01*
%TO.N,/SDA*%
X290995000Y138367000D02*
X328968000Y138367000D01*
X138976000Y138367000D02*
X176949000Y138367000D01*
X215049000Y138367000D02*
X253530000Y138367000D01*
X62903000Y138367000D02*
X101130000Y138367000D01*
X176949000Y138367000D02*
X215049000Y138367000D01*
X101130000Y138367000D02*
X138976000Y138367000D01*
X253530000Y138367000D02*
X290995000Y138367000D01*
X44615000Y138367000D02*
X62903000Y138367000D01*
%TO.N,CLK*%
X-18225000Y84875000D02*
X-18250000Y84875000D01*
X23025000Y60770000D02*
X5880000Y60770000D01*
X25785000Y56505000D02*
X25785000Y57895500D01*
X25785000Y57895500D02*
X24930000Y58750500D01*
X5880000Y60770000D02*
X-18225000Y84875000D01*
%TO.N,MISO*%
X3315000Y58230000D02*
X-18250000Y79795000D01*
X23585000Y56505000D02*
X23585000Y57035000D01*
X23585000Y57035000D02*
X22390000Y58230000D01*
X22390000Y58230000D02*
X3315000Y58230000D01*
%TO.N,MOSI*%
X27985000Y58453962D02*
X27687993Y58750969D01*
X26200000Y63310000D02*
X9055000Y63310000D01*
X27985000Y56505000D02*
X27985000Y58453962D01*
%TO.N,CS*%
X3315000Y55690000D02*
X-18250000Y77255000D01*
X32535000Y56505000D02*
X32535000Y56055000D01*
X13010226Y52530000D02*
X9850226Y55690000D01*
X32535000Y56055000D02*
X29010000Y52530000D01*
X9850226Y55690000D02*
X3315000Y55690000D01*
X29010000Y52530000D02*
X13010226Y52530000D01*
%TD*%
%TA.AperFunction,Conductor*%
%TO.N,+12V*%
G36*
X326879039Y127298315D02*
G01*
X326924794Y127245511D01*
X326936000Y127194000D01*
X326936000Y123660157D01*
X326916315Y123593118D01*
X326863511Y123547363D01*
X326812000Y123536157D01*
X326350913Y123536157D01*
X326283874Y123555842D01*
X326251961Y123585428D01*
X326235356Y123607417D01*
X326077512Y123751312D01*
X326077509Y123751314D01*
X326077508Y123751315D01*
X325895917Y123863751D01*
X325895911Y123863754D01*
X325812482Y123896075D01*
X325696748Y123940910D01*
X325486795Y123980157D01*
X325273205Y123980157D01*
X325063252Y123940910D01*
X325015406Y123922375D01*
X324864088Y123863754D01*
X324864082Y123863751D01*
X324682491Y123751315D01*
X324524643Y123607417D01*
X324395927Y123436970D01*
X324300723Y123245775D01*
X324242270Y123040331D01*
X324226480Y122869928D01*
X324200694Y122804991D01*
X324143893Y122764304D01*
X324074112Y122760784D01*
X324037732Y122775943D01*
X323895917Y122863751D01*
X323895911Y122863754D01*
X323812482Y122896075D01*
X323696748Y122940910D01*
X323486795Y122980157D01*
X323273205Y122980157D01*
X323063252Y122940910D01*
X323015406Y122922375D01*
X322864088Y122863754D01*
X322864082Y122863751D01*
X322703905Y122764573D01*
X322638628Y122746000D01*
X321621372Y122746000D01*
X321556095Y122764573D01*
X321395917Y122863751D01*
X321395911Y122863754D01*
X321312482Y122896075D01*
X321196748Y122940910D01*
X320986795Y122980157D01*
X320773205Y122980157D01*
X320563252Y122940910D01*
X320515406Y122922375D01*
X320364088Y122863754D01*
X320364082Y122863750D01*
X320222267Y122775943D01*
X320154906Y122757388D01*
X320088207Y122778196D01*
X320043346Y122831761D01*
X320033520Y122869924D01*
X320017729Y123040335D01*
X319959278Y123245771D01*
X319864073Y123436969D01*
X319735356Y123607417D01*
X319577512Y123751312D01*
X319577509Y123751314D01*
X319577508Y123751315D01*
X319395917Y123863751D01*
X319395911Y123863754D01*
X319312482Y123896075D01*
X319196748Y123940910D01*
X318986795Y123980157D01*
X318773205Y123980157D01*
X318563252Y123940910D01*
X318515406Y123922375D01*
X318364088Y123863754D01*
X318364082Y123863751D01*
X318182491Y123751315D01*
X318024645Y123607419D01*
X318018153Y123598823D01*
X318008039Y123585429D01*
X317951932Y123543794D01*
X317909087Y123536157D01*
X288245197Y123536157D01*
X288178158Y123555842D01*
X288146245Y123585428D01*
X288129640Y123607417D01*
X287971796Y123751312D01*
X287971793Y123751314D01*
X287971792Y123751315D01*
X287790201Y123863751D01*
X287790195Y123863754D01*
X287706766Y123896075D01*
X287591032Y123940910D01*
X287381079Y123980157D01*
X287167489Y123980157D01*
X286957536Y123940910D01*
X286909690Y123922375D01*
X286758372Y123863754D01*
X286758366Y123863751D01*
X286576775Y123751315D01*
X286418927Y123607417D01*
X286290211Y123436970D01*
X286195007Y123245775D01*
X286136554Y123040331D01*
X286120764Y122869928D01*
X286094978Y122804991D01*
X286038177Y122764304D01*
X285968396Y122760784D01*
X285932016Y122775943D01*
X285790201Y122863751D01*
X285790195Y122863754D01*
X285706766Y122896075D01*
X285591032Y122940910D01*
X285381079Y122980157D01*
X285167489Y122980157D01*
X284957536Y122940910D01*
X284909690Y122922375D01*
X284758372Y122863754D01*
X284758366Y122863751D01*
X284598189Y122764573D01*
X284532912Y122746000D01*
X283515656Y122746000D01*
X283450379Y122764573D01*
X283290201Y122863751D01*
X283290195Y122863754D01*
X283206766Y122896075D01*
X283091032Y122940910D01*
X282881079Y122980157D01*
X282667489Y122980157D01*
X282457536Y122940910D01*
X282409690Y122922375D01*
X282258372Y122863754D01*
X282258366Y122863750D01*
X282116551Y122775943D01*
X282049190Y122757388D01*
X281982491Y122778196D01*
X281937630Y122831761D01*
X281927804Y122869924D01*
X281912013Y123040335D01*
X281853562Y123245771D01*
X281758357Y123436969D01*
X281629640Y123607417D01*
X281471796Y123751312D01*
X281471793Y123751314D01*
X281471792Y123751315D01*
X281290201Y123863751D01*
X281290195Y123863754D01*
X281206766Y123896075D01*
X281091032Y123940910D01*
X280881079Y123980157D01*
X280667489Y123980157D01*
X280457536Y123940910D01*
X280409690Y123922375D01*
X280258372Y123863754D01*
X280258366Y123863751D01*
X280076775Y123751315D01*
X279918929Y123607419D01*
X279912437Y123598823D01*
X279902323Y123585429D01*
X279846216Y123543794D01*
X279803371Y123536157D01*
X250139483Y123536157D01*
X250072444Y123555842D01*
X250040531Y123585428D01*
X250023926Y123607417D01*
X249866082Y123751312D01*
X249866079Y123751314D01*
X249866078Y123751315D01*
X249684487Y123863751D01*
X249684481Y123863754D01*
X249601051Y123896075D01*
X249485318Y123940910D01*
X249275365Y123980157D01*
X249061775Y123980157D01*
X248851822Y123940910D01*
X248803976Y123922375D01*
X248652658Y123863754D01*
X248652652Y123863751D01*
X248471061Y123751315D01*
X248313213Y123607417D01*
X248184497Y123436970D01*
X248089293Y123245775D01*
X248030840Y123040331D01*
X248015050Y122869928D01*
X247989264Y122804991D01*
X247932463Y122764304D01*
X247862682Y122760784D01*
X247826302Y122775943D01*
X247684487Y122863751D01*
X247684481Y122863754D01*
X247601051Y122896075D01*
X247485318Y122940910D01*
X247275365Y122980157D01*
X247061775Y122980157D01*
X246851822Y122940910D01*
X246803976Y122922375D01*
X246652658Y122863754D01*
X246652652Y122863751D01*
X246492475Y122764573D01*
X246427198Y122746000D01*
X245409942Y122746000D01*
X245344665Y122764573D01*
X245184487Y122863751D01*
X245184481Y122863754D01*
X245101051Y122896075D01*
X244985318Y122940910D01*
X244775365Y122980157D01*
X244561775Y122980157D01*
X244351822Y122940910D01*
X244303976Y122922375D01*
X244152658Y122863754D01*
X244152652Y122863750D01*
X244010837Y122775943D01*
X243943476Y122757388D01*
X243876777Y122778196D01*
X243831916Y122831761D01*
X243822090Y122869924D01*
X243806299Y123040335D01*
X243747848Y123245771D01*
X243652643Y123436969D01*
X243523926Y123607417D01*
X243366082Y123751312D01*
X243366079Y123751314D01*
X243366078Y123751315D01*
X243184487Y123863751D01*
X243184481Y123863754D01*
X243101051Y123896075D01*
X242985318Y123940910D01*
X242775365Y123980157D01*
X242561775Y123980157D01*
X242351822Y123940910D01*
X242303976Y123922375D01*
X242152658Y123863754D01*
X242152652Y123863751D01*
X241971061Y123751315D01*
X241813215Y123607419D01*
X241806723Y123598823D01*
X241796609Y123585429D01*
X241740502Y123543794D01*
X241697657Y123536157D01*
X212033769Y123536157D01*
X211966730Y123555842D01*
X211934817Y123585428D01*
X211918212Y123607417D01*
X211760368Y123751312D01*
X211760365Y123751314D01*
X211760364Y123751315D01*
X211578773Y123863751D01*
X211578767Y123863754D01*
X211495338Y123896075D01*
X211379604Y123940910D01*
X211169651Y123980157D01*
X210956061Y123980157D01*
X210746108Y123940910D01*
X210698262Y123922375D01*
X210546944Y123863754D01*
X210546938Y123863751D01*
X210365347Y123751315D01*
X210207499Y123607417D01*
X210078783Y123436970D01*
X209983579Y123245775D01*
X209925126Y123040331D01*
X209909336Y122869928D01*
X209883550Y122804991D01*
X209826749Y122764304D01*
X209756968Y122760784D01*
X209720588Y122775943D01*
X209578773Y122863751D01*
X209578767Y122863754D01*
X209495338Y122896075D01*
X209379604Y122940910D01*
X209169651Y122980157D01*
X208956061Y122980157D01*
X208746108Y122940910D01*
X208698262Y122922375D01*
X208546944Y122863754D01*
X208546938Y122863751D01*
X208386761Y122764573D01*
X208321484Y122746000D01*
X207304228Y122746000D01*
X207238951Y122764573D01*
X207078773Y122863751D01*
X207078767Y122863754D01*
X206995338Y122896075D01*
X206879604Y122940910D01*
X206669651Y122980157D01*
X206456061Y122980157D01*
X206246108Y122940910D01*
X206198262Y122922375D01*
X206046944Y122863754D01*
X206046938Y122863750D01*
X205905123Y122775943D01*
X205837762Y122757388D01*
X205771063Y122778196D01*
X205726202Y122831761D01*
X205716376Y122869924D01*
X205700585Y123040335D01*
X205642134Y123245771D01*
X205546929Y123436969D01*
X205418212Y123607417D01*
X205260368Y123751312D01*
X205260365Y123751314D01*
X205260364Y123751315D01*
X205078773Y123863751D01*
X205078767Y123863754D01*
X204995338Y123896075D01*
X204879604Y123940910D01*
X204669651Y123980157D01*
X204456061Y123980157D01*
X204246108Y123940910D01*
X204198262Y123922375D01*
X204046944Y123863754D01*
X204046938Y123863751D01*
X203865347Y123751315D01*
X203707501Y123607419D01*
X203701009Y123598823D01*
X203690895Y123585429D01*
X203634788Y123543794D01*
X203591943Y123536157D01*
X173928055Y123536157D01*
X173861016Y123555842D01*
X173829103Y123585428D01*
X173812498Y123607417D01*
X173654654Y123751312D01*
X173654651Y123751314D01*
X173654650Y123751315D01*
X173473059Y123863751D01*
X173473053Y123863754D01*
X173389624Y123896075D01*
X173273890Y123940910D01*
X173063937Y123980157D01*
X172850347Y123980157D01*
X172640394Y123940910D01*
X172592548Y123922375D01*
X172441230Y123863754D01*
X172441224Y123863751D01*
X172259633Y123751315D01*
X172101785Y123607417D01*
X171973069Y123436970D01*
X171877865Y123245775D01*
X171819412Y123040331D01*
X171803622Y122869928D01*
X171777836Y122804991D01*
X171721035Y122764304D01*
X171651254Y122760784D01*
X171614874Y122775943D01*
X171473059Y122863751D01*
X171473053Y122863754D01*
X171389623Y122896075D01*
X171273890Y122940910D01*
X171063937Y122980157D01*
X170850347Y122980157D01*
X170640394Y122940910D01*
X170592548Y122922375D01*
X170441230Y122863754D01*
X170441224Y122863751D01*
X170281047Y122764573D01*
X170215770Y122746000D01*
X169198514Y122746000D01*
X169133237Y122764573D01*
X168973059Y122863751D01*
X168973053Y122863754D01*
X168889624Y122896075D01*
X168773890Y122940910D01*
X168563937Y122980157D01*
X168350347Y122980157D01*
X168140394Y122940910D01*
X168092548Y122922375D01*
X167941230Y122863754D01*
X167941224Y122863750D01*
X167799409Y122775943D01*
X167732048Y122757388D01*
X167665349Y122778196D01*
X167620488Y122831761D01*
X167610662Y122869924D01*
X167594871Y123040335D01*
X167536420Y123245771D01*
X167441215Y123436969D01*
X167312498Y123607417D01*
X167154654Y123751312D01*
X167154651Y123751314D01*
X167154650Y123751315D01*
X166973059Y123863751D01*
X166973053Y123863754D01*
X166889623Y123896075D01*
X166773890Y123940910D01*
X166563937Y123980157D01*
X166350347Y123980157D01*
X166140394Y123940910D01*
X166092548Y123922375D01*
X165941230Y123863754D01*
X165941224Y123863751D01*
X165759633Y123751315D01*
X165601787Y123607419D01*
X165595295Y123598823D01*
X165585181Y123585429D01*
X165529074Y123543794D01*
X165486229Y123536157D01*
X135822341Y123536157D01*
X135755302Y123555842D01*
X135723389Y123585428D01*
X135706784Y123607417D01*
X135548940Y123751312D01*
X135548937Y123751314D01*
X135548936Y123751315D01*
X135367345Y123863751D01*
X135367339Y123863754D01*
X135283909Y123896075D01*
X135168176Y123940910D01*
X134958223Y123980157D01*
X134744633Y123980157D01*
X134534680Y123940910D01*
X134486834Y123922375D01*
X134335516Y123863754D01*
X134335510Y123863751D01*
X134153919Y123751315D01*
X133996071Y123607417D01*
X133867355Y123436970D01*
X133772151Y123245775D01*
X133713698Y123040331D01*
X133697908Y122869928D01*
X133672122Y122804991D01*
X133615321Y122764304D01*
X133545540Y122760784D01*
X133509160Y122775943D01*
X133367345Y122863751D01*
X133367339Y122863754D01*
X133283909Y122896075D01*
X133168176Y122940910D01*
X132958223Y122980157D01*
X132744633Y122980157D01*
X132534680Y122940910D01*
X132486834Y122922375D01*
X132335516Y122863754D01*
X132335510Y122863751D01*
X132175333Y122764573D01*
X132110056Y122746000D01*
X131092800Y122746000D01*
X131027523Y122764573D01*
X130867345Y122863751D01*
X130867339Y122863754D01*
X130783909Y122896075D01*
X130668176Y122940910D01*
X130458223Y122980157D01*
X130244633Y122980157D01*
X130034680Y122940910D01*
X129986834Y122922375D01*
X129835516Y122863754D01*
X129835510Y122863750D01*
X129693695Y122775943D01*
X129626334Y122757388D01*
X129559635Y122778196D01*
X129514774Y122831761D01*
X129504948Y122869924D01*
X129489157Y123040335D01*
X129430706Y123245771D01*
X129335501Y123436969D01*
X129206784Y123607417D01*
X129048940Y123751312D01*
X129048937Y123751314D01*
X129048936Y123751315D01*
X128867345Y123863751D01*
X128867339Y123863754D01*
X128783909Y123896075D01*
X128668176Y123940910D01*
X128458223Y123980157D01*
X128244633Y123980157D01*
X128034680Y123940910D01*
X127986834Y123922375D01*
X127835516Y123863754D01*
X127835510Y123863751D01*
X127653919Y123751315D01*
X127496073Y123607419D01*
X127489581Y123598823D01*
X127479467Y123585429D01*
X127423360Y123543794D01*
X127380515Y123536157D01*
X97716627Y123536157D01*
X97649588Y123555842D01*
X97617675Y123585428D01*
X97601070Y123607417D01*
X97443226Y123751312D01*
X97443223Y123751314D01*
X97443222Y123751315D01*
X97261631Y123863751D01*
X97261625Y123863754D01*
X97178196Y123896075D01*
X97062462Y123940910D01*
X96852509Y123980157D01*
X96638919Y123980157D01*
X96428966Y123940910D01*
X96381120Y123922375D01*
X96229802Y123863754D01*
X96229796Y123863751D01*
X96048205Y123751315D01*
X95890357Y123607417D01*
X95761641Y123436970D01*
X95666437Y123245775D01*
X95607984Y123040331D01*
X95592194Y122869928D01*
X95566408Y122804991D01*
X95509607Y122764304D01*
X95439826Y122760784D01*
X95403446Y122775943D01*
X95261631Y122863751D01*
X95261625Y122863754D01*
X95178195Y122896075D01*
X95062462Y122940910D01*
X94852509Y122980157D01*
X94638919Y122980157D01*
X94428966Y122940910D01*
X94381120Y122922375D01*
X94229802Y122863754D01*
X94229796Y122863751D01*
X94069619Y122764573D01*
X94004342Y122746000D01*
X92987086Y122746000D01*
X92921809Y122764573D01*
X92761631Y122863751D01*
X92761625Y122863754D01*
X92678196Y122896075D01*
X92562462Y122940910D01*
X92352509Y122980157D01*
X92138919Y122980157D01*
X91928966Y122940910D01*
X91881120Y122922375D01*
X91729802Y122863754D01*
X91729796Y122863750D01*
X91587981Y122775943D01*
X91520620Y122757388D01*
X91453921Y122778196D01*
X91409060Y122831761D01*
X91399234Y122869924D01*
X91383443Y123040335D01*
X91324992Y123245771D01*
X91229787Y123436969D01*
X91101070Y123607417D01*
X90943226Y123751312D01*
X90943223Y123751314D01*
X90943222Y123751315D01*
X90761631Y123863751D01*
X90761625Y123863754D01*
X90678195Y123896075D01*
X90562462Y123940910D01*
X90352509Y123980157D01*
X90138919Y123980157D01*
X89928966Y123940910D01*
X89881120Y123922375D01*
X89729802Y123863754D01*
X89729796Y123863751D01*
X89548205Y123751315D01*
X89390359Y123607419D01*
X89383867Y123598823D01*
X89373753Y123585429D01*
X89317646Y123543794D01*
X89274801Y123536157D01*
X59610913Y123536157D01*
X59543874Y123555842D01*
X59511961Y123585428D01*
X59495356Y123607417D01*
X59337512Y123751312D01*
X59337509Y123751314D01*
X59337508Y123751315D01*
X59155917Y123863751D01*
X59155911Y123863754D01*
X59072481Y123896075D01*
X58956748Y123940910D01*
X58746795Y123980157D01*
X58533205Y123980157D01*
X58323252Y123940910D01*
X58275406Y123922375D01*
X58124088Y123863754D01*
X58124082Y123863751D01*
X57942491Y123751315D01*
X57784643Y123607417D01*
X57655927Y123436970D01*
X57560723Y123245775D01*
X57502270Y123040331D01*
X57486480Y122869928D01*
X57460694Y122804991D01*
X57403893Y122764304D01*
X57334112Y122760784D01*
X57297732Y122775943D01*
X57155917Y122863751D01*
X57155911Y122863754D01*
X57072482Y122896075D01*
X56956748Y122940910D01*
X56746795Y122980157D01*
X56533205Y122980157D01*
X56323252Y122940910D01*
X56275406Y122922375D01*
X56124088Y122863754D01*
X56124082Y122863751D01*
X55963905Y122764573D01*
X55898628Y122746000D01*
X54881372Y122746000D01*
X54816095Y122764573D01*
X54655917Y122863751D01*
X54655911Y122863754D01*
X54572481Y122896075D01*
X54456748Y122940910D01*
X54246795Y122980157D01*
X54033205Y122980157D01*
X53823252Y122940910D01*
X53775406Y122922375D01*
X53624088Y122863754D01*
X53624082Y122863750D01*
X53482267Y122775943D01*
X53414906Y122757388D01*
X53348207Y122778196D01*
X53303346Y122831761D01*
X53293520Y122869924D01*
X53277729Y123040335D01*
X53219278Y123245771D01*
X53124073Y123436969D01*
X52995356Y123607417D01*
X52837512Y123751312D01*
X52837509Y123751314D01*
X52837508Y123751315D01*
X52655917Y123863751D01*
X52655911Y123863754D01*
X52572482Y123896075D01*
X52456748Y123940910D01*
X52246795Y123980157D01*
X52033205Y123980157D01*
X51823252Y123940910D01*
X51775406Y123922375D01*
X51624088Y123863754D01*
X51624082Y123863751D01*
X51442491Y123751315D01*
X51284643Y123607417D01*
X51155927Y123436970D01*
X51060723Y123245775D01*
X51002270Y123040331D01*
X50993058Y122940910D01*
X50986481Y122869929D01*
X50985427Y122858559D01*
X50959641Y122793622D01*
X50902840Y122752934D01*
X50861956Y122746000D01*
X2063507Y122746000D01*
X1996468Y122765685D01*
X1950713Y122818489D01*
X1939558Y122866459D01*
X1936309Y122980157D01*
X1816015Y127190460D01*
X1833776Y127258033D01*
X1885252Y127305277D01*
X1939964Y127318000D01*
X326812000Y127318000D01*
X326879039Y127298315D01*
G37*
%TD.AperFunction*%
%TD*%
M02*
