%TF.GenerationSoftware,KiCad,Pcbnew,7.0.7*%
%TF.CreationDate,2024-11-29T17:58:44-06:00*%
%TF.ProjectId,updated_LOAF,75706461-7465-4645-9f4c-4f41462e6b69,rev?*%
%TF.SameCoordinates,PX2faf080PYee6b280*%
%TF.FileFunction,Soldermask,Bot*%
%TF.FilePolarity,Negative*%
%FSLAX46Y46*%
G04 Gerber Fmt 4.6, Leading zero omitted, Abs format (unit mm)*
G04 Created by KiCad (PCBNEW 7.0.7) date 2024-11-29 17:58:44*
%MOMM*%
%LPD*%
G01*
G04 APERTURE LIST*
G04 Aperture macros list*
%AMRoundRect*
0 Rectangle with rounded corners*
0 $1 Rounding radius*
0 $2 $3 $4 $5 $6 $7 $8 $9 X,Y pos of 4 corners*
0 Add a 4 corners polygon primitive as box body*
4,1,4,$2,$3,$4,$5,$6,$7,$8,$9,$2,$3,0*
0 Add four circle primitives for the rounded corners*
1,1,$1+$1,$2,$3*
1,1,$1+$1,$4,$5*
1,1,$1+$1,$6,$7*
1,1,$1+$1,$8,$9*
0 Add four rect primitives between the rounded corners*
20,1,$1+$1,$2,$3,$4,$5,0*
20,1,$1+$1,$4,$5,$6,$7,0*
20,1,$1+$1,$6,$7,$8,$9,0*
20,1,$1+$1,$8,$9,$2,$3,0*%
G04 Aperture macros list end*
%ADD10R,1.700000X1.700000*%
%ADD11O,1.700000X1.700000*%
%ADD12R,1.800000X1.800000*%
%ADD13C,1.800000*%
%ADD14C,3.200000*%
%ADD15C,5.600000*%
%ADD16C,2.400000*%
%ADD17RoundRect,0.102000X-0.644000X0.644000X-0.644000X-0.644000X0.644000X-0.644000X0.644000X0.644000X0*%
%ADD18C,1.492000*%
%ADD19RoundRect,0.250001X-1.399999X1.099999X-1.399999X-1.099999X1.399999X-1.099999X1.399999X1.099999X0*%
%ADD20O,3.300000X2.700000*%
%ADD21RoundRect,0.102000X-0.704000X-0.704000X0.704000X-0.704000X0.704000X0.704000X-0.704000X0.704000X0*%
%ADD22C,1.612000*%
%ADD23C,1.400000*%
%ADD24R,2.600000X2.600000*%
%ADD25C,2.600000*%
%ADD26R,1.498600X1.498600*%
%ADD27C,1.498600*%
G04 APERTURE END LIST*
D10*
%TO.C,JP1*%
X311955000Y192850000D03*
D11*
X309415000Y192850000D03*
%TD*%
D12*
%TO.C,D11*%
X136685000Y46165000D03*
D13*
X139225000Y46165000D03*
%TD*%
D14*
%TO.C,H18*%
X240576000Y53912000D03*
%TD*%
D12*
%TO.C,D7*%
X276534426Y46165000D03*
D13*
X279074426Y46165000D03*
%TD*%
D15*
%TO.C,H3*%
X350050000Y40450000D03*
%TD*%
D14*
%TO.C,H20*%
X316776000Y53912000D03*
%TD*%
D12*
%TO.C,D15*%
X289085000Y46165000D03*
D13*
X291625000Y46165000D03*
%TD*%
D14*
%TO.C,H9*%
X202476000Y179388000D03*
%TD*%
%TO.C,H8*%
X164376000Y179388000D03*
%TD*%
%TO.C,H16*%
X164376000Y53912000D03*
%TD*%
D10*
%TO.C,J11*%
X-18265000Y114115000D03*
D11*
X-18265000Y111575000D03*
X-20805000Y114115000D03*
X-20805000Y111575000D03*
X-23345000Y114115000D03*
X-23345000Y111575000D03*
%TD*%
D12*
%TO.C,D16*%
X327185000Y46165000D03*
D13*
X329725000Y46165000D03*
%TD*%
D16*
%TO.C,J5*%
X169707142Y114177657D03*
X169707142Y105027657D03*
D17*
X170957142Y125827657D03*
D18*
X172957142Y124827657D03*
X170957142Y123827657D03*
X172957142Y122827657D03*
X170957142Y121827657D03*
X172957142Y120827657D03*
X170957142Y119827657D03*
X172957142Y118827657D03*
X170957142Y117827657D03*
X172957142Y116827657D03*
X170957142Y115827657D03*
X172957142Y112827657D03*
X170957142Y111827657D03*
X172957142Y110827657D03*
X170957142Y109827657D03*
X172957142Y108827657D03*
X170957142Y107827657D03*
X172957142Y106827657D03*
X168457142Y125827657D03*
X166457142Y124827657D03*
X168457142Y123827657D03*
X166457142Y122827657D03*
X168457142Y121827657D03*
X166457142Y120827657D03*
X168457142Y119827657D03*
X166457142Y118827657D03*
X168457142Y117827657D03*
X166457142Y116827657D03*
X168457142Y115827657D03*
X166457142Y112827657D03*
X168457142Y111827657D03*
X166457142Y110827657D03*
X168457142Y109827657D03*
X166457142Y108827657D03*
X168457142Y107827657D03*
X166457142Y106827657D03*
%TD*%
D19*
%TO.C,J3*%
X-18250000Y175750000D03*
D20*
X-18250000Y171550000D03*
X-18250000Y167350000D03*
X-18250000Y163150000D03*
X-18250000Y158950000D03*
X-18250000Y154750000D03*
X-18250000Y150550000D03*
X-18250000Y146350000D03*
X-18250000Y142150000D03*
X-18250000Y137950000D03*
X-18250000Y133750000D03*
X-18250000Y129550000D03*
X-23750000Y175750000D03*
X-23750000Y171550000D03*
X-23750000Y167350000D03*
X-23750000Y163150000D03*
X-23750000Y158950000D03*
X-23750000Y154750000D03*
X-23750000Y150550000D03*
X-23750000Y146350000D03*
X-23750000Y142150000D03*
X-23750000Y137950000D03*
X-23750000Y133750000D03*
X-23750000Y129550000D03*
%TD*%
D12*
%TO.C,D14*%
X250985000Y46165000D03*
D13*
X253525000Y46165000D03*
%TD*%
D14*
%TO.C,H17*%
X202476000Y53912000D03*
%TD*%
%TO.C,H19*%
X278676000Y53912000D03*
%TD*%
D16*
%TO.C,J2*%
X93495714Y114177657D03*
X93495714Y105027657D03*
D17*
X94745714Y125827657D03*
D18*
X96745714Y124827657D03*
X94745714Y123827657D03*
X96745714Y122827657D03*
X94745714Y121827657D03*
X96745714Y120827657D03*
X94745714Y119827657D03*
X96745714Y118827657D03*
X94745714Y117827657D03*
X96745714Y116827657D03*
X94745714Y115827657D03*
X96745714Y112827657D03*
X94745714Y111827657D03*
X96745714Y110827657D03*
X94745714Y109827657D03*
X96745714Y108827657D03*
X94745714Y107827657D03*
X96745714Y106827657D03*
X92245714Y125827657D03*
X90245714Y124827657D03*
X92245714Y123827657D03*
X90245714Y122827657D03*
X92245714Y121827657D03*
X90245714Y120827657D03*
X92245714Y119827657D03*
X90245714Y118827657D03*
X92245714Y117827657D03*
X90245714Y116827657D03*
X92245714Y115827657D03*
X90245714Y112827657D03*
X92245714Y111827657D03*
X90245714Y110827657D03*
X92245714Y109827657D03*
X90245714Y108827657D03*
X92245714Y107827657D03*
X90245714Y106827657D03*
%TD*%
D12*
%TO.C,D6*%
X238451855Y46165000D03*
D13*
X240991855Y46165000D03*
%TD*%
D16*
%TO.C,J4*%
X131601428Y114177657D03*
X131601428Y105027657D03*
D17*
X132851428Y125827657D03*
D18*
X134851428Y124827657D03*
X132851428Y123827657D03*
X134851428Y122827657D03*
X132851428Y121827657D03*
X134851428Y120827657D03*
X132851428Y119827657D03*
X134851428Y118827657D03*
X132851428Y117827657D03*
X134851428Y116827657D03*
X132851428Y115827657D03*
X134851428Y112827657D03*
X132851428Y111827657D03*
X134851428Y110827657D03*
X132851428Y109827657D03*
X134851428Y108827657D03*
X132851428Y107827657D03*
X134851428Y106827657D03*
X130351428Y125827657D03*
X128351428Y124827657D03*
X130351428Y123827657D03*
X128351428Y122827657D03*
X130351428Y121827657D03*
X128351428Y120827657D03*
X130351428Y119827657D03*
X128351428Y118827657D03*
X130351428Y117827657D03*
X128351428Y116827657D03*
X130351428Y115827657D03*
X128351428Y112827657D03*
X130351428Y111827657D03*
X128351428Y110827657D03*
X130351428Y109827657D03*
X128351428Y108827657D03*
X130351428Y107827657D03*
X128351428Y106827657D03*
%TD*%
D12*
%TO.C,D10*%
X98585000Y46165000D03*
D13*
X101125000Y46165000D03*
%TD*%
D12*
%TO.C,D8*%
X314617000Y46165000D03*
D13*
X317157000Y46165000D03*
%TD*%
D21*
%TO.C,U1*%
X-18250000Y95035000D03*
D22*
X-18250000Y92495000D03*
X-18250000Y89955000D03*
X-18250000Y87415000D03*
X-18250000Y84875000D03*
X-18250000Y82335000D03*
X-18250000Y79795000D03*
X-18250000Y77255000D03*
X-18250000Y74715000D03*
X-18250000Y72175000D03*
X-18250000Y69635000D03*
X-18250000Y67095000D03*
X-18250000Y64555000D03*
X-18250000Y62015000D03*
X-18250000Y59475000D03*
X-18250000Y56935000D03*
X-18250000Y54395000D03*
X-18250000Y51855000D03*
X-18250000Y49315000D03*
X7150000Y95035000D03*
X7150000Y92495000D03*
X7150000Y89955000D03*
X7150000Y87415000D03*
X7150000Y84875000D03*
X7150000Y82335000D03*
X7150000Y79795000D03*
X7150000Y77255000D03*
X7150000Y74715000D03*
X7150000Y72175000D03*
X7150000Y69635000D03*
X7150000Y67095000D03*
X7150000Y64555000D03*
X7150000Y62015000D03*
X7150000Y59475000D03*
X7150000Y56935000D03*
X7150000Y54395000D03*
X7150000Y51855000D03*
X7150000Y49315000D03*
%TD*%
D16*
%TO.C,J8*%
X284024284Y114177657D03*
X284024284Y105027657D03*
D17*
X285274284Y125827657D03*
D18*
X287274284Y124827657D03*
X285274284Y123827657D03*
X287274284Y122827657D03*
X285274284Y121827657D03*
X287274284Y120827657D03*
X285274284Y119827657D03*
X287274284Y118827657D03*
X285274284Y117827657D03*
X287274284Y116827657D03*
X285274284Y115827657D03*
X287274284Y112827657D03*
X285274284Y111827657D03*
X287274284Y110827657D03*
X285274284Y109827657D03*
X287274284Y108827657D03*
X285274284Y107827657D03*
X287274284Y106827657D03*
X282774284Y125827657D03*
X280774284Y124827657D03*
X282774284Y123827657D03*
X280774284Y122827657D03*
X282774284Y121827657D03*
X280774284Y120827657D03*
X282774284Y119827657D03*
X280774284Y118827657D03*
X282774284Y117827657D03*
X280774284Y116827657D03*
X282774284Y115827657D03*
X280774284Y112827657D03*
X282774284Y111827657D03*
X280774284Y110827657D03*
X282774284Y109827657D03*
X280774284Y108827657D03*
X282774284Y107827657D03*
X280774284Y106827657D03*
%TD*%
D14*
%TO.C,H13*%
X50076000Y53912000D03*
%TD*%
%TO.C,H12*%
X316776000Y179388000D03*
%TD*%
D12*
%TO.C,D18*%
X-12667000Y190056000D03*
D13*
X-10127000Y190056000D03*
%TD*%
D23*
%TO.C,J14*%
X22285000Y53555000D03*
X32285000Y53555000D03*
%TD*%
D15*
%TO.C,H1*%
X-30950000Y192850000D03*
%TD*%
D14*
%TO.C,H15*%
X126276000Y53912000D03*
%TD*%
%TO.C,DRA2*%
X19850000Y104150000D03*
X19850000Y116650000D03*
X19850000Y129150000D03*
%TD*%
D15*
%TO.C,H4*%
X-30950000Y40450000D03*
%TD*%
D12*
%TO.C,D13*%
X212885000Y46165000D03*
D13*
X215425000Y46165000D03*
%TD*%
D12*
%TO.C,D2*%
X86121571Y46165000D03*
D13*
X88661571Y46165000D03*
%TD*%
D14*
%TO.C,H14*%
X88176000Y53912000D03*
%TD*%
%TO.C,H10*%
X240576000Y179388000D03*
%TD*%
%TO.C,DRA1*%
X305600000Y104150000D03*
X305600000Y116650000D03*
X305600000Y129150000D03*
%TD*%
D24*
%TO.C,J9*%
X21040000Y190615000D03*
D25*
X16040000Y190615000D03*
%TD*%
D15*
%TO.C,H2*%
X350050000Y192850000D03*
%TD*%
D12*
%TO.C,D17*%
X-24351000Y190056000D03*
D13*
X-21811000Y190056000D03*
%TD*%
D26*
%TO.C,U2*%
X26200000Y91250000D03*
D27*
X26200000Y88710000D03*
X26200000Y86170000D03*
X26200000Y83630000D03*
X33820000Y83630000D03*
X33820000Y86170000D03*
X33820000Y88710000D03*
X33820000Y91250000D03*
%TD*%
D16*
%TO.C,J6*%
X207812856Y114177657D03*
X207812856Y105027657D03*
D17*
X209062856Y125827657D03*
D18*
X211062856Y124827657D03*
X209062856Y123827657D03*
X211062856Y122827657D03*
X209062856Y121827657D03*
X211062856Y120827657D03*
X209062856Y119827657D03*
X211062856Y118827657D03*
X209062856Y117827657D03*
X211062856Y116827657D03*
X209062856Y115827657D03*
X211062856Y112827657D03*
X209062856Y111827657D03*
X211062856Y110827657D03*
X209062856Y109827657D03*
X211062856Y108827657D03*
X209062856Y107827657D03*
X211062856Y106827657D03*
X206562856Y125827657D03*
X204562856Y124827657D03*
X206562856Y123827657D03*
X204562856Y122827657D03*
X206562856Y121827657D03*
X204562856Y120827657D03*
X206562856Y119827657D03*
X204562856Y118827657D03*
X206562856Y117827657D03*
X204562856Y116827657D03*
X206562856Y115827657D03*
X204562856Y112827657D03*
X206562856Y111827657D03*
X204562856Y110827657D03*
X206562856Y109827657D03*
X204562856Y108827657D03*
X206562856Y107827657D03*
X204562856Y106827657D03*
%TD*%
D12*
%TO.C,D19*%
X-1491000Y190056000D03*
D13*
X1049000Y190056000D03*
%TD*%
D14*
%TO.C,H7*%
X126276000Y179388000D03*
%TD*%
%TO.C,H6*%
X88176000Y179388000D03*
%TD*%
D24*
%TO.C,J12*%
X339895000Y191885000D03*
D25*
X334815000Y191885000D03*
X329735000Y191885000D03*
%TD*%
D12*
%TO.C,D4*%
X162286713Y46165000D03*
D13*
X164826713Y46165000D03*
%TD*%
D12*
%TO.C,D5*%
X200369284Y46165000D03*
D13*
X202909284Y46165000D03*
%TD*%
D16*
%TO.C,J1*%
X55390000Y114177657D03*
X55390000Y105027657D03*
D17*
X56640000Y125827657D03*
D18*
X58640000Y124827657D03*
X56640000Y123827657D03*
X58640000Y122827657D03*
X56640000Y121827657D03*
X58640000Y120827657D03*
X56640000Y119827657D03*
X58640000Y118827657D03*
X56640000Y117827657D03*
X58640000Y116827657D03*
X56640000Y115827657D03*
X58640000Y112827657D03*
X56640000Y111827657D03*
X58640000Y110827657D03*
X56640000Y109827657D03*
X58640000Y108827657D03*
X56640000Y107827657D03*
X58640000Y106827657D03*
X54140000Y125827657D03*
X52140000Y124827657D03*
X54140000Y123827657D03*
X52140000Y122827657D03*
X54140000Y121827657D03*
X52140000Y120827657D03*
X54140000Y119827657D03*
X52140000Y118827657D03*
X54140000Y117827657D03*
X52140000Y116827657D03*
X54140000Y115827657D03*
X52140000Y112827657D03*
X54140000Y111827657D03*
X52140000Y110827657D03*
X54140000Y109827657D03*
X52140000Y108827657D03*
X54140000Y107827657D03*
X52140000Y106827657D03*
%TD*%
D12*
%TO.C,D3*%
X124204142Y46165000D03*
D13*
X126744142Y46165000D03*
%TD*%
D12*
%TO.C,D12*%
X174785000Y46165000D03*
D13*
X177325000Y46165000D03*
%TD*%
D12*
%TO.C,D1*%
X48039000Y46165000D03*
D13*
X50579000Y46165000D03*
%TD*%
D12*
%TO.C,D9*%
X60485000Y46165000D03*
D13*
X63025000Y46165000D03*
%TD*%
D14*
%TO.C,H11*%
X278676000Y179388000D03*
%TD*%
D10*
%TO.C,JP2*%
X4864000Y176340000D03*
D11*
X2324000Y176340000D03*
X-216000Y176340000D03*
%TD*%
D16*
%TO.C,J7*%
X245918570Y114177657D03*
X245918570Y105027657D03*
D17*
X247168570Y125827657D03*
D18*
X249168570Y124827657D03*
X247168570Y123827657D03*
X249168570Y122827657D03*
X247168570Y121827657D03*
X249168570Y120827657D03*
X247168570Y119827657D03*
X249168570Y118827657D03*
X247168570Y117827657D03*
X249168570Y116827657D03*
X247168570Y115827657D03*
X249168570Y112827657D03*
X247168570Y111827657D03*
X249168570Y110827657D03*
X247168570Y109827657D03*
X249168570Y108827657D03*
X247168570Y107827657D03*
X249168570Y106827657D03*
X244668570Y125827657D03*
X242668570Y124827657D03*
X244668570Y123827657D03*
X242668570Y122827657D03*
X244668570Y121827657D03*
X242668570Y120827657D03*
X244668570Y119827657D03*
X242668570Y118827657D03*
X244668570Y117827657D03*
X242668570Y116827657D03*
X244668570Y115827657D03*
X242668570Y112827657D03*
X244668570Y111827657D03*
X242668570Y110827657D03*
X244668570Y109827657D03*
X242668570Y108827657D03*
X244668570Y107827657D03*
X242668570Y106827657D03*
%TD*%
D16*
%TO.C,J10*%
X322130000Y114177657D03*
X322130000Y105027657D03*
D17*
X323380000Y125827657D03*
D18*
X325380000Y124827657D03*
X323380000Y123827657D03*
X325380000Y122827657D03*
X323380000Y121827657D03*
X325380000Y120827657D03*
X323380000Y119827657D03*
X325380000Y118827657D03*
X323380000Y117827657D03*
X325380000Y116827657D03*
X323380000Y115827657D03*
X325380000Y112827657D03*
X323380000Y111827657D03*
X325380000Y110827657D03*
X323380000Y109827657D03*
X325380000Y108827657D03*
X323380000Y107827657D03*
X325380000Y106827657D03*
X320880000Y125827657D03*
X318880000Y124827657D03*
X320880000Y123827657D03*
X318880000Y122827657D03*
X320880000Y121827657D03*
X318880000Y120827657D03*
X320880000Y119827657D03*
X318880000Y118827657D03*
X320880000Y117827657D03*
X318880000Y116827657D03*
X320880000Y115827657D03*
X318880000Y112827657D03*
X320880000Y111827657D03*
X318880000Y110827657D03*
X320880000Y109827657D03*
X318880000Y108827657D03*
X320880000Y107827657D03*
X318880000Y106827657D03*
%TD*%
D14*
%TO.C,H5*%
X50076000Y179388000D03*
%TD*%
M02*
